<svg xmlns="http://www.w3.org/2000/svg" xmlns:xlink="http://www.w3.org/1999/xlink" width="645.53125" height="93.953125" style="width:645.53125px;height:93.953125px;font-family:Asana-Math, Asana;background:#FFF;"><g><g><g><g transform="matrix(1,0,0,1,2,52.25)"><path transform="matrix(0.017,0,0,-0.017,0,0)" d="M413 469L254 104C251 113 166 397 166 405C166 420 179 428 204 429L244 431L244 459C145 456 145 456 125 456C105 456 105 456 6 459L6 431L34 429C62 427 75 407 100 329L202 -7L249 -7L399 335L535 -7L581 -7L718 342C748 409 760 426 782 429L808 431L808 459C726 456 726 456 710 456C694 456 694 456 612 459L612 431L646 429C671 428 685 416 685 398L580 98L465 388C451 422 444 442 436 469Z" stroke="rgb(0,0,0)" stroke-opacity="1" stroke-width="8" fill="rgb(0,0,0)" fill-opacity="1"></path></g></g><g><g transform="matrix(1,0,0,1,16.171875,52.25)"><path transform="matrix(0.017,0,0,-0.017,0,0)" d="M146 266C146 526 243 632 301 700L282 726C225 675 60 542 60 266C60 159 85 58 133 -32C168 -99 200 -138 282 -215L301 -194C255 -137 146 -15 146 266Z" stroke="rgb(0,0,0)" stroke-opacity="1" stroke-width="8" fill="rgb(0,0,0)" fill-opacity="1"></path></g></g><g><g transform="matrix(1,0,0,1,21.828125,52.25)"><path transform="matrix(0.017,0,0,-0.017,0,0)" d="M98 382L98 94C98 20 131 -12 208 -12C231 -12 255 -7 261 0L309 53L296 70C271 56 256 51 237 51C198 51 182 71 182 120L182 382L310 382L319 436L182 430L182 468C182 510 185 546 193 610L181 621C157 606 127 593 96 583C99 553 100 534 100 504L100 434L22 399L22 378Z" stroke="rgb(0,0,0)" stroke-opacity="1" stroke-width="8" fill="rgb(0,0,0)" fill-opacity="1"></path></g></g><g><g><g><g><g transform="matrix(1,0,0,1,27.859375,55.259375)"><path transform="matrix(0.0119,0,0,-0.0119,0,0)" d="M410 -3C471 0 472 0 489 0C503 0 503 0 572 -3L572 27L531 30C497 32 494 38 494 102L494 295C494 412 439 469 327 469C290 469 269 462 248 444L172 378L172 465L163 469C112 448 60 434 7 428L7 400L44 400C84 400 88 393 88 327L88 102C88 39 85 32 51 30L6 27L6 -3C74 -1 101 0 130 0C159 0 186 -1 254 -3L254 27L209 30C175 32 172 39 172 102L172 314C172 359 238 408 299 408C366 408 410 358 410 281ZM860 469C714 469 613 366 613 217C613 76 702 -20 831 -20C985 -20 1095 87 1095 237C1095 372 997 469 860 469ZM842 436C934 436 1002 336 1002 200C1002 85 951 13 870 13C772 13 706 109 706 251C706 371 754 436 842 436ZM1539 469L1380 104C1377 113 1292 397 1292 405C1292 420 1305 428 1330 429L1370 431L1370 459C1271 456 1271 456 1251 456C1231 456 1231 456 1132 459L1132 431L1160 429C1188 427 1201 407 1226 329L1328 -7L1375 -7L1525 335L1661 -7L1707 -7L1844 342C1874 409 1886 426 1908 429L1934 431L1934 459C1852 456 1852 456 1836 456C1820 456 1820 456 1738 459L1738 431L1772 429C1797 428 1811 416 1811 398L1706 98L1591 388C1577 422 1570 442 1562 469Z" stroke="rgb(0,0,0)" stroke-opacity="1" stroke-width="8" fill="rgb(0,0,0)" fill-opacity="1"></path></g></g></g></g></g><g><g transform="matrix(1,0,0,1,55.578125,52.25)"><path transform="matrix(0.017,0,0,-0.017,0,0)" d="M555 243L555 299L51 299L51 243Z" stroke="rgb(0,0,0)" stroke-opacity="1" stroke-width="8" fill="rgb(0,0,0)" fill-opacity="1"></path></g></g><g><g transform="matrix(1,0,0,1,69.265625,52.25)"><path transform="matrix(0.017,0,0,-0.017,0,0)" d="M98 382L98 94C98 20 131 -12 208 -12C231 -12 255 -7 261 0L309 53L296 70C271 56 256 51 237 51C198 51 182 71 182 120L182 382L310 382L319 436L182 430L182 468C182 510 185 546 193 610L181 621C157 606 127 593 96 583C99 553 100 534 100 504L100 434L22 399L22 378Z" stroke="rgb(0,0,0)" stroke-opacity="1" stroke-width="8" fill="rgb(0,0,0)" fill-opacity="1"></path></g></g><g><g><g><g><g transform="matrix(1,0,0,1,75.296875,55.259375)"><path transform="matrix(0.0119,0,0,-0.0119,0,0)" d="M188 465L179 469C128 448 76 434 23 428L23 400L60 400C100 400 104 393 104 327L104 102C104 39 101 32 67 30L21 27L21 -3C121 0 121 0 146 0C171 0 171 0 271 -3L271 27L225 30C191 32 188 39 188 102ZM142 687C112 687 86 661 86 631C86 602 112 576 141 576C170 576 197 602 197 631C197 659 170 687 142 687Z" stroke="rgb(0,0,0)" stroke-opacity="1" stroke-width="8" fill="rgb(0,0,0)" fill-opacity="1"></path></g></g></g></g></g><g><g transform="matrix(1,0,0,1,79.765625,52.25)"><path transform="matrix(0.017,0,0,-0.017,0,0)" d="M51 726L32 700C87 636 187 526 187 266C187 -10 83 -131 32 -194L51 -215C104 -165 273 -23 273 265C273 542 108 675 51 726Z" stroke="rgb(0,0,0)" stroke-opacity="1" stroke-width="8" fill="rgb(0,0,0)" fill-opacity="1"></path></g></g><g><g transform="matrix(1,0,0,1,90.515625,52.25)"><path transform="matrix(0.017,0,0,-0.017,0,0)" d="M604 347L604 406L65 406L65 347ZM604 134L604 193L65 193L65 134Z" stroke="rgb(0,0,0)" stroke-opacity="1" stroke-width="8" fill="rgb(0,0,0)" fill-opacity="1"></path></g></g><g><g transform="matrix(1,0,0,1,106.96875,52.25)"><path transform="matrix(0.017,0,0,-0.017,0,0)" d="M413 469L254 104C251 113 166 397 166 405C166 420 179 428 204 429L244 431L244 459C145 456 145 456 125 456C105 456 105 456 6 459L6 431L34 429C62 427 75 407 100 329L202 -7L249 -7L399 335L535 -7L581 -7L718 342C748 409 760 426 782 429L808 431L808 459C726 456 726 456 710 456C694 456 694 456 612 459L612 431L646 429C671 428 685 416 685 398L580 98L465 388C451 422 444 442 436 469Z" stroke="rgb(0,0,0)" stroke-opacity="1" stroke-width="8" fill="rgb(0,0,0)" fill-opacity="1"></path></g></g><g><g transform="matrix(1,0,0,1,121.140625,52.25)"><path transform="matrix(0.017,0,0,-0.017,0,0)" d="M146 266C146 526 243 632 301 700L282 726C225 675 60 542 60 266C60 159 85 58 133 -32C168 -99 200 -138 282 -215L301 -194C255 -137 146 -15 146 266Z" stroke="rgb(0,0,0)" stroke-opacity="1" stroke-width="8" fill="rgb(0,0,0)" fill-opacity="1"></path></g></g><g><g transform="matrix(1,0,0,1,126.796875,52.25)"><path transform="matrix(0.017,0,0,-0.017,0,0)" d="M27 6L34 -4C140 0 246 0 353 0C454 0 555 -1 656 -4L662 6L362 697L337 697C294 590 92 128 27 6ZM537 37L105 37C171 215 242 389 318 564L325 564C400 391 472 215 537 37ZM786 382L786 94C786 20 819 -12 896 -12C919 -12 943 -7 949 0L997 53L984 70C959 56 944 51 925 51C886 51 870 71 870 120L870 382L998 382L1007 436L870 430L870 468C870 510 873 546 881 610L869 621C845 606 815 593 784 583C787 553 788 534 788 504L788 434L710 399L710 378Z" stroke="rgb(0,0,0)" stroke-opacity="1" stroke-width="8" fill="rgb(0,0,0)" fill-opacity="1"></path></g></g><g><g transform="matrix(1,0,0,1,144.03125,52.25)"><path transform="matrix(0.017,0,0,-0.017,0,0)" d="M51 726L32 700C87 636 187 526 187 266C187 -10 83 -131 32 -194L51 -215C104 -165 273 -23 273 265C273 542 108 675 51 726Z" stroke="rgb(0,0,0)" stroke-opacity="1" stroke-width="8" fill="rgb(0,0,0)" fill-opacity="1"></path></g></g><g><g transform="matrix(1,0,0,1,149.6875,52.25)"><path transform="matrix(0.017,0,0,-0.017,0,0)" d="" stroke="rgb(0,0,0)" stroke-opacity="1" stroke-width="8" fill="rgb(0,0,0)" fill-opacity="1"></path></g></g><g><g transform="matrix(1,0,0,1,159.015625,52.25)"><path transform="matrix(0.017,0,0,-0.017,0,0)" d="M604 347L604 406L65 406L65 347ZM604 134L604 193L65 193L65 134Z" stroke="rgb(0,0,0)" stroke-opacity="1" stroke-width="8" fill="rgb(0,0,0)" fill-opacity="1"></path></g></g><g><g transform="matrix(1,0,0,1,175.46875,52.25)"><path transform="matrix(0.017,0,0,-0.017,0,0)" d="" stroke="rgb(0,0,0)" stroke-opacity="1" stroke-width="8" fill="rgb(0,0,0)" fill-opacity="1"></path></g></g><g><g><g><g><g transform="matrix(1,0,0,1,192.59375,20)"><path transform="matrix(0.017,0,0,-0.017,0,0)" d="M413 469L254 104C251 113 166 397 166 405C166 420 179 428 204 429L244 431L244 459C145 456 145 456 125 456C105 456 105 456 6 459L6 431L34 429C62 427 75 407 100 329L202 -7L249 -7L399 335L535 -7L581 -7L718 342C748 409 760 426 782 429L808 431L808 459C726 456 726 456 710 456C694 456 694 456 612 459L612 431L646 429C671 428 685 416 685 398L580 98L465 388C451 422 444 442 436 469Z" stroke="rgb(0,0,0)" stroke-opacity="1" stroke-width="8" fill="rgb(0,0,0)" fill-opacity="1"></path></g></g><g><g><g><g><g transform="matrix(1,0,0,1,207.265625,23.009375)"><path transform="matrix(0.0119,0,0,-0.0119,0,0)" d="M18 400L55 400C95 400 99 393 99 327L99 102C99 39 96 32 62 30L16 27L16 -3C112 0 115 0 143 0C171 0 197 -1 262 -3L262 27L220 30C186 32 183 39 183 102L183 314C183 359 249 408 309 408C363 408 400 357 400 281L400 102C400 39 397 32 363 30L317 27L317 -3C417 0 417 0 442 0C467 0 467 0 567 -3L567 27L521 30C487 32 484 39 484 102L484 314C484 359 550 408 610 408C664 408 701 357 701 281L701 -3C762 0 763 0 780 0C793 0 793 0 869 -3L869 27L822 30C788 32 785 39 785 102L785 308C785 407 727 469 635 469C600 469 571 460 553 444L477 376C445 442 404 469 335 469C298 469 270 460 252 444L183 380L183 465L174 469C123 448 71 434 18 428ZM1070 465L1061 469C1010 448 958 434 905 428L905 400L942 400C982 400 986 393 986 327L986 102C986 39 983 32 949 30L903 27L903 -3C1003 0 1003 0 1028 0C1053 0 1053 0 1153 -3L1153 27L1107 30C1073 32 1070 39 1070 102ZM1024 687C994 687 968 661 968 631C968 602 994 576 1023 576C1052 576 1079 602 1079 631C1079 659 1052 687 1024 687ZM1582 -3C1643 0 1644 0 1661 0C1675 0 1675 0 1744 -3L1744 27L1703 30C1669 32 1666 38 1666 102L1666 295C1666 412 1611 469 1499 469C1462 469 1441 462 1420 444L1344 378L1344 465L1335 469C1284 448 1232 434 1179 428L1179 400L1216 400C1256 400 1260 393 1260 327L1260 102C1260 39 1257 32 1223 30L1178 27L1178 -3C1246 -1 1273 0 1302 0C1331 0 1358 -1 1426 -3L1426 27L1381 30C1347 32 1344 39 1344 102L1344 314C1344 359 1410 408 1471 408C1538 408 1582 358 1582 281Z" stroke="rgb(0,0,0)" stroke-opacity="1" stroke-width="8" fill="rgb(0,0,0)" fill-opacity="1"></path></g></g></g></g></g></g></g><g><g><g><g transform="matrix(1,0,0,1,455.25,20)"><path transform="matrix(0.017,0,0,-0.017,0,0)" d="M27 6L34 -4C140 0 246 0 353 0C454 0 555 -1 656 -4L662 6L362 697L337 697C294 590 92 128 27 6ZM537 37L105 37C171 215 242 389 318 564L325 564C400 391 472 215 537 37ZM786 382L786 94C786 20 819 -12 896 -12C919 -12 943 -7 949 0L997 53L984 70C959 56 944 51 925 51C886 51 870 71 870 120L870 382L998 382L1007 436L870 430L870 468C870 510 873 546 881 610L869 621C845 606 815 593 784 583C787 553 788 534 788 504L788 434L710 399L710 378Z" stroke="rgb(0,0,0)" stroke-opacity="1" stroke-width="8" fill="rgb(0,0,0)" fill-opacity="1"></path></g></g><g><g transform="matrix(1,0,0,1,477.578125,20)"><path transform="matrix(0.017,0,0,-0.017,0,0)" d="M65 0L604 252L604 273L65 528L65 469L503 264L65 59Z" stroke="rgb(0,0,0)" stroke-opacity="1" stroke-width="8" fill="rgb(0,0,0)" fill-opacity="1"></path></g></g><g><g transform="matrix(1,0,0,1,494.03125,20)"><path transform="matrix(0.017,0,0,-0.017,0,0)" d="M341 717C317 731 295 737 274 737C163 737 106 555 106 478L106 476L106 434L37 403L37 381L106 385L106 102C106 39 103 32 69 30L23 27L23 -3C123 0 123 0 148 0C173 0 173 0 273 -3L273 27L227 30C193 32 190 39 190 102L190 385L314 385L321 438L190 434L190 519C190 634 203 662 260 662C287 662 305 655 329 634L341 640ZM615 49C535 49 515 94 515 170L515 465L506 469C455 448 403 434 350 428L350 400L387 400C427 400 431 393 431 327L431 159C431 70 436 -12 572 -12C617 -12 657 2 684 27L751 89C751 60 750 44 747 -3C814 0 815 0 830 0C844 0 844 0 913 -3L913 27L872 30C838 32 835 38 835 102L835 465L826 469C775 448 723 434 670 428L670 400L707 400C747 400 751 393 751 327L751 164C751 126 702 49 615 49ZM957 661L1013 661C1031 661 1038 650 1038 620L1038 102C1038 39 1035 32 1001 30L955 27L955 -3C1055 0 1055 0 1080 0C1105 0 1105 0 1205 -3L1205 27L1159 30C1125 32 1122 39 1122 102L1122 718L1113 726C1069 709 1036 701 957 689ZM1247 661L1303 661C1321 661 1328 650 1328 620L1328 102C1328 39 1325 32 1291 30L1245 27L1245 -3C1345 0 1345 0 1370 0C1395 0 1395 0 1495 -3L1495 27L1449 30C1415 32 1412 39 1412 102L1412 718L1403 726C1359 709 1326 701 1247 689Z" stroke="rgb(0,0,0)" stroke-opacity="1" stroke-width="8" fill="rgb(0,0,0)" fill-opacity="1"></path></g></g><g><g transform="matrix(1,0,0,1,523.171875,20)"><path transform="matrix(0.017,0,0,-0.017,0,0)" d="M604 241L604 300L364 300L364 538L305 538L305 300L65 300L65 241L305 241L305 0L364 0L364 241Z" stroke="rgb(0,0,0)" stroke-opacity="1" stroke-width="8" fill="rgb(0,0,0)" fill-opacity="1"></path></g></g><g><g transform="matrix(1,0,0,1,537.921875,20)"><path transform="matrix(0.017,0,0,-0.017,0,0)" d="M579 -3L579 27L533 30C499 32 496 39 496 102L496 718L487 726C443 709 410 701 331 689L331 661L387 661C405 661 412 650 412 620L412 437C384 472 346 486 306 486C183 486 34 351 34 229C34 149 62 70 111 30C145 1 192 -12 257 -12C277 -12 300 -8 305 -4L416 89L411 -3C460 -1 476 0 488 0C506 0 570 -3 579 -3ZM412 350L412 221C412 156 410 146 397 123C369 76 320 45 273 45C185 45 122 130 122 249C122 358 176 422 266 422C345 422 412 366 412 350ZM860 -20C925 -20 1015 18 1027 36L1047 70L1034 80C970 42 947 33 904 33C839 33 785 62 757 111C738 144 731 172 729 230C750 227 780 226 814 226C900 226 1009 234 1056 244C1057 258 1058 267 1058 279C1058 394 984 469 872 469C835 469 790 464 750 440C668 392 636 323 636 219C636 25 771 -20 860 -20ZM969 267C945 264 894 261 843 261C800 261 757 264 731 270C731 317 735 339 748 365C769 409 812 436 860 436C893 436 919 423 937 396C959 363 966 334 969 267ZM1487 311C1487 357 1492 398 1501 434C1469 478 1426 497 1381 497C1257 497 1113 361 1113 224C1113 219 1114 215 1114 210C1114 75 1209 -20 1343 -20C1395 -20 1470 -1 1480 14L1501 46L1491 61C1454 41 1422 32 1386 32C1275 32 1202 118 1202 250C1202 357 1252 417 1342 417C1386 417 1434 397 1452 372L1459 311ZM1554 661L1610 661C1628 661 1635 650 1635 620L1635 102C1635 39 1632 32 1598 30L1552 27L1552 -3C1652 0 1652 0 1677 0C1702 0 1702 0 1802 -3L1802 27L1756 30C1722 32 1719 39 1719 102L1719 718L1710 726C1666 709 1633 701 1554 689ZM2009 465L2000 469C1949 448 1897 434 1844 428L1844 400L1881 400C1921 400 1925 393 1925 327L1925 102C1925 39 1922 32 1888 30L1842 27L1842 -3C1942 0 1942 0 1967 0C1992 0 1992 0 2092 -3L2092 27L2046 30C2012 32 2009 39 2009 102ZM1963 687C1933 687 1907 661 1907 631C1907 602 1933 576 1962 576C1991 576 2018 602 2018 631C2018 659 1991 687 1963 687ZM2521 -3C2582 0 2583 0 2600 0C2614 0 2614 0 2683 -3L2683 27L2642 30C2608 32 2605 38 2605 102L2605 295C2605 412 2550 469 2438 469C2401 469 2380 462 2359 444L2283 378L2283 465L2274 469C2223 448 2171 434 2118 428L2118 400L2155 400C2195 400 2199 393 2199 327L2199 102C2199 39 2196 32 2162 30L2117 27L2117 -3C2185 -1 2212 0 2241 0C2270 0 2297 -1 2365 -3L2365 27L2320 30C2286 32 2283 39 2283 102L2283 314C2283 359 2349 408 2410 408C2477 408 2521 358 2521 281ZM2942 -20C3007 -20 3097 18 3109 36L3129 70L3116 80C3052 42 3029 33 2986 33C2921 33 2867 62 2839 111C2820 144 2813 172 2811 230C2832 227 2862 226 2896 226C2982 226 3091 234 3138 244C3139 258 3140 267 3140 279C3140 394 3066 469 2954 469C2917 469 2872 464 2832 440C2750 392 2718 323 2718 219C2718 25 2853 -20 2942 -20ZM3051 267C3027 264 2976 261 2925 261C2882 261 2839 264 2813 270C2813 317 2817 339 2830 365C2851 409 2894 436 2942 436C2975 436 3001 423 3019 396C3041 363 3048 334 3051 267Z" stroke="rgb(0,0,0)" stroke-opacity="1" stroke-width="8" fill="rgb(0,0,0)" fill-opacity="1"></path></g></g></g></g><g><g><g><g transform="matrix(1,0,0,1,192.59375,55.78125)"><path transform="matrix(0.017,0,0,-0.017,0,0)" d="M413 469L254 104C251 113 166 397 166 405C166 420 179 428 204 429L244 431L244 459C145 456 145 456 125 456C105 456 105 456 6 459L6 431L34 429C62 427 75 407 100 329L202 -7L249 -7L399 335L535 -7L581 -7L718 342C748 409 760 426 782 429L808 431L808 459C726 456 726 456 710 456C694 456 694 456 612 459L612 431L646 429C671 428 685 416 685 398L580 98L465 388C451 422 444 442 436 469Z" stroke="rgb(0,0,0)" stroke-opacity="1" stroke-width="8" fill="rgb(0,0,0)" fill-opacity="1"></path></g></g><g><g><g><g><g transform="matrix(1,0,0,1,207.265625,58.790625)"><path transform="matrix(0.0119,0,0,-0.0119,0,0)" d="M18 400L55 400C95 400 99 393 99 327L99 102C99 39 96 32 62 30L16 27L16 -3C112 0 115 0 143 0C171 0 197 -1 262 -3L262 27L220 30C186 32 183 39 183 102L183 314C183 359 249 408 309 408C363 408 400 357 400 281L400 102C400 39 397 32 363 30L317 27L317 -3C417 0 417 0 442 0C467 0 467 0 567 -3L567 27L521 30C487 32 484 39 484 102L484 314C484 359 550 408 610 408C664 408 701 357 701 281L701 -3C762 0 763 0 780 0C793 0 793 0 869 -3L869 27L822 30C788 32 785 39 785 102L785 308C785 407 727 469 635 469C600 469 571 460 553 444L477 376C445 442 404 469 335 469C298 469 270 460 252 444L183 380L183 465L174 469C123 448 71 434 18 428ZM1070 465L1061 469C1010 448 958 434 905 428L905 400L942 400C982 400 986 393 986 327L986 102C986 39 983 32 949 30L903 27L903 -3C1003 0 1003 0 1028 0C1053 0 1053 0 1153 -3L1153 27L1107 30C1073 32 1070 39 1070 102ZM1024 687C994 687 968 661 968 631C968 602 994 576 1023 576C1052 576 1079 602 1079 631C1079 659 1052 687 1024 687ZM1582 -3C1643 0 1644 0 1661 0C1675 0 1675 0 1744 -3L1744 27L1703 30C1669 32 1666 38 1666 102L1666 295C1666 412 1611 469 1499 469C1462 469 1441 462 1420 444L1344 378L1344 465L1335 469C1284 448 1232 434 1179 428L1179 400L1216 400C1256 400 1260 393 1260 327L1260 102C1260 39 1257 32 1223 30L1178 27L1178 -3C1246 -1 1273 0 1302 0C1331 0 1358 -1 1426 -3L1426 27L1381 30C1347 32 1344 39 1344 102L1344 314C1344 359 1410 408 1471 408C1538 408 1582 358 1582 281Z" stroke="rgb(0,0,0)" stroke-opacity="1" stroke-width="8" fill="rgb(0,0,0)" fill-opacity="1"></path></g></g></g></g></g><g><g><g><g><g transform="matrix(1,0,0,1,230.84375,43.390625)"><path transform="matrix(0.017,0,0,-0.017,0,0)" d="M27 6L34 -4C140 0 246 0 353 0C454 0 555 -1 656 -4L662 6L362 697L337 697C294 590 92 128 27 6ZM537 37L105 37C171 215 242 389 318 564L325 564C400 391 472 215 537 37ZM786 382L786 94C786 20 819 -12 896 -12C919 -12 943 -7 949 0L997 53L984 70C959 56 944 51 925 51C886 51 870 71 870 120L870 382L998 382L1007 436L870 430L870 468C870 510 873 546 881 610L869 621C845 606 815 593 784 583C787 553 788 534 788 504L788 434L710 399L710 378Z" stroke="rgb(0,0,0)" stroke-opacity="1" stroke-width="8" fill="rgb(0,0,0)" fill-opacity="1"></path></g></g><g><g transform="matrix(1,0,0,1,251.46875,43.390625)"><path transform="matrix(0.017,0,0,-0.017,0,0)" d="M555 243L555 299L51 299L51 243Z" stroke="rgb(0,0,0)" stroke-opacity="1" stroke-width="8" fill="rgb(0,0,0)" fill-opacity="1"></path></g></g><g><g transform="matrix(1,0,0,1,265.15625,43.390625)"><path transform="matrix(0.017,0,0,-0.017,0,0)" d="M341 717C317 731 295 737 274 737C163 737 106 555 106 478L106 476L106 434L37 403L37 381L106 385L106 102C106 39 103 32 69 30L23 27L23 -3C123 0 123 0 148 0C173 0 173 0 273 -3L273 27L227 30C193 32 190 39 190 102L190 385L314 385L321 438L190 434L190 519C190 634 203 662 260 662C287 662 305 655 329 634L341 640ZM615 49C535 49 515 94 515 170L515 465L506 469C455 448 403 434 350 428L350 400L387 400C427 400 431 393 431 327L431 159C431 70 436 -12 572 -12C617 -12 657 2 684 27L751 89C751 60 750 44 747 -3C814 0 815 0 830 0C844 0 844 0 913 -3L913 27L872 30C838 32 835 38 835 102L835 465L826 469C775 448 723 434 670 428L670 400L707 400C747 400 751 393 751 327L751 164C751 126 702 49 615 49ZM957 661L1013 661C1031 661 1038 650 1038 620L1038 102C1038 39 1035 32 1001 30L955 27L955 -3C1055 0 1055 0 1080 0C1105 0 1105 0 1205 -3L1205 27L1159 30C1125 32 1122 39 1122 102L1122 718L1113 726C1069 709 1036 701 957 689ZM1247 661L1303 661C1321 661 1328 650 1328 620L1328 102C1328 39 1325 32 1291 30L1245 27L1245 -3C1345 0 1345 0 1370 0C1395 0 1395 0 1495 -3L1495 27L1449 30C1415 32 1412 39 1412 102L1412 718L1403 726C1359 709 1326 701 1247 689Z" stroke="rgb(0,0,0)" stroke-opacity="1" stroke-width="8" fill="rgb(0,0,0)" fill-opacity="1"></path></g></g></g></g><g><g><g><g transform="matrix(1,0,0,1,233.921875,69.171875)"><path transform="matrix(0.017,0,0,-0.017,0,0)" d="M579 -3L579 27L533 30C499 32 496 39 496 102L496 718L487 726C443 709 410 701 331 689L331 661L387 661C405 661 412 650 412 620L412 437C384 472 346 486 306 486C183 486 34 351 34 229C34 149 62 70 111 30C145 1 192 -12 257 -12C277 -12 300 -8 305 -4L416 89L411 -3C460 -1 476 0 488 0C506 0 570 -3 579 -3ZM412 350L412 221C412 156 410 146 397 123C369 76 320 45 273 45C185 45 122 130 122 249C122 358 176 422 266 422C345 422 412 366 412 350ZM860 -20C925 -20 1015 18 1027 36L1047 70L1034 80C970 42 947 33 904 33C839 33 785 62 757 111C738 144 731 172 729 230C750 227 780 226 814 226C900 226 1009 234 1056 244C1057 258 1058 267 1058 279C1058 394 984 469 872 469C835 469 790 464 750 440C668 392 636 323 636 219C636 25 771 -20 860 -20ZM969 267C945 264 894 261 843 261C800 261 757 264 731 270C731 317 735 339 748 365C769 409 812 436 860 436C893 436 919 423 937 396C959 363 966 334 969 267ZM1487 311C1487 357 1492 398 1501 434C1469 478 1426 497 1381 497C1257 497 1113 361 1113 224C1113 219 1114 215 1114 210C1114 75 1209 -20 1343 -20C1395 -20 1470 -1 1480 14L1501 46L1491 61C1454 41 1422 32 1386 32C1275 32 1202 118 1202 250C1202 357 1252 417 1342 417C1386 417 1434 397 1452 372L1459 311ZM1554 661L1610 661C1628 661 1635 650 1635 620L1635 102C1635 39 1632 32 1598 30L1552 27L1552 -3C1652 0 1652 0 1677 0C1702 0 1702 0 1802 -3L1802 27L1756 30C1722 32 1719 39 1719 102L1719 718L1710 726C1666 709 1633 701 1554 689ZM2009 465L2000 469C1949 448 1897 434 1844 428L1844 400L1881 400C1921 400 1925 393 1925 327L1925 102C1925 39 1922 32 1888 30L1842 27L1842 -3C1942 0 1942 0 1967 0C1992 0 1992 0 2092 -3L2092 27L2046 30C2012 32 2009 39 2009 102ZM1963 687C1933 687 1907 661 1907 631C1907 602 1933 576 1962 576C1991 576 2018 602 2018 631C2018 659 1991 687 1963 687ZM2521 -3C2582 0 2583 0 2600 0C2614 0 2614 0 2683 -3L2683 27L2642 30C2608 32 2605 38 2605 102L2605 295C2605 412 2550 469 2438 469C2401 469 2380 462 2359 444L2283 378L2283 465L2274 469C2223 448 2171 434 2118 428L2118 400L2155 400C2195 400 2199 393 2199 327L2199 102C2199 39 2196 32 2162 30L2117 27L2117 -3C2185 -1 2212 0 2241 0C2270 0 2297 -1 2365 -3L2365 27L2320 30C2286 32 2283 39 2283 102L2283 314C2283 359 2349 408 2410 408C2477 408 2521 358 2521 281ZM2942 -20C3007 -20 3097 18 3109 36L3129 70L3116 80C3052 42 3029 33 2986 33C2921 33 2867 62 2839 111C2820 144 2813 172 2811 230C2832 227 2862 226 2896 226C2982 226 3091 234 3138 244C3139 258 3140 267 3140 279C3140 394 3066 469 2954 469C2917 469 2872 464 2832 440C2750 392 2718 323 2718 219C2718 25 2853 -20 2942 -20ZM3051 267C3027 264 2976 261 2925 261C2882 261 2839 264 2813 270C2813 317 2817 339 2830 365C2851 409 2894 436 2942 436C2975 436 3001 423 3019 396C3041 363 3048 334 3051 267Z" stroke="rgb(0,0,0)" stroke-opacity="1" stroke-width="8" fill="rgb(0,0,0)" fill-opacity="1"></path></g></g></g></g><line style="fill:none;stroke-width:1px;stroke:rgb(0, 0, 0);" x1="230.84375" y1="51.53125" x2="290.90625" y2="51.53125"></line></g><g><g transform="matrix(1,0,0,1,295.984375,55.78125)"><path transform="matrix(0.017,0,0,-0.017,0,0)" d="M555 243L555 299L51 299L51 243Z" stroke="rgb(0,0,0)" stroke-opacity="1" stroke-width="8" fill="rgb(0,0,0)" fill-opacity="1"></path></g></g><g><g><g><g><g transform="matrix(1,0,0,1,311.359375,43.390625)"><path transform="matrix(0.017,0,0,-0.017,0,0)" d="M27 6L34 -4C140 0 246 0 353 0C454 0 555 -1 656 -4L662 6L362 697L337 697C294 590 92 128 27 6ZM537 37L105 37C171 215 242 389 318 564L325 564C400 391 472 215 537 37ZM786 382L786 94C786 20 819 -12 896 -12C919 -12 943 -7 949 0L997 53L984 70C959 56 944 51 925 51C886 51 870 71 870 120L870 382L998 382L1007 436L870 430L870 468C870 510 873 546 881 610L869 621C845 606 815 593 784 583C787 553 788 534 788 504L788 434L710 399L710 378Z" stroke="rgb(0,0,0)" stroke-opacity="1" stroke-width="8" fill="rgb(0,0,0)" fill-opacity="1"></path></g></g><g><g transform="matrix(1,0,0,1,331.984375,43.390625)"><path transform="matrix(0.017,0,0,-0.017,0,0)" d="M555 243L555 299L51 299L51 243Z" stroke="rgb(0,0,0)" stroke-opacity="1" stroke-width="8" fill="rgb(0,0,0)" fill-opacity="1"></path></g></g><g><g transform="matrix(1,0,0,1,345.671875,43.390625)"><path transform="matrix(0.017,0,0,-0.017,0,0)" d="M341 717C317 731 295 737 274 737C163 737 106 555 106 478L106 476L106 434L37 403L37 381L106 385L106 102C106 39 103 32 69 30L23 27L23 -3C123 0 123 0 148 0C173 0 173 0 273 -3L273 27L227 30C193 32 190 39 190 102L190 385L314 385L321 438L190 434L190 519C190 634 203 662 260 662C287 662 305 655 329 634L341 640ZM615 49C535 49 515 94 515 170L515 465L506 469C455 448 403 434 350 428L350 400L387 400C427 400 431 393 431 327L431 159C431 70 436 -12 572 -12C617 -12 657 2 684 27L751 89C751 60 750 44 747 -3C814 0 815 0 830 0C844 0 844 0 913 -3L913 27L872 30C838 32 835 38 835 102L835 465L826 469C775 448 723 434 670 428L670 400L707 400C747 400 751 393 751 327L751 164C751 126 702 49 615 49ZM957 661L1013 661C1031 661 1038 650 1038 620L1038 102C1038 39 1035 32 1001 30L955 27L955 -3C1055 0 1055 0 1080 0C1105 0 1105 0 1205 -3L1205 27L1159 30C1125 32 1122 39 1122 102L1122 718L1113 726C1069 709 1036 701 957 689ZM1247 661L1303 661C1321 661 1328 650 1328 620L1328 102C1328 39 1325 32 1291 30L1245 27L1245 -3C1345 0 1345 0 1370 0C1395 0 1395 0 1495 -3L1495 27L1449 30C1415 32 1412 39 1412 102L1412 718L1403 726C1359 709 1326 701 1247 689Z" stroke="rgb(0,0,0)" stroke-opacity="1" stroke-width="8" fill="rgb(0,0,0)" fill-opacity="1"></path></g></g><g><g transform="matrix(1,0,0,1,374.8125,43.390625)"><path transform="matrix(0.017,0,0,-0.017,0,0)" d="M555 243L555 299L51 299L51 243Z" stroke="rgb(0,0,0)" stroke-opacity="1" stroke-width="8" fill="rgb(0,0,0)" fill-opacity="1"></path></g></g><g><g transform="matrix(1,0,0,1,388.5,43.390625)"><path transform="matrix(0.017,0,0,-0.017,0,0)" d="M579 -3L579 27L533 30C499 32 496 39 496 102L496 718L487 726C443 709 410 701 331 689L331 661L387 661C405 661 412 650 412 620L412 437C384 472 346 486 306 486C183 486 34 351 34 229C34 149 62 70 111 30C145 1 192 -12 257 -12C277 -12 300 -8 305 -4L416 89L411 -3C460 -1 476 0 488 0C506 0 570 -3 579 -3ZM412 350L412 221C412 156 410 146 397 123C369 76 320 45 273 45C185 45 122 130 122 249C122 358 176 422 266 422C345 422 412 366 412 350ZM860 -20C925 -20 1015 18 1027 36L1047 70L1034 80C970 42 947 33 904 33C839 33 785 62 757 111C738 144 731 172 729 230C750 227 780 226 814 226C900 226 1009 234 1056 244C1057 258 1058 267 1058 279C1058 394 984 469 872 469C835 469 790 464 750 440C668 392 636 323 636 219C636 25 771 -20 860 -20ZM969 267C945 264 894 261 843 261C800 261 757 264 731 270C731 317 735 339 748 365C769 409 812 436 860 436C893 436 919 423 937 396C959 363 966 334 969 267ZM1487 311C1487 357 1492 398 1501 434C1469 478 1426 497 1381 497C1257 497 1113 361 1113 224C1113 219 1114 215 1114 210C1114 75 1209 -20 1343 -20C1395 -20 1470 -1 1480 14L1501 46L1491 61C1454 41 1422 32 1386 32C1275 32 1202 118 1202 250C1202 357 1252 417 1342 417C1386 417 1434 397 1452 372L1459 311ZM1554 661L1610 661C1628 661 1635 650 1635 620L1635 102C1635 39 1632 32 1598 30L1552 27L1552 -3C1652 0 1652 0 1677 0C1702 0 1702 0 1802 -3L1802 27L1756 30C1722 32 1719 39 1719 102L1719 718L1710 726C1666 709 1633 701 1554 689ZM2009 465L2000 469C1949 448 1897 434 1844 428L1844 400L1881 400C1921 400 1925 393 1925 327L1925 102C1925 39 1922 32 1888 30L1842 27L1842 -3C1942 0 1942 0 1967 0C1992 0 1992 0 2092 -3L2092 27L2046 30C2012 32 2009 39 2009 102ZM1963 687C1933 687 1907 661 1907 631C1907 602 1933 576 1962 576C1991 576 2018 602 2018 631C2018 659 1991 687 1963 687ZM2521 -3C2582 0 2583 0 2600 0C2614 0 2614 0 2683 -3L2683 27L2642 30C2608 32 2605 38 2605 102L2605 295C2605 412 2550 469 2438 469C2401 469 2380 462 2359 444L2283 378L2283 465L2274 469C2223 448 2171 434 2118 428L2118 400L2155 400C2195 400 2199 393 2199 327L2199 102C2199 39 2196 32 2162 30L2117 27L2117 -3C2185 -1 2212 0 2241 0C2270 0 2297 -1 2365 -3L2365 27L2320 30C2286 32 2283 39 2283 102L2283 314C2283 359 2349 408 2410 408C2477 408 2521 358 2521 281ZM2942 -20C3007 -20 3097 18 3109 36L3129 70L3116 80C3052 42 3029 33 2986 33C2921 33 2867 62 2839 111C2820 144 2813 172 2811 230C2832 227 2862 226 2896 226C2982 226 3091 234 3138 244C3139 258 3140 267 3140 279C3140 394 3066 469 2954 469C2917 469 2872 464 2832 440C2750 392 2718 323 2718 219C2718 25 2853 -20 2942 -20ZM3051 267C3027 264 2976 261 2925 261C2882 261 2839 264 2813 270C2813 317 2817 339 2830 365C2851 409 2894 436 2942 436C2975 436 3001 423 3019 396C3041 363 3048 334 3051 267Z" stroke="rgb(0,0,0)" stroke-opacity="1" stroke-width="8" fill="rgb(0,0,0)" fill-opacity="1"></path></g></g></g></g><g><g><g><g transform="matrix(1,0,0,1,349.921875,69.171875)"><path transform="matrix(0.017,0,0,-0.017,0,0)" d="M579 -3L579 27L533 30C499 32 496 39 496 102L496 718L487 726C443 709 410 701 331 689L331 661L387 661C405 661 412 650 412 620L412 437C384 472 346 486 306 486C183 486 34 351 34 229C34 149 62 70 111 30C145 1 192 -12 257 -12C277 -12 300 -8 305 -4L416 89L411 -3C460 -1 476 0 488 0C506 0 570 -3 579 -3ZM412 350L412 221C412 156 410 146 397 123C369 76 320 45 273 45C185 45 122 130 122 249C122 358 176 422 266 422C345 422 412 366 412 350ZM860 -20C925 -20 1015 18 1027 36L1047 70L1034 80C970 42 947 33 904 33C839 33 785 62 757 111C738 144 731 172 729 230C750 227 780 226 814 226C900 226 1009 234 1056 244C1057 258 1058 267 1058 279C1058 394 984 469 872 469C835 469 790 464 750 440C668 392 636 323 636 219C636 25 771 -20 860 -20ZM969 267C945 264 894 261 843 261C800 261 757 264 731 270C731 317 735 339 748 365C769 409 812 436 860 436C893 436 919 423 937 396C959 363 966 334 969 267ZM1487 311C1487 357 1492 398 1501 434C1469 478 1426 497 1381 497C1257 497 1113 361 1113 224C1113 219 1114 215 1114 210C1114 75 1209 -20 1343 -20C1395 -20 1470 -1 1480 14L1501 46L1491 61C1454 41 1422 32 1386 32C1275 32 1202 118 1202 250C1202 357 1252 417 1342 417C1386 417 1434 397 1452 372L1459 311ZM1554 661L1610 661C1628 661 1635 650 1635 620L1635 102C1635 39 1632 32 1598 30L1552 27L1552 -3C1652 0 1652 0 1677 0C1702 0 1702 0 1802 -3L1802 27L1756 30C1722 32 1719 39 1719 102L1719 718L1710 726C1666 709 1633 701 1554 689ZM2009 465L2000 469C1949 448 1897 434 1844 428L1844 400L1881 400C1921 400 1925 393 1925 327L1925 102C1925 39 1922 32 1888 30L1842 27L1842 -3C1942 0 1942 0 1967 0C1992 0 1992 0 2092 -3L2092 27L2046 30C2012 32 2009 39 2009 102ZM1963 687C1933 687 1907 661 1907 631C1907 602 1933 576 1962 576C1991 576 2018 602 2018 631C2018 659 1991 687 1963 687ZM2521 -3C2582 0 2583 0 2600 0C2614 0 2614 0 2683 -3L2683 27L2642 30C2608 32 2605 38 2605 102L2605 295C2605 412 2550 469 2438 469C2401 469 2380 462 2359 444L2283 378L2283 465L2274 469C2223 448 2171 434 2118 428L2118 400L2155 400C2195 400 2199 393 2199 327L2199 102C2199 39 2196 32 2162 30L2117 27L2117 -3C2185 -1 2212 0 2241 0C2270 0 2297 -1 2365 -3L2365 27L2320 30C2286 32 2283 39 2283 102L2283 314C2283 359 2349 408 2410 408C2477 408 2521 358 2521 281ZM2942 -20C3007 -20 3097 18 3109 36L3129 70L3116 80C3052 42 3029 33 2986 33C2921 33 2867 62 2839 111C2820 144 2813 172 2811 230C2832 227 2862 226 2896 226C2982 226 3091 234 3138 244C3139 258 3140 267 3140 279C3140 394 3066 469 2954 469C2917 469 2872 464 2832 440C2750 392 2718 323 2718 219C2718 25 2853 -20 2942 -20ZM3051 267C3027 264 2976 261 2925 261C2882 261 2839 264 2813 270C2813 317 2817 339 2830 365C2851 409 2894 436 2942 436C2975 436 3001 423 3019 396C3041 363 3048 334 3051 267Z" stroke="rgb(0,0,0)" stroke-opacity="1" stroke-width="8" fill="rgb(0,0,0)" fill-opacity="1"></path></g></g></g></g><line style="fill:none;stroke-width:1px;stroke:rgb(0, 0, 0);" x1="311.359375" y1="51.53125" x2="442.390625" y2="51.53125"></line></g></g></g><g><g><g><g transform="matrix(1,0,0,1,455.25,55.78125)"><path transform="matrix(0.017,0,0,-0.017,0,0)" d="M341 717C317 731 295 737 274 737C163 737 106 555 106 478L106 476L106 434L37 403L37 381L106 385L106 102C106 39 103 32 69 30L23 27L23 -3C123 0 123 0 148 0C173 0 173 0 273 -3L273 27L227 30C193 32 190 39 190 102L190 385L314 385L321 438L190 434L190 519C190 634 203 662 260 662C287 662 305 655 329 634L341 640ZM615 49C535 49 515 94 515 170L515 465L506 469C455 448 403 434 350 428L350 400L387 400C427 400 431 393 431 327L431 159C431 70 436 -12 572 -12C617 -12 657 2 684 27L751 89C751 60 750 44 747 -3C814 0 815 0 830 0C844 0 844 0 913 -3L913 27L872 30C838 32 835 38 835 102L835 465L826 469C775 448 723 434 670 428L670 400L707 400C747 400 751 393 751 327L751 164C751 126 702 49 615 49ZM957 661L1013 661C1031 661 1038 650 1038 620L1038 102C1038 39 1035 32 1001 30L955 27L955 -3C1055 0 1055 0 1080 0C1105 0 1105 0 1205 -3L1205 27L1159 30C1125 32 1122 39 1122 102L1122 718L1113 726C1069 709 1036 701 957 689ZM1247 661L1303 661C1321 661 1328 650 1328 620L1328 102C1328 39 1325 32 1291 30L1245 27L1245 -3C1345 0 1345 0 1370 0C1395 0 1395 0 1495 -3L1495 27L1449 30C1415 32 1412 39 1412 102L1412 718L1403 726C1359 709 1326 701 1247 689Z" stroke="rgb(0,0,0)" stroke-opacity="1" stroke-width="8" fill="rgb(0,0,0)" fill-opacity="1"></path></g></g><g><g transform="matrix(1,0,0,1,486.09375,55.78125)"><path transform="matrix(0.017,0,0,-0.017,0,0)" d="M604 76L604 135L166 340L604 545L604 604L65 349L65 328ZM604 -61L604 -5L65 -5L65 -61Z" stroke="rgb(0,0,0)" stroke-opacity="1" stroke-width="8" fill="rgb(0,0,0)" fill-opacity="1"></path></g></g><g><g transform="matrix(1,0,0,1,502.5625,55.78125)"><path transform="matrix(0.017,0,0,-0.017,0,0)" d="M27 6L34 -4C140 0 246 0 353 0C454 0 555 -1 656 -4L662 6L362 697L337 697C294 590 92 128 27 6ZM537 37L105 37C171 215 242 389 318 564L325 564C400 391 472 215 537 37ZM786 382L786 94C786 20 819 -12 896 -12C919 -12 943 -7 949 0L997 53L984 70C959 56 944 51 925 51C886 51 870 71 870 120L870 382L998 382L1007 436L870 430L870 468C870 510 873 546 881 610L869 621C845 606 815 593 784 583C787 553 788 534 788 504L788 434L710 399L710 378Z" stroke="rgb(0,0,0)" stroke-opacity="1" stroke-width="8" fill="rgb(0,0,0)" fill-opacity="1"></path></g></g><g><g transform="matrix(1,0,0,1,524.890625,55.78125)"><path transform="matrix(0.017,0,0,-0.017,0,0)" d="M604 76L604 135L166 340L604 545L604 604L65 349L65 328ZM604 -61L604 -5L65 -5L65 -61Z" stroke="rgb(0,0,0)" stroke-opacity="1" stroke-width="8" fill="rgb(0,0,0)" fill-opacity="1"></path></g></g><g><g transform="matrix(1,0,0,1,541.359375,55.78125)"><path transform="matrix(0.017,0,0,-0.017,0,0)" d="M341 717C317 731 295 737 274 737C163 737 106 555 106 478L106 476L106 434L37 403L37 381L106 385L106 102C106 39 103 32 69 30L23 27L23 -3C123 0 123 0 148 0C173 0 173 0 273 -3L273 27L227 30C193 32 190 39 190 102L190 385L314 385L321 438L190 434L190 519C190 634 203 662 260 662C287 662 305 655 329 634L341 640ZM615 49C535 49 515 94 515 170L515 465L506 469C455 448 403 434 350 428L350 400L387 400C427 400 431 393 431 327L431 159C431 70 436 -12 572 -12C617 -12 657 2 684 27L751 89C751 60 750 44 747 -3C814 0 815 0 830 0C844 0 844 0 913 -3L913 27L872 30C838 32 835 38 835 102L835 465L826 469C775 448 723 434 670 428L670 400L707 400C747 400 751 393 751 327L751 164C751 126 702 49 615 49ZM957 661L1013 661C1031 661 1038 650 1038 620L1038 102C1038 39 1035 32 1001 30L955 27L955 -3C1055 0 1055 0 1080 0C1105 0 1105 0 1205 -3L1205 27L1159 30C1125 32 1122 39 1122 102L1122 718L1113 726C1069 709 1036 701 957 689ZM1247 661L1303 661C1321 661 1328 650 1328 620L1328 102C1328 39 1325 32 1291 30L1245 27L1245 -3C1345 0 1345 0 1370 0C1395 0 1395 0 1495 -3L1495 27L1449 30C1415 32 1412 39 1412 102L1412 718L1403 726C1359 709 1326 701 1247 689Z" stroke="rgb(0,0,0)" stroke-opacity="1" stroke-width="8" fill="rgb(0,0,0)" fill-opacity="1"></path></g></g><g><g transform="matrix(1,0,0,1,570.5,55.78125)"><path transform="matrix(0.017,0,0,-0.017,0,0)" d="M604 241L604 300L364 300L364 538L305 538L305 300L65 300L65 241L305 241L305 0L364 0L364 241Z" stroke="rgb(0,0,0)" stroke-opacity="1" stroke-width="8" fill="rgb(0,0,0)" fill-opacity="1"></path></g></g><g><g transform="matrix(1,0,0,1,585.25,55.78125)"><path transform="matrix(0.017,0,0,-0.017,0,0)" d="M579 -3L579 27L533 30C499 32 496 39 496 102L496 718L487 726C443 709 410 701 331 689L331 661L387 661C405 661 412 650 412 620L412 437C384 472 346 486 306 486C183 486 34 351 34 229C34 149 62 70 111 30C145 1 192 -12 257 -12C277 -12 300 -8 305 -4L416 89L411 -3C460 -1 476 0 488 0C506 0 570 -3 579 -3ZM412 350L412 221C412 156 410 146 397 123C369 76 320 45 273 45C185 45 122 130 122 249C122 358 176 422 266 422C345 422 412 366 412 350ZM860 -20C925 -20 1015 18 1027 36L1047 70L1034 80C970 42 947 33 904 33C839 33 785 62 757 111C738 144 731 172 729 230C750 227 780 226 814 226C900 226 1009 234 1056 244C1057 258 1058 267 1058 279C1058 394 984 469 872 469C835 469 790 464 750 440C668 392 636 323 636 219C636 25 771 -20 860 -20ZM969 267C945 264 894 261 843 261C800 261 757 264 731 270C731 317 735 339 748 365C769 409 812 436 860 436C893 436 919 423 937 396C959 363 966 334 969 267ZM1487 311C1487 357 1492 398 1501 434C1469 478 1426 497 1381 497C1257 497 1113 361 1113 224C1113 219 1114 215 1114 210C1114 75 1209 -20 1343 -20C1395 -20 1470 -1 1480 14L1501 46L1491 61C1454 41 1422 32 1386 32C1275 32 1202 118 1202 250C1202 357 1252 417 1342 417C1386 417 1434 397 1452 372L1459 311ZM1554 661L1610 661C1628 661 1635 650 1635 620L1635 102C1635 39 1632 32 1598 30L1552 27L1552 -3C1652 0 1652 0 1677 0C1702 0 1702 0 1802 -3L1802 27L1756 30C1722 32 1719 39 1719 102L1719 718L1710 726C1666 709 1633 701 1554 689ZM2009 465L2000 469C1949 448 1897 434 1844 428L1844 400L1881 400C1921 400 1925 393 1925 327L1925 102C1925 39 1922 32 1888 30L1842 27L1842 -3C1942 0 1942 0 1967 0C1992 0 1992 0 2092 -3L2092 27L2046 30C2012 32 2009 39 2009 102ZM1963 687C1933 687 1907 661 1907 631C1907 602 1933 576 1962 576C1991 576 2018 602 2018 631C2018 659 1991 687 1963 687ZM2521 -3C2582 0 2583 0 2600 0C2614 0 2614 0 2683 -3L2683 27L2642 30C2608 32 2605 38 2605 102L2605 295C2605 412 2550 469 2438 469C2401 469 2380 462 2359 444L2283 378L2283 465L2274 469C2223 448 2171 434 2118 428L2118 400L2155 400C2195 400 2199 393 2199 327L2199 102C2199 39 2196 32 2162 30L2117 27L2117 -3C2185 -1 2212 0 2241 0C2270 0 2297 -1 2365 -3L2365 27L2320 30C2286 32 2283 39 2283 102L2283 314C2283 359 2349 408 2410 408C2477 408 2521 358 2521 281ZM2942 -20C3007 -20 3097 18 3109 36L3129 70L3116 80C3052 42 3029 33 2986 33C2921 33 2867 62 2839 111C2820 144 2813 172 2811 230C2832 227 2862 226 2896 226C2982 226 3091 234 3138 244C3139 258 3140 267 3140 279C3140 394 3066 469 2954 469C2917 469 2872 464 2832 440C2750 392 2718 323 2718 219C2718 25 2853 -20 2942 -20ZM3051 267C3027 264 2976 261 2925 261C2882 261 2839 264 2813 270C2813 317 2817 339 2830 365C2851 409 2894 436 2942 436C2975 436 3001 423 3019 396C3041 363 3048 334 3051 267Z" stroke="rgb(0,0,0)" stroke-opacity="1" stroke-width="8" fill="rgb(0,0,0)" fill-opacity="1"></path></g></g></g></g><g><g><g><g transform="matrix(1,0,0,1,192.59375,87.5625)"><path transform="matrix(0.017,0,0,-0.017,0,0)" d="M418 -3L418 27L366 30C311 33 301 44 301 96L301 700L60 598L67 548L217 614L217 96C217 44 206 33 152 30L96 27L96 -3C250 0 250 0 261 0C292 0 402 -3 418 -3Z" stroke="rgb(0,0,0)" stroke-opacity="1" stroke-width="8" fill="rgb(0,0,0)" fill-opacity="1"></path></g></g></g></g><g><g><g><g transform="matrix(1,0,0,1,455.25,87.5625)"><path transform="matrix(0.017,0,0,-0.017,0,0)" d="M27 6L34 -4C140 0 246 0 353 0C454 0 555 -1 656 -4L662 6L362 697L337 697C294 590 92 128 27 6ZM537 37L105 37C171 215 242 389 318 564L325 564C400 391 472 215 537 37ZM786 382L786 94C786 20 819 -12 896 -12C919 -12 943 -7 949 0L997 53L984 70C959 56 944 51 925 51C886 51 870 71 870 120L870 382L998 382L1007 436L870 430L870 468C870 510 873 546 881 610L869 621C845 606 815 593 784 583C787 553 788 534 788 504L788 434L710 399L710 378Z" stroke="rgb(0,0,0)" stroke-opacity="1" stroke-width="8" fill="rgb(0,0,0)" fill-opacity="1"></path></g></g><g><g transform="matrix(1,0,0,1,477.578125,87.5625)"><path transform="matrix(0.017,0,0,-0.017,0,0)" d="M604 0L604 59L166 264L604 469L604 528L65 273L65 252Z" stroke="rgb(0,0,0)" stroke-opacity="1" stroke-width="8" fill="rgb(0,0,0)" fill-opacity="1"></path></g></g><g><g transform="matrix(1,0,0,1,494.03125,87.5625)"><path transform="matrix(0.017,0,0,-0.017,0,0)" d="M341 717C317 731 295 737 274 737C163 737 106 555 106 478L106 476L106 434L37 403L37 381L106 385L106 102C106 39 103 32 69 30L23 27L23 -3C123 0 123 0 148 0C173 0 173 0 273 -3L273 27L227 30C193 32 190 39 190 102L190 385L314 385L321 438L190 434L190 519C190 634 203 662 260 662C287 662 305 655 329 634L341 640ZM615 49C535 49 515 94 515 170L515 465L506 469C455 448 403 434 350 428L350 400L387 400C427 400 431 393 431 327L431 159C431 70 436 -12 572 -12C617 -12 657 2 684 27L751 89C751 60 750 44 747 -3C814 0 815 0 830 0C844 0 844 0 913 -3L913 27L872 30C838 32 835 38 835 102L835 465L826 469C775 448 723 434 670 428L670 400L707 400C747 400 751 393 751 327L751 164C751 126 702 49 615 49ZM957 661L1013 661C1031 661 1038 650 1038 620L1038 102C1038 39 1035 32 1001 30L955 27L955 -3C1055 0 1055 0 1080 0C1105 0 1105 0 1205 -3L1205 27L1159 30C1125 32 1122 39 1122 102L1122 718L1113 726C1069 709 1036 701 957 689ZM1247 661L1303 661C1321 661 1328 650 1328 620L1328 102C1328 39 1325 32 1291 30L1245 27L1245 -3C1345 0 1345 0 1370 0C1395 0 1395 0 1495 -3L1495 27L1449 30C1415 32 1412 39 1412 102L1412 718L1403 726C1359 709 1326 701 1247 689Z" stroke="rgb(0,0,0)" stroke-opacity="1" stroke-width="8" fill="rgb(0,0,0)" fill-opacity="1"></path></g></g></g></g><svg x="179.703125" overflow="visible" y="2" height="89.953125" width="8.5"><path d=" M 8.35 1.70 c 0.00 -0.03 -0.05 -0.06 -0.12 -0.06 c -0.15 0.00 -0.44 0.09 -0.51 0.11 c -3.03 1.08 -3.59 3.33 -3.59 7.41 v 0.60 h 1.62 v -1.28 c 0.00 -2.20 0.12 -5.16 2.13 -6.48 c 0.15 -0.10 0.48 -0.22 0.48 -0.31 z  M 4.13 9.17 v 31.95 h 1.62 v -31.95 z  M 5.75 41.12 h -1.62 v 0.59 c 0.00 2.97 -2.74 3.66 -2.75 3.66 v 0.02 c 0.02 0.00 2.75 0.75 2.75 3.71 h 1.62 c 0.00 -1.05 -0.09 -2.87 -2.96 -3.69 c 2.87 -0.80 2.96 -2.63 2.96 -3.69 v -0.59 z  M 4.13 48.83 v 31.95 h 1.62 v -31.95 z" style="fill:rgb(0,0,0);fill-opacity:1;stroke-width:1px;stroke:none;stroke-opacity:1;"></path><path d=" M 8.35 88.25 c 0.00 0.03 -0.05 0.06 -0.12 0.06 c -0.15 0.00 -0.44 -0.09 -0.51 -0.11 c -3.03 -1.08 -3.59 -3.33 -3.59 -7.41 v -0.60 h 1.62 v 1.28 c 0.00 2.20 0.12 5.16 2.13 6.48 c 0.15 0.10 0.48 0.22 0.48 0.31 z" style="fill:rgb(0,0,0);fill-opacity:1;stroke-width:1px;stroke:none;stroke-opacity:1;"></path></svg></g></g></g></svg>