<svg xmlns="http://www.w3.org/2000/svg" xmlns:xlink="http://www.w3.org/1999/xlink" width="524.4375" height="54.375" style="width:524.4375px;height:54.375px;font-family:Asana-Math, Asana;background:#FFF;"><g><g><g><g transform="matrix(1,0,0,1,2,33.6875)"><path transform="matrix(0.017,0,0,-0.017,0,0)" d="M23 400L60 400C100 400 104 393 104 327L104 102C104 39 101 32 67 30L21 27L21 -3C93 -1 119 0 144 0C164 0 164 0 287 -3L287 27L235 30C190 33 188 36 188 102L188 274C188 334 228 384 277 384C307 384 328 370 344 338L365 338L374 458C363 465 345 469 327 469C297 469 265 453 244 428L188 362L188 465L179 469C128 448 76 434 23 428ZM718 82L713 -3C778 0 778 0 791 0C796 0 821 -1 865 -3L865 27L826 29C802 30 798 38 798 87L798 270C798 416 756 469 640 469C597 469 557 458 519 435L466 403L466 338L492 331L505 362C526 409 536 416 582 416C676 416 715 379 718 288L619 270C483 245 426 198 426 111C426 33 473 -12 552 -12C570 -12 587 -9 594 -4ZM718 124C689 83 626 45 587 45C547 45 512 82 512 125C512 162 532 197 562 216C587 231 642 245 718 256ZM991 382L991 94C991 20 1024 -12 1101 -12C1124 -12 1148 -7 1154 0L1202 53L1189 70C1164 56 1149 51 1130 51C1091 51 1075 71 1075 120L1075 382L1203 382L1212 436L1075 430L1075 468C1075 510 1078 546 1086 610L1074 621C1050 606 1020 593 989 583C992 553 993 534 993 504L993 434L915 399L915 378ZM1406 465L1397 469C1346 448 1294 434 1241 428L1241 400L1278 400C1318 400 1322 393 1322 327L1322 102C1322 39 1319 32 1285 30L1239 27L1239 -3C1339 0 1339 0 1364 0C1389 0 1389 0 1489 -3L1489 27L1443 30C1409 32 1406 39 1406 102ZM1360 687C1330 687 1304 661 1304 631C1304 602 1330 576 1359 576C1388 576 1415 602 1415 631C1415 659 1388 687 1360 687ZM1787 469C1641 469 1540 366 1540 217C1540 76 1629 -20 1758 -20C1912 -20 2022 87 2022 237C2022 372 1924 469 1787 469ZM1769 436C1861 436 1929 336 1929 200C1929 85 1878 13 1797 13C1699 13 1633 109 1633 251C1633 371 1681 436 1769 436Z" stroke="rgb(0,0,0)" stroke-opacity="1" stroke-width="8" fill="rgb(0,0,0)" fill-opacity="1"></path></g></g><g><svg x="38.09375" overflow="visible" y="7.6875" height="43" width="8.5"><path d=" M 6.27 1.70 c 0.00 -0.06 -0.04 -0.08 -0.08 -0.08 c -0.03 0.00 -0.06 0.01 -0.08 0.02 c -2.55 1.34 -4.65 3.73 -4.65 9.40 v 0.60 h 1.53 v -0.60 c 0.00 -3.23 0.64 -7.03 3.31 -9.06 c 0.12 -0.09 0.13 -0.19 0.13 -0.28 z   M 1.44 11.64 v 19.72 h 1.53 v -19.72 z" style="fill:rgb(0,0,0);fill-opacity:1;stroke-width:1px;stroke:none;stroke-opacity:1;"></path><path d=" M 6.27 41.30 c 0.00 0.06 -0.04 0.08 -0.08 0.08 c -0.03 0.00 -0.06 -0.01 -0.08 -0.02 c -2.55 -1.34 -4.65 -3.73 -4.65 -9.40 v -0.60 h 1.53 v 0.60 c 0.00 3.23 0.64 7.03 3.31 9.06 c 0.12 0.09 0.13 0.19 0.13 0.28 z" style="fill:rgb(0,0,0);fill-opacity:1;stroke-width:1px;stroke:none;stroke-opacity:1;"></path></svg></g><g><g><g><g><g transform="matrix(1,0,0,1,46.765625,21.296875)"><path transform="matrix(0.017,0,0,-0.017,0,0)" d="M250 -20C315 -20 405 18 417 36L437 70L424 80C360 42 337 33 294 33C229 33 175 62 147 111C128 144 121 172 119 230C140 227 170 226 204 226C290 226 399 234 446 244C447 258 448 267 448 279C448 394 374 469 262 469C225 469 180 464 140 440C58 392 26 323 26 219C26 25 161 -20 250 -20ZM359 267C335 264 284 261 233 261C190 261 147 264 121 270C121 317 125 339 138 365C159 409 202 436 250 436C283 436 309 423 327 396C349 363 356 334 359 267Z" stroke="rgb(0,0,0)" stroke-opacity="1" stroke-width="8" fill="rgb(0,0,0)" fill-opacity="1"></path></g></g></g></g><g><g><g><g transform="matrix(1,0,0,1,46.59375,47.078125)"><path transform="matrix(0.017,0,0,-0.017,0,0)" d="M324 82L319 -3C384 0 384 0 397 0C402 0 427 -1 471 -3L471 27L432 29C408 30 404 38 404 87L404 270C404 416 362 469 246 469C203 469 163 458 125 435L72 403L72 338L98 331L111 362C132 409 142 416 188 416C282 416 321 379 324 288L225 270C89 245 32 198 32 111C32 33 79 -12 158 -12C176 -12 193 -9 200 -4ZM324 124C295 83 232 45 193 45C153 45 118 82 118 125C118 162 138 197 168 216C193 231 248 245 324 256Z" stroke="rgb(0,0,0)" stroke-opacity="1" stroke-width="8" fill="rgb(0,0,0)" fill-opacity="1"></path></g></g></g></g><line style="fill:none;stroke-width:1px;stroke:rgb(0, 0, 0);" x1="46.59375" y1="29.4375" x2="55.078125" y2="29.4375"></line></g><g><svg x="55.078125" overflow="visible" y="7.6875" height="43" width="8.5"><path d=" M 1.75 1.70 c 0.00 -0.06 0.04 -0.08 0.08 -0.08 c 0.03 0.00 0.06 0.01 0.08 0.02 c 2.55 1.34 4.65 3.73 4.65 9.40 v 0.60 h -1.53 v -0.60 c 0.00 -3.23 -0.64 -7.03 -3.31 -9.06 c -0.12 -0.09 -0.13 -0.19 -0.13 -0.28 z  M 6.58 11.64 v 19.72 h -1.53 v -19.72 z" style="fill:rgb(0,0,0);fill-opacity:1;stroke-width:1px;stroke:none;stroke-opacity:1;"></path><path d=" M 1.75 41.30 c 0.00 0.06 0.04 0.08 0.08 0.08 c 0.03 0.00 0.06 -0.01 0.08 -0.02 c 2.55 -1.34 4.65 -3.73 4.65 -9.40 v -0.60 h -1.53 v 0.60 c 0.00 3.23 -0.64 7.03 -3.31 9.06 c -0.12 0.09 -0.13 0.19 -0.13 0.28 z" style="fill:rgb(0,0,0);fill-opacity:1;stroke-width:1px;stroke:none;stroke-opacity:1;"></path></svg></g><g><g transform="matrix(1,0,0,1,69.859375,33.6875)"><path transform="matrix(0.017,0,0,-0.017,0,0)" d="M604 347L604 406L65 406L65 347ZM604 134L604 193L65 193L65 134Z" stroke="rgb(0,0,0)" stroke-opacity="1" stroke-width="8" fill="rgb(0,0,0)" fill-opacity="1"></path></g></g><g><g transform="matrix(1,0,0,1,86.3125,33.6875)"><path transform="matrix(0.017,0,0,-0.017,0,0)" d="M23 400L60 400C100 400 104 393 104 327L104 102C104 39 101 32 67 30L21 27L21 -3C93 -1 119 0 144 0C164 0 164 0 287 -3L287 27L235 30C190 33 188 36 188 102L188 274C188 334 228 384 277 384C307 384 328 370 344 338L365 338L374 458C363 465 345 469 327 469C297 469 265 453 244 428L188 362L188 465L179 469C128 448 76 434 23 428ZM718 82L713 -3C778 0 778 0 791 0C796 0 821 -1 865 -3L865 27L826 29C802 30 798 38 798 87L798 270C798 416 756 469 640 469C597 469 557 458 519 435L466 403L466 338L492 331L505 362C526 409 536 416 582 416C676 416 715 379 718 288L619 270C483 245 426 198 426 111C426 33 473 -12 552 -12C570 -12 587 -9 594 -4ZM718 124C689 83 626 45 587 45C547 45 512 82 512 125C512 162 532 197 562 216C587 231 642 245 718 256ZM991 382L991 94C991 20 1024 -12 1101 -12C1124 -12 1148 -7 1154 0L1202 53L1189 70C1164 56 1149 51 1130 51C1091 51 1075 71 1075 120L1075 382L1203 382L1212 436L1075 430L1075 468C1075 510 1078 546 1086 610L1074 621C1050 606 1020 593 989 583C992 553 993 534 993 504L993 434L915 399L915 378ZM1406 465L1397 469C1346 448 1294 434 1241 428L1241 400L1278 400C1318 400 1322 393 1322 327L1322 102C1322 39 1319 32 1285 30L1239 27L1239 -3C1339 0 1339 0 1364 0C1389 0 1389 0 1489 -3L1489 27L1443 30C1409 32 1406 39 1406 102ZM1360 687C1330 687 1304 661 1304 631C1304 602 1330 576 1359 576C1388 576 1415 602 1415 631C1415 659 1388 687 1360 687ZM1787 469C1641 469 1540 366 1540 217C1540 76 1629 -20 1758 -20C1912 -20 2022 87 2022 237C2022 372 1924 469 1787 469ZM1769 436C1861 436 1929 336 1929 200C1929 85 1878 13 1797 13C1699 13 1633 109 1633 251C1633 371 1681 436 1769 436Z" stroke="rgb(0,0,0)" stroke-opacity="1" stroke-width="8" fill="rgb(0,0,0)" fill-opacity="1"></path></g></g><g><svg x="122.40625" overflow="visible" y="7.6875" height="43" width="8.5"><path d=" M 6.27 1.70 c 0.00 -0.06 -0.04 -0.08 -0.08 -0.08 c -0.03 0.00 -0.06 0.01 -0.08 0.02 c -2.55 1.34 -4.65 3.73 -4.65 9.40 v 0.60 h 1.53 v -0.60 c 0.00 -3.23 0.64 -7.03 3.31 -9.06 c 0.12 -0.09 0.13 -0.19 0.13 -0.28 z   M 1.44 11.64 v 19.72 h 1.53 v -19.72 z" style="fill:rgb(0,0,0);fill-opacity:1;stroke-width:1px;stroke:none;stroke-opacity:1;"></path><path d=" M 6.27 41.30 c 0.00 0.06 -0.04 0.08 -0.08 0.08 c -0.03 0.00 -0.06 -0.01 -0.08 -0.02 c -2.55 -1.34 -4.65 -3.73 -4.65 -9.40 v -0.60 h 1.53 v 0.60 c 0.00 3.23 0.64 7.03 3.31 9.06 c 0.12 0.09 0.13 0.19 0.13 0.28 z" style="fill:rgb(0,0,0);fill-opacity:1;stroke-width:1px;stroke:none;stroke-opacity:1;"></path></svg></g><g><g><g><g><g transform="matrix(1,0,0,1,131.53125,21.296875)"><path transform="matrix(0.017,0,0,-0.017,0,0)" d="M250 -20C315 -20 405 18 417 36L437 70L424 80C360 42 337 33 294 33C229 33 175 62 147 111C128 144 121 172 119 230C140 227 170 226 204 226C290 226 399 234 446 244C447 258 448 267 448 279C448 394 374 469 262 469C225 469 180 464 140 440C58 392 26 323 26 219C26 25 161 -20 250 -20ZM359 267C335 264 284 261 233 261C190 261 147 264 121 270C121 317 125 339 138 365C159 409 202 436 250 436C283 436 309 423 327 396C349 363 356 334 359 267Z" stroke="rgb(0,0,0)" stroke-opacity="1" stroke-width="8" fill="rgb(0,0,0)" fill-opacity="1"></path></g></g></g></g><g><g><g><g transform="matrix(1,0,0,1,130.90625,47.078125)"><path transform="matrix(0.017,0,0,-0.017,0,0)" d="M150 718L141 726C97 709 64 701 -15 689L-15 661L41 661C59 661 66 650 66 620L66 153C66 91 65 64 58 -6L74 -12L114 24C177 -12 232 -28 280 -28C432 -28 508 128 508 262L508 270C495 414 404 485 315 485C248 485 182 446 150 369ZM284 404C368 404 421 336 421 229C421 117 361 39 276 39C224 39 150 71 150 93L150 308C150 343 206 404 284 404Z" stroke="rgb(0,0,0)" stroke-opacity="1" stroke-width="8" fill="rgb(0,0,0)" fill-opacity="1"></path></g></g></g></g><line style="fill:none;stroke-width:1px;stroke:rgb(0, 0, 0);" x1="130.90625" y1="29.4375" x2="140.296875" y2="29.4375"></line></g><g><svg x="140.296875" overflow="visible" y="7.6875" height="43" width="8.5"><path d=" M 1.75 1.70 c 0.00 -0.06 0.04 -0.08 0.08 -0.08 c 0.03 0.00 0.06 0.01 0.08 0.02 c 2.55 1.34 4.65 3.73 4.65 9.40 v 0.60 h -1.53 v -0.60 c 0.00 -3.23 -0.64 -7.03 -3.31 -9.06 c -0.12 -0.09 -0.13 -0.19 -0.13 -0.28 z  M 6.58 11.64 v 19.72 h -1.53 v -19.72 z" style="fill:rgb(0,0,0);fill-opacity:1;stroke-width:1px;stroke:none;stroke-opacity:1;"></path><path d=" M 1.75 41.30 c 0.00 0.06 0.04 0.08 0.08 0.08 c 0.03 0.00 0.06 -0.01 0.08 -0.02 c 2.55 -1.34 4.65 -3.73 4.65 -9.40 v -0.60 h -1.53 v 0.60 c 0.00 3.23 -0.64 7.03 -3.31 9.06 c -0.12 0.09 -0.13 0.19 -0.13 0.28 z" style="fill:rgb(0,0,0);fill-opacity:1;stroke-width:1px;stroke:none;stroke-opacity:1;"></path></svg></g><g><g transform="matrix(1,0,0,1,155.078125,33.6875)"><path transform="matrix(0.017,0,0,-0.017,0,0)" d="M604 347L604 406L65 406L65 347ZM604 134L604 193L65 193L65 134Z" stroke="rgb(0,0,0)" stroke-opacity="1" stroke-width="8" fill="rgb(0,0,0)" fill-opacity="1"></path></g></g><g><g transform="matrix(1,0,0,1,171.53125,33.6875)"><path transform="matrix(0.017,0,0,-0.017,0,0)" d="M16 23L16 -3C203 -3 203 0 239 0C275 0 275 -3 468 -3L468 82C353 77 307 81 122 77L304 270C401 373 431 428 431 503C431 618 353 689 226 689C154 689 105 669 56 619L39 483L68 483L81 529C97 587 133 612 200 612C286 612 341 558 341 473C341 398 299 324 186 204Z" stroke="rgb(0,0,0)" stroke-opacity="1" stroke-width="8" fill="rgb(0,0,0)" fill-opacity="1"></path></g></g><g><g transform="matrix(1,0,0,1,184.25,33.6875)"><path transform="matrix(0.017,0,0,-0.017,0,0)" d="M204 123C177 114 159 108 106 93C99 17 74 -48 16 -144L30 -155L71 -136C152 -31 190 32 218 109Z" stroke="rgb(0,0,0)" stroke-opacity="1" stroke-width="8" fill="rgb(0,0,0)" fill-opacity="1"></path></g></g><g><g transform="matrix(1,0,0,1,191.875,33.6875)"><path transform="matrix(0.017,0,0,-0.017,0,0)" d="M272 400L309 400C349 400 353 393 353 327L353 102C353 39 350 32 316 30L270 27L270 -3C342 -1 368 0 393 0C413 0 413 0 536 -3L536 27L484 30C439 33 437 36 437 102L437 274C437 334 477 384 526 384C556 384 577 370 593 338L614 338L623 458C612 465 594 469 576 469C546 469 514 453 493 428L437 362L437 465L428 469C377 448 325 434 272 428ZM967 82L962 -3C1027 0 1027 0 1040 0C1045 0 1070 -1 1114 -3L1114 27L1075 29C1051 30 1047 38 1047 87L1047 270C1047 416 1005 469 889 469C846 469 806 458 768 435L715 403L715 338L741 331L754 362C775 409 785 416 831 416C925 416 964 379 967 288L868 270C732 245 675 198 675 111C675 33 722 -12 801 -12C819 -12 836 -9 843 -4ZM967 124C938 83 875 45 836 45C796 45 761 82 761 125C761 162 781 197 811 216C836 231 891 245 967 256ZM1240 382L1240 94C1240 20 1273 -12 1350 -12C1373 -12 1397 -7 1403 0L1451 53L1438 70C1413 56 1398 51 1379 51C1340 51 1324 71 1324 120L1324 382L1452 382L1461 436L1324 430L1324 468C1324 510 1327 546 1335 610L1323 621C1299 606 1269 593 1238 583C1241 553 1242 534 1242 504L1242 434L1164 399L1164 378ZM1655 465L1646 469C1595 448 1543 434 1490 428L1490 400L1527 400C1567 400 1571 393 1571 327L1571 102C1571 39 1568 32 1534 30L1488 27L1488 -3C1588 0 1588 0 1613 0C1638 0 1638 0 1738 -3L1738 27L1692 30C1658 32 1655 39 1655 102ZM1609 687C1579 687 1553 661 1553 631C1553 602 1579 576 1608 576C1637 576 1664 602 1664 631C1664 659 1637 687 1609 687ZM2036 469C1890 469 1789 366 1789 217C1789 76 1878 -20 2007 -20C2161 -20 2271 87 2271 237C2271 372 2173 469 2036 469ZM2018 436C2110 436 2178 336 2178 200C2178 85 2127 13 2046 13C1948 13 1882 109 1882 251C1882 371 1930 436 2018 436Z" stroke="rgb(0,0,0)" stroke-opacity="1" stroke-width="8" fill="rgb(0,0,0)" fill-opacity="1"></path></g></g><g><svg x="232.203125" overflow="visible" y="7.6875" height="43" width="8.5"><path d=" M 6.27 1.70 c 0.00 -0.06 -0.04 -0.08 -0.08 -0.08 c -0.03 0.00 -0.06 0.01 -0.08 0.02 c -2.55 1.34 -4.65 3.73 -4.65 9.40 v 0.60 h 1.53 v -0.60 c 0.00 -3.23 0.64 -7.03 3.31 -9.06 c 0.12 -0.09 0.13 -0.19 0.13 -0.28 z   M 1.44 11.64 v 19.72 h 1.53 v -19.72 z" style="fill:rgb(0,0,0);fill-opacity:1;stroke-width:1px;stroke:none;stroke-opacity:1;"></path><path d=" M 6.27 41.30 c 0.00 0.06 -0.04 0.08 -0.08 0.08 c -0.03 0.00 -0.06 -0.01 -0.08 -0.02 c -2.55 -1.34 -4.65 -3.73 -4.65 -9.40 v -0.60 h 1.53 v 0.60 c 0.00 3.23 0.64 7.03 3.31 9.06 c 0.12 0.09 0.13 0.19 0.13 0.28 z" style="fill:rgb(0,0,0);fill-opacity:1;stroke-width:1px;stroke:none;stroke-opacity:1;"></path></svg></g><g><g><g><g><g transform="matrix(1,0,0,1,241.640625,21.296875)"><path transform="matrix(0.017,0,0,-0.017,0,0)" d="M324 82L319 -3C384 0 384 0 397 0C402 0 427 -1 471 -3L471 27L432 29C408 30 404 38 404 87L404 270C404 416 362 469 246 469C203 469 163 458 125 435L72 403L72 338L98 331L111 362C132 409 142 416 188 416C282 416 321 379 324 288L225 270C89 245 32 198 32 111C32 33 79 -12 158 -12C176 -12 193 -9 200 -4ZM324 124C295 83 232 45 193 45C153 45 118 82 118 125C118 162 138 197 168 216C193 231 248 245 324 256Z" stroke="rgb(0,0,0)" stroke-opacity="1" stroke-width="8" fill="rgb(0,0,0)" fill-opacity="1"></path></g></g></g></g><g><g><g><g transform="matrix(1,0,0,1,240.703125,47.078125)"><path transform="matrix(0.017,0,0,-0.017,0,0)" d="M579 -3L579 27L533 30C499 32 496 39 496 102L496 718L487 726C443 709 410 701 331 689L331 661L387 661C405 661 412 650 412 620L412 437C384 472 346 486 306 486C183 486 34 351 34 229C34 149 62 70 111 30C145 1 192 -12 257 -12C277 -12 300 -8 305 -4L416 89L411 -3C460 -1 476 0 488 0C506 0 570 -3 579 -3ZM412 350L412 221C412 156 410 146 397 123C369 76 320 45 273 45C185 45 122 130 122 249C122 358 176 422 266 422C345 422 412 366 412 350Z" stroke="rgb(0,0,0)" stroke-opacity="1" stroke-width="8" fill="rgb(0,0,0)" fill-opacity="1"></path></g></g></g></g><line style="fill:none;stroke-width:1px;stroke:rgb(0, 0, 0);" x1="240.703125" y1="29.4375" x2="251.078125" y2="29.4375"></line></g><g><svg x="251.078125" overflow="visible" y="7.6875" height="43" width="8.5"><path d=" M 1.75 1.70 c 0.00 -0.06 0.04 -0.08 0.08 -0.08 c 0.03 0.00 0.06 0.01 0.08 0.02 c 2.55 1.34 4.65 3.73 4.65 9.40 v 0.60 h -1.53 v -0.60 c 0.00 -3.23 -0.64 -7.03 -3.31 -9.06 c -0.12 -0.09 -0.13 -0.19 -0.13 -0.28 z  M 6.58 11.64 v 19.72 h -1.53 v -19.72 z" style="fill:rgb(0,0,0);fill-opacity:1;stroke-width:1px;stroke:none;stroke-opacity:1;"></path><path d=" M 1.75 41.30 c 0.00 0.06 0.04 0.08 0.08 0.08 c 0.03 0.00 0.06 -0.01 0.08 -0.02 c 2.55 -1.34 4.65 -3.73 4.65 -9.40 v -0.60 h -1.53 v 0.60 c 0.00 3.23 -0.64 7.03 -3.31 9.06 c -0.12 0.09 -0.13 0.19 -0.13 0.28 z" style="fill:rgb(0,0,0);fill-opacity:1;stroke-width:1px;stroke:none;stroke-opacity:1;"></path></svg></g><g><g transform="matrix(1,0,0,1,265.859375,33.6875)"><path transform="matrix(0.017,0,0,-0.017,0,0)" d="M604 347L604 406L65 406L65 347ZM604 134L604 193L65 193L65 134Z" stroke="rgb(0,0,0)" stroke-opacity="1" stroke-width="8" fill="rgb(0,0,0)" fill-opacity="1"></path></g></g><g><g transform="matrix(1,0,0,1,282.3125,33.6875)"><path transform="matrix(0.017,0,0,-0.017,0,0)" d="M23 400L60 400C100 400 104 393 104 327L104 102C104 39 101 32 67 30L21 27L21 -3C93 -1 119 0 144 0C164 0 164 0 287 -3L287 27L235 30C190 33 188 36 188 102L188 274C188 334 228 384 277 384C307 384 328 370 344 338L365 338L374 458C363 465 345 469 327 469C297 469 265 453 244 428L188 362L188 465L179 469C128 448 76 434 23 428ZM718 82L713 -3C778 0 778 0 791 0C796 0 821 -1 865 -3L865 27L826 29C802 30 798 38 798 87L798 270C798 416 756 469 640 469C597 469 557 458 519 435L466 403L466 338L492 331L505 362C526 409 536 416 582 416C676 416 715 379 718 288L619 270C483 245 426 198 426 111C426 33 473 -12 552 -12C570 -12 587 -9 594 -4ZM718 124C689 83 626 45 587 45C547 45 512 82 512 125C512 162 532 197 562 216C587 231 642 245 718 256ZM991 382L991 94C991 20 1024 -12 1101 -12C1124 -12 1148 -7 1154 0L1202 53L1189 70C1164 56 1149 51 1130 51C1091 51 1075 71 1075 120L1075 382L1203 382L1212 436L1075 430L1075 468C1075 510 1078 546 1086 610L1074 621C1050 606 1020 593 989 583C992 553 993 534 993 504L993 434L915 399L915 378ZM1406 465L1397 469C1346 448 1294 434 1241 428L1241 400L1278 400C1318 400 1322 393 1322 327L1322 102C1322 39 1319 32 1285 30L1239 27L1239 -3C1339 0 1339 0 1364 0C1389 0 1389 0 1489 -3L1489 27L1443 30C1409 32 1406 39 1406 102ZM1360 687C1330 687 1304 661 1304 631C1304 602 1330 576 1359 576C1388 576 1415 602 1415 631C1415 659 1388 687 1360 687ZM1787 469C1641 469 1540 366 1540 217C1540 76 1629 -20 1758 -20C1912 -20 2022 87 2022 237C2022 372 1924 469 1787 469ZM1769 436C1861 436 1929 336 1929 200C1929 85 1878 13 1797 13C1699 13 1633 109 1633 251C1633 371 1681 436 1769 436Z" stroke="rgb(0,0,0)" stroke-opacity="1" stroke-width="8" fill="rgb(0,0,0)" fill-opacity="1"></path></g></g><g><svg x="318.40625" overflow="visible" y="3.6875" height="47" width="8.5"><path d=" M 6.27 1.70 c 0.00 -0.06 -0.04 -0.08 -0.08 -0.08 c -0.03 0.00 -0.06 0.01 -0.08 0.02 c -2.55 1.34 -4.65 3.73 -4.65 9.40 v 0.60 h 1.53 v -0.60 c 0.00 -3.23 0.64 -7.03 3.31 -9.06 c 0.12 -0.09 0.13 -0.19 0.13 -0.28 z   M 1.44 11.64 v 23.72 h 1.53 v -23.72 z" style="fill:rgb(0,0,0);fill-opacity:1;stroke-width:1px;stroke:none;stroke-opacity:1;"></path><path d=" M 6.27 45.30 c 0.00 0.06 -0.04 0.08 -0.08 0.08 c -0.03 0.00 -0.06 -0.01 -0.08 -0.02 c -2.55 -1.34 -4.65 -3.73 -4.65 -9.40 v -0.60 h 1.53 v 0.60 c 0.00 3.23 0.64 7.03 3.31 9.06 c 0.12 0.09 0.13 0.19 0.13 0.28 z" style="fill:rgb(0,0,0);fill-opacity:1;stroke-width:1px;stroke:none;stroke-opacity:1;"></path></svg></g><g><g><g><g><g transform="matrix(1,0,0,1,327.390625,21.296875)"><path transform="matrix(0.017,0,0,-0.017,0,0)" d="M150 718L141 726C97 709 64 701 -15 689L-15 661L41 661C59 661 66 650 66 620L66 153C66 91 65 64 58 -6L74 -12L114 24C177 -12 232 -28 280 -28C432 -28 508 128 508 262L508 270C495 414 404 485 315 485C248 485 182 446 150 369ZM284 404C368 404 421 336 421 229C421 117 361 39 276 39C224 39 150 71 150 93L150 308C150 343 206 404 284 404Z" stroke="rgb(0,0,0)" stroke-opacity="1" stroke-width="8" fill="rgb(0,0,0)" fill-opacity="1"></path></g></g></g></g><g><g><g><g transform="matrix(1,0,0,1,326.90625,47.078125)"><path transform="matrix(0.017,0,0,-0.017,0,0)" d="M579 -3L579 27L533 30C499 32 496 39 496 102L496 718L487 726C443 709 410 701 331 689L331 661L387 661C405 661 412 650 412 620L412 437C384 472 346 486 306 486C183 486 34 351 34 229C34 149 62 70 111 30C145 1 192 -12 257 -12C277 -12 300 -8 305 -4L416 89L411 -3C460 -1 476 0 488 0C506 0 570 -3 579 -3ZM412 350L412 221C412 156 410 146 397 123C369 76 320 45 273 45C185 45 122 130 122 249C122 358 176 422 266 422C345 422 412 366 412 350Z" stroke="rgb(0,0,0)" stroke-opacity="1" stroke-width="8" fill="rgb(0,0,0)" fill-opacity="1"></path></g></g></g></g><line style="fill:none;stroke-width:1px;stroke:rgb(0, 0, 0);" x1="326.90625" y1="29.4375" x2="337.28125" y2="29.4375"></line></g><g><svg x="337.28125" overflow="visible" y="3.6875" height="47" width="8.5"><path d=" M 1.75 1.70 c 0.00 -0.06 0.04 -0.08 0.08 -0.08 c 0.03 0.00 0.06 0.01 0.08 0.02 c 2.55 1.34 4.65 3.73 4.65 9.40 v 0.60 h -1.53 v -0.60 c 0.00 -3.23 -0.64 -7.03 -3.31 -9.06 c -0.12 -0.09 -0.13 -0.19 -0.13 -0.28 z  M 6.58 11.64 v 23.72 h -1.53 v -23.72 z" style="fill:rgb(0,0,0);fill-opacity:1;stroke-width:1px;stroke:none;stroke-opacity:1;"></path><path d=" M 1.75 45.30 c 0.00 0.06 0.04 0.08 0.08 0.08 c 0.03 0.00 0.06 -0.01 0.08 -0.02 c 2.55 -1.34 4.65 -3.73 4.65 -9.40 v -0.60 h -1.53 v 0.60 c 0.00 3.23 -0.64 7.03 -3.31 9.06 c -0.12 0.09 -0.13 0.19 -0.13 0.28 z" style="fill:rgb(0,0,0);fill-opacity:1;stroke-width:1px;stroke:none;stroke-opacity:1;"></path></svg></g><g><g transform="matrix(1,0,0,1,352.0625,33.6875)"><path transform="matrix(0.017,0,0,-0.017,0,0)" d="M604 347L604 406L65 406L65 347ZM604 134L604 193L65 193L65 134Z" stroke="rgb(0,0,0)" stroke-opacity="1" stroke-width="8" fill="rgb(0,0,0)" fill-opacity="1"></path></g></g><g><g transform="matrix(1,0,0,1,368.515625,33.6875)"><path transform="matrix(0.017,0,0,-0.017,0,0)" d="M462 224C462 345 355 366 308 374C388 436 418 482 418 541C418 630 344 689 233 689C165 689 120 670 72 622L43 498L74 498L92 554C103 588 166 622 218 622C283 622 336 569 336 506C336 431 277 368 206 368C198 368 187 369 174 370L159 371L147 318L154 312C192 329 211 334 238 334C321 334 369 281 369 190C369 88 308 21 215 21C169 21 128 36 98 64C74 86 61 109 42 163L15 153C36 92 44 56 50 6C103 -12 147 -20 184 -20C307 -20 462 87 462 224Z" stroke="rgb(0,0,0)" stroke-opacity="1" stroke-width="8" fill="rgb(0,0,0)" fill-opacity="1"></path></g></g><g><g transform="matrix(1,0,0,1,381.234375,33.6875)"><path transform="matrix(0.017,0,0,-0.017,0,0)" d="M204 123C177 114 159 108 106 93C99 17 74 -48 16 -144L30 -155L71 -136C152 -31 190 32 218 109Z" stroke="rgb(0,0,0)" stroke-opacity="1" stroke-width="8" fill="rgb(0,0,0)" fill-opacity="1"></path></g></g><g><g transform="matrix(1,0,0,1,388.859375,33.6875)"><path transform="matrix(0.017,0,0,-0.017,0,0)" d="M573 82L568 -3C633 0 633 0 646 0C651 0 676 -1 720 -3L720 27L681 29C657 30 653 38 653 87L653 270C653 416 611 469 495 469C452 469 412 458 374 435L321 403L321 338L347 331L360 362C381 409 391 416 437 416C531 416 570 379 573 288L474 270C338 245 281 198 281 111C281 33 328 -12 407 -12C425 -12 442 -9 449 -4ZM573 124C544 83 481 45 442 45C402 45 367 82 367 125C367 162 387 197 417 216C442 231 497 245 573 256ZM1158 -3C1219 0 1220 0 1237 0C1251 0 1251 0 1320 -3L1320 27L1279 30C1245 32 1242 38 1242 102L1242 295C1242 412 1187 469 1075 469C1038 469 1017 462 996 444L920 378L920 465L911 469C860 448 808 434 755 428L755 400L792 400C832 400 836 393 836 327L836 102C836 39 833 32 799 30L754 27L754 -3C822 -1 849 0 878 0C907 0 934 -1 1002 -3L1002 27L957 30C923 32 920 39 920 102L920 314C920 359 986 408 1047 408C1114 408 1158 358 1158 281ZM1908 -3L1908 27L1862 30C1828 32 1825 39 1825 102L1825 718L1816 726C1772 709 1739 701 1660 689L1660 661L1716 661C1734 661 1741 650 1741 620L1741 437C1713 472 1675 486 1635 486C1512 486 1363 351 1363 229C1363 149 1391 70 1440 30C1474 1 1521 -12 1586 -12C1606 -12 1629 -8 1634 -4L1745 89L1740 -3C1789 -1 1805 0 1817 0C1835 0 1899 -3 1908 -3ZM1741 350L1741 221C1741 156 1739 146 1726 123C1698 76 1649 45 1602 45C1514 45 1451 130 1451 249C1451 358 1505 422 1595 422C1674 422 1741 366 1741 350ZM2211 400L2248 400C2288 400 2292 393 2292 327L2292 102C2292 39 2289 32 2255 30L2209 27L2209 -3C2281 -1 2307 0 2332 0C2352 0 2352 0 2475 -3L2475 27L2423 30C2378 33 2376 36 2376 102L2376 274C2376 334 2416 384 2465 384C2495 384 2516 370 2532 338L2553 338L2562 458C2551 465 2533 469 2515 469C2485 469 2453 453 2432 428L2376 362L2376 465L2367 469C2316 448 2264 434 2211 428ZM2906 82L2901 -3C2966 0 2966 0 2979 0C2984 0 3009 -1 3053 -3L3053 27L3014 29C2990 30 2986 38 2986 87L2986 270C2986 416 2944 469 2828 469C2785 469 2745 458 2707 435L2654 403L2654 338L2680 331L2693 362C2714 409 2724 416 2770 416C2864 416 2903 379 2906 288L2807 270C2671 245 2614 198 2614 111C2614 33 2661 -12 2740 -12C2758 -12 2775 -9 2782 -4ZM2906 124C2877 83 2814 45 2775 45C2735 45 2700 82 2700 125C2700 162 2720 197 2750 216C2775 231 2830 245 2906 256ZM3179 382L3179 94C3179 20 3212 -12 3289 -12C3312 -12 3336 -7 3342 0L3390 53L3377 70C3352 56 3337 51 3318 51C3279 51 3263 71 3263 120L3263 382L3391 382L3400 436L3263 430L3263 468C3263 510 3266 546 3274 610L3262 621C3238 606 3208 593 3177 583C3180 553 3181 534 3181 504L3181 434L3103 399L3103 378ZM3594 465L3585 469C3534 448 3482 434 3429 428L3429 400L3466 400C3506 400 3510 393 3510 327L3510 102C3510 39 3507 32 3473 30L3427 27L3427 -3C3527 0 3527 0 3552 0C3577 0 3577 0 3677 -3L3677 27L3631 30C3597 32 3594 39 3594 102ZM3548 687C3518 687 3492 661 3492 631C3492 602 3518 576 3547 576C3576 576 3603 602 3603 631C3603 659 3576 687 3548 687ZM3975 469C3829 469 3728 366 3728 217C3728 76 3817 -20 3946 -20C4100 -20 4210 87 4210 237C4210 372 4112 469 3975 469ZM3957 436C4049 436 4117 336 4117 200C4117 85 4066 13 3985 13C3887 13 3821 109 3821 251C3821 371 3869 436 3957 436Z" stroke="rgb(0,0,0)" stroke-opacity="1" stroke-width="8" fill="rgb(0,0,0)" fill-opacity="1"></path></g></g><g><svg x="462.15625" overflow="visible" y="3.6875" height="47" width="8.5"><path d=" M 6.27 1.70 c 0.00 -0.06 -0.04 -0.08 -0.08 -0.08 c -0.03 0.00 -0.06 0.01 -0.08 0.02 c -2.55 1.34 -4.65 3.73 -4.65 9.40 v 0.60 h 1.53 v -0.60 c 0.00 -3.23 0.64 -7.03 3.31 -9.06 c 0.12 -0.09 0.13 -0.19 0.13 -0.28 z   M 1.44 11.64 v 23.72 h 1.53 v -23.72 z" style="fill:rgb(0,0,0);fill-opacity:1;stroke-width:1px;stroke:none;stroke-opacity:1;"></path><path d=" M 6.27 45.30 c 0.00 0.06 -0.04 0.08 -0.08 0.08 c -0.03 0.00 -0.06 -0.01 -0.08 -0.02 c -2.55 -1.34 -4.65 -3.73 -4.65 -9.40 v -0.60 h 1.53 v 0.60 c 0.00 3.23 0.64 7.03 3.31 9.06 c 0.12 0.09 0.13 0.19 0.13 0.28 z" style="fill:rgb(0,0,0);fill-opacity:1;stroke-width:1px;stroke:none;stroke-opacity:1;"></path></svg></g><g><g><g><g><g transform="matrix(1,0,0,1,470.65625,21.296875)"><path transform="matrix(0.017,0,0,-0.017,0,0)" d="M579 -3L579 27L533 30C499 32 496 39 496 102L496 718L487 726C443 709 410 701 331 689L331 661L387 661C405 661 412 650 412 620L412 437C384 472 346 486 306 486C183 486 34 351 34 229C34 149 62 70 111 30C145 1 192 -12 257 -12C277 -12 300 -8 305 -4L416 89L411 -3C460 -1 476 0 488 0C506 0 570 -3 579 -3ZM412 350L412 221C412 156 410 146 397 123C369 76 320 45 273 45C185 45 122 130 122 249C122 358 176 422 266 422C345 422 412 366 412 350Z" stroke="rgb(0,0,0)" stroke-opacity="1" stroke-width="8" fill="rgb(0,0,0)" fill-opacity="1"></path></g></g></g></g><g><g><g><g transform="matrix(1,0,0,1,472.078125,47.078125)"><path transform="matrix(0.017,0,0,-0.017,0,0)" d="M399 311C399 357 404 398 413 434C381 478 338 497 293 497C169 497 25 361 25 224C25 219 26 215 26 210C26 75 121 -20 255 -20C307 -20 382 -1 392 14L413 46L403 61C366 41 334 32 298 32C187 32 114 118 114 250C114 357 164 417 254 417C298 417 346 397 364 372L371 311Z" stroke="rgb(0,0,0)" stroke-opacity="1" stroke-width="8" fill="rgb(0,0,0)" fill-opacity="1"></path></g></g></g></g><line style="fill:none;stroke-width:1px;stroke:rgb(0, 0, 0);" x1="470.65625" y1="29.4375" x2="481.03125" y2="29.4375"></line></g><g><svg x="481.03125" overflow="visible" y="3.6875" height="47" width="8.5"><path d=" M 1.75 1.70 c 0.00 -0.06 0.04 -0.08 0.08 -0.08 c 0.03 0.00 0.06 0.01 0.08 0.02 c 2.55 1.34 4.65 3.73 4.65 9.40 v 0.60 h -1.53 v -0.60 c 0.00 -3.23 -0.64 -7.03 -3.31 -9.06 c -0.12 -0.09 -0.13 -0.19 -0.13 -0.28 z  M 6.58 11.64 v 23.72 h -1.53 v -23.72 z" style="fill:rgb(0,0,0);fill-opacity:1;stroke-width:1px;stroke:none;stroke-opacity:1;"></path><path d=" M 1.75 45.30 c 0.00 0.06 0.04 0.08 0.08 0.08 c 0.03 0.00 0.06 -0.01 0.08 -0.02 c 2.55 -1.34 4.65 -3.73 4.65 -9.40 v -0.60 h -1.53 v 0.60 c 0.00 3.23 -0.64 7.03 -3.31 9.06 c -0.12 0.09 -0.13 0.19 -0.13 0.28 z" style="fill:rgb(0,0,0);fill-opacity:1;stroke-width:1px;stroke:none;stroke-opacity:1;"></path></svg></g><g><g transform="matrix(1,0,0,1,495.8125,33.6875)"><path transform="matrix(0.017,0,0,-0.017,0,0)" d="M604 347L604 406L65 406L65 347ZM604 134L604 193L65 193L65 134Z" stroke="rgb(0,0,0)" stroke-opacity="1" stroke-width="8" fill="rgb(0,0,0)" fill-opacity="1"></path></g></g><g><g><g><g><g transform="matrix(1,0,0,1,513.953125,21.296875)"><path transform="matrix(0.017,0,0,-0.017,0,0)" d="M462 224C462 345 355 366 308 374C388 436 418 482 418 541C418 630 344 689 233 689C165 689 120 670 72 622L43 498L74 498L92 554C103 588 166 622 218 622C283 622 336 569 336 506C336 431 277 368 206 368C198 368 187 369 174 370L159 371L147 318L154 312C192 329 211 334 238 334C321 334 369 281 369 190C369 88 308 21 215 21C169 21 128 36 98 64C74 86 61 109 42 163L15 153C36 92 44 56 50 6C103 -12 147 -20 184 -20C307 -20 462 87 462 224Z" stroke="rgb(0,0,0)" stroke-opacity="1" stroke-width="8" fill="rgb(0,0,0)" fill-opacity="1"></path></g></g></g></g><g><g><g><g transform="matrix(1,0,0,1,513.953125,47.078125)"><path transform="matrix(0.017,0,0,-0.017,0,0)" d="M16 23L16 -3C203 -3 203 0 239 0C275 0 275 -3 468 -3L468 82C353 77 307 81 122 77L304 270C401 373 431 428 431 503C431 618 353 689 226 689C154 689 105 669 56 619L39 483L68 483L81 529C97 587 133 612 200 612C286 612 341 558 341 473C341 398 299 324 186 204Z" stroke="rgb(0,0,0)" stroke-opacity="1" stroke-width="8" fill="rgb(0,0,0)" fill-opacity="1"></path></g></g></g></g><line style="fill:none;stroke-width:1px;stroke:rgb(0, 0, 0);" x1="513.953125" y1="29.4375" x2="522.4375" y2="29.4375"></line></g></g></g></svg>