<svg xmlns="http://www.w3.org/2000/svg" xmlns:xlink="http://www.w3.org/1999/xlink" width="142.1796875" height="54.390625" style="width:142.1796875px;height:54.390625px;font-family:Asana-Math, Asana;background:#FFF;"><g><g><g><g transform="matrix(1,0,0,1,2,33.1953125)"><path transform="matrix(0.017,0,0,-0.017,0,0)" d="M23 400L60 400C100 400 104 393 104 327L104 102C104 39 101 32 67 30L21 27L21 -3C93 -1 119 0 144 0C164 0 164 0 287 -3L287 27L235 30C190 33 188 36 188 102L188 274C188 334 228 384 277 384C307 384 328 370 344 338L365 338L374 458C363 465 345 469 327 469C297 469 265 453 244 428L188 362L188 465L179 469C128 448 76 434 23 428ZM718 82L713 -3C778 0 778 0 791 0C796 0 821 -1 865 -3L865 27L826 29C802 30 798 38 798 87L798 270C798 416 756 469 640 469C597 469 557 458 519 435L466 403L466 338L492 331L505 362C526 409 536 416 582 416C676 416 715 379 718 288L619 270C483 245 426 198 426 111C426 33 473 -12 552 -12C570 -12 587 -9 594 -4ZM718 124C689 83 626 45 587 45C547 45 512 82 512 125C512 162 532 197 562 216C587 231 642 245 718 256ZM991 382L991 94C991 20 1024 -12 1101 -12C1124 -12 1148 -7 1154 0L1202 53L1189 70C1164 56 1149 51 1130 51C1091 51 1075 71 1075 120L1075 382L1203 382L1212 436L1075 430L1075 468C1075 510 1078 546 1086 610L1074 621C1050 606 1020 593 989 583C992 553 993 534 993 504L993 434L915 399L915 378ZM1406 465L1397 469C1346 448 1294 434 1241 428L1241 400L1278 400C1318 400 1322 393 1322 327L1322 102C1322 39 1319 32 1285 30L1239 27L1239 -3C1339 0 1339 0 1364 0C1389 0 1389 0 1489 -3L1489 27L1443 30C1409 32 1406 39 1406 102ZM1360 687C1330 687 1304 661 1304 631C1304 602 1330 576 1359 576C1388 576 1415 602 1415 631C1415 659 1388 687 1360 687ZM1787 469C1641 469 1540 366 1540 217C1540 76 1629 -20 1758 -20C1912 -20 2022 87 2022 237C2022 372 1924 469 1787 469ZM1769 436C1861 436 1929 336 1929 200C1929 85 1878 13 1797 13C1699 13 1633 109 1633 251C1633 371 1681 436 1769 436Z" stroke="rgb(0,0,0)" stroke-opacity="1" stroke-width="8" fill="rgb(0,0,0)" fill-opacity="1"></path></g></g><g><svg x="38.09375" overflow="visible" y="3.6953125" height="47" width="8.5"><path d=" M 6.27 1.70 c 0.00 -0.06 -0.04 -0.08 -0.08 -0.08 c -0.03 0.00 -0.06 0.01 -0.08 0.02 c -2.55 1.34 -4.65 3.73 -4.65 9.40 v 0.60 h 1.53 v -0.60 c 0.00 -3.23 0.64 -7.03 3.31 -9.06 c 0.12 -0.09 0.13 -0.19 0.13 -0.28 z   M 1.44 11.64 v 23.72 h 1.53 v -23.72 z" style="fill:rgb(0,0,0);fill-opacity:1;stroke-width:1px;stroke:none;stroke-opacity:1;"></path><path d=" M 6.27 45.30 c 0.00 0.06 -0.04 0.08 -0.08 0.08 c -0.03 0.00 -0.06 -0.01 -0.08 -0.02 c -2.55 -1.34 -4.65 -3.73 -4.65 -9.40 v -0.60 h 1.53 v 0.60 c 0.00 3.23 0.64 7.03 3.31 9.06 c 0.12 0.09 0.13 0.19 0.13 0.28 z" style="fill:rgb(0,0,0);fill-opacity:1;stroke-width:1px;stroke:none;stroke-opacity:1;"></path></svg></g><g><g><g><g><g transform="matrix(1,0,0,1,46.59375,20.796875)"><path transform="matrix(0.017,0,0,-0.017,0,0)" d="M18 400L55 400C95 400 99 393 99 327L99 102C99 39 96 32 62 30L16 27L16 -3C112 0 115 0 143 0C171 0 197 -1 262 -3L262 27L220 30C186 32 183 39 183 102L183 314C183 359 249 408 309 408C363 408 400 357 400 281L400 102C400 39 397 32 363 30L317 27L317 -3C417 0 417 0 442 0C467 0 467 0 567 -3L567 27L521 30C487 32 484 39 484 102L484 314C484 359 550 408 610 408C664 408 701 357 701 281L701 -3C762 0 763 0 780 0C793 0 793 0 869 -3L869 27L822 30C788 32 785 39 785 102L785 308C785 407 727 469 635 469C600 469 571 460 553 444L477 376C445 442 404 469 335 469C298 469 270 460 252 444L183 380L183 465L174 469C123 448 71 434 18 428ZM1070 465L1061 469C1010 448 958 434 905 428L905 400L942 400C982 400 986 393 986 327L986 102C986 39 983 32 949 30L903 27L903 -3C1003 0 1003 0 1028 0C1053 0 1053 0 1153 -3L1153 27L1107 30C1073 32 1070 39 1070 102ZM1024 687C994 687 968 661 968 631C968 602 994 576 1023 576C1052 576 1079 602 1079 631C1079 659 1052 687 1024 687ZM1270 382L1270 94C1270 20 1303 -12 1380 -12C1403 -12 1427 -7 1433 0L1481 53L1468 70C1443 56 1428 51 1409 51C1370 51 1354 71 1354 120L1354 382L1482 382L1491 436L1354 430L1354 468C1354 510 1357 546 1365 610L1353 621C1329 606 1299 593 1268 583C1271 553 1272 534 1272 504L1272 434L1194 399L1194 378ZM1685 465L1676 469C1625 448 1573 434 1520 428L1520 400L1557 400C1597 400 1601 393 1601 327L1601 102C1601 39 1598 32 1564 30L1518 27L1518 -3C1618 0 1618 0 1643 0C1668 0 1668 0 1768 -3L1768 27L1722 30C1688 32 1685 39 1685 102ZM1639 687C1609 687 1583 661 1583 631C1583 602 1609 576 1638 576C1667 576 1694 602 1694 631C1694 659 1667 687 1639 687ZM1842 289C1842 215 1888 164 1962 156L1883 95C1873 80 1868 67 1868 52C1868 24 1886 8 1934 -6L1847 -53C1833 -61 1819 -98 1819 -129C1819 -220 1908 -283 2035 -283C2186 -283 2305 -188 2305 -66C2305 6 2257 56 2187 56L2027 56C1975 56 1951 68 1951 95C1951 118 1980 135 1997 152C2007 151 2013 150 2021 150C2082 150 2225 197 2225 324C2225 344 2222 357 2214 378L2306 378L2331 419L2327 431L2185 427C2148 457 2112 469 2063 469C1988 469 1842 424 1842 289ZM2027 435C2095 435 2141 379 2141 294C2141 229 2099 184 2038 184C1971 184 1926 236 1926 313C1926 390 1963 435 2027 435ZM2074 -14C2187 -14 2226 -37 2226 -102C2226 -188 2147 -252 2042 -252C1955 -252 1895 -201 1895 -127C1895 -82 1921 -41 1961 -24C1977 -16 2005 -14 2074 -14ZM2666 82L2661 -3C2726 0 2726 0 2739 0C2744 0 2769 -1 2813 -3L2813 27L2774 29C2750 30 2746 38 2746 87L2746 270C2746 416 2704 469 2588 469C2545 469 2505 458 2467 435L2414 403L2414 338L2440 331L2453 362C2474 409 2484 416 2530 416C2624 416 2663 379 2666 288L2567 270C2431 245 2374 198 2374 111C2374 33 2421 -12 2500 -12C2518 -12 2535 -9 2542 -4ZM2666 124C2637 83 2574 45 2535 45C2495 45 2460 82 2460 125C2460 162 2480 197 2510 216C2535 231 2590 245 2666 256ZM2939 382L2939 94C2939 20 2972 -12 3049 -12C3072 -12 3096 -7 3102 0L3150 53L3137 70C3112 56 3097 51 3078 51C3039 51 3023 71 3023 120L3023 382L3151 382L3160 436L3023 430L3023 468C3023 510 3026 546 3034 610L3022 621C2998 606 2968 593 2937 583C2940 553 2941 534 2941 504L2941 434L2863 399L2863 378ZM3354 465L3345 469C3294 448 3242 434 3189 428L3189 400L3226 400C3266 400 3270 393 3270 327L3270 102C3270 39 3267 32 3233 30L3187 27L3187 -3C3287 0 3287 0 3312 0C3337 0 3337 0 3437 -3L3437 27L3391 30C3357 32 3354 39 3354 102ZM3308 687C3278 687 3252 661 3252 631C3252 602 3278 576 3307 576C3336 576 3363 602 3363 631C3363 659 3336 687 3308 687ZM3735 469C3589 469 3488 366 3488 217C3488 76 3577 -20 3706 -20C3860 -20 3970 87 3970 237C3970 372 3872 469 3735 469ZM3717 436C3809 436 3877 336 3877 200C3877 85 3826 13 3745 13C3647 13 3581 109 3581 251C3581 371 3629 436 3717 436ZM4411 -3C4472 0 4473 0 4490 0C4504 0 4504 0 4573 -3L4573 27L4532 30C4498 32 4495 38 4495 102L4495 295C4495 412 4440 469 4328 469C4291 469 4270 462 4249 444L4173 378L4173 465L4164 469C4113 448 4061 434 4008 428L4008 400L4045 400C4085 400 4089 393 4089 327L4089 102C4089 39 4086 32 4052 30L4007 27L4007 -3C4075 -1 4102 0 4131 0C4160 0 4187 -1 4255 -3L4255 27L4210 30C4176 32 4173 39 4173 102L4173 314C4173 359 4239 408 4300 408C4367 408 4411 358 4411 281ZM4623 143C4623 74 4620 44 4612 4C4664 -13 4703 -20 4749 -20C4880 -20 4973 50 4973 148C4973 321 4689 228 4689 358C4689 408 4724 436 4785 436C4852 436 4903 401 4903 354L4903 331L4931 331C4932 389 4933 413 4936 444C4883 462 4847 469 4806 469C4690 469 4619 414 4619 324C4619 276 4641 242 4687 221C4805 169 4899 195 4899 109C4899 55 4849 17 4778 17C4705 17 4653 52 4653 102L4653 143Z" stroke="rgb(0,0,0)" stroke-opacity="1" stroke-width="8" fill="rgb(0,0,0)" fill-opacity="1"></path></g></g></g></g><g><g><g><g transform="matrix(1,0,0,1,50.8984375,46.59375)"><path transform="matrix(0.017,0,0,-0.017,0,0)" d="M579 -3L579 27L533 30C499 32 496 39 496 102L496 718L487 726C443 709 410 701 331 689L331 661L387 661C405 661 412 650 412 620L412 437C384 472 346 486 306 486C183 486 34 351 34 229C34 149 62 70 111 30C145 1 192 -12 257 -12C277 -12 300 -8 305 -4L416 89L411 -3C460 -1 476 0 488 0C506 0 570 -3 579 -3ZM412 350L412 221C412 156 410 146 397 123C369 76 320 45 273 45C185 45 122 130 122 249C122 358 176 422 266 422C345 422 412 366 412 350ZM860 -20C925 -20 1015 18 1027 36L1047 70L1034 80C970 42 947 33 904 33C839 33 785 62 757 111C738 144 731 172 729 230C750 227 780 226 814 226C900 226 1009 234 1056 244C1057 258 1058 267 1058 279C1058 394 984 469 872 469C835 469 790 464 750 440C668 392 636 323 636 219C636 25 771 -20 860 -20ZM969 267C945 264 894 261 843 261C800 261 757 264 731 270C731 317 735 339 748 365C769 409 812 436 860 436C893 436 919 423 937 396C959 363 966 334 969 267ZM1186 382L1186 94C1186 20 1219 -12 1296 -12C1319 -12 1343 -7 1349 0L1397 53L1384 70C1359 56 1344 51 1325 51C1286 51 1270 71 1270 120L1270 382L1398 382L1407 436L1270 430L1270 468C1270 510 1273 546 1281 610L1269 621C1245 606 1215 593 1184 583C1187 553 1188 534 1188 504L1188 434L1110 399L1110 378ZM1663 -20C1728 -20 1818 18 1830 36L1850 70L1837 80C1773 42 1750 33 1707 33C1642 33 1588 62 1560 111C1541 144 1534 172 1532 230C1553 227 1583 226 1617 226C1703 226 1812 234 1859 244C1860 258 1861 267 1861 279C1861 394 1787 469 1675 469C1638 469 1593 464 1553 440C1471 392 1439 323 1439 219C1439 25 1574 -20 1663 -20ZM1772 267C1748 264 1697 261 1646 261C1603 261 1560 264 1534 270C1534 317 1538 339 1551 365C1572 409 1615 436 1663 436C1696 436 1722 423 1740 396C1762 363 1769 334 1772 267ZM2290 311C2290 357 2295 398 2304 434C2272 478 2229 497 2184 497C2060 497 1916 361 1916 224C1916 219 1917 215 1917 210C1917 75 2012 -20 2146 -20C2198 -20 2273 -1 2283 14L2304 46L2294 61C2257 41 2225 32 2189 32C2078 32 2005 118 2005 250C2005 357 2055 417 2145 417C2189 417 2237 397 2255 372L2262 311ZM2432 382L2432 94C2432 20 2465 -12 2542 -12C2565 -12 2589 -7 2595 0L2643 53L2630 70C2605 56 2590 51 2571 51C2532 51 2516 71 2516 120L2516 382L2644 382L2653 436L2516 430L2516 468C2516 510 2519 546 2527 610L2515 621C2491 606 2461 593 2430 583C2433 553 2434 534 2434 504L2434 434L2356 399L2356 378ZM2847 465L2838 469C2787 448 2735 434 2682 428L2682 400L2719 400C2759 400 2763 393 2763 327L2763 102C2763 39 2760 32 2726 30L2680 27L2680 -3C2780 0 2780 0 2805 0C2830 0 2830 0 2930 -3L2930 27L2884 30C2850 32 2847 39 2847 102ZM2801 687C2771 687 2745 661 2745 631C2745 602 2771 576 2800 576C2829 576 2856 602 2856 631C2856 659 2829 687 2801 687ZM3228 469C3082 469 2981 366 2981 217C2981 76 3070 -20 3199 -20C3353 -20 3463 87 3463 237C3463 372 3365 469 3228 469ZM3210 436C3302 436 3370 336 3370 200C3370 85 3319 13 3238 13C3140 13 3074 109 3074 251C3074 371 3122 436 3210 436ZM3904 -3C3965 0 3966 0 3983 0C3997 0 3997 0 4066 -3L4066 27L4025 30C3991 32 3988 38 3988 102L3988 295C3988 412 3933 469 3821 469C3784 469 3763 462 3742 444L3666 378L3666 465L3657 469C3606 448 3554 434 3501 428L3501 400L3538 400C3578 400 3582 393 3582 327L3582 102C3582 39 3579 32 3545 30L3500 27L3500 -3C3568 -1 3595 0 3624 0C3653 0 3680 -1 3748 -3L3748 27L3703 30C3669 32 3666 39 3666 102L3666 314C3666 359 3732 408 3793 408C3860 408 3904 358 3904 281ZM4116 143C4116 74 4113 44 4105 4C4157 -13 4196 -20 4242 -20C4373 -20 4466 50 4466 148C4466 321 4182 228 4182 358C4182 408 4217 436 4278 436C4345 436 4396 401 4396 354L4396 331L4424 331C4425 389 4426 413 4429 444C4376 462 4340 469 4299 469C4183 469 4112 414 4112 324C4112 276 4134 242 4180 221C4298 169 4392 195 4392 109C4392 55 4342 17 4271 17C4198 17 4146 52 4146 102L4146 143Z" stroke="rgb(0,0,0)" stroke-opacity="1" stroke-width="8" fill="rgb(0,0,0)" fill-opacity="1"></path></g></g></g></g><line style="fill:none;stroke-width:1px;stroke:rgb(0, 0, 0);" x1="46.59375" y1="28.9453125" x2="131.6796875" y2="28.9453125"></line></g><g><svg x="131.6796875" overflow="visible" y="3.6953125" height="47" width="8.5"><path d=" M 1.75 1.70 c 0.00 -0.06 0.04 -0.08 0.08 -0.08 c 0.03 0.00 0.06 0.01 0.08 0.02 c 2.55 1.34 4.65 3.73 4.65 9.40 v 0.60 h -1.53 v -0.60 c 0.00 -3.23 -0.64 -7.03 -3.31 -9.06 c -0.12 -0.09 -0.13 -0.19 -0.13 -0.28 z  M 6.58 11.64 v 23.72 h -1.53 v -23.72 z" style="fill:rgb(0,0,0);fill-opacity:1;stroke-width:1px;stroke:none;stroke-opacity:1;"></path><path d=" M 1.75 45.30 c 0.00 0.06 0.04 0.08 0.08 0.08 c 0.03 0.00 0.06 -0.01 0.08 -0.02 c 2.55 -1.34 4.65 -3.73 4.65 -9.40 v -0.60 h -1.53 v 0.60 c 0.00 3.23 -0.64 7.03 -3.31 9.06 c -0.12 0.09 -0.13 0.19 -0.13 0.28 z" style="fill:rgb(0,0,0);fill-opacity:1;stroke-width:1px;stroke:none;stroke-opacity:1;"></path></svg></g></g></g></svg>