<svg xmlns="http://www.w3.org/2000/svg" xmlns:xlink="http://www.w3.org/1999/xlink" width="127.5625" height="54.171875" style="width:127.5625px;height:54.171875px;font-family:Asana-Math, Asana;background:#FFF;"><g><g><g><g transform="matrix(1,0,0,1,2,33.390625)"><path transform="matrix(0.017,0,0,-0.017,0,0)" d="M413 469L254 104C251 113 166 397 166 405C166 420 179 428 204 429L244 431L244 459C145 456 145 456 125 456C105 456 105 456 6 459L6 431L34 429C62 427 75 407 100 329L202 -7L249 -7L399 335L535 -7L581 -7L718 342C748 409 760 426 782 429L808 431L808 459C726 456 726 456 710 456C694 456 694 456 612 459L612 431L646 429C671 428 685 416 685 398L580 98L465 388C451 422 444 442 436 469Z" stroke="rgb(0,0,0)" stroke-opacity="1" stroke-width="8" fill="rgb(0,0,0)" fill-opacity="1"></path></g></g><g><g><g><g><g transform="matrix(1,0,0,1,16.671875,36.4)"><path transform="matrix(0.0119,0,0,-0.0119,0,0)" d="M18 400L55 400C95 400 99 393 99 327L99 102C99 39 96 32 62 30L16 27L16 -3C112 0 115 0 143 0C171 0 197 -1 262 -3L262 27L220 30C186 32 183 39 183 102L183 314C183 359 249 408 309 408C363 408 400 357 400 281L400 102C400 39 397 32 363 30L317 27L317 -3C417 0 417 0 442 0C467 0 467 0 567 -3L567 27L521 30C487 32 484 39 484 102L484 314C484 359 550 408 610 408C664 408 701 357 701 281L701 -3C762 0 763 0 780 0C793 0 793 0 869 -3L869 27L822 30C788 32 785 39 785 102L785 308C785 407 727 469 635 469C600 469 571 460 553 444L477 376C445 442 404 469 335 469C298 469 270 460 252 444L183 380L183 465L174 469C123 448 71 434 18 428Z" stroke="rgb(0,0,0)" stroke-opacity="1" stroke-width="8" fill="rgb(0,0,0)" fill-opacity="1"></path></g></g></g></g></g><g><g transform="matrix(1,0,0,1,33.28125,33.390625)"><path transform="matrix(0.017,0,0,-0.017,0,0)" d="M826 347L826 406L287 406L287 347ZM826 134L826 193L287 193L287 134ZM202 458C202 491 175 518 143 518C112 518 85 492 85 458C85 418 121 401 143 401C165 401 202 419 202 458ZM202 80C202 113 175 140 143 140C112 140 85 114 85 80C85 40 121 23 143 23C165 23 202 41 202 80Z" stroke="rgb(0,0,0)" stroke-opacity="1" stroke-width="8" fill="rgb(0,0,0)" fill-opacity="1"></path></g></g><g><g transform="matrix(1,0,0,1,53.515625,33.390625)"><path transform="matrix(0.017,0,0,-0.017,0,0)" d="" stroke="rgb(0,0,0)" stroke-opacity="1" stroke-width="8" fill="rgb(0,0,0)" fill-opacity="1"></path></g></g><g><g><g><g><g transform="matrix(1,0,0,1,79.421875,19)"><path transform="matrix(0.017,0,0,-0.017,0,0)" d="M413 469L254 104C251 113 166 397 166 405C166 420 179 428 204 429L244 431L244 459C145 456 145 456 125 456C105 456 105 456 6 459L6 431L34 429C62 427 75 407 100 329L202 -7L249 -7L399 335L535 -7L581 -7L718 342C748 409 760 426 782 429L808 431L808 459C726 456 726 456 710 456C694 456 694 456 612 459L612 431L646 429C671 428 685 416 685 398L580 98L465 388C451 422 444 442 436 469ZM937 470C994 543 1032 610 1066 696L1053 709C1017 697 1007 694 956 679C950 599 926 533 878 456L893 446Z" stroke="rgb(0,0,0)" stroke-opacity="1" stroke-width="8" fill="rgb(0,0,0)" fill-opacity="1"></path></g></g><g><g><g><g><g transform="matrix(1,0,0,1,94.046875,22.009375)"><path transform="matrix(0.0119,0,0,-0.0119,0,0)" d="M18 400L55 400C95 400 99 393 99 327L99 102C99 39 96 32 62 30L16 27L16 -3C112 0 115 0 143 0C171 0 197 -1 262 -3L262 27L220 30C186 32 183 39 183 102L183 314C183 359 249 408 309 408C363 408 400 357 400 281L400 102C400 39 397 32 363 30L317 27L317 -3C417 0 417 0 442 0C467 0 467 0 567 -3L567 27L521 30C487 32 484 39 484 102L484 314C484 359 550 408 610 408C664 408 701 357 701 281L701 -3C762 0 763 0 780 0C793 0 793 0 869 -3L869 27L822 30C788 32 785 39 785 102L785 308C785 407 727 469 635 469C600 469 571 460 553 444L477 376C445 442 404 469 335 469C298 469 270 460 252 444L183 380L183 465L174 469C123 448 71 434 18 428Z" stroke="rgb(0,0,0)" stroke-opacity="1" stroke-width="8" fill="rgb(0,0,0)" fill-opacity="1"></path></g></g></g></g></g></g></g><g><g><g><g transform="matrix(1,0,0,1,59.4375,46.78125)"><path transform="matrix(0.017,0,0,-0.017,0,0)" d="M413 469L254 104C251 113 166 397 166 405C166 420 179 428 204 429L244 431L244 459C145 456 145 456 125 456C105 456 105 456 6 459L6 431L34 429C62 427 75 407 100 329L202 -7L249 -7L399 335L535 -7L581 -7L718 342C748 409 760 426 782 429L808 431L808 459C726 456 726 456 710 456C694 456 694 456 612 459L612 431L646 429C671 428 685 416 685 398L580 98L465 388C451 422 444 442 436 469ZM937 470C994 543 1032 610 1066 696L1053 709C1017 697 1007 694 956 679C950 599 926 533 878 456L893 446Z" stroke="rgb(0,0,0)" stroke-opacity="1" stroke-width="8" fill="rgb(0,0,0)" fill-opacity="1"></path></g></g><g><g><g><g><g transform="matrix(1,0,0,1,74.0625,49.790625)"><path transform="matrix(0.0119,0,0,-0.0119,0,0)" d="M18 400L55 400C95 400 99 393 99 327L99 102C99 39 96 32 62 30L16 27L16 -3C112 0 115 0 143 0C171 0 197 -1 262 -3L262 27L220 30C186 32 183 39 183 102L183 314C183 359 249 408 309 408C363 408 400 357 400 281L400 102C400 39 397 32 363 30L317 27L317 -3C417 0 417 0 442 0C467 0 467 0 567 -3L567 27L521 30C487 32 484 39 484 102L484 314C484 359 550 408 610 408C664 408 701 357 701 281L701 -3C762 0 763 0 780 0C793 0 793 0 869 -3L869 27L822 30C788 32 785 39 785 102L785 308C785 407 727 469 635 469C600 469 571 460 553 444L477 376C445 442 404 469 335 469C298 469 270 460 252 444L183 380L183 465L174 469C123 448 71 434 18 428Z" stroke="rgb(0,0,0)" stroke-opacity="1" stroke-width="8" fill="rgb(0,0,0)" fill-opacity="1"></path></g></g></g></g></g><g><g transform="matrix(1,0,0,1,88.96875,46.78125)"><path transform="matrix(0.017,0,0,-0.017,0,0)" d="M555 243L555 299L51 299L51 243Z" stroke="rgb(0,0,0)" stroke-opacity="1" stroke-width="8" fill="rgb(0,0,0)" fill-opacity="1"></path></g></g><g><g transform="matrix(1,0,0,1,102.65625,46.78125)"><path transform="matrix(0.017,0,0,-0.017,0,0)" d="M413 469L254 104C251 113 166 397 166 405C166 420 179 428 204 429L244 431L244 459C145 456 145 456 125 456C105 456 105 456 6 459L6 431L34 429C62 427 75 407 100 329L202 -7L249 -7L399 335L535 -7L581 -7L718 342C748 409 760 426 782 429L808 431L808 459C726 456 726 456 710 456C694 456 694 456 612 459L612 431L646 429C671 428 685 416 685 398L580 98L465 388C451 422 444 442 436 469ZM937 470C994 543 1032 610 1066 696L1053 709C1017 697 1007 694 956 679C950 599 926 533 878 456L893 446Z" stroke="rgb(0,0,0)" stroke-opacity="1" stroke-width="8" fill="rgb(0,0,0)" fill-opacity="1"></path></g></g><g><g><g><g><g transform="matrix(1,0,0,1,117.28125,49.790625)"><path transform="matrix(0.0119,0,0,-0.0119,0,0)" d="M579 -3L579 27L533 30C499 32 496 39 496 102L496 718L487 726C443 709 410 701 331 689L331 661L387 661C405 661 412 650 412 620L412 437C384 472 346 486 306 486C183 486 34 351 34 229C34 149 62 70 111 30C145 1 192 -12 257 -12C277 -12 300 -8 305 -4L416 89L411 -3C460 -1 476 0 488 0C506 0 570 -3 579 -3ZM412 350L412 221C412 156 410 146 397 123C369 76 320 45 273 45C185 45 122 130 122 249C122 358 176 422 266 422C345 422 412 366 412 350Z" stroke="rgb(0,0,0)" stroke-opacity="1" stroke-width="8" fill="rgb(0,0,0)" fill-opacity="1"></path></g></g></g></g></g></g></g><line style="fill:none;stroke-width:1px;stroke:rgb(0, 0, 0);" x1="59.4375" y1="29.140625" x2="125.5625" y2="29.140625"></line></g></g></g></svg>