<svg xmlns="http://www.w3.org/2000/svg" xmlns:xlink="http://www.w3.org/1999/xlink" width="346.90625" height="54.171875" style="width:346.90625px;height:54.171875px;font-family:Asana-Math, Asana;background:#FFF;"><g><g><g><g transform="matrix(1,0,0,1,2,33.390625)"><path transform="matrix(0.017,0,0,-0.017,0,0)" d="M413 469L254 104C251 113 166 397 166 405C166 420 179 428 204 429L244 431L244 459C145 456 145 456 125 456C105 456 105 456 6 459L6 431L34 429C62 427 75 407 100 329L202 -7L249 -7L399 335L535 -7L581 -7L718 342C748 409 760 426 782 429L808 431L808 459C726 456 726 456 710 456C694 456 694 456 612 459L612 431L646 429C671 428 685 416 685 398L580 98L465 388C451 422 444 442 436 469Z" stroke="rgb(0,0,0)" stroke-opacity="1" stroke-width="8" fill="rgb(0,0,0)" fill-opacity="1"></path></g></g><g><g><g><g><g transform="matrix(1,0,0,1,16.671875,36.4)"><path transform="matrix(0.0119,0,0,-0.0119,0,0)" d="M18 400L55 400C95 400 99 393 99 327L99 102C99 39 96 32 62 30L16 27L16 -3C112 0 115 0 143 0C171 0 197 -1 262 -3L262 27L220 30C186 32 183 39 183 102L183 314C183 359 249 408 309 408C363 408 400 357 400 281L400 102C400 39 397 32 363 30L317 27L317 -3C417 0 417 0 442 0C467 0 467 0 567 -3L567 27L521 30C487 32 484 39 484 102L484 314C484 359 550 408 610 408C664 408 701 357 701 281L701 -3C762 0 763 0 780 0C793 0 793 0 869 -3L869 27L822 30C788 32 785 39 785 102L785 308C785 407 727 469 635 469C600 469 571 460 553 444L477 376C445 442 404 469 335 469C298 469 270 460 252 444L183 380L183 465L174 469C123 448 71 434 18 428Z" stroke="rgb(0,0,0)" stroke-opacity="1" stroke-width="8" fill="rgb(0,0,0)" fill-opacity="1"></path></g></g></g></g></g><g><g transform="matrix(1,0,0,1,33.28125,33.390625)"><path transform="matrix(0.017,0,0,-0.017,0,0)" d="M826 347L826 406L287 406L287 347ZM826 134L826 193L287 193L287 134ZM202 458C202 491 175 518 143 518C112 518 85 492 85 458C85 418 121 401 143 401C165 401 202 419 202 458ZM202 80C202 113 175 140 143 140C112 140 85 114 85 80C85 40 121 23 143 23C165 23 202 41 202 80Z" stroke="rgb(0,0,0)" stroke-opacity="1" stroke-width="8" fill="rgb(0,0,0)" fill-opacity="1"></path></g></g><g><g transform="matrix(1,0,0,1,53.515625,33.390625)"><path transform="matrix(0.017,0,0,-0.017,0,0)" d="M667 -3L667 27L615 30C560 33 550 44 550 96L550 700L309 598L316 548L466 614L466 96C466 44 455 33 401 30L345 27L345 -3C499 0 499 0 510 0C541 0 651 -3 667 -3ZM1819 82L1814 -3C1879 0 1879 0 1892 0C1897 0 1922 -1 1966 -3L1966 27L1927 29C1903 30 1899 38 1899 87L1899 270C1899 416 1857 469 1741 469C1698 469 1658 458 1620 435L1567 403L1567 338L1593 331L1606 362C1627 409 1637 416 1683 416C1777 416 1816 379 1819 288L1720 270C1584 245 1527 198 1527 111C1527 33 1574 -12 1653 -12C1671 -12 1688 -9 1695 -4ZM1819 124C1790 83 1727 45 1688 45C1648 45 1613 82 1613 125C1613 162 1633 197 1663 216C1688 231 1743 245 1819 256ZM2404 -3C2465 0 2466 0 2483 0C2497 0 2497 0 2566 -3L2566 27L2525 30C2491 32 2488 38 2488 102L2488 295C2488 412 2433 469 2321 469C2284 469 2263 462 2242 444L2166 378L2166 465L2157 469C2106 448 2054 434 2001 428L2001 400L2038 400C2078 400 2082 393 2082 327L2082 102C2082 39 2079 32 2045 30L2000 27L2000 -3C2068 -1 2095 0 2124 0C2153 0 2180 -1 2248 -3L2248 27L2203 30C2169 32 2166 39 2166 102L2166 314C2166 359 2232 408 2293 408C2360 408 2404 358 2404 281ZM3154 -3L3154 27L3108 30C3074 32 3071 39 3071 102L3071 718L3062 726C3018 709 2985 701 2906 689L2906 661L2962 661C2980 661 2987 650 2987 620L2987 437C2959 472 2921 486 2881 486C2758 486 2609 351 2609 229C2609 149 2637 70 2686 30C2720 1 2767 -12 2832 -12C2852 -12 2875 -8 2880 -4L2991 89L2986 -3C3035 -1 3051 0 3063 0C3081 0 3145 -3 3154 -3ZM2987 350L2987 221C2987 156 2985 146 2972 123C2944 76 2895 45 2848 45C2760 45 2697 130 2697 249C2697 358 2751 422 2841 422C2920 422 2987 366 2987 350ZM4345 469L4186 104C4183 113 4098 397 4098 405C4098 420 4111 428 4136 429L4176 431L4176 459C4077 456 4077 456 4057 456C4037 456 4037 456 3938 459L3938 431L3966 429C3994 427 4007 407 4032 329L4134 -7L4181 -7L4331 335L4467 -7L4513 -7L4650 342C4680 409 4692 426 4714 429L4740 431L4740 459C4658 456 4658 456 4642 456C4626 456 4626 456 4544 459L4544 431L4578 429C4603 428 4617 416 4617 398L4512 98L4397 388C4383 422 4376 442 4368 469Z" stroke="rgb(0,0,0)" stroke-opacity="1" stroke-width="8" fill="rgb(0,0,0)" fill-opacity="1"></path></g></g><g><g><g><g><g transform="matrix(1,0,0,1,135.03125,36.4)"><path transform="matrix(0.0119,0,0,-0.0119,0,0)" d="M579 -3L579 27L533 30C499 32 496 39 496 102L496 718L487 726C443 709 410 701 331 689L331 661L387 661C405 661 412 650 412 620L412 437C384 472 346 486 306 486C183 486 34 351 34 229C34 149 62 70 111 30C145 1 192 -12 257 -12C277 -12 300 -8 305 -4L416 89L411 -3C460 -1 476 0 488 0C506 0 570 -3 579 -3ZM412 350L412 221C412 156 410 146 397 123C369 76 320 45 273 45C185 45 122 130 122 249C122 358 176 422 266 422C345 422 412 366 412 350Z" stroke="rgb(0,0,0)" stroke-opacity="1" stroke-width="8" fill="rgb(0,0,0)" fill-opacity="1"></path></g></g></g></g></g><g><g transform="matrix(1,0,0,1,148.40625,33.390625)"><path transform="matrix(0.017,0,0,-0.017,0,0)" d="M826 347L826 406L287 406L287 347ZM826 134L826 193L287 193L287 134ZM202 458C202 491 175 518 143 518C112 518 85 492 85 458C85 418 121 401 143 401C165 401 202 419 202 458ZM202 80C202 113 175 140 143 140C112 140 85 114 85 80C85 40 121 23 143 23C165 23 202 41 202 80Z" stroke="rgb(0,0,0)" stroke-opacity="1" stroke-width="8" fill="rgb(0,0,0)" fill-opacity="1"></path></g></g><g><g transform="matrix(1,0,0,1,168.640625,33.390625)"><path transform="matrix(0.017,0,0,-0.017,0,0)" d="" stroke="rgb(0,0,0)" stroke-opacity="1" stroke-width="8" fill="rgb(0,0,0)" fill-opacity="1"></path></g></g><g><g><g><g><g transform="matrix(1,0,0,1,174.5625,19)"><path transform="matrix(0.017,0,0,-0.017,0,0)" d="M413 469L254 104C251 113 166 397 166 405C166 420 179 428 204 429L244 431L244 459C145 456 145 456 125 456C105 456 105 456 6 459L6 431L34 429C62 427 75 407 100 329L202 -7L249 -7L399 335L535 -7L581 -7L718 342C748 409 760 426 782 429L808 431L808 459C726 456 726 456 710 456C694 456 694 456 612 459L612 431L646 429C671 428 685 416 685 398L580 98L465 388C451 422 444 442 436 469Z" stroke="rgb(0,0,0)" stroke-opacity="1" stroke-width="8" fill="rgb(0,0,0)" fill-opacity="1"></path></g></g><g><g><g><g><g transform="matrix(1,0,0,1,189.234375,22.009375)"><path transform="matrix(0.0119,0,0,-0.0119,0,0)" d="M18 400L55 400C95 400 99 393 99 327L99 102C99 39 96 32 62 30L16 27L16 -3C112 0 115 0 143 0C171 0 197 -1 262 -3L262 27L220 30C186 32 183 39 183 102L183 314C183 359 249 408 309 408C363 408 400 357 400 281L400 102C400 39 397 32 363 30L317 27L317 -3C417 0 417 0 442 0C467 0 467 0 567 -3L567 27L521 30C487 32 484 39 484 102L484 314C484 359 550 408 610 408C664 408 701 357 701 281L701 -3C762 0 763 0 780 0C793 0 793 0 869 -3L869 27L822 30C788 32 785 39 785 102L785 308C785 407 727 469 635 469C600 469 571 460 553 444L477 376C445 442 404 469 335 469C298 469 270 460 252 444L183 380L183 465L174 469C123 448 71 434 18 428Z" stroke="rgb(0,0,0)" stroke-opacity="1" stroke-width="8" fill="rgb(0,0,0)" fill-opacity="1"></path></g></g></g></g></g></g></g><g><g><g><g transform="matrix(1,0,0,1,183.40625,46.78125)"><path transform="matrix(0.017,0,0,-0.017,0,0)" d="M16 23L16 -3C203 -3 203 0 239 0C275 0 275 -3 468 -3L468 82C353 77 307 81 122 77L304 270C401 373 431 428 431 503C431 618 353 689 226 689C154 689 105 669 56 619L39 483L68 483L81 529C97 587 133 612 200 612C286 612 341 558 341 473C341 398 299 324 186 204Z" stroke="rgb(0,0,0)" stroke-opacity="1" stroke-width="8" fill="rgb(0,0,0)" fill-opacity="1"></path></g></g></g></g><line style="fill:none;stroke-width:1px;stroke:rgb(0, 0, 0);" x1="174.5625" y1="29.140625" x2="200.75" y2="29.140625"></line></g><g><g transform="matrix(1,0,0,1,205.828125,33.390625)"><path transform="matrix(0.017,0,0,-0.017,0,0)" d="M124 329C94 329 67 301 67 271C67 241 94 213 123 213C155 213 183 240 183 270C183 301 155 329 124 329Z" stroke="rgb(0,0,0)" stroke-opacity="1" stroke-width="8" fill="rgb(0,0,0)" fill-opacity="1"></path></g></g><g><g><g><g><g transform="matrix(1,0,0,1,218.375,19)"><path transform="matrix(0.017,0,0,-0.017,0,0)" d="M283 49C203 49 183 94 183 170L183 465L174 469C123 448 71 434 18 428L18 400L55 400C95 400 99 393 99 327L99 159C99 70 104 -12 240 -12C285 -12 325 2 352 27L419 89C419 60 418 44 415 -3C482 0 483 0 498 0C512 0 512 0 581 -3L581 27L540 30C506 32 503 38 503 102L503 465L494 469C443 448 391 434 338 428L338 400L375 400C415 400 419 393 419 327L419 164C419 126 370 49 283 49ZM612 400L649 400C689 400 693 393 693 327L693 -176C693 -239 690 -246 656 -248L610 -251L610 -281C710 -278 710 -278 735 -278C760 -278 760 -278 860 -281L860 -251L814 -248C780 -246 777 -239 777 -176L777 13C825 -10 869 -21 910 -21C1061 -21 1158 121 1158 242C1158 252 1157 261 1156 271C1154 401 1057 477 956 477C889 477 821 443 777 369L777 465L768 469C717 448 665 434 612 428ZM915 404C1009 404 1069 338 1069 234C1069 122 1002 39 912 39C857 39 816 57 777 98L777 306C777 337 824 404 915 404ZM1212 400L1249 400C1289 400 1293 393 1293 327L1293 -176C1293 -239 1290 -246 1256 -248L1210 -251L1210 -281C1310 -278 1310 -278 1335 -278C1360 -278 1360 -278 1460 -281L1460 -251L1414 -248C1380 -246 1377 -239 1377 -176L1377 13C1425 -10 1469 -21 1510 -21C1661 -21 1758 121 1758 242C1758 252 1757 261 1756 271C1754 401 1657 477 1556 477C1489 477 1421 443 1377 369L1377 465L1368 469C1317 448 1265 434 1212 428ZM1515 404C1609 404 1669 338 1669 234C1669 122 1602 39 1512 39C1457 39 1416 57 1377 98L1377 306C1377 337 1424 404 1515 404ZM2052 -20C2117 -20 2207 18 2219 36L2239 70L2226 80C2162 42 2139 33 2096 33C2031 33 1977 62 1949 111C1930 144 1923 172 1921 230C1942 227 1972 226 2006 226C2092 226 2201 234 2248 244C2249 258 2250 267 2250 279C2250 394 2176 469 2064 469C2027 469 1982 464 1942 440C1860 392 1828 323 1828 219C1828 25 1963 -20 2052 -20ZM2161 267C2137 264 2086 261 2035 261C1992 261 1949 264 1923 270C1923 317 1927 339 1940 365C1961 409 2004 436 2052 436C2085 436 2111 423 2129 396C2151 363 2158 334 2161 267ZM2303 400L2340 400C2380 400 2384 393 2384 327L2384 102C2384 39 2381 32 2347 30L2301 27L2301 -3C2373 -1 2399 0 2424 0C2444 0 2444 0 2567 -3L2567 27L2515 30C2470 33 2468 36 2468 102L2468 274C2468 334 2508 384 2557 384C2587 384 2608 370 2624 338L2645 338L2654 458C2643 465 2625 469 2607 469C2577 469 2545 453 2524 428L2468 362L2468 465L2459 469C2408 448 2356 434 2303 428Z" stroke="rgb(0,0,0)" stroke-opacity="1" stroke-width="8" fill="rgb(0,0,0)" fill-opacity="1"></path></g></g><g><g><g><g><g transform="matrix(1,0,0,1,264.34375,22.009375)"><path transform="matrix(0.0119,0,0,-0.0119,0,0)" d="M579 -3L579 27L533 30C499 32 496 39 496 102L496 718L487 726C443 709 410 701 331 689L331 661L387 661C405 661 412 650 412 620L412 437C384 472 346 486 306 486C183 486 34 351 34 229C34 149 62 70 111 30C145 1 192 -12 257 -12C277 -12 300 -8 305 -4L416 89L411 -3C460 -1 476 0 488 0C506 0 570 -3 579 -3ZM412 350L412 221C412 156 410 146 397 123C369 76 320 45 273 45C185 45 122 130 122 249C122 358 176 422 266 422C345 422 412 366 412 350Z" stroke="rgb(0,0,0)" stroke-opacity="1" stroke-width="8" fill="rgb(0,0,0)" fill-opacity="1"></path></g></g></g></g></g><g><g transform="matrix(1,0,0,1,276.015625,19)"><path transform="matrix(0.017,0,0,-0.017,0,0)" d="M555 243L555 299L51 299L51 243Z" stroke="rgb(0,0,0)" stroke-opacity="1" stroke-width="8" fill="rgb(0,0,0)" fill-opacity="1"></path></g></g><g><g transform="matrix(1,0,0,1,289.703125,19)"><path transform="matrix(0.017,0,0,-0.017,0,0)" d="M23 661L79 661C97 661 104 650 104 620L104 102C104 39 101 32 67 30L21 27L21 -3C121 0 121 0 146 0C171 0 171 0 271 -3L271 27L225 30C191 32 188 39 188 102L188 718L179 726C135 709 102 701 23 689ZM569 469C423 469 322 366 322 217C322 76 411 -20 540 -20C694 -20 804 87 804 237C804 372 706 469 569 469ZM551 436C643 436 711 336 711 200C711 85 660 13 579 13C481 13 415 109 415 251C415 371 463 436 551 436ZM1248 469L1089 104C1086 113 1001 397 1001 405C1001 420 1014 428 1039 429L1079 431L1079 459C980 456 980 456 960 456C940 456 940 456 841 459L841 431L869 429C897 427 910 407 935 329L1037 -7L1084 -7L1234 335L1370 -7L1416 -7L1553 342C1583 409 1595 426 1617 429L1643 431L1643 459C1561 456 1561 456 1545 456C1529 456 1529 456 1447 459L1447 431L1481 429C1506 428 1520 416 1520 398L1415 98L1300 388C1286 422 1279 442 1271 469ZM1918 -20C1983 -20 2073 18 2085 36L2105 70L2092 80C2028 42 2005 33 1962 33C1897 33 1843 62 1815 111C1796 144 1789 172 1787 230C1808 227 1838 226 1872 226C1958 226 2067 234 2114 244C2115 258 2116 267 2116 279C2116 394 2042 469 1930 469C1893 469 1848 464 1808 440C1726 392 1694 323 1694 219C1694 25 1829 -20 1918 -20ZM2027 267C2003 264 1952 261 1901 261C1858 261 1815 264 1789 270C1789 317 1793 339 1806 365C1827 409 1870 436 1918 436C1951 436 1977 423 1995 396C2017 363 2024 334 2027 267ZM2169 400L2206 400C2246 400 2250 393 2250 327L2250 102C2250 39 2247 32 2213 30L2167 27L2167 -3C2239 -1 2265 0 2290 0C2310 0 2310 0 2433 -3L2433 27L2381 30C2336 33 2334 36 2334 102L2334 274C2334 334 2374 384 2423 384C2453 384 2474 370 2490 338L2511 338L2520 458C2509 465 2491 469 2473 469C2443 469 2411 453 2390 428L2334 362L2334 465L2325 469C2274 448 2222 434 2169 428Z" stroke="rgb(0,0,0)" stroke-opacity="1" stroke-width="8" fill="rgb(0,0,0)" fill-opacity="1"></path></g></g><g><g><g><g><g transform="matrix(1,0,0,1,333.390625,22.009375)"><path transform="matrix(0.0119,0,0,-0.0119,0,0)" d="M579 -3L579 27L533 30C499 32 496 39 496 102L496 718L487 726C443 709 410 701 331 689L331 661L387 661C405 661 412 650 412 620L412 437C384 472 346 486 306 486C183 486 34 351 34 229C34 149 62 70 111 30C145 1 192 -12 257 -12C277 -12 300 -8 305 -4L416 89L411 -3C460 -1 476 0 488 0C506 0 570 -3 579 -3ZM412 350L412 221C412 156 410 146 397 123C369 76 320 45 273 45C185 45 122 130 122 249C122 358 176 422 266 422C345 422 412 366 412 350Z" stroke="rgb(0,0,0)" stroke-opacity="1" stroke-width="8" fill="rgb(0,0,0)" fill-opacity="1"></path></g></g></g></g></g></g></g><g><g><g><g transform="matrix(1,0,0,1,215.140625,46.78125)"><path transform="matrix(0.017,0,0,-0.017,0,0)" d="M283 49C203 49 183 94 183 170L183 465L174 469C123 448 71 434 18 428L18 400L55 400C95 400 99 393 99 327L99 159C99 70 104 -12 240 -12C285 -12 325 2 352 27L419 89C419 60 418 44 415 -3C482 0 483 0 498 0C512 0 512 0 581 -3L581 27L540 30C506 32 503 38 503 102L503 465L494 469C443 448 391 434 338 428L338 400L375 400C415 400 419 393 419 327L419 164C419 126 370 49 283 49ZM612 400L649 400C689 400 693 393 693 327L693 -176C693 -239 690 -246 656 -248L610 -251L610 -281C710 -278 710 -278 735 -278C760 -278 760 -278 860 -281L860 -251L814 -248C780 -246 777 -239 777 -176L777 13C825 -10 869 -21 910 -21C1061 -21 1158 121 1158 242C1158 252 1157 261 1156 271C1154 401 1057 477 956 477C889 477 821 443 777 369L777 465L768 469C717 448 665 434 612 428ZM915 404C1009 404 1069 338 1069 234C1069 122 1002 39 912 39C857 39 816 57 777 98L777 306C777 337 824 404 915 404ZM1212 400L1249 400C1289 400 1293 393 1293 327L1293 -176C1293 -239 1290 -246 1256 -248L1210 -251L1210 -281C1310 -278 1310 -278 1335 -278C1360 -278 1360 -278 1460 -281L1460 -251L1414 -248C1380 -246 1377 -239 1377 -176L1377 13C1425 -10 1469 -21 1510 -21C1661 -21 1758 121 1758 242C1758 252 1757 261 1756 271C1754 401 1657 477 1556 477C1489 477 1421 443 1377 369L1377 465L1368 469C1317 448 1265 434 1212 428ZM1515 404C1609 404 1669 338 1669 234C1669 122 1602 39 1512 39C1457 39 1416 57 1377 98L1377 306C1377 337 1424 404 1515 404ZM2052 -20C2117 -20 2207 18 2219 36L2239 70L2226 80C2162 42 2139 33 2096 33C2031 33 1977 62 1949 111C1930 144 1923 172 1921 230C1942 227 1972 226 2006 226C2092 226 2201 234 2248 244C2249 258 2250 267 2250 279C2250 394 2176 469 2064 469C2027 469 1982 464 1942 440C1860 392 1828 323 1828 219C1828 25 1963 -20 2052 -20ZM2161 267C2137 264 2086 261 2035 261C1992 261 1949 264 1923 270C1923 317 1927 339 1940 365C1961 409 2004 436 2052 436C2085 436 2111 423 2129 396C2151 363 2158 334 2161 267ZM2303 400L2340 400C2380 400 2384 393 2384 327L2384 102C2384 39 2381 32 2347 30L2301 27L2301 -3C2373 -1 2399 0 2424 0C2444 0 2444 0 2567 -3L2567 27L2515 30C2470 33 2468 36 2468 102L2468 274C2468 334 2508 384 2557 384C2587 384 2608 370 2624 338L2645 338L2654 458C2643 465 2625 469 2607 469C2577 469 2545 453 2524 428L2468 362L2468 465L2459 469C2408 448 2356 434 2303 428Z" stroke="rgb(0,0,0)" stroke-opacity="1" stroke-width="8" fill="rgb(0,0,0)" fill-opacity="1"></path></g></g><g><g><g><g><g transform="matrix(1,0,0,1,261.109375,49.790625)"><path transform="matrix(0.0119,0,0,-0.0119,0,0)" d="M18 400L55 400C95 400 99 393 99 327L99 102C99 39 96 32 62 30L16 27L16 -3C112 0 115 0 143 0C171 0 197 -1 262 -3L262 27L220 30C186 32 183 39 183 102L183 314C183 359 249 408 309 408C363 408 400 357 400 281L400 102C400 39 397 32 363 30L317 27L317 -3C417 0 417 0 442 0C467 0 467 0 567 -3L567 27L521 30C487 32 484 39 484 102L484 314C484 359 550 408 610 408C664 408 701 357 701 281L701 -3C762 0 763 0 780 0C793 0 793 0 869 -3L869 27L822 30C788 32 785 39 785 102L785 308C785 407 727 469 635 469C600 469 571 460 553 444L477 376C445 442 404 469 335 469C298 469 270 460 252 444L183 380L183 465L174 469C123 448 71 434 18 428Z" stroke="rgb(0,0,0)" stroke-opacity="1" stroke-width="8" fill="rgb(0,0,0)" fill-opacity="1"></path></g></g></g></g></g><g><g transform="matrix(1,0,0,1,276.015625,46.78125)"><path transform="matrix(0.017,0,0,-0.017,0,0)" d="M555 243L555 299L51 299L51 243Z" stroke="rgb(0,0,0)" stroke-opacity="1" stroke-width="8" fill="rgb(0,0,0)" fill-opacity="1"></path></g></g><g><g transform="matrix(1,0,0,1,289.703125,46.78125)"><path transform="matrix(0.017,0,0,-0.017,0,0)" d="M23 661L79 661C97 661 104 650 104 620L104 102C104 39 101 32 67 30L21 27L21 -3C121 0 121 0 146 0C171 0 171 0 271 -3L271 27L225 30C191 32 188 39 188 102L188 718L179 726C135 709 102 701 23 689ZM569 469C423 469 322 366 322 217C322 76 411 -20 540 -20C694 -20 804 87 804 237C804 372 706 469 569 469ZM551 436C643 436 711 336 711 200C711 85 660 13 579 13C481 13 415 109 415 251C415 371 463 436 551 436ZM1248 469L1089 104C1086 113 1001 397 1001 405C1001 420 1014 428 1039 429L1079 431L1079 459C980 456 980 456 960 456C940 456 940 456 841 459L841 431L869 429C897 427 910 407 935 329L1037 -7L1084 -7L1234 335L1370 -7L1416 -7L1553 342C1583 409 1595 426 1617 429L1643 431L1643 459C1561 456 1561 456 1545 456C1529 456 1529 456 1447 459L1447 431L1481 429C1506 428 1520 416 1520 398L1415 98L1300 388C1286 422 1279 442 1271 469ZM1918 -20C1983 -20 2073 18 2085 36L2105 70L2092 80C2028 42 2005 33 1962 33C1897 33 1843 62 1815 111C1796 144 1789 172 1787 230C1808 227 1838 226 1872 226C1958 226 2067 234 2114 244C2115 258 2116 267 2116 279C2116 394 2042 469 1930 469C1893 469 1848 464 1808 440C1726 392 1694 323 1694 219C1694 25 1829 -20 1918 -20ZM2027 267C2003 264 1952 261 1901 261C1858 261 1815 264 1789 270C1789 317 1793 339 1806 365C1827 409 1870 436 1918 436C1951 436 1977 423 1995 396C2017 363 2024 334 2027 267ZM2169 400L2206 400C2246 400 2250 393 2250 327L2250 102C2250 39 2247 32 2213 30L2167 27L2167 -3C2239 -1 2265 0 2290 0C2310 0 2310 0 2433 -3L2433 27L2381 30C2336 33 2334 36 2334 102L2334 274C2334 334 2374 384 2423 384C2453 384 2474 370 2490 338L2511 338L2520 458C2509 465 2491 469 2473 469C2443 469 2411 453 2390 428L2334 362L2334 465L2325 469C2274 448 2222 434 2169 428Z" stroke="rgb(0,0,0)" stroke-opacity="1" stroke-width="8" fill="rgb(0,0,0)" fill-opacity="1"></path></g></g><g><g><g><g><g transform="matrix(1,0,0,1,333.390625,49.790625)"><path transform="matrix(0.0119,0,0,-0.0119,0,0)" d="M18 400L55 400C95 400 99 393 99 327L99 102C99 39 96 32 62 30L16 27L16 -3C112 0 115 0 143 0C171 0 197 -1 262 -3L262 27L220 30C186 32 183 39 183 102L183 314C183 359 249 408 309 408C363 408 400 357 400 281L400 102C400 39 397 32 363 30L317 27L317 -3C417 0 417 0 442 0C467 0 467 0 567 -3L567 27L521 30C487 32 484 39 484 102L484 314C484 359 550 408 610 408C664 408 701 357 701 281L701 -3C762 0 763 0 780 0C793 0 793 0 869 -3L869 27L822 30C788 32 785 39 785 102L785 308C785 407 727 469 635 469C600 469 571 460 553 444L477 376C445 442 404 469 335 469C298 469 270 460 252 444L183 380L183 465L174 469C123 448 71 434 18 428Z" stroke="rgb(0,0,0)" stroke-opacity="1" stroke-width="8" fill="rgb(0,0,0)" fill-opacity="1"></path></g></g></g></g></g></g></g><line style="fill:none;stroke-width:1px;stroke:rgb(0, 0, 0);" x1="215.140625" y1="29.140625" x2="344.90625" y2="29.140625"></line></g></g></g></svg>