<svg xmlns="http://www.w3.org/2000/svg" xmlns:xlink="http://www.w3.org/1999/xlink" width="496.875" height="52.078125" style="width:496.875px;height:52.078125px;font-family:Asana-Math, Asana;background:#FFF;"><g><g><g><g transform="matrix(1,0,0,1,2,31.390625)"><path transform="matrix(0.017,0,0,-0.017,0,0)" d="M413 469L254 104C251 113 166 397 166 405C166 420 179 428 204 429L244 431L244 459C145 456 145 456 125 456C105 456 105 456 6 459L6 431L34 429C62 427 75 407 100 329L202 -7L249 -7L399 335L535 -7L581 -7L718 342C748 409 760 426 782 429L808 431L808 459C726 456 726 456 710 456C694 456 694 456 612 459L612 431L646 429C671 428 685 416 685 398L580 98L465 388C451 422 444 442 436 469Z" stroke="rgb(0,0,0)" stroke-opacity="1" stroke-width="8" fill="rgb(0,0,0)" fill-opacity="1"></path></g></g><g><g><g><g><g transform="matrix(1,0,0,1,16.671875,34.4)"><path transform="matrix(0.0119,0,0,-0.0119,0,0)" d="M250 -20C315 -20 405 18 417 36L437 70L424 80C360 42 337 33 294 33C229 33 175 62 147 111C128 144 121 172 119 230C140 227 170 226 204 226C290 226 399 234 446 244C447 258 448 267 448 279C448 394 374 469 262 469C225 469 180 464 140 440C58 392 26 323 26 219C26 25 161 -20 250 -20ZM359 267C335 264 284 261 233 261C190 261 147 264 121 270C121 317 125 339 138 365C159 409 202 436 250 436C283 436 309 423 327 396C349 363 356 334 359 267Z" stroke="rgb(0,0,0)" stroke-opacity="1" stroke-width="8" fill="rgb(0,0,0)" fill-opacity="1"></path></g></g></g></g></g><g><g transform="matrix(1,0,0,1,28.484375,31.390625)"><path transform="matrix(0.017,0,0,-0.017,0,0)" d="M826 347L826 406L287 406L287 347ZM826 134L826 193L287 193L287 134ZM202 458C202 491 175 518 143 518C112 518 85 492 85 458C85 418 121 401 143 401C165 401 202 419 202 458ZM202 80C202 113 175 140 143 140C112 140 85 114 85 80C85 40 121 23 143 23C165 23 202 41 202 80Z" stroke="rgb(0,0,0)" stroke-opacity="1" stroke-width="8" fill="rgb(0,0,0)" fill-opacity="1"></path></g></g><g><g transform="matrix(1,0,0,1,48.71875,31.390625)"><path transform="matrix(0.017,0,0,-0.017,0,0)" d="M667 -3L667 27L615 30C560 33 550 44 550 96L550 700L309 598L316 548L466 614L466 96C466 44 455 33 401 30L345 27L345 -3C499 0 499 0 510 0C541 0 651 -3 667 -3Z" stroke="rgb(0,0,0)" stroke-opacity="1" stroke-width="8" fill="rgb(0,0,0)" fill-opacity="1"></path></g></g><g><g transform="matrix(1,0,0,1,65.671875,31.390625)"><path transform="matrix(0.017,0,0,-0.017,0,0)" d="M204 123C177 114 159 108 106 93C99 17 74 -48 16 -144L30 -155L71 -136C152 -31 190 32 218 109Z" stroke="rgb(0,0,0)" stroke-opacity="1" stroke-width="8" fill="rgb(0,0,0)" fill-opacity="1"></path></g></g><g><g transform="matrix(1,0,0,1,73.296875,31.390625)"><path transform="matrix(0.017,0,0,-0.017,0,0)" d="M347 382L347 94C347 20 380 -12 457 -12C480 -12 504 -7 510 0L558 53L545 70C520 56 505 51 486 51C447 51 431 71 431 120L431 382L559 382L568 436L431 430L431 468C431 510 434 546 442 610L430 621C406 606 376 593 345 583C348 553 349 534 349 504L349 434L271 399L271 378ZM581 661L637 661C655 661 662 650 662 620L662 102C662 39 659 32 625 30L580 27L580 -3C648 -1 675 0 704 0C733 0 760 -1 828 -3L828 27L783 30C749 32 746 39 746 102L746 314C746 359 812 408 873 408C940 408 984 358 984 281L984 -3C1045 0 1046 0 1063 0C1077 0 1077 0 1146 -3L1146 27L1105 30C1071 32 1068 38 1068 102L1068 295C1068 412 982 470 897 470C835 470 774 439 746 378L746 718L737 726C693 709 660 701 581 689ZM1405 -20C1470 -20 1560 18 1572 36L1592 70L1579 80C1515 42 1492 33 1449 33C1384 33 1330 62 1302 111C1283 144 1276 172 1274 230C1295 227 1325 226 1359 226C1445 226 1554 234 1601 244C1602 258 1603 267 1603 279C1603 394 1529 469 1417 469C1380 469 1335 464 1295 440C1213 392 1181 323 1181 219C1181 25 1316 -20 1405 -20ZM1514 267C1490 264 1439 261 1388 261C1345 261 1302 264 1276 270C1276 317 1280 339 1293 365C1314 409 1357 436 1405 436C1438 436 1464 423 1482 396C1504 363 1511 334 1514 267ZM2043 -3C2104 0 2105 0 2122 0C2136 0 2136 0 2205 -3L2205 27L2164 30C2130 32 2127 38 2127 102L2127 295C2127 412 2072 469 1960 469C1923 469 1902 462 1881 444L1805 378L1805 465L1796 469C1745 448 1693 434 1640 428L1640 400L1677 400C1717 400 1721 393 1721 327L1721 102C1721 39 1718 32 1684 30L1639 27L1639 -3C1707 -1 1734 0 1763 0C1792 0 1819 -1 1887 -3L1887 27L1842 30C1808 32 1805 39 1805 102L1805 314C1805 359 1871 408 1932 408C1999 408 2043 358 2043 281ZM2876 469L2717 104C2714 113 2629 397 2629 405C2629 420 2642 428 2667 429L2707 431L2707 459C2608 456 2608 456 2588 456C2568 456 2568 456 2469 459L2469 431L2497 429C2525 427 2538 407 2563 329L2665 -7L2712 -7L2862 335L2998 -7L3044 -7L3181 342C3211 409 3223 426 3245 429L3271 431L3271 459C3189 456 3189 456 3173 456C3157 456 3157 456 3075 459L3075 431L3109 429C3134 428 3148 416 3148 398L3043 98L2928 388C2914 422 2907 442 2899 469Z" stroke="rgb(0,0,0)" stroke-opacity="1" stroke-width="8" fill="rgb(0,0,0)" fill-opacity="1"></path></g></g><g><g><g><g><g transform="matrix(1,0,0,1,129.84375,34.4)"><path transform="matrix(0.0119,0,0,-0.0119,0,0)" d="M324 82L319 -3C384 0 384 0 397 0C402 0 427 -1 471 -3L471 27L432 29C408 30 404 38 404 87L404 270C404 416 362 469 246 469C203 469 163 458 125 435L72 403L72 338L98 331L111 362C132 409 142 416 188 416C282 416 321 379 324 288L225 270C89 245 32 198 32 111C32 33 79 -12 158 -12C176 -12 193 -9 200 -4ZM324 124C295 83 232 45 193 45C153 45 118 82 118 125C118 162 138 197 168 216C193 231 248 245 324 256Z" stroke="rgb(0,0,0)" stroke-opacity="1" stroke-width="8" fill="rgb(0,0,0)" fill-opacity="1"></path></g></g></g></g></g><g><g transform="matrix(1,0,0,1,140.203125,31.390625)"><path transform="matrix(0.017,0,0,-0.017,0,0)" d="M124 329C94 329 67 301 67 271C67 241 94 213 123 213C155 213 183 240 183 270C183 301 155 329 124 329Z" stroke="rgb(0,0,0)" stroke-opacity="1" stroke-width="8" fill="rgb(0,0,0)" fill-opacity="1"></path></g></g><g><g transform="matrix(1,0,0,1,147.828125,31.390625)"><path transform="matrix(0.017,0,0,-0.017,0,0)" d="M23 400L60 400C100 400 104 393 104 327L104 102C104 39 101 32 67 30L21 27L21 -3C93 -1 119 0 144 0C164 0 164 0 287 -3L287 27L235 30C190 33 188 36 188 102L188 274C188 334 228 384 277 384C307 384 328 370 344 338L365 338L374 458C363 465 345 469 327 469C297 469 265 453 244 428L188 362L188 465L179 469C128 448 76 434 23 428ZM718 82L713 -3C778 0 778 0 791 0C796 0 821 -1 865 -3L865 27L826 29C802 30 798 38 798 87L798 270C798 416 756 469 640 469C597 469 557 458 519 435L466 403L466 338L492 331L505 362C526 409 536 416 582 416C676 416 715 379 718 288L619 270C483 245 426 198 426 111C426 33 473 -12 552 -12C570 -12 587 -9 594 -4ZM718 124C689 83 626 45 587 45C547 45 512 82 512 125C512 162 532 197 562 216C587 231 642 245 718 256ZM991 382L991 94C991 20 1024 -12 1101 -12C1124 -12 1148 -7 1154 0L1202 53L1189 70C1164 56 1149 51 1130 51C1091 51 1075 71 1075 120L1075 382L1203 382L1212 436L1075 430L1075 468C1075 510 1078 546 1086 610L1074 621C1050 606 1020 593 989 583C992 553 993 534 993 504L993 434L915 399L915 378ZM1406 465L1397 469C1346 448 1294 434 1241 428L1241 400L1278 400C1318 400 1322 393 1322 327L1322 102C1322 39 1319 32 1285 30L1239 27L1239 -3C1339 0 1339 0 1364 0C1389 0 1389 0 1489 -3L1489 27L1443 30C1409 32 1406 39 1406 102ZM1360 687C1330 687 1304 661 1304 631C1304 602 1330 576 1359 576C1388 576 1415 602 1415 631C1415 659 1388 687 1360 687ZM1787 469C1641 469 1540 366 1540 217C1540 76 1629 -20 1758 -20C1912 -20 2022 87 2022 237C2022 372 1924 469 1787 469ZM1769 436C1861 436 1929 336 1929 200C1929 85 1878 13 1797 13C1699 13 1633 109 1633 251C1633 371 1681 436 1769 436Z" stroke="rgb(0,0,0)" stroke-opacity="1" stroke-width="8" fill="rgb(0,0,0)" fill-opacity="1"></path></g></g><g><svg x="183.921875" overflow="visible" y="5.390625" height="43" width="8.5"><path d=" M 6.27 1.70 c 0.00 -0.06 -0.04 -0.08 -0.08 -0.08 c -0.03 0.00 -0.06 0.01 -0.08 0.02 c -2.55 1.34 -4.65 3.73 -4.65 9.40 v 0.60 h 1.53 v -0.60 c 0.00 -3.23 0.64 -7.03 3.31 -9.06 c 0.12 -0.09 0.13 -0.19 0.13 -0.28 z   M 1.44 11.64 v 19.72 h 1.53 v -19.72 z" style="fill:rgb(0,0,0);fill-opacity:1;stroke-width:1px;stroke:none;stroke-opacity:1;"></path><path d=" M 6.27 41.30 c 0.00 0.06 -0.04 0.08 -0.08 0.08 c -0.03 0.00 -0.06 -0.01 -0.08 -0.02 c -2.55 -1.34 -4.65 -3.73 -4.65 -9.40 v -0.60 h 1.53 v 0.60 c 0.00 3.23 0.64 7.03 3.31 9.06 c 0.12 0.09 0.13 0.19 0.13 0.28 z" style="fill:rgb(0,0,0);fill-opacity:1;stroke-width:1px;stroke:none;stroke-opacity:1;"></path></svg></g><g><g><g><g><g transform="matrix(1,0,0,1,192.59375,19)"><path transform="matrix(0.017,0,0,-0.017,0,0)" d="M250 -20C315 -20 405 18 417 36L437 70L424 80C360 42 337 33 294 33C229 33 175 62 147 111C128 144 121 172 119 230C140 227 170 226 204 226C290 226 399 234 446 244C447 258 448 267 448 279C448 394 374 469 262 469C225 469 180 464 140 440C58 392 26 323 26 219C26 25 161 -20 250 -20ZM359 267C335 264 284 261 233 261C190 261 147 264 121 270C121 317 125 339 138 365C159 409 202 436 250 436C283 436 309 423 327 396C349 363 356 334 359 267Z" stroke="rgb(0,0,0)" stroke-opacity="1" stroke-width="8" fill="rgb(0,0,0)" fill-opacity="1"></path></g></g></g></g><g><g><g><g transform="matrix(1,0,0,1,192.421875,44.78125)"><path transform="matrix(0.017,0,0,-0.017,0,0)" d="M324 82L319 -3C384 0 384 0 397 0C402 0 427 -1 471 -3L471 27L432 29C408 30 404 38 404 87L404 270C404 416 362 469 246 469C203 469 163 458 125 435L72 403L72 338L98 331L111 362C132 409 142 416 188 416C282 416 321 379 324 288L225 270C89 245 32 198 32 111C32 33 79 -12 158 -12C176 -12 193 -9 200 -4ZM324 124C295 83 232 45 193 45C153 45 118 82 118 125C118 162 138 197 168 216C193 231 248 245 324 256Z" stroke="rgb(0,0,0)" stroke-opacity="1" stroke-width="8" fill="rgb(0,0,0)" fill-opacity="1"></path></g></g></g></g><line style="fill:none;stroke-width:1px;stroke:rgb(0, 0, 0);" x1="192.421875" y1="27.140625" x2="200.90625" y2="27.140625"></line></g><g><svg x="200.90625" overflow="visible" y="5.390625" height="43" width="8.5"><path d=" M 1.75 1.70 c 0.00 -0.06 0.04 -0.08 0.08 -0.08 c 0.03 0.00 0.06 0.01 0.08 0.02 c 2.55 1.34 4.65 3.73 4.65 9.40 v 0.60 h -1.53 v -0.60 c 0.00 -3.23 -0.64 -7.03 -3.31 -9.06 c -0.12 -0.09 -0.13 -0.19 -0.13 -0.28 z  M 6.58 11.64 v 19.72 h -1.53 v -19.72 z" style="fill:rgb(0,0,0);fill-opacity:1;stroke-width:1px;stroke:none;stroke-opacity:1;"></path><path d=" M 1.75 41.30 c 0.00 0.06 0.04 0.08 0.08 0.08 c 0.03 0.00 0.06 -0.01 0.08 -0.02 c 2.55 -1.34 4.65 -3.73 4.65 -9.40 v -0.60 h -1.53 v 0.60 c 0.00 3.23 -0.64 7.03 -3.31 9.06 c -0.12 0.09 -0.13 0.19 -0.13 0.28 z" style="fill:rgb(0,0,0);fill-opacity:1;stroke-width:1px;stroke:none;stroke-opacity:1;"></path></svg></g><g><g transform="matrix(1,0,0,1,215.6875,31.390625)"><path transform="matrix(0.017,0,0,-0.017,0,0)" d="M604 347L604 406L65 406L65 347ZM604 134L604 193L65 193L65 134Z" stroke="rgb(0,0,0)" stroke-opacity="1" stroke-width="8" fill="rgb(0,0,0)" fill-opacity="1"></path></g></g><g><g transform="matrix(1,0,0,1,232.140625,31.390625)"><path transform="matrix(0.017,0,0,-0.017,0,0)" d="M413 469L254 104C251 113 166 397 166 405C166 420 179 428 204 429L244 431L244 459C145 456 145 456 125 456C105 456 105 456 6 459L6 431L34 429C62 427 75 407 100 329L202 -7L249 -7L399 335L535 -7L581 -7L718 342C748 409 760 426 782 429L808 431L808 459C726 456 726 456 710 456C694 456 694 456 612 459L612 431L646 429C671 428 685 416 685 398L580 98L465 388C451 422 444 442 436 469Z" stroke="rgb(0,0,0)" stroke-opacity="1" stroke-width="8" fill="rgb(0,0,0)" fill-opacity="1"></path></g></g><g><g><g><g><g transform="matrix(1,0,0,1,246.8125,34.4)"><path transform="matrix(0.0119,0,0,-0.0119,0,0)" d="M250 -20C315 -20 405 18 417 36L437 70L424 80C360 42 337 33 294 33C229 33 175 62 147 111C128 144 121 172 119 230C140 227 170 226 204 226C290 226 399 234 446 244C447 258 448 267 448 279C448 394 374 469 262 469C225 469 180 464 140 440C58 392 26 323 26 219C26 25 161 -20 250 -20ZM359 267C335 264 284 261 233 261C190 261 147 264 121 270C121 317 125 339 138 365C159 409 202 436 250 436C283 436 309 423 327 396C349 363 356 334 359 267Z" stroke="rgb(0,0,0)" stroke-opacity="1" stroke-width="8" fill="rgb(0,0,0)" fill-opacity="1"></path></g></g></g></g></g><g><g transform="matrix(1,0,0,1,258.625,31.390625)"><path transform="matrix(0.017,0,0,-0.017,0,0)" d="M949 273L696 539L666 506L746 408L65 408L65 349L796 349L860 271L797 195L65 195L65 136L746 136L666 38L696 7Z" stroke="rgb(0,0,0)" stroke-opacity="1" stroke-width="8" fill="rgb(0,0,0)" fill-opacity="1"></path></g></g><g><g transform="matrix(1,0,0,1,280.953125,31.390625)"><path transform="matrix(0.017,0,0,-0.017,0,0)" d="M662 469L503 104C500 113 415 397 415 405C415 420 428 428 453 429L493 431L493 459C394 456 394 456 374 456C354 456 354 456 255 459L255 431L283 429C311 427 324 407 349 329L451 -7L498 -7L648 335L784 -7L830 -7L967 342C997 409 1009 426 1031 429L1057 431L1057 459C975 456 975 456 959 456C943 456 943 456 861 459L861 431L895 429C920 428 934 416 934 398L829 98L714 388C700 422 693 442 685 469Z" stroke="rgb(0,0,0)" stroke-opacity="1" stroke-width="8" fill="rgb(0,0,0)" fill-opacity="1"></path></g></g><g><g><g><g><g transform="matrix(1,0,0,1,299.859375,34.4)"><path transform="matrix(0.0119,0,0,-0.0119,0,0)" d="M324 82L319 -3C384 0 384 0 397 0C402 0 427 -1 471 -3L471 27L432 29C408 30 404 38 404 87L404 270C404 416 362 469 246 469C203 469 163 458 125 435L72 403L72 338L98 331L111 362C132 409 142 416 188 416C282 416 321 379 324 288L225 270C89 245 32 198 32 111C32 33 79 -12 158 -12C176 -12 193 -9 200 -4ZM324 124C295 83 232 45 193 45C153 45 118 82 118 125C118 162 138 197 168 216C193 231 248 245 324 256Z" stroke="rgb(0,0,0)" stroke-opacity="1" stroke-width="8" fill="rgb(0,0,0)" fill-opacity="1"></path></g></g></g></g></g><g><g transform="matrix(1,0,0,1,311.921875,31.390625)"><path transform="matrix(0.017,0,0,-0.017,0,0)" d="M826 347L826 406L287 406L287 347ZM826 134L826 193L287 193L287 134ZM202 458C202 491 175 518 143 518C112 518 85 492 85 458C85 418 121 401 143 401C165 401 202 419 202 458ZM202 80C202 113 175 140 143 140C112 140 85 114 85 80C85 40 121 23 143 23C165 23 202 41 202 80Z" stroke="rgb(0,0,0)" stroke-opacity="1" stroke-width="8" fill="rgb(0,0,0)" fill-opacity="1"></path></g></g><g><g transform="matrix(1,0,0,1,332.15625,31.390625)"><path transform="matrix(0.017,0,0,-0.017,0,0)" d="" stroke="rgb(0,0,0)" stroke-opacity="1" stroke-width="8" fill="rgb(0,0,0)" fill-opacity="1"></path></g></g><g><g><g><g><g transform="matrix(1,0,0,1,338.078125,19)"><path transform="matrix(0.017,0,0,-0.017,0,0)" d="M418 -3L418 27L366 30C311 33 301 44 301 96L301 700L60 598L67 548L217 614L217 96C217 44 206 33 152 30L96 27L96 -3C250 0 250 0 261 0C292 0 402 -3 418 -3Z" stroke="rgb(0,0,0)" stroke-opacity="1" stroke-width="8" fill="rgb(0,0,0)" fill-opacity="1"></path></g></g></g></g><g><g><g><g transform="matrix(1,0,0,1,338.078125,44.78125)"><path transform="matrix(0.017,0,0,-0.017,0,0)" d="M16 23L16 -3C203 -3 203 0 239 0C275 0 275 -3 468 -3L468 82C353 77 307 81 122 77L304 270C401 373 431 428 431 503C431 618 353 689 226 689C154 689 105 669 56 619L39 483L68 483L81 529C97 587 133 612 200 612C286 612 341 558 341 473C341 398 299 324 186 204Z" stroke="rgb(0,0,0)" stroke-opacity="1" stroke-width="8" fill="rgb(0,0,0)" fill-opacity="1"></path></g></g></g></g><line style="fill:none;stroke-width:1px;stroke:rgb(0, 0, 0);" x1="338.078125" y1="27.140625" x2="346.5625" y2="27.140625"></line></g><g><g transform="matrix(1,0,0,1,348.25,31.390625)"><path transform="matrix(0.017,0,0,-0.017,0,0)" d="M822 82L817 -3C882 0 882 0 895 0C900 0 925 -1 969 -3L969 27L930 29C906 30 902 38 902 87L902 270C902 416 860 469 744 469C701 469 661 458 623 435L570 403L570 338L596 331L609 362C630 409 640 416 686 416C780 416 819 379 822 288L723 270C587 245 530 198 530 111C530 33 577 -12 656 -12C674 -12 691 -9 698 -4ZM822 124C793 83 730 45 691 45C651 45 616 82 616 125C616 162 636 197 666 216C691 231 746 245 822 256ZM1407 -3C1468 0 1469 0 1486 0C1500 0 1500 0 1569 -3L1569 27L1528 30C1494 32 1491 38 1491 102L1491 295C1491 412 1436 469 1324 469C1287 469 1266 462 1245 444L1169 378L1169 465L1160 469C1109 448 1057 434 1004 428L1004 400L1041 400C1081 400 1085 393 1085 327L1085 102C1085 39 1082 32 1048 30L1003 27L1003 -3C1071 -1 1098 0 1127 0C1156 0 1183 -1 1251 -3L1251 27L1206 30C1172 32 1169 39 1169 102L1169 314C1169 359 1235 408 1296 408C1363 408 1407 358 1407 281ZM2157 -3L2157 27L2111 30C2077 32 2074 39 2074 102L2074 718L2065 726C2021 709 1988 701 1909 689L1909 661L1965 661C1983 661 1990 650 1990 620L1990 437C1962 472 1924 486 1884 486C1761 486 1612 351 1612 229C1612 149 1640 70 1689 30C1723 1 1770 -12 1835 -12C1855 -12 1878 -8 1883 -4L1994 89L1989 -3C2038 -1 2054 0 2066 0C2084 0 2148 -3 2157 -3ZM1990 350L1990 221C1990 156 1988 146 1975 123C1947 76 1898 45 1851 45C1763 45 1700 130 1700 249C1700 358 1754 422 1844 422C1923 422 1990 366 1990 350ZM3099 469L2940 104C2937 113 2852 397 2852 405C2852 420 2865 428 2890 429L2930 431L2930 459C2831 456 2831 456 2811 456C2791 456 2791 456 2692 459L2692 431L2720 429C2748 427 2761 407 2786 329L2888 -7L2935 -7L3085 335L3221 -7L3267 -7L3404 342C3434 409 3446 426 3468 429L3494 431L3494 459C3412 456 3412 456 3396 456C3380 456 3380 456 3298 459L3298 431L3332 429C3357 428 3371 416 3371 398L3266 98L3151 388C3137 422 3130 442 3122 469Z" stroke="rgb(0,0,0)" stroke-opacity="1" stroke-width="8" fill="rgb(0,0,0)" fill-opacity="1"></path></g></g><g><g><g><g><g transform="matrix(1,0,0,1,408.578125,34.4)"><path transform="matrix(0.0119,0,0,-0.0119,0,0)" d="M150 718L141 726C97 709 64 701 -15 689L-15 661L41 661C59 661 66 650 66 620L66 153C66 91 65 64 58 -6L74 -12L114 24C177 -12 232 -28 280 -28C432 -28 508 128 508 262L508 270C495 414 404 485 315 485C248 485 182 446 150 369ZM284 404C368 404 421 336 421 229C421 117 361 39 276 39C224 39 150 71 150 93L150 308C150 343 206 404 284 404Z" stroke="rgb(0,0,0)" stroke-opacity="1" stroke-width="8" fill="rgb(0,0,0)" fill-opacity="1"></path></g></g></g></g></g><g><g transform="matrix(1,0,0,1,421.265625,31.390625)"><path transform="matrix(0.017,0,0,-0.017,0,0)" d="M826 347L826 406L287 406L287 347ZM826 134L826 193L287 193L287 134ZM202 458C202 491 175 518 143 518C112 518 85 492 85 458C85 418 121 401 143 401C165 401 202 419 202 458ZM202 80C202 113 175 140 143 140C112 140 85 114 85 80C85 40 121 23 143 23C165 23 202 41 202 80Z" stroke="rgb(0,0,0)" stroke-opacity="1" stroke-width="8" fill="rgb(0,0,0)" fill-opacity="1"></path></g></g><g><g transform="matrix(1,0,0,1,441.5,31.390625)"><path transform="matrix(0.017,0,0,-0.017,0,0)" d="" stroke="rgb(0,0,0)" stroke-opacity="1" stroke-width="8" fill="rgb(0,0,0)" fill-opacity="1"></path></g></g><g><g><g><g><g transform="matrix(1,0,0,1,447.421875,19)"><path transform="matrix(0.017,0,0,-0.017,0,0)" d="M418 -3L418 27L366 30C311 33 301 44 301 96L301 700L60 598L67 548L217 614L217 96C217 44 206 33 152 30L96 27L96 -3C250 0 250 0 261 0C292 0 402 -3 418 -3Z" stroke="rgb(0,0,0)" stroke-opacity="1" stroke-width="8" fill="rgb(0,0,0)" fill-opacity="1"></path></g></g></g></g><g><g><g><g transform="matrix(1,0,0,1,447.421875,44.78125)"><path transform="matrix(0.017,0,0,-0.017,0,0)" d="M16 23L16 -3C203 -3 203 0 239 0C275 0 275 -3 468 -3L468 82C353 77 307 81 122 77L304 270C401 373 431 428 431 503C431 618 353 689 226 689C154 689 105 669 56 619L39 483L68 483L81 529C97 587 133 612 200 612C286 612 341 558 341 473C341 398 299 324 186 204Z" stroke="rgb(0,0,0)" stroke-opacity="1" stroke-width="8" fill="rgb(0,0,0)" fill-opacity="1"></path></g></g></g></g><line style="fill:none;stroke-width:1px;stroke:rgb(0, 0, 0);" x1="447.421875" y1="27.140625" x2="455.90625" y2="27.140625"></line></g><g><g transform="matrix(1,0,0,1,457.59375,31.390625)"><path transform="matrix(0.017,0,0,-0.017,0,0)" d="" stroke="rgb(0,0,0)" stroke-opacity="1" stroke-width="8" fill="rgb(0,0,0)" fill-opacity="1"></path></g></g><g><g transform="matrix(1,0,0,1,461.828125,31.390625)"><path transform="matrix(0.017,0,0,-0.017,0,0)" d="M204 123C177 114 159 108 106 93C99 17 74 -48 16 -144L30 -155L71 -136C152 -31 190 32 218 109Z" stroke="rgb(0,0,0)" stroke-opacity="1" stroke-width="8" fill="rgb(0,0,0)" fill-opacity="1"></path></g></g><g><g transform="matrix(1,0,0,1,469.453125,31.390625)"><path transform="matrix(0.017,0,0,-0.017,0,0)" d="M499 -20C564 -20 654 18 666 36L686 70L673 80C609 42 586 33 543 33C478 33 424 62 396 111C377 144 370 172 368 230C389 227 419 226 453 226C539 226 648 234 695 244C696 258 697 267 697 279C697 394 623 469 511 469C474 469 429 464 389 440C307 392 275 323 275 219C275 25 410 -20 499 -20ZM608 267C584 264 533 261 482 261C439 261 396 264 370 270C370 317 374 339 387 365C408 409 451 436 499 436C532 436 558 423 576 396C598 363 605 334 608 267ZM825 382L825 94C825 20 858 -12 935 -12C958 -12 982 -7 988 0L1036 53L1023 70C998 56 983 51 964 51C925 51 909 71 909 120L909 382L1037 382L1046 436L909 430L909 468C909 510 912 546 920 610L908 621C884 606 854 593 823 583C826 553 827 534 827 504L827 434L749 399L749 378ZM1451 311C1451 357 1456 398 1465 434C1433 478 1390 497 1345 497C1221 497 1077 361 1077 224C1077 219 1078 215 1078 210C1078 75 1173 -20 1307 -20C1359 -20 1434 -1 1444 14L1465 46L1455 61C1418 41 1386 32 1350 32C1239 32 1166 118 1166 250C1166 357 1216 417 1306 417C1350 417 1398 397 1416 372L1423 311Z" stroke="rgb(0,0,0)" stroke-opacity="1" stroke-width="8" fill="rgb(0,0,0)" fill-opacity="1"></path></g></g></g></g></svg>