<svg xmlns="http://www.w3.org/2000/svg" xmlns:xlink="http://www.w3.org/1999/xlink" width="333.984375" height="94.9921875" style="width:333.984375px;height:94.9921875px;font-family:Asana-Math, Asana;background:#FFF;"><g><g><g><g transform="matrix(1,0,0,1,2,52.265625)"><path transform="matrix(0.017,0,0,-0.017,0,0)" d="M283 49C203 49 183 94 183 170L183 465L174 469C123 448 71 434 18 428L18 400L55 400C95 400 99 393 99 327L99 159C99 70 104 -12 240 -12C285 -12 325 2 352 27L419 89C419 60 418 44 415 -3C482 0 483 0 498 0C512 0 512 0 581 -3L581 27L540 30C506 32 503 38 503 102L503 465L494 469C443 448 391 434 338 428L338 400L375 400C415 400 419 393 419 327L419 164C419 126 370 49 283 49Z" stroke="rgb(0,0,0)" stroke-opacity="1" stroke-width="8" fill="rgb(0,0,0)" fill-opacity="1"></path></g></g><g><g transform="matrix(1,0,0,1,12.234375,52.765625)"><path transform="matrix(0.017,0,0,-0.017,0,0)" d="M146 266C146 526 243 632 301 700L282 726C225 675 60 542 60 266C60 159 85 58 133 -32C168 -99 200 -138 282 -215L301 -194C255 -137 146 -15 146 266Z" stroke="rgb(0,0,0)" stroke-opacity="1" stroke-width="8" fill="rgb(0,0,0)" fill-opacity="1"></path></g></g><g><g transform="matrix(1,0,0,1,17.8828125,52.265625)"><path transform="matrix(0.017,0,0,-0.017,0,0)" d="M288 254L430 420C436 427 447 431 464 431L478 431L478 459L396 459L272 284L196 400C181 422 170 435 136 469L20 449L25 423L46 421C64 420 86 406 96 392L216 218L67 42C60 33 47 27 37 27L20 27L20 0L106 0L240 192L373 -3C425 0 425 0 434 0C444 0 444 0 496 -3L496 27L471 30C459 31 447 39 436 54Z" stroke="rgb(0,0,0)" stroke-opacity="1" stroke-width="8" fill="rgb(0,0,0)" fill-opacity="1"></path></g></g><g><g transform="matrix(1,0,0,1,26.640625,52.765625)"><path transform="matrix(0.017,0,0,-0.017,0,0)" d="M51 726L32 700C87 636 187 526 187 266C187 -10 83 -131 32 -194L51 -215C104 -165 273 -23 273 265C273 542 108 675 51 726Z" stroke="rgb(0,0,0)" stroke-opacity="1" stroke-width="8" fill="rgb(0,0,0)" fill-opacity="1"></path></g></g><g><g transform="matrix(1,0,0,1,37.3828125,52.265625)"><path transform="matrix(0.017,0,0,-0.017,0,0)" d="M604 347L604 406L65 406L65 347ZM604 134L604 193L65 193L65 134Z" stroke="rgb(0,0,0)" stroke-opacity="1" stroke-width="8" fill="rgb(0,0,0)" fill-opacity="1"></path></g></g><g><g><g><g><g transform="matrix(1,0,0,1,66.734375,19.5)"><path transform="matrix(0.017,0,0,-0.017,0,0)" d="M263 689C108 689 29 566 29 324C29 207 50 106 85 57C120 8 176 -20 238 -20C389 -20 465 110 465 366C465 585 400 689 263 689ZM245 654C342 654 381 556 381 316C381 103 343 15 251 15C154 15 113 116 113 360C113 571 150 654 245 654Z" stroke="rgb(0,0,0)" stroke-opacity="1" stroke-width="8" fill="rgb(0,0,0)" fill-opacity="1"></path></g></g></g></g><g><g><g><g transform="matrix(1,0,0,1,187.0546875,19.5)"><path transform="matrix(0.017,0,0,-0.017,0,0)" d="M288 254L430 420C436 427 447 431 464 431L478 431L478 459L396 459L272 284L196 400C181 422 170 435 136 469L20 449L25 423L46 421C64 420 86 406 96 392L216 218L67 42C60 33 47 27 37 27L20 27L20 0L106 0L240 192L373 -3C425 0 425 0 434 0C444 0 444 0 496 -3L496 27L471 30C459 31 447 39 436 54Z" stroke="rgb(0,0,0)" stroke-opacity="1" stroke-width="8" fill="rgb(0,0,0)" fill-opacity="1"></path></g></g><g><g transform="matrix(1,0,0,1,200.90625,19.5)"><path transform="matrix(0.017,0,0,-0.017,0,0)" d="M604 0L604 59L166 264L604 469L604 528L65 273L65 252Z" stroke="rgb(0,0,0)" stroke-opacity="1" stroke-width="8" fill="rgb(0,0,0)" fill-opacity="1"></path></g></g><g><g transform="matrix(1,0,0,1,217.359375,19.5)"><path transform="matrix(0.017,0,0,-0.017,0,0)" d="M23 661L79 661C97 661 104 650 104 620L104 102C104 39 101 32 67 30L21 27L21 -3C121 0 121 0 146 0C171 0 171 0 271 -3L271 27L225 30C191 32 188 39 188 102L188 718L179 726C135 709 102 701 23 689ZM569 469C423 469 322 366 322 217C322 76 411 -20 540 -20C694 -20 804 87 804 237C804 372 706 469 569 469ZM551 436C643 436 711 336 711 200C711 85 660 13 579 13C481 13 415 109 415 251C415 371 463 436 551 436ZM1248 469L1089 104C1086 113 1001 397 1001 405C1001 420 1014 428 1039 429L1079 431L1079 459C980 456 980 456 960 456C940 456 940 456 841 459L841 431L869 429C897 427 910 407 935 329L1037 -7L1084 -7L1234 335L1370 -7L1416 -7L1553 342C1583 409 1595 426 1617 429L1643 431L1643 459C1561 456 1561 456 1545 456C1529 456 1529 456 1447 459L1447 431L1481 429C1506 428 1520 416 1520 398L1415 98L1300 388C1286 422 1279 442 1271 469ZM1918 -20C1983 -20 2073 18 2085 36L2105 70L2092 80C2028 42 2005 33 1962 33C1897 33 1843 62 1815 111C1796 144 1789 172 1787 230C1808 227 1838 226 1872 226C1958 226 2067 234 2114 244C2115 258 2116 267 2116 279C2116 394 2042 469 1930 469C1893 469 1848 464 1808 440C1726 392 1694 323 1694 219C1694 25 1829 -20 1918 -20ZM2027 267C2003 264 1952 261 1901 261C1858 261 1815 264 1789 270C1789 317 1793 339 1806 365C1827 409 1870 436 1918 436C1951 436 1977 423 1995 396C2017 363 2024 334 2027 267ZM2169 400L2206 400C2246 400 2250 393 2250 327L2250 102C2250 39 2247 32 2213 30L2167 27L2167 -3C2239 -1 2265 0 2290 0C2310 0 2310 0 2433 -3L2433 27L2381 30C2336 33 2334 36 2334 102L2334 274C2334 334 2374 384 2423 384C2453 384 2474 370 2490 338L2511 338L2520 458C2509 465 2491 469 2473 469C2443 469 2411 453 2390 428L2334 362L2334 465L2325 469C2274 448 2222 434 2169 428Z" stroke="rgb(0,0,0)" stroke-opacity="1" stroke-width="8" fill="rgb(0,0,0)" fill-opacity="1"></path></g></g></g></g><g><g><g><g><g><g><g transform="matrix(1,0,0,1,86.78125,40.8984375)"><path transform="matrix(0.017,0,0,-0.017,0,0)" d="M288 254L430 420C436 427 447 431 464 431L478 431L478 459L396 459L272 284L196 400C181 422 170 435 136 469L20 449L25 423L46 421C64 420 86 406 96 392L216 218L67 42C60 33 47 27 37 27L20 27L20 0L106 0L240 192L373 -3C425 0 425 0 434 0C444 0 444 0 496 -3L496 27L471 30C459 31 447 39 436 54Z" stroke="rgb(0,0,0)" stroke-opacity="1" stroke-width="8" fill="rgb(0,0,0)" fill-opacity="1"></path></g></g><g><g transform="matrix(1,0,0,1,98.9375,40.8984375)"><path transform="matrix(0.017,0,0,-0.017,0,0)" d="M555 243L555 299L51 299L51 243Z" stroke="rgb(0,0,0)" stroke-opacity="1" stroke-width="8" fill="rgb(0,0,0)" fill-opacity="1"></path></g></g><g><g transform="matrix(1,0,0,1,112.625,40.8984375)"><path transform="matrix(0.017,0,0,-0.017,0,0)" d="M23 661L79 661C97 661 104 650 104 620L104 102C104 39 101 32 67 30L21 27L21 -3C121 0 121 0 146 0C171 0 171 0 271 -3L271 27L225 30C191 32 188 39 188 102L188 718L179 726C135 709 102 701 23 689ZM569 469C423 469 322 366 322 217C322 76 411 -20 540 -20C694 -20 804 87 804 237C804 372 706 469 569 469ZM551 436C643 436 711 336 711 200C711 85 660 13 579 13C481 13 415 109 415 251C415 371 463 436 551 436ZM1248 469L1089 104C1086 113 1001 397 1001 405C1001 420 1014 428 1039 429L1079 431L1079 459C980 456 980 456 960 456C940 456 940 456 841 459L841 431L869 429C897 427 910 407 935 329L1037 -7L1084 -7L1234 335L1370 -7L1416 -7L1553 342C1583 409 1595 426 1617 429L1643 431L1643 459C1561 456 1561 456 1545 456C1529 456 1529 456 1447 459L1447 431L1481 429C1506 428 1520 416 1520 398L1415 98L1300 388C1286 422 1279 442 1271 469ZM1918 -20C1983 -20 2073 18 2085 36L2105 70L2092 80C2028 42 2005 33 1962 33C1897 33 1843 62 1815 111C1796 144 1789 172 1787 230C1808 227 1838 226 1872 226C1958 226 2067 234 2114 244C2115 258 2116 267 2116 279C2116 394 2042 469 1930 469C1893 469 1848 464 1808 440C1726 392 1694 323 1694 219C1694 25 1829 -20 1918 -20ZM2027 267C2003 264 1952 261 1901 261C1858 261 1815 264 1789 270C1789 317 1793 339 1806 365C1827 409 1870 436 1918 436C1951 436 1977 423 1995 396C2017 363 2024 334 2027 267ZM2169 400L2206 400C2246 400 2250 393 2250 327L2250 102C2250 39 2247 32 2213 30L2167 27L2167 -3C2239 -1 2265 0 2290 0C2310 0 2310 0 2433 -3L2433 27L2381 30C2336 33 2334 36 2334 102L2334 274C2334 334 2374 384 2423 384C2453 384 2474 370 2490 338L2511 338L2520 458C2509 465 2491 469 2473 469C2443 469 2411 453 2390 428L2334 362L2334 465L2325 469C2274 448 2222 434 2169 428Z" stroke="rgb(0,0,0)" stroke-opacity="1" stroke-width="8" fill="rgb(0,0,0)" fill-opacity="1"></path></g></g></g></g><g><g><g><g transform="matrix(1,0,0,1,68.4296875,66.6953125)"><path transform="matrix(0.017,0,0,-0.017,0,0)" d="M283 49C203 49 183 94 183 170L183 465L174 469C123 448 71 434 18 428L18 400L55 400C95 400 99 393 99 327L99 159C99 70 104 -12 240 -12C285 -12 325 2 352 27L419 89C419 60 418 44 415 -3C482 0 483 0 498 0C512 0 512 0 581 -3L581 27L540 30C506 32 503 38 503 102L503 465L494 469C443 448 391 434 338 428L338 400L375 400C415 400 419 393 419 327L419 164C419 126 370 49 283 49ZM612 400L649 400C689 400 693 393 693 327L693 -176C693 -239 690 -246 656 -248L610 -251L610 -281C710 -278 710 -278 735 -278C760 -278 760 -278 860 -281L860 -251L814 -248C780 -246 777 -239 777 -176L777 13C825 -10 869 -21 910 -21C1061 -21 1158 121 1158 242C1158 252 1157 261 1156 271C1154 401 1057 477 956 477C889 477 821 443 777 369L777 465L768 469C717 448 665 434 612 428ZM915 404C1009 404 1069 338 1069 234C1069 122 1002 39 912 39C857 39 816 57 777 98L777 306C777 337 824 404 915 404ZM1212 400L1249 400C1289 400 1293 393 1293 327L1293 -176C1293 -239 1290 -246 1256 -248L1210 -251L1210 -281C1310 -278 1310 -278 1335 -278C1360 -278 1360 -278 1460 -281L1460 -251L1414 -248C1380 -246 1377 -239 1377 -176L1377 13C1425 -10 1469 -21 1510 -21C1661 -21 1758 121 1758 242C1758 252 1757 261 1756 271C1754 401 1657 477 1556 477C1489 477 1421 443 1377 369L1377 465L1368 469C1317 448 1265 434 1212 428ZM1515 404C1609 404 1669 338 1669 234C1669 122 1602 39 1512 39C1457 39 1416 57 1377 98L1377 306C1377 337 1424 404 1515 404ZM2052 -20C2117 -20 2207 18 2219 36L2239 70L2226 80C2162 42 2139 33 2096 33C2031 33 1977 62 1949 111C1930 144 1923 172 1921 230C1942 227 1972 226 2006 226C2092 226 2201 234 2248 244C2249 258 2250 267 2250 279C2250 394 2176 469 2064 469C2027 469 1982 464 1942 440C1860 392 1828 323 1828 219C1828 25 1963 -20 2052 -20ZM2161 267C2137 264 2086 261 2035 261C1992 261 1949 264 1923 270C1923 317 1927 339 1940 365C1961 409 2004 436 2052 436C2085 436 2111 423 2129 396C2151 363 2158 334 2161 267ZM2303 400L2340 400C2380 400 2384 393 2384 327L2384 102C2384 39 2381 32 2347 30L2301 27L2301 -3C2373 -1 2399 0 2424 0C2444 0 2444 0 2567 -3L2567 27L2515 30C2470 33 2468 36 2468 102L2468 274C2468 334 2508 384 2557 384C2587 384 2608 370 2624 338L2645 338L2654 458C2643 465 2625 469 2607 469C2577 469 2545 453 2524 428L2468 362L2468 465L2459 469C2408 448 2356 434 2303 428Z" stroke="rgb(0,0,0)" stroke-opacity="1" stroke-width="8" fill="rgb(0,0,0)" fill-opacity="1"></path></g></g><g><g transform="matrix(1,0,0,1,117.2890625,66.6953125)"><path transform="matrix(0.017,0,0,-0.017,0,0)" d="M555 243L555 299L51 299L51 243Z" stroke="rgb(0,0,0)" stroke-opacity="1" stroke-width="8" fill="rgb(0,0,0)" fill-opacity="1"></path></g></g><g><g transform="matrix(1,0,0,1,130.9765625,66.6953125)"><path transform="matrix(0.017,0,0,-0.017,0,0)" d="M23 661L79 661C97 661 104 650 104 620L104 102C104 39 101 32 67 30L21 27L21 -3C121 0 121 0 146 0C171 0 171 0 271 -3L271 27L225 30C191 32 188 39 188 102L188 718L179 726C135 709 102 701 23 689ZM569 469C423 469 322 366 322 217C322 76 411 -20 540 -20C694 -20 804 87 804 237C804 372 706 469 569 469ZM551 436C643 436 711 336 711 200C711 85 660 13 579 13C481 13 415 109 415 251C415 371 463 436 551 436ZM1248 469L1089 104C1086 113 1001 397 1001 405C1001 420 1014 428 1039 429L1079 431L1079 459C980 456 980 456 960 456C940 456 940 456 841 459L841 431L869 429C897 427 910 407 935 329L1037 -7L1084 -7L1234 335L1370 -7L1416 -7L1553 342C1583 409 1595 426 1617 429L1643 431L1643 459C1561 456 1561 456 1545 456C1529 456 1529 456 1447 459L1447 431L1481 429C1506 428 1520 416 1520 398L1415 98L1300 388C1286 422 1279 442 1271 469ZM1918 -20C1983 -20 2073 18 2085 36L2105 70L2092 80C2028 42 2005 33 1962 33C1897 33 1843 62 1815 111C1796 144 1789 172 1787 230C1808 227 1838 226 1872 226C1958 226 2067 234 2114 244C2115 258 2116 267 2116 279C2116 394 2042 469 1930 469C1893 469 1848 464 1808 440C1726 392 1694 323 1694 219C1694 25 1829 -20 1918 -20ZM2027 267C2003 264 1952 261 1901 261C1858 261 1815 264 1789 270C1789 317 1793 339 1806 365C1827 409 1870 436 1918 436C1951 436 1977 423 1995 396C2017 363 2024 334 2027 267ZM2169 400L2206 400C2246 400 2250 393 2250 327L2250 102C2250 39 2247 32 2213 30L2167 27L2167 -3C2239 -1 2265 0 2290 0C2310 0 2310 0 2433 -3L2433 27L2381 30C2336 33 2334 36 2334 102L2334 274C2334 334 2374 384 2423 384C2453 384 2474 370 2490 338L2511 338L2520 458C2509 465 2491 469 2473 469C2443 469 2411 453 2390 428L2334 362L2334 465L2325 469C2274 448 2222 434 2169 428Z" stroke="rgb(0,0,0)" stroke-opacity="1" stroke-width="8" fill="rgb(0,0,0)" fill-opacity="1"></path></g></g></g></g><line style="fill:none;stroke-width:1px;stroke:rgb(0, 0, 0);" x1="68.4296875" y1="49.046875" x2="174.1640625" y2="49.046875"></line></g></g></g><g><g><g><g transform="matrix(1,0,0,1,187.0546875,53.296875)"><path transform="matrix(0.017,0,0,-0.017,0,0)" d="M23 661L79 661C97 661 104 650 104 620L104 102C104 39 101 32 67 30L21 27L21 -3C121 0 121 0 146 0C171 0 171 0 271 -3L271 27L225 30C191 32 188 39 188 102L188 718L179 726C135 709 102 701 23 689ZM569 469C423 469 322 366 322 217C322 76 411 -20 540 -20C694 -20 804 87 804 237C804 372 706 469 569 469ZM551 436C643 436 711 336 711 200C711 85 660 13 579 13C481 13 415 109 415 251C415 371 463 436 551 436ZM1248 469L1089 104C1086 113 1001 397 1001 405C1001 420 1014 428 1039 429L1079 431L1079 459C980 456 980 456 960 456C940 456 940 456 841 459L841 431L869 429C897 427 910 407 935 329L1037 -7L1084 -7L1234 335L1370 -7L1416 -7L1553 342C1583 409 1595 426 1617 429L1643 431L1643 459C1561 456 1561 456 1545 456C1529 456 1529 456 1447 459L1447 431L1481 429C1506 428 1520 416 1520 398L1415 98L1300 388C1286 422 1279 442 1271 469ZM1918 -20C1983 -20 2073 18 2085 36L2105 70L2092 80C2028 42 2005 33 1962 33C1897 33 1843 62 1815 111C1796 144 1789 172 1787 230C1808 227 1838 226 1872 226C1958 226 2067 234 2114 244C2115 258 2116 267 2116 279C2116 394 2042 469 1930 469C1893 469 1848 464 1808 440C1726 392 1694 323 1694 219C1694 25 1829 -20 1918 -20ZM2027 267C2003 264 1952 261 1901 261C1858 261 1815 264 1789 270C1789 317 1793 339 1806 365C1827 409 1870 436 1918 436C1951 436 1977 423 1995 396C2017 363 2024 334 2027 267ZM2169 400L2206 400C2246 400 2250 393 2250 327L2250 102C2250 39 2247 32 2213 30L2167 27L2167 -3C2239 -1 2265 0 2290 0C2310 0 2310 0 2433 -3L2433 27L2381 30C2336 33 2334 36 2334 102L2334 274C2334 334 2374 384 2423 384C2453 384 2474 370 2490 338L2511 338L2520 458C2509 465 2491 469 2473 469C2443 469 2411 453 2390 428L2334 362L2334 465L2325 469C2274 448 2222 434 2169 428Z" stroke="rgb(0,0,0)" stroke-opacity="1" stroke-width="8" fill="rgb(0,0,0)" fill-opacity="1"></path></g></g><g><g transform="matrix(1,0,0,1,235.3359375,53.296875)"><path transform="matrix(0.017,0,0,-0.017,0,0)" d="M604 76L604 135L166 340L604 545L604 604L65 349L65 328ZM604 -61L604 -5L65 -5L65 -61Z" stroke="rgb(0,0,0)" stroke-opacity="1" stroke-width="8" fill="rgb(0,0,0)" fill-opacity="1"></path></g></g><g><g transform="matrix(1,0,0,1,251.8046875,53.296875)"><path transform="matrix(0.017,0,0,-0.017,0,0)" d="M288 254L430 420C436 427 447 431 464 431L478 431L478 459L396 459L272 284L196 400C181 422 170 435 136 469L20 449L25 423L46 421C64 420 86 406 96 392L216 218L67 42C60 33 47 27 37 27L20 27L20 0L106 0L240 192L373 -3C425 0 425 0 434 0C444 0 444 0 496 -3L496 27L471 30C459 31 447 39 436 54Z" stroke="rgb(0,0,0)" stroke-opacity="1" stroke-width="8" fill="rgb(0,0,0)" fill-opacity="1"></path></g></g><g><g transform="matrix(1,0,0,1,265.65625,53.296875)"><path transform="matrix(0.017,0,0,-0.017,0,0)" d="M604 76L604 135L166 340L604 545L604 604L65 349L65 328ZM604 -61L604 -5L65 -5L65 -61Z" stroke="rgb(0,0,0)" stroke-opacity="1" stroke-width="8" fill="rgb(0,0,0)" fill-opacity="1"></path></g></g><g><g transform="matrix(1,0,0,1,282.125,53.296875)"><path transform="matrix(0.017,0,0,-0.017,0,0)" d="M283 49C203 49 183 94 183 170L183 465L174 469C123 448 71 434 18 428L18 400L55 400C95 400 99 393 99 327L99 159C99 70 104 -12 240 -12C285 -12 325 2 352 27L419 89C419 60 418 44 415 -3C482 0 483 0 498 0C512 0 512 0 581 -3L581 27L540 30C506 32 503 38 503 102L503 465L494 469C443 448 391 434 338 428L338 400L375 400C415 400 419 393 419 327L419 164C419 126 370 49 283 49ZM612 400L649 400C689 400 693 393 693 327L693 -176C693 -239 690 -246 656 -248L610 -251L610 -281C710 -278 710 -278 735 -278C760 -278 760 -278 860 -281L860 -251L814 -248C780 -246 777 -239 777 -176L777 13C825 -10 869 -21 910 -21C1061 -21 1158 121 1158 242C1158 252 1157 261 1156 271C1154 401 1057 477 956 477C889 477 821 443 777 369L777 465L768 469C717 448 665 434 612 428ZM915 404C1009 404 1069 338 1069 234C1069 122 1002 39 912 39C857 39 816 57 777 98L777 306C777 337 824 404 915 404ZM1212 400L1249 400C1289 400 1293 393 1293 327L1293 -176C1293 -239 1290 -246 1256 -248L1210 -251L1210 -281C1310 -278 1310 -278 1335 -278C1360 -278 1360 -278 1460 -281L1460 -251L1414 -248C1380 -246 1377 -239 1377 -176L1377 13C1425 -10 1469 -21 1510 -21C1661 -21 1758 121 1758 242C1758 252 1757 261 1756 271C1754 401 1657 477 1556 477C1489 477 1421 443 1377 369L1377 465L1368 469C1317 448 1265 434 1212 428ZM1515 404C1609 404 1669 338 1669 234C1669 122 1602 39 1512 39C1457 39 1416 57 1377 98L1377 306C1377 337 1424 404 1515 404ZM2052 -20C2117 -20 2207 18 2219 36L2239 70L2226 80C2162 42 2139 33 2096 33C2031 33 1977 62 1949 111C1930 144 1923 172 1921 230C1942 227 1972 226 2006 226C2092 226 2201 234 2248 244C2249 258 2250 267 2250 279C2250 394 2176 469 2064 469C2027 469 1982 464 1942 440C1860 392 1828 323 1828 219C1828 25 1963 -20 2052 -20ZM2161 267C2137 264 2086 261 2035 261C1992 261 1949 264 1923 270C1923 317 1927 339 1940 365C1961 409 2004 436 2052 436C2085 436 2111 423 2129 396C2151 363 2158 334 2161 267ZM2303 400L2340 400C2380 400 2384 393 2384 327L2384 102C2384 39 2381 32 2347 30L2301 27L2301 -3C2373 -1 2399 0 2424 0C2444 0 2444 0 2567 -3L2567 27L2515 30C2470 33 2468 36 2468 102L2468 274C2468 334 2508 384 2557 384C2587 384 2608 370 2624 338L2645 338L2654 458C2643 465 2625 469 2607 469C2577 469 2545 453 2524 428L2468 362L2468 465L2459 469C2408 448 2356 434 2303 428Z" stroke="rgb(0,0,0)" stroke-opacity="1" stroke-width="8" fill="rgb(0,0,0)" fill-opacity="1"></path></g></g></g></g><g><g><g><g transform="matrix(1,0,0,1,66.734375,88.09375)"><path transform="matrix(0.017,0,0,-0.017,0,0)" d="M418 -3L418 27L366 30C311 33 301 44 301 96L301 700L60 598L67 548L217 614L217 96C217 44 206 33 152 30L96 27L96 -3C250 0 250 0 261 0C292 0 402 -3 418 -3Z" stroke="rgb(0,0,0)" stroke-opacity="1" stroke-width="8" fill="rgb(0,0,0)" fill-opacity="1"></path></g></g></g></g><g><g><g><g transform="matrix(1,0,0,1,187.0546875,88.09375)"><path transform="matrix(0.017,0,0,-0.017,0,0)" d="M288 254L430 420C436 427 447 431 464 431L478 431L478 459L396 459L272 284L196 400C181 422 170 435 136 469L20 449L25 423L46 421C64 420 86 406 96 392L216 218L67 42C60 33 47 27 37 27L20 27L20 0L106 0L240 192L373 -3C425 0 425 0 434 0C444 0 444 0 496 -3L496 27L471 30C459 31 447 39 436 54Z" stroke="rgb(0,0,0)" stroke-opacity="1" stroke-width="8" fill="rgb(0,0,0)" fill-opacity="1"></path></g></g><g><g transform="matrix(1,0,0,1,200.90625,88.09375)"><path transform="matrix(0.017,0,0,-0.017,0,0)" d="M65 0L604 252L604 273L65 528L65 469L503 264L65 59Z" stroke="rgb(0,0,0)" stroke-opacity="1" stroke-width="8" fill="rgb(0,0,0)" fill-opacity="1"></path></g></g><g><g transform="matrix(1,0,0,1,217.359375,88.09375)"><path transform="matrix(0.017,0,0,-0.017,0,0)" d="M283 49C203 49 183 94 183 170L183 465L174 469C123 448 71 434 18 428L18 400L55 400C95 400 99 393 99 327L99 159C99 70 104 -12 240 -12C285 -12 325 2 352 27L419 89C419 60 418 44 415 -3C482 0 483 0 498 0C512 0 512 0 581 -3L581 27L540 30C506 32 503 38 503 102L503 465L494 469C443 448 391 434 338 428L338 400L375 400C415 400 419 393 419 327L419 164C419 126 370 49 283 49ZM612 400L649 400C689 400 693 393 693 327L693 -176C693 -239 690 -246 656 -248L610 -251L610 -281C710 -278 710 -278 735 -278C760 -278 760 -278 860 -281L860 -251L814 -248C780 -246 777 -239 777 -176L777 13C825 -10 869 -21 910 -21C1061 -21 1158 121 1158 242C1158 252 1157 261 1156 271C1154 401 1057 477 956 477C889 477 821 443 777 369L777 465L768 469C717 448 665 434 612 428ZM915 404C1009 404 1069 338 1069 234C1069 122 1002 39 912 39C857 39 816 57 777 98L777 306C777 337 824 404 915 404ZM1212 400L1249 400C1289 400 1293 393 1293 327L1293 -176C1293 -239 1290 -246 1256 -248L1210 -251L1210 -281C1310 -278 1310 -278 1335 -278C1360 -278 1360 -278 1460 -281L1460 -251L1414 -248C1380 -246 1377 -239 1377 -176L1377 13C1425 -10 1469 -21 1510 -21C1661 -21 1758 121 1758 242C1758 252 1757 261 1756 271C1754 401 1657 477 1556 477C1489 477 1421 443 1377 369L1377 465L1368 469C1317 448 1265 434 1212 428ZM1515 404C1609 404 1669 338 1669 234C1669 122 1602 39 1512 39C1457 39 1416 57 1377 98L1377 306C1377 337 1424 404 1515 404ZM2052 -20C2117 -20 2207 18 2219 36L2239 70L2226 80C2162 42 2139 33 2096 33C2031 33 1977 62 1949 111C1930 144 1923 172 1921 230C1942 227 1972 226 2006 226C2092 226 2201 234 2248 244C2249 258 2250 267 2250 279C2250 394 2176 469 2064 469C2027 469 1982 464 1942 440C1860 392 1828 323 1828 219C1828 25 1963 -20 2052 -20ZM2161 267C2137 264 2086 261 2035 261C1992 261 1949 264 1923 270C1923 317 1927 339 1940 365C1961 409 2004 436 2052 436C2085 436 2111 423 2129 396C2151 363 2158 334 2161 267ZM2303 400L2340 400C2380 400 2384 393 2384 327L2384 102C2384 39 2381 32 2347 30L2301 27L2301 -3C2373 -1 2399 0 2424 0C2444 0 2444 0 2567 -3L2567 27L2515 30C2470 33 2468 36 2468 102L2468 274C2468 334 2508 384 2557 384C2587 384 2608 370 2624 338L2645 338L2654 458C2643 465 2625 469 2607 469C2577 469 2545 453 2524 428L2468 362L2468 465L2459 469C2408 448 2356 434 2303 428Z" stroke="rgb(0,0,0)" stroke-opacity="1" stroke-width="8" fill="rgb(0,0,0)" fill-opacity="1"></path></g></g></g></g><svg x="53.8359375" overflow="visible" y="2" height="90.953125" width="8.5"><path d=" M 8.35 1.70 c 0.00 -0.03 -0.05 -0.06 -0.12 -0.06 c -0.15 0.00 -0.44 0.09 -0.51 0.11 c -3.03 1.08 -3.59 3.33 -3.59 7.41 v 0.60 h 1.62 v -1.28 c 0.00 -2.20 0.12 -5.16 2.13 -6.48 c 0.15 -0.10 0.48 -0.22 0.48 -0.31 z  M 4.13 9.17 v 32.45 h 1.62 v -32.45 z  M 5.75 41.62 h -1.62 v 0.59 c 0.00 2.97 -2.74 3.66 -2.75 3.66 v 0.02 c 0.02 0.00 2.75 0.75 2.75 3.71 h 1.62 c 0.00 -1.05 -0.09 -2.87 -2.96 -3.69 c 2.87 -0.80 2.96 -2.63 2.96 -3.69 v -0.59 z  M 4.13 49.33 v 32.45 h 1.62 v -32.45 z" style="fill:rgb(0,0,0);fill-opacity:1;stroke-width:1px;stroke:none;stroke-opacity:1;"></path><path d=" M 8.35 89.25 c 0.00 0.03 -0.05 0.06 -0.12 0.06 c -0.15 0.00 -0.44 -0.09 -0.51 -0.11 c -3.03 -1.08 -3.59 -3.33 -3.59 -7.41 v -0.60 h 1.62 v 1.28 c 0.00 2.20 0.12 5.16 2.13 6.48 c 0.15 0.10 0.48 0.22 0.48 0.31 z" style="fill:rgb(0,0,0);fill-opacity:1;stroke-width:1px;stroke:none;stroke-opacity:1;"></path></svg></g></g></g></svg>