<svg xmlns="http://www.w3.org/2000/svg" xmlns:xlink="http://www.w3.org/1999/xlink" width="200.4375" height="57.375" style="width:200.4375px;height:57.375px;font-family:Asana-Math, Asana;background:#FFF;"><g><g><g><g><g><g><g transform="matrix(1,0,0,1,4.40625,21.296875)"><path transform="matrix(0.017,0,0,-0.017,0,0)" d="M91 666C135 691 168 702 202 704C303 709 366 618 375 455C377 426 375 403 373 353C306 400 270 414 219 411C170 408 130 388 96 347C54 299 33 235 36 173C42 65 129 -16 233 -11C302 -7 359 29 398 92C440 162 466 297 460 413C450 613 327 758 175 750C136 748 102 738 48 715ZM369 318C359 206 351 163 328 111C305 57 263 21 219 19C165 16 128 67 124 152C118 266 180 364 261 368C299 371 331 354 369 318ZM516 342C516 126 674 -20 909 -20C992 -20 1067 -2 1136 34L1164 84L1155 94C1093 54 1024 34 948 34C753 34 623 164 623 361C623 545 737 667 909 667C1007 667 1108 627 1108 588L1108 516L1139 516C1140 566 1144 602 1158 668C1073 696 1000 709 927 709C712 709 516 582 516 342Z" stroke="rgb(0,0,0)" stroke-opacity="1" stroke-width="8" fill="rgb(0,0,0)" fill-opacity="1"></path></g></g></g></g><g><g><g><g transform="matrix(1,0,0,1,2,47.078125)"><path transform="matrix(0.017,0,0,-0.017,0,0)" d="M91 666C135 691 168 702 202 704C303 709 366 618 375 455C377 426 375 403 373 353C306 400 270 414 219 411C170 408 130 388 96 347C54 299 33 235 36 173C42 65 129 -16 233 -11C302 -7 359 29 398 92C440 162 466 297 460 413C450 613 327 758 175 750C136 748 102 738 48 715ZM369 318C359 206 351 163 328 111C305 57 263 21 219 19C165 16 128 67 124 152C118 266 180 364 261 368C299 371 331 354 369 318ZM782 254L924 420C930 427 941 431 958 431L972 431L972 459L890 459L766 284L690 400C675 422 664 435 630 469L514 449L519 423L540 421C558 420 580 406 590 392L710 218L561 42C554 33 541 27 531 27L514 27L514 0L600 0L734 192L867 -3C919 0 919 0 928 0C938 0 938 0 990 -3L990 27L965 30C953 31 941 39 930 54Z" stroke="rgb(0,0,0)" stroke-opacity="1" stroke-width="8" fill="rgb(0,0,0)" fill-opacity="1"></path></g></g><g><g><g><g><g transform="matrix(1,0,0,1,19.65625,50.0875)"><path transform="matrix(0.0119,0,0,-0.0119,0,0)" d="M150 718L141 726C97 709 64 701 -15 689L-15 661L41 661C59 661 66 650 66 620L66 153C66 91 65 64 58 -6L74 -12L114 24C177 -12 232 -28 280 -28C432 -28 508 128 508 262L508 270C495 414 404 485 315 485C248 485 182 446 150 369ZM284 404C368 404 421 336 421 229C421 117 361 39 276 39C224 39 150 71 150 93L150 308C150 343 206 404 284 404Z" stroke="rgb(0,0,0)" stroke-opacity="1" stroke-width="8" fill="rgb(0,0,0)" fill-opacity="1"></path></g></g></g></g></g></g></g><line style="fill:none;stroke-width:1px;stroke:rgb(0, 0, 0);" x1="2" y1="29.4375" x2="27.25" y2="29.4375"></line></g><g><g transform="matrix(1,0,0,1,28.9375,33.6875)"><path transform="matrix(0.017,0,0,-0.017,0,0)" d="" stroke="rgb(0,0,0)" stroke-opacity="1" stroke-width="8" fill="rgb(0,0,0)" fill-opacity="1"></path></g></g><g><g transform="matrix(1,0,0,1,38.265625,33.6875)"><path transform="matrix(0.017,0,0,-0.017,0,0)" d="M604 347L604 406L65 406L65 347ZM604 134L604 193L65 193L65 134Z" stroke="rgb(0,0,0)" stroke-opacity="1" stroke-width="8" fill="rgb(0,0,0)" fill-opacity="1"></path></g></g><g><g transform="matrix(1,0,0,1,54.71875,33.6875)"><path transform="matrix(0.017,0,0,-0.017,0,0)" d="M23 400L60 400C100 400 104 393 104 327L104 102C104 39 101 32 67 30L21 27L21 -3C93 -1 119 0 144 0C164 0 164 0 287 -3L287 27L235 30C190 33 188 36 188 102L188 274C188 334 228 384 277 384C307 384 328 370 344 338L365 338L374 458C363 465 345 469 327 469C297 469 265 453 244 428L188 362L188 465L179 469C128 448 76 434 23 428ZM718 82L713 -3C778 0 778 0 791 0C796 0 821 -1 865 -3L865 27L826 29C802 30 798 38 798 87L798 270C798 416 756 469 640 469C597 469 557 458 519 435L466 403L466 338L492 331L505 362C526 409 536 416 582 416C676 416 715 379 718 288L619 270C483 245 426 198 426 111C426 33 473 -12 552 -12C570 -12 587 -9 594 -4ZM718 124C689 83 626 45 587 45C547 45 512 82 512 125C512 162 532 197 562 216C587 231 642 245 718 256ZM991 382L991 94C991 20 1024 -12 1101 -12C1124 -12 1148 -7 1154 0L1202 53L1189 70C1164 56 1149 51 1130 51C1091 51 1075 71 1075 120L1075 382L1203 382L1212 436L1075 430L1075 468C1075 510 1078 546 1086 610L1074 621C1050 606 1020 593 989 583C992 553 993 534 993 504L993 434L915 399L915 378ZM1406 465L1397 469C1346 448 1294 434 1241 428L1241 400L1278 400C1318 400 1322 393 1322 327L1322 102C1322 39 1319 32 1285 30L1239 27L1239 -3C1339 0 1339 0 1364 0C1389 0 1389 0 1489 -3L1489 27L1443 30C1409 32 1406 39 1406 102ZM1360 687C1330 687 1304 661 1304 631C1304 602 1330 576 1359 576C1388 576 1415 602 1415 631C1415 659 1388 687 1360 687ZM1787 469C1641 469 1540 366 1540 217C1540 76 1629 -20 1758 -20C1912 -20 2022 87 2022 237C2022 372 1924 469 1787 469ZM1769 436C1861 436 1929 336 1929 200C1929 85 1878 13 1797 13C1699 13 1633 109 1633 251C1633 371 1681 436 1769 436Z" stroke="rgb(0,0,0)" stroke-opacity="1" stroke-width="8" fill="rgb(0,0,0)" fill-opacity="1"></path></g></g><g><svg x="90.8125" overflow="visible" y="3.6875" height="50" width="8.5"><path d=" M 6.27 1.70 c 0.00 -0.06 -0.04 -0.08 -0.08 -0.08 c -0.03 0.00 -0.06 0.01 -0.08 0.02 c -2.55 1.34 -4.65 3.73 -4.65 9.40 v 0.60 h 1.53 v -0.60 c 0.00 -3.23 0.64 -7.03 3.31 -9.06 c 0.12 -0.09 0.13 -0.19 0.13 -0.28 z   M 1.44 11.64 v 26.72 h 1.53 v -26.72 z" style="fill:rgb(0,0,0);fill-opacity:1;stroke-width:1px;stroke:none;stroke-opacity:1;"></path><path d=" M 6.27 48.30 c 0.00 0.06 -0.04 0.08 -0.08 0.08 c -0.03 0.00 -0.06 -0.01 -0.08 -0.02 c -2.55 -1.34 -4.65 -3.73 -4.65 -9.40 v -0.60 h 1.53 v 0.60 c 0.00 3.23 0.64 7.03 3.31 9.06 c 0.12 0.09 0.13 0.19 0.13 0.28 z" style="fill:rgb(0,0,0);fill-opacity:1;stroke-width:1px;stroke:none;stroke-opacity:1;"></path></svg></g><g><g transform="matrix(1,0,0,1,97.625,33.6875)"><path transform="matrix(0.017,0,0,-0.017,0,0)" d="" stroke="rgb(0,0,0)" stroke-opacity="1" stroke-width="8" fill="rgb(0,0,0)" fill-opacity="1"></path></g></g><g><g><g><g><g transform="matrix(1,0,0,1,103.546875,21.296875)"><path transform="matrix(0.017,0,0,-0.017,0,0)" d="M150 718L141 726C97 709 64 701 -15 689L-15 661L41 661C59 661 66 650 66 620L66 153C66 91 65 64 58 -6L74 -12L114 24C177 -12 232 -28 280 -28C432 -28 508 128 508 262L508 270C495 414 404 485 315 485C248 485 182 446 150 369ZM284 404C368 404 421 336 421 229C421 117 361 39 276 39C224 39 150 71 150 93L150 308C150 343 206 404 284 404ZM802 -20C867 -20 957 18 969 36L989 70L976 80C912 42 889 33 846 33C781 33 727 62 699 111C680 144 673 172 671 230C692 227 722 226 756 226C842 226 951 234 998 244C999 258 1000 267 1000 279C1000 394 926 469 814 469C777 469 732 464 692 440C610 392 578 323 578 219C578 25 713 -20 802 -20ZM911 267C887 264 836 261 785 261C742 261 699 264 673 270C673 317 677 339 690 365C711 409 754 436 802 436C835 436 861 423 879 396C901 363 908 334 911 267ZM1371 717C1347 731 1325 737 1304 737C1193 737 1136 555 1136 478L1136 476L1136 434L1067 403L1067 381L1136 385L1136 102C1136 39 1133 32 1099 30L1053 27L1053 -3C1153 0 1153 0 1178 0C1203 0 1203 0 1303 -3L1303 27L1257 30C1223 32 1220 39 1220 102L1220 385L1344 385L1351 438L1220 434L1220 519C1220 634 1233 662 1290 662C1317 662 1335 655 1359 634L1371 640ZM1641 469C1495 469 1394 366 1394 217C1394 76 1483 -20 1612 -20C1766 -20 1876 87 1876 237C1876 372 1778 469 1641 469ZM1623 436C1715 436 1783 336 1783 200C1783 85 1732 13 1651 13C1553 13 1487 109 1487 251C1487 371 1535 436 1623 436ZM1930 400L1967 400C2007 400 2011 393 2011 327L2011 102C2011 39 2008 32 1974 30L1928 27L1928 -3C2000 -1 2026 0 2051 0C2071 0 2071 0 2194 -3L2194 27L2142 30C2097 33 2095 36 2095 102L2095 274C2095 334 2135 384 2184 384C2214 384 2235 370 2251 338L2272 338L2281 458C2270 465 2252 469 2234 469C2204 469 2172 453 2151 428L2095 362L2095 465L2086 469C2035 448 1983 434 1930 428ZM2551 -20C2616 -20 2706 18 2718 36L2738 70L2725 80C2661 42 2638 33 2595 33C2530 33 2476 62 2448 111C2429 144 2422 172 2420 230C2441 227 2471 226 2505 226C2591 226 2700 234 2747 244C2748 258 2749 267 2749 279C2749 394 2675 469 2563 469C2526 469 2481 464 2441 440C2359 392 2327 323 2327 219C2327 25 2462 -20 2551 -20ZM2660 267C2636 264 2585 261 2534 261C2491 261 2448 264 2422 270C2422 317 2426 339 2439 365C2460 409 2503 436 2551 436C2584 436 2610 423 2628 396C2650 363 2657 334 2660 267Z" stroke="rgb(0,0,0)" stroke-opacity="1" stroke-width="8" fill="rgb(0,0,0)" fill-opacity="1"></path></g></g></g></g><g><g><g><g transform="matrix(1,0,0,1,109.921875,47.078125)"><path transform="matrix(0.017,0,0,-0.017,0,0)" d="M324 82L319 -3C384 0 384 0 397 0C402 0 427 -1 471 -3L471 27L432 29C408 30 404 38 404 87L404 270C404 416 362 469 246 469C203 469 163 458 125 435L72 403L72 338L98 331L111 362C132 409 142 416 188 416C282 416 321 379 324 288L225 270C89 245 32 198 32 111C32 33 79 -12 158 -12C176 -12 193 -9 200 -4ZM324 124C295 83 232 45 193 45C153 45 118 82 118 125C118 162 138 197 168 216C193 231 248 245 324 256ZM840 717C816 731 794 737 773 737C662 737 605 555 605 478L605 476L605 434L536 403L536 381L605 385L605 102C605 39 602 32 568 30L522 27L522 -3C622 0 622 0 647 0C672 0 672 0 772 -3L772 27L726 30C692 32 689 39 689 102L689 385L813 385L820 438L689 434L689 519C689 634 702 662 759 662C786 662 804 655 828 634L840 640ZM929 382L929 94C929 20 962 -12 1039 -12C1062 -12 1086 -7 1092 0L1140 53L1127 70C1102 56 1087 51 1068 51C1029 51 1013 71 1013 120L1013 382L1141 382L1150 436L1013 430L1013 468C1013 510 1016 546 1024 610L1012 621C988 606 958 593 927 583C930 553 931 534 931 504L931 434L853 399L853 378ZM1406 -20C1471 -20 1561 18 1573 36L1593 70L1580 80C1516 42 1493 33 1450 33C1385 33 1331 62 1303 111C1284 144 1277 172 1275 230C1296 227 1326 226 1360 226C1446 226 1555 234 1602 244C1603 258 1604 267 1604 279C1604 394 1530 469 1418 469C1381 469 1336 464 1296 440C1214 392 1182 323 1182 219C1182 25 1317 -20 1406 -20ZM1515 267C1491 264 1440 261 1389 261C1346 261 1303 264 1277 270C1277 317 1281 339 1294 365C1315 409 1358 436 1406 436C1439 436 1465 423 1483 396C1505 363 1512 334 1515 267ZM1657 400L1694 400C1734 400 1738 393 1738 327L1738 102C1738 39 1735 32 1701 30L1655 27L1655 -3C1727 -1 1753 0 1778 0C1798 0 1798 0 1921 -3L1921 27L1869 30C1824 33 1822 36 1822 102L1822 274C1822 334 1862 384 1911 384C1941 384 1962 370 1978 338L1999 338L2008 458C1997 465 1979 469 1961 469C1931 469 1899 453 1878 428L1822 362L1822 465L1813 469C1762 448 1710 434 1657 428Z" stroke="rgb(0,0,0)" stroke-opacity="1" stroke-width="8" fill="rgb(0,0,0)" fill-opacity="1"></path></g></g></g></g><line style="fill:none;stroke-width:1px;stroke:rgb(0, 0, 0);" x1="103.546875" y1="29.4375" x2="150.796875" y2="29.4375"></line></g><g><svg x="150.796875" overflow="visible" y="3.6875" height="50" width="8.5"><path d=" M 1.75 1.70 c 0.00 -0.06 0.04 -0.08 0.08 -0.08 c 0.03 0.00 0.06 0.01 0.08 0.02 c 2.55 1.34 4.65 3.73 4.65 9.40 v 0.60 h -1.53 v -0.60 c 0.00 -3.23 -0.64 -7.03 -3.31 -9.06 c -0.12 -0.09 -0.13 -0.19 -0.13 -0.28 z  M 6.58 11.64 v 26.72 h -1.53 v -26.72 z" style="fill:rgb(0,0,0);fill-opacity:1;stroke-width:1px;stroke:none;stroke-opacity:1;"></path><path d=" M 1.75 48.30 c 0.00 0.06 0.04 0.08 0.08 0.08 c 0.03 0.00 0.06 -0.01 0.08 -0.02 c 2.55 -1.34 4.65 -3.73 4.65 -9.40 v -0.60 h -1.53 v 0.60 c 0.00 3.23 -0.64 7.03 -3.31 9.06 c -0.12 0.09 -0.13 0.19 -0.13 0.28 z" style="fill:rgb(0,0,0);fill-opacity:1;stroke-width:1px;stroke:none;stroke-opacity:1;"></path></svg></g><g><g transform="matrix(1,0,0,1,163.875,33.6875)"><path transform="matrix(0.017,0,0,-0.017,0,0)" d="M124 329C94 329 67 301 67 271C67 241 94 213 123 213C155 213 183 240 183 270C183 301 155 329 124 329Z" stroke="rgb(0,0,0)" stroke-opacity="1" stroke-width="8" fill="rgb(0,0,0)" fill-opacity="1"></path></g></g><g><g><g><g><g transform="matrix(1,0,0,1,175.59375,21.296875)"><path transform="matrix(0.017,0,0,-0.017,0,0)" d="M91 666C135 691 168 702 202 704C303 709 366 618 375 455C377 426 375 403 373 353C306 400 270 414 219 411C170 408 130 388 96 347C54 299 33 235 36 173C42 65 129 -16 233 -11C302 -7 359 29 398 92C440 162 466 297 460 413C450 613 327 758 175 750C136 748 102 738 48 715ZM369 318C359 206 351 163 328 111C305 57 263 21 219 19C165 16 128 67 124 152C118 266 180 364 261 368C299 371 331 354 369 318ZM516 342C516 126 674 -20 909 -20C992 -20 1067 -2 1136 34L1164 84L1155 94C1093 54 1024 34 948 34C753 34 623 164 623 361C623 545 737 667 909 667C1007 667 1108 627 1108 588L1108 516L1139 516C1140 566 1144 602 1158 668C1073 696 1000 709 927 709C712 709 516 582 516 342Z" stroke="rgb(0,0,0)" stroke-opacity="1" stroke-width="8" fill="rgb(0,0,0)" fill-opacity="1"></path></g></g></g></g><g><g><g><g transform="matrix(1,0,0,1,173.1875,47.078125)"><path transform="matrix(0.017,0,0,-0.017,0,0)" d="M91 666C135 691 168 702 202 704C303 709 366 618 375 455C377 426 375 403 373 353C306 400 270 414 219 411C170 408 130 388 96 347C54 299 33 235 36 173C42 65 129 -16 233 -11C302 -7 359 29 398 92C440 162 466 297 460 413C450 613 327 758 175 750C136 748 102 738 48 715ZM369 318C359 206 351 163 328 111C305 57 263 21 219 19C165 16 128 67 124 152C118 266 180 364 261 368C299 371 331 354 369 318ZM782 254L924 420C930 427 941 431 958 431L972 431L972 459L890 459L766 284L690 400C675 422 664 435 630 469L514 449L519 423L540 421C558 420 580 406 590 392L710 218L561 42C554 33 541 27 531 27L514 27L514 0L600 0L734 192L867 -3C919 0 919 0 928 0C938 0 938 0 990 -3L990 27L965 30C953 31 941 39 930 54Z" stroke="rgb(0,0,0)" stroke-opacity="1" stroke-width="8" fill="rgb(0,0,0)" fill-opacity="1"></path></g></g><g><g><g><g><g transform="matrix(1,0,0,1,190.84375,50.0875)"><path transform="matrix(0.0119,0,0,-0.0119,0,0)" d="M150 718L141 726C97 709 64 701 -15 689L-15 661L41 661C59 661 66 650 66 620L66 153C66 91 65 64 58 -6L74 -12L114 24C177 -12 232 -28 280 -28C432 -28 508 128 508 262L508 270C495 414 404 485 315 485C248 485 182 446 150 369ZM284 404C368 404 421 336 421 229C421 117 361 39 276 39C224 39 150 71 150 93L150 308C150 343 206 404 284 404Z" stroke="rgb(0,0,0)" stroke-opacity="1" stroke-width="8" fill="rgb(0,0,0)" fill-opacity="1"></path></g></g></g></g></g></g></g><line style="fill:none;stroke-width:1px;stroke:rgb(0, 0, 0);" x1="173.1875" y1="29.4375" x2="198.4375" y2="29.4375"></line></g></g></g></svg>