<svg xmlns="http://www.w3.org/2000/svg" xmlns:xlink="http://www.w3.org/1999/xlink" width="412.296875" height="54.171875" style="width:412.296875px;height:54.171875px;font-family:Asana-Math, Asana;background:#FFF;"><g><g><g><g><g><g><g transform="matrix(1,0,0,1,4.40625,21)"><path transform="matrix(0.017,0,0,-0.017,0,0)" d="M91 666C135 691 168 702 202 704C303 709 366 618 375 455C377 426 375 403 373 353C306 400 270 414 219 411C170 408 130 388 96 347C54 299 33 235 36 173C42 65 129 -16 233 -11C302 -7 359 29 398 92C440 162 466 297 460 413C450 613 327 758 175 750C136 748 102 738 48 715ZM369 318C359 206 351 163 328 111C305 57 263 21 219 19C165 16 128 67 124 152C118 266 180 364 261 368C299 371 331 354 369 318ZM516 342C516 126 674 -20 909 -20C992 -20 1067 -2 1136 34L1164 84L1155 94C1093 54 1024 34 948 34C753 34 623 164 623 361C623 545 737 667 909 667C1007 667 1108 627 1108 588L1108 516L1139 516C1140 566 1144 602 1158 668C1073 696 1000 709 927 709C712 709 516 582 516 342Z" stroke="rgb(0,0,0)" stroke-opacity="1" stroke-width="8" fill="rgb(0,0,0)" fill-opacity="1"></path></g></g></g></g><g><g><g><g transform="matrix(1,0,0,1,2,46.78125)"><path transform="matrix(0.017,0,0,-0.017,0,0)" d="M91 666C135 691 168 702 202 704C303 709 366 618 375 455C377 426 375 403 373 353C306 400 270 414 219 411C170 408 130 388 96 347C54 299 33 235 36 173C42 65 129 -16 233 -11C302 -7 359 29 398 92C440 162 466 297 460 413C450 613 327 758 175 750C136 748 102 738 48 715ZM369 318C359 206 351 163 328 111C305 57 263 21 219 19C165 16 128 67 124 152C118 266 180 364 261 368C299 371 331 354 369 318ZM782 254L924 420C930 427 941 431 958 431L972 431L972 459L890 459L766 284L690 400C675 422 664 435 630 469L514 449L519 423L540 421C558 420 580 406 590 392L710 218L561 42C554 33 541 27 531 27L514 27L514 0L600 0L734 192L867 -3C919 0 919 0 928 0C938 0 938 0 990 -3L990 27L965 30C953 31 941 39 930 54Z" stroke="rgb(0,0,0)" stroke-opacity="1" stroke-width="8" fill="rgb(0,0,0)" fill-opacity="1"></path></g></g><g><g><g><g><g transform="matrix(1,0,0,1,19.65625,49.790625)"><path transform="matrix(0.0119,0,0,-0.0119,0,0)" d="M150 718L141 726C97 709 64 701 -15 689L-15 661L41 661C59 661 66 650 66 620L66 153C66 91 65 64 58 -6L74 -12L114 24C177 -12 232 -28 280 -28C432 -28 508 128 508 262L508 270C495 414 404 485 315 485C248 485 182 446 150 369ZM284 404C368 404 421 336 421 229C421 117 361 39 276 39C224 39 150 71 150 93L150 308C150 343 206 404 284 404Z" stroke="rgb(0,0,0)" stroke-opacity="1" stroke-width="8" fill="rgb(0,0,0)" fill-opacity="1"></path></g></g></g></g></g></g></g><line style="fill:none;stroke-width:1px;stroke:rgb(0, 0, 0);" x1="2" y1="29.140625" x2="27.25" y2="29.140625"></line></g><g><g transform="matrix(1,0,0,1,28.9375,33.390625)"><path transform="matrix(0.017,0,0,-0.017,0,0)" d="" stroke="rgb(0,0,0)" stroke-opacity="1" stroke-width="8" fill="rgb(0,0,0)" fill-opacity="1"></path></g></g><g><g transform="matrix(1,0,0,1,38.265625,33.390625)"><path transform="matrix(0.017,0,0,-0.017,0,0)" d="M604 347L604 406L65 406L65 347ZM604 134L604 193L65 193L65 134Z" stroke="rgb(0,0,0)" stroke-opacity="1" stroke-width="8" fill="rgb(0,0,0)" fill-opacity="1"></path></g></g><g><g transform="matrix(1,0,0,1,54.71875,33.390625)"><path transform="matrix(0.017,0,0,-0.017,0,0)" d="" stroke="rgb(0,0,0)" stroke-opacity="1" stroke-width="8" fill="rgb(0,0,0)" fill-opacity="1"></path></g></g><g><g><g><g><g transform="matrix(1,0,0,1,110.46875,19)"><path transform="matrix(0.017,0,0,-0.017,0,0)" d="M413 469L254 104C251 113 166 397 166 405C166 420 179 428 204 429L244 431L244 459C145 456 145 456 125 456C105 456 105 456 6 459L6 431L34 429C62 427 75 407 100 329L202 -7L249 -7L399 335L535 -7L581 -7L718 342C748 409 760 426 782 429L808 431L808 459C726 456 726 456 710 456C694 456 694 456 612 459L612 431L646 429C671 428 685 416 685 398L580 98L465 388C451 422 444 442 436 469Z" stroke="rgb(0,0,0)" stroke-opacity="1" stroke-width="8" fill="rgb(0,0,0)" fill-opacity="1"></path></g></g><g><g><g><g><g transform="matrix(1,0,0,1,125.140625,22.009375)"><path transform="matrix(0.0119,0,0,-0.0119,0,0)" d="M150 718L141 726C97 709 64 701 -15 689L-15 661L41 661C59 661 66 650 66 620L66 153C66 91 65 64 58 -6L74 -12L114 24C177 -12 232 -28 280 -28C432 -28 508 128 508 262L508 270C495 414 404 485 315 485C248 485 182 446 150 369ZM284 404C368 404 421 336 421 229C421 117 361 39 276 39C224 39 150 71 150 93L150 308C150 343 206 404 284 404Z" stroke="rgb(0,0,0)" stroke-opacity="1" stroke-width="8" fill="rgb(0,0,0)" fill-opacity="1"></path></g></g></g></g></g></g></g><g><g><g><g transform="matrix(1,0,0,1,60.640625,46.78125)"><path transform="matrix(0.017,0,0,-0.017,0,0)" d="M283 49C203 49 183 94 183 170L183 465L174 469C123 448 71 434 18 428L18 400L55 400C95 400 99 393 99 327L99 159C99 70 104 -12 240 -12C285 -12 325 2 352 27L419 89C419 60 418 44 415 -3C482 0 483 0 498 0C512 0 512 0 581 -3L581 27L540 30C506 32 503 38 503 102L503 465L494 469C443 448 391 434 338 428L338 400L375 400C415 400 419 393 419 327L419 164C419 126 370 49 283 49ZM612 400L649 400C689 400 693 393 693 327L693 -176C693 -239 690 -246 656 -248L610 -251L610 -281C710 -278 710 -278 735 -278C760 -278 760 -278 860 -281L860 -251L814 -248C780 -246 777 -239 777 -176L777 13C825 -10 869 -21 910 -21C1061 -21 1158 121 1158 242C1158 252 1157 261 1156 271C1154 401 1057 477 956 477C889 477 821 443 777 369L777 465L768 469C717 448 665 434 612 428ZM915 404C1009 404 1069 338 1069 234C1069 122 1002 39 912 39C857 39 816 57 777 98L777 306C777 337 824 404 915 404ZM1212 400L1249 400C1289 400 1293 393 1293 327L1293 -176C1293 -239 1290 -246 1256 -248L1210 -251L1210 -281C1310 -278 1310 -278 1335 -278C1360 -278 1360 -278 1460 -281L1460 -251L1414 -248C1380 -246 1377 -239 1377 -176L1377 13C1425 -10 1469 -21 1510 -21C1661 -21 1758 121 1758 242C1758 252 1757 261 1756 271C1754 401 1657 477 1556 477C1489 477 1421 443 1377 369L1377 465L1368 469C1317 448 1265 434 1212 428ZM1515 404C1609 404 1669 338 1669 234C1669 122 1602 39 1512 39C1457 39 1416 57 1377 98L1377 306C1377 337 1424 404 1515 404ZM2052 -20C2117 -20 2207 18 2219 36L2239 70L2226 80C2162 42 2139 33 2096 33C2031 33 1977 62 1949 111C1930 144 1923 172 1921 230C1942 227 1972 226 2006 226C2092 226 2201 234 2248 244C2249 258 2250 267 2250 279C2250 394 2176 469 2064 469C2027 469 1982 464 1942 440C1860 392 1828 323 1828 219C1828 25 1963 -20 2052 -20ZM2161 267C2137 264 2086 261 2035 261C1992 261 1949 264 1923 270C1923 317 1927 339 1940 365C1961 409 2004 436 2052 436C2085 436 2111 423 2129 396C2151 363 2158 334 2161 267ZM2303 400L2340 400C2380 400 2384 393 2384 327L2384 102C2384 39 2381 32 2347 30L2301 27L2301 -3C2373 -1 2399 0 2424 0C2444 0 2444 0 2567 -3L2567 27L2515 30C2470 33 2468 36 2468 102L2468 274C2468 334 2508 384 2557 384C2587 384 2608 370 2624 338L2645 338L2654 458C2643 465 2625 469 2607 469C2577 469 2545 453 2524 428L2468 362L2468 465L2459 469C2408 448 2356 434 2303 428Z" stroke="rgb(0,0,0)" stroke-opacity="1" stroke-width="8" fill="rgb(0,0,0)" fill-opacity="1"></path></g></g><g><g><g><g><g transform="matrix(1,0,0,1,106.609375,49.790625)"><path transform="matrix(0.0119,0,0,-0.0119,0,0)" d="M150 718L141 726C97 709 64 701 -15 689L-15 661L41 661C59 661 66 650 66 620L66 153C66 91 65 64 58 -6L74 -12L114 24C177 -12 232 -28 280 -28C432 -28 508 128 508 262L508 270C495 414 404 485 315 485C248 485 182 446 150 369ZM284 404C368 404 421 336 421 229C421 117 361 39 276 39C224 39 150 71 150 93L150 308C150 343 206 404 284 404Z" stroke="rgb(0,0,0)" stroke-opacity="1" stroke-width="8" fill="rgb(0,0,0)" fill-opacity="1"></path></g></g></g></g></g><g><g transform="matrix(1,0,0,1,117.59375,46.78125)"><path transform="matrix(0.017,0,0,-0.017,0,0)" d="M555 243L555 299L51 299L51 243Z" stroke="rgb(0,0,0)" stroke-opacity="1" stroke-width="8" fill="rgb(0,0,0)" fill-opacity="1"></path></g></g><g><g transform="matrix(1,0,0,1,131.28125,46.78125)"><path transform="matrix(0.017,0,0,-0.017,0,0)" d="M23 661L79 661C97 661 104 650 104 620L104 102C104 39 101 32 67 30L21 27L21 -3C121 0 121 0 146 0C171 0 171 0 271 -3L271 27L225 30C191 32 188 39 188 102L188 718L179 726C135 709 102 701 23 689ZM569 469C423 469 322 366 322 217C322 76 411 -20 540 -20C694 -20 804 87 804 237C804 372 706 469 569 469ZM551 436C643 436 711 336 711 200C711 85 660 13 579 13C481 13 415 109 415 251C415 371 463 436 551 436ZM1248 469L1089 104C1086 113 1001 397 1001 405C1001 420 1014 428 1039 429L1079 431L1079 459C980 456 980 456 960 456C940 456 940 456 841 459L841 431L869 429C897 427 910 407 935 329L1037 -7L1084 -7L1234 335L1370 -7L1416 -7L1553 342C1583 409 1595 426 1617 429L1643 431L1643 459C1561 456 1561 456 1545 456C1529 456 1529 456 1447 459L1447 431L1481 429C1506 428 1520 416 1520 398L1415 98L1300 388C1286 422 1279 442 1271 469ZM1918 -20C1983 -20 2073 18 2085 36L2105 70L2092 80C2028 42 2005 33 1962 33C1897 33 1843 62 1815 111C1796 144 1789 172 1787 230C1808 227 1838 226 1872 226C1958 226 2067 234 2114 244C2115 258 2116 267 2116 279C2116 394 2042 469 1930 469C1893 469 1848 464 1808 440C1726 392 1694 323 1694 219C1694 25 1829 -20 1918 -20ZM2027 267C2003 264 1952 261 1901 261C1858 261 1815 264 1789 270C1789 317 1793 339 1806 365C1827 409 1870 436 1918 436C1951 436 1977 423 1995 396C2017 363 2024 334 2027 267ZM2169 400L2206 400C2246 400 2250 393 2250 327L2250 102C2250 39 2247 32 2213 30L2167 27L2167 -3C2239 -1 2265 0 2290 0C2310 0 2310 0 2433 -3L2433 27L2381 30C2336 33 2334 36 2334 102L2334 274C2334 334 2374 384 2423 384C2453 384 2474 370 2490 338L2511 338L2520 458C2509 465 2491 469 2473 469C2443 469 2411 453 2390 428L2334 362L2334 465L2325 469C2274 448 2222 434 2169 428Z" stroke="rgb(0,0,0)" stroke-opacity="1" stroke-width="8" fill="rgb(0,0,0)" fill-opacity="1"></path></g></g><g><g><g><g><g transform="matrix(1,0,0,1,174.96875,49.790625)"><path transform="matrix(0.0119,0,0,-0.0119,0,0)" d="M150 718L141 726C97 709 64 701 -15 689L-15 661L41 661C59 661 66 650 66 620L66 153C66 91 65 64 58 -6L74 -12L114 24C177 -12 232 -28 280 -28C432 -28 508 128 508 262L508 270C495 414 404 485 315 485C248 485 182 446 150 369ZM284 404C368 404 421 336 421 229C421 117 361 39 276 39C224 39 150 71 150 93L150 308C150 343 206 404 284 404Z" stroke="rgb(0,0,0)" stroke-opacity="1" stroke-width="8" fill="rgb(0,0,0)" fill-opacity="1"></path></g></g></g></g></g></g></g><line style="fill:none;stroke-width:1px;stroke:rgb(0, 0, 0);" x1="60.640625" y1="29.140625" x2="182.5625" y2="29.140625"></line></g><g><g transform="matrix(1,0,0,1,184.25,33.390625)"><path transform="matrix(0.017,0,0,-0.017,0,0)" d="M822 82L817 -3C882 0 882 0 895 0C900 0 925 -1 969 -3L969 27L930 29C906 30 902 38 902 87L902 270C902 416 860 469 744 469C701 469 661 458 623 435L570 403L570 338L596 331L609 362C630 409 640 416 686 416C780 416 819 379 822 288L723 270C587 245 530 198 530 111C530 33 577 -12 656 -12C674 -12 691 -9 698 -4ZM822 124C793 83 730 45 691 45C651 45 616 82 616 125C616 162 636 197 666 216C691 231 746 245 822 256ZM1407 -3C1468 0 1469 0 1486 0C1500 0 1500 0 1569 -3L1569 27L1528 30C1494 32 1491 38 1491 102L1491 295C1491 412 1436 469 1324 469C1287 469 1266 462 1245 444L1169 378L1169 465L1160 469C1109 448 1057 434 1004 428L1004 400L1041 400C1081 400 1085 393 1085 327L1085 102C1085 39 1082 32 1048 30L1003 27L1003 -3C1071 -1 1098 0 1127 0C1156 0 1183 -1 1251 -3L1251 27L1206 30C1172 32 1169 39 1169 102L1169 314C1169 359 1235 408 1296 408C1363 408 1407 358 1407 281ZM2157 -3L2157 27L2111 30C2077 32 2074 39 2074 102L2074 718L2065 726C2021 709 1988 701 1909 689L1909 661L1965 661C1983 661 1990 650 1990 620L1990 437C1962 472 1924 486 1884 486C1761 486 1612 351 1612 229C1612 149 1640 70 1689 30C1723 1 1770 -12 1835 -12C1855 -12 1878 -8 1883 -4L1994 89L1989 -3C2038 -1 2054 0 2066 0C2084 0 2148 -3 2157 -3ZM1990 350L1990 221C1990 156 1988 146 1975 123C1947 76 1898 45 1851 45C1763 45 1700 130 1700 249C1700 358 1754 422 1844 422C1923 422 1990 366 1990 350Z" stroke="rgb(0,0,0)" stroke-opacity="1" stroke-width="8" fill="rgb(0,0,0)" fill-opacity="1"></path></g></g><g><g><g><g><g transform="matrix(1,0,0,1,233.703125,21)"><path transform="matrix(0.017,0,0,-0.017,0,0)" d="M91 666C135 691 168 702 202 704C303 709 366 618 375 455C377 426 375 403 373 353C306 400 270 414 219 411C170 408 130 388 96 347C54 299 33 235 36 173C42 65 129 -16 233 -11C302 -7 359 29 398 92C440 162 466 297 460 413C450 613 327 758 175 750C136 748 102 738 48 715ZM369 318C359 206 351 163 328 111C305 57 263 21 219 19C165 16 128 67 124 152C118 266 180 364 261 368C299 371 331 354 369 318ZM516 342C516 126 674 -20 909 -20C992 -20 1067 -2 1136 34L1164 84L1155 94C1093 54 1024 34 948 34C753 34 623 164 623 361C623 545 737 667 909 667C1007 667 1108 627 1108 588L1108 516L1139 516C1140 566 1144 602 1158 668C1073 696 1000 709 927 709C712 709 516 582 516 342Z" stroke="rgb(0,0,0)" stroke-opacity="1" stroke-width="8" fill="rgb(0,0,0)" fill-opacity="1"></path></g></g></g></g><g><g><g><g transform="matrix(1,0,0,1,231.609375,46.78125)"><path transform="matrix(0.017,0,0,-0.017,0,0)" d="M91 666C135 691 168 702 202 704C303 709 366 618 375 455C377 426 375 403 373 353C306 400 270 414 219 411C170 408 130 388 96 347C54 299 33 235 36 173C42 65 129 -16 233 -11C302 -7 359 29 398 92C440 162 466 297 460 413C450 613 327 758 175 750C136 748 102 738 48 715ZM369 318C359 206 351 163 328 111C305 57 263 21 219 19C165 16 128 67 124 152C118 266 180 364 261 368C299 371 331 354 369 318ZM782 254L924 420C930 427 941 431 958 431L972 431L972 459L890 459L766 284L690 400C675 422 664 435 630 469L514 449L519 423L540 421C558 420 580 406 590 392L710 218L561 42C554 33 541 27 531 27L514 27L514 0L600 0L734 192L867 -3C919 0 919 0 928 0C938 0 938 0 990 -3L990 27L965 30C953 31 941 39 930 54Z" stroke="rgb(0,0,0)" stroke-opacity="1" stroke-width="8" fill="rgb(0,0,0)" fill-opacity="1"></path></g></g><g><g><g><g><g transform="matrix(1,0,0,1,249.265625,49.790625)"><path transform="matrix(0.0119,0,0,-0.0119,0,0)" d="M324 82L319 -3C384 0 384 0 397 0C402 0 427 -1 471 -3L471 27L432 29C408 30 404 38 404 87L404 270C404 416 362 469 246 469C203 469 163 458 125 435L72 403L72 338L98 331L111 362C132 409 142 416 188 416C282 416 321 379 324 288L225 270C89 245 32 198 32 111C32 33 79 -12 158 -12C176 -12 193 -9 200 -4ZM324 124C295 83 232 45 193 45C153 45 118 82 118 125C118 162 138 197 168 216C193 231 248 245 324 256Z" stroke="rgb(0,0,0)" stroke-opacity="1" stroke-width="8" fill="rgb(0,0,0)" fill-opacity="1"></path></g></g></g></g></g></g></g><line style="fill:none;stroke-width:1px;stroke:rgb(0, 0, 0);" x1="231.609375" y1="29.140625" x2="256.234375" y2="29.140625"></line></g><g><g transform="matrix(1,0,0,1,257.921875,33.390625)"><path transform="matrix(0.017,0,0,-0.017,0,0)" d="" stroke="rgb(0,0,0)" stroke-opacity="1" stroke-width="8" fill="rgb(0,0,0)" fill-opacity="1"></path></g></g><g><g transform="matrix(1,0,0,1,267.25,33.390625)"><path transform="matrix(0.017,0,0,-0.017,0,0)" d="M604 347L604 406L65 406L65 347ZM604 134L604 193L65 193L65 134Z" stroke="rgb(0,0,0)" stroke-opacity="1" stroke-width="8" fill="rgb(0,0,0)" fill-opacity="1"></path></g></g><g><g transform="matrix(1,0,0,1,283.703125,33.390625)"><path transform="matrix(0.017,0,0,-0.017,0,0)" d="" stroke="rgb(0,0,0)" stroke-opacity="1" stroke-width="8" fill="rgb(0,0,0)" fill-opacity="1"></path></g></g><g><g><g><g><g transform="matrix(1,0,0,1,339.140625,19)"><path transform="matrix(0.017,0,0,-0.017,0,0)" d="M413 469L254 104C251 113 166 397 166 405C166 420 179 428 204 429L244 431L244 459C145 456 145 456 125 456C105 456 105 456 6 459L6 431L34 429C62 427 75 407 100 329L202 -7L249 -7L399 335L535 -7L581 -7L718 342C748 409 760 426 782 429L808 431L808 459C726 456 726 456 710 456C694 456 694 456 612 459L612 431L646 429C671 428 685 416 685 398L580 98L465 388C451 422 444 442 436 469Z" stroke="rgb(0,0,0)" stroke-opacity="1" stroke-width="8" fill="rgb(0,0,0)" fill-opacity="1"></path></g></g><g><g><g><g><g transform="matrix(1,0,0,1,353.8125,22.009375)"><path transform="matrix(0.0119,0,0,-0.0119,0,0)" d="M324 82L319 -3C384 0 384 0 397 0C402 0 427 -1 471 -3L471 27L432 29C408 30 404 38 404 87L404 270C404 416 362 469 246 469C203 469 163 458 125 435L72 403L72 338L98 331L111 362C132 409 142 416 188 416C282 416 321 379 324 288L225 270C89 245 32 198 32 111C32 33 79 -12 158 -12C176 -12 193 -9 200 -4ZM324 124C295 83 232 45 193 45C153 45 118 82 118 125C118 162 138 197 168 216C193 231 248 245 324 256Z" stroke="rgb(0,0,0)" stroke-opacity="1" stroke-width="8" fill="rgb(0,0,0)" fill-opacity="1"></path></g></g></g></g></g></g></g><g><g><g><g transform="matrix(1,0,0,1,289.625,46.78125)"><path transform="matrix(0.017,0,0,-0.017,0,0)" d="M283 49C203 49 183 94 183 170L183 465L174 469C123 448 71 434 18 428L18 400L55 400C95 400 99 393 99 327L99 159C99 70 104 -12 240 -12C285 -12 325 2 352 27L419 89C419 60 418 44 415 -3C482 0 483 0 498 0C512 0 512 0 581 -3L581 27L540 30C506 32 503 38 503 102L503 465L494 469C443 448 391 434 338 428L338 400L375 400C415 400 419 393 419 327L419 164C419 126 370 49 283 49ZM612 400L649 400C689 400 693 393 693 327L693 -176C693 -239 690 -246 656 -248L610 -251L610 -281C710 -278 710 -278 735 -278C760 -278 760 -278 860 -281L860 -251L814 -248C780 -246 777 -239 777 -176L777 13C825 -10 869 -21 910 -21C1061 -21 1158 121 1158 242C1158 252 1157 261 1156 271C1154 401 1057 477 956 477C889 477 821 443 777 369L777 465L768 469C717 448 665 434 612 428ZM915 404C1009 404 1069 338 1069 234C1069 122 1002 39 912 39C857 39 816 57 777 98L777 306C777 337 824 404 915 404ZM1212 400L1249 400C1289 400 1293 393 1293 327L1293 -176C1293 -239 1290 -246 1256 -248L1210 -251L1210 -281C1310 -278 1310 -278 1335 -278C1360 -278 1360 -278 1460 -281L1460 -251L1414 -248C1380 -246 1377 -239 1377 -176L1377 13C1425 -10 1469 -21 1510 -21C1661 -21 1758 121 1758 242C1758 252 1757 261 1756 271C1754 401 1657 477 1556 477C1489 477 1421 443 1377 369L1377 465L1368 469C1317 448 1265 434 1212 428ZM1515 404C1609 404 1669 338 1669 234C1669 122 1602 39 1512 39C1457 39 1416 57 1377 98L1377 306C1377 337 1424 404 1515 404ZM2052 -20C2117 -20 2207 18 2219 36L2239 70L2226 80C2162 42 2139 33 2096 33C2031 33 1977 62 1949 111C1930 144 1923 172 1921 230C1942 227 1972 226 2006 226C2092 226 2201 234 2248 244C2249 258 2250 267 2250 279C2250 394 2176 469 2064 469C2027 469 1982 464 1942 440C1860 392 1828 323 1828 219C1828 25 1963 -20 2052 -20ZM2161 267C2137 264 2086 261 2035 261C1992 261 1949 264 1923 270C1923 317 1927 339 1940 365C1961 409 2004 436 2052 436C2085 436 2111 423 2129 396C2151 363 2158 334 2161 267ZM2303 400L2340 400C2380 400 2384 393 2384 327L2384 102C2384 39 2381 32 2347 30L2301 27L2301 -3C2373 -1 2399 0 2424 0C2444 0 2444 0 2567 -3L2567 27L2515 30C2470 33 2468 36 2468 102L2468 274C2468 334 2508 384 2557 384C2587 384 2608 370 2624 338L2645 338L2654 458C2643 465 2625 469 2607 469C2577 469 2545 453 2524 428L2468 362L2468 465L2459 469C2408 448 2356 434 2303 428Z" stroke="rgb(0,0,0)" stroke-opacity="1" stroke-width="8" fill="rgb(0,0,0)" fill-opacity="1"></path></g></g><g><g><g><g><g transform="matrix(1,0,0,1,335.59375,49.790625)"><path transform="matrix(0.0119,0,0,-0.0119,0,0)" d="M324 82L319 -3C384 0 384 0 397 0C402 0 427 -1 471 -3L471 27L432 29C408 30 404 38 404 87L404 270C404 416 362 469 246 469C203 469 163 458 125 435L72 403L72 338L98 331L111 362C132 409 142 416 188 416C282 416 321 379 324 288L225 270C89 245 32 198 32 111C32 33 79 -12 158 -12C176 -12 193 -9 200 -4ZM324 124C295 83 232 45 193 45C153 45 118 82 118 125C118 162 138 197 168 216C193 231 248 245 324 256Z" stroke="rgb(0,0,0)" stroke-opacity="1" stroke-width="8" fill="rgb(0,0,0)" fill-opacity="1"></path></g></g></g></g></g><g><g transform="matrix(1,0,0,1,345.953125,46.78125)"><path transform="matrix(0.017,0,0,-0.017,0,0)" d="M555 243L555 299L51 299L51 243Z" stroke="rgb(0,0,0)" stroke-opacity="1" stroke-width="8" fill="rgb(0,0,0)" fill-opacity="1"></path></g></g><g><g transform="matrix(1,0,0,1,359.640625,46.78125)"><path transform="matrix(0.017,0,0,-0.017,0,0)" d="M23 661L79 661C97 661 104 650 104 620L104 102C104 39 101 32 67 30L21 27L21 -3C121 0 121 0 146 0C171 0 171 0 271 -3L271 27L225 30C191 32 188 39 188 102L188 718L179 726C135 709 102 701 23 689ZM569 469C423 469 322 366 322 217C322 76 411 -20 540 -20C694 -20 804 87 804 237C804 372 706 469 569 469ZM551 436C643 436 711 336 711 200C711 85 660 13 579 13C481 13 415 109 415 251C415 371 463 436 551 436ZM1248 469L1089 104C1086 113 1001 397 1001 405C1001 420 1014 428 1039 429L1079 431L1079 459C980 456 980 456 960 456C940 456 940 456 841 459L841 431L869 429C897 427 910 407 935 329L1037 -7L1084 -7L1234 335L1370 -7L1416 -7L1553 342C1583 409 1595 426 1617 429L1643 431L1643 459C1561 456 1561 456 1545 456C1529 456 1529 456 1447 459L1447 431L1481 429C1506 428 1520 416 1520 398L1415 98L1300 388C1286 422 1279 442 1271 469ZM1918 -20C1983 -20 2073 18 2085 36L2105 70L2092 80C2028 42 2005 33 1962 33C1897 33 1843 62 1815 111C1796 144 1789 172 1787 230C1808 227 1838 226 1872 226C1958 226 2067 234 2114 244C2115 258 2116 267 2116 279C2116 394 2042 469 1930 469C1893 469 1848 464 1808 440C1726 392 1694 323 1694 219C1694 25 1829 -20 1918 -20ZM2027 267C2003 264 1952 261 1901 261C1858 261 1815 264 1789 270C1789 317 1793 339 1806 365C1827 409 1870 436 1918 436C1951 436 1977 423 1995 396C2017 363 2024 334 2027 267ZM2169 400L2206 400C2246 400 2250 393 2250 327L2250 102C2250 39 2247 32 2213 30L2167 27L2167 -3C2239 -1 2265 0 2290 0C2310 0 2310 0 2433 -3L2433 27L2381 30C2336 33 2334 36 2334 102L2334 274C2334 334 2374 384 2423 384C2453 384 2474 370 2490 338L2511 338L2520 458C2509 465 2491 469 2473 469C2443 469 2411 453 2390 428L2334 362L2334 465L2325 469C2274 448 2222 434 2169 428Z" stroke="rgb(0,0,0)" stroke-opacity="1" stroke-width="8" fill="rgb(0,0,0)" fill-opacity="1"></path></g></g><g><g><g><g><g transform="matrix(1,0,0,1,403.328125,49.790625)"><path transform="matrix(0.0119,0,0,-0.0119,0,0)" d="M324 82L319 -3C384 0 384 0 397 0C402 0 427 -1 471 -3L471 27L432 29C408 30 404 38 404 87L404 270C404 416 362 469 246 469C203 469 163 458 125 435L72 403L72 338L98 331L111 362C132 409 142 416 188 416C282 416 321 379 324 288L225 270C89 245 32 198 32 111C32 33 79 -12 158 -12C176 -12 193 -9 200 -4ZM324 124C295 83 232 45 193 45C153 45 118 82 118 125C118 162 138 197 168 216C193 231 248 245 324 256Z" stroke="rgb(0,0,0)" stroke-opacity="1" stroke-width="8" fill="rgb(0,0,0)" fill-opacity="1"></path></g></g></g></g></g></g></g><line style="fill:none;stroke-width:1px;stroke:rgb(0, 0, 0);" x1="289.625" y1="29.140625" x2="410.296875" y2="29.140625"></line></g></g></g></svg>