<svg xmlns="http://www.w3.org/2000/svg" xmlns:xlink="http://www.w3.org/1999/xlink" width="432.5" height="69.15625" style="width:432.5px;height:69.15625px;font-family:Asana-Math, Asana;background:#FFF;"><g><g><g><g transform="matrix(1,0,0,1,2,33.390625)"><path transform="matrix(0.017,0,0,-0.017,0,0)" d="M413 469L254 104C251 113 166 397 166 405C166 420 179 428 204 429L244 431L244 459C145 456 145 456 125 456C105 456 105 456 6 459L6 431L34 429C62 427 75 407 100 329L202 -7L249 -7L399 335L535 -7L581 -7L718 342C748 409 760 426 782 429L808 431L808 459C726 456 726 456 710 456C694 456 694 456 612 459L612 431L646 429C671 428 685 416 685 398L580 98L465 388C451 422 444 442 436 469ZM937 470C994 543 1032 610 1066 696L1053 709C1017 697 1007 694 956 679C950 599 926 533 878 456L893 446Z" stroke="rgb(0,0,0)" stroke-opacity="1" stroke-width="8" fill="rgb(0,0,0)" fill-opacity="1"></path></g></g><g><g><g><g><g transform="matrix(1,0,0,1,16.625,36.4)"><path transform="matrix(0.0119,0,0,-0.0119,0,0)" d="M150 718L141 726C97 709 64 701 -15 689L-15 661L41 661C59 661 66 650 66 620L66 153C66 91 65 64 58 -6L74 -12L114 24C177 -12 232 -28 280 -28C432 -28 508 128 508 262L508 270C495 414 404 485 315 485C248 485 182 446 150 369ZM284 404C368 404 421 336 421 229C421 117 361 39 276 39C224 39 150 71 150 93L150 308C150 343 206 404 284 404Z" stroke="rgb(0,0,0)" stroke-opacity="1" stroke-width="8" fill="rgb(0,0,0)" fill-opacity="1"></path></g></g></g></g></g><g><g transform="matrix(1,0,0,1,29.3125,33.390625)"><path transform="matrix(0.017,0,0,-0.017,0,0)" d="M826 347L826 406L287 406L287 347ZM826 134L826 193L287 193L287 134ZM202 458C202 491 175 518 143 518C112 518 85 492 85 458C85 418 121 401 143 401C165 401 202 419 202 458ZM202 80C202 113 175 140 143 140C112 140 85 114 85 80C85 40 121 23 143 23C165 23 202 41 202 80Z" stroke="rgb(0,0,0)" stroke-opacity="1" stroke-width="8" fill="rgb(0,0,0)" fill-opacity="1"></path></g></g><g><g transform="matrix(1,0,0,1,49.546875,33.390625)"><path transform="matrix(0.017,0,0,-0.017,0,0)" d="M418 -3L418 27L366 30C311 33 301 44 301 96L301 700L60 598L67 548L217 614L217 96C217 44 206 33 152 30L96 27L96 -3C250 0 250 0 261 0C292 0 402 -3 418 -3ZM1072 82L1067 -3C1132 0 1132 0 1145 0C1150 0 1175 -1 1219 -3L1219 27L1180 29C1156 30 1152 38 1152 87L1152 270C1152 416 1110 469 994 469C951 469 911 458 873 435L820 403L820 338L846 331L859 362C880 409 890 416 936 416C1030 416 1069 379 1072 288L973 270C837 245 780 198 780 111C780 33 827 -12 906 -12C924 -12 941 -9 948 -4ZM1072 124C1043 83 980 45 941 45C901 45 866 82 866 125C866 162 886 197 916 216C941 231 996 245 1072 256ZM1657 -3C1718 0 1719 0 1736 0C1750 0 1750 0 1819 -3L1819 27L1778 30C1744 32 1741 38 1741 102L1741 295C1741 412 1686 469 1574 469C1537 469 1516 462 1495 444L1419 378L1419 465L1410 469C1359 448 1307 434 1254 428L1254 400L1291 400C1331 400 1335 393 1335 327L1335 102C1335 39 1332 32 1298 30L1253 27L1253 -3C1321 -1 1348 0 1377 0C1406 0 1433 -1 1501 -3L1501 27L1456 30C1422 32 1419 39 1419 102L1419 314C1419 359 1485 408 1546 408C1613 408 1657 358 1657 281ZM2407 -3L2407 27L2361 30C2327 32 2324 39 2324 102L2324 718L2315 726C2271 709 2238 701 2159 689L2159 661L2215 661C2233 661 2240 650 2240 620L2240 437C2212 472 2174 486 2134 486C2011 486 1862 351 1862 229C1862 149 1890 70 1939 30C1973 1 2020 -12 2085 -12C2105 -12 2128 -8 2133 -4L2244 89L2239 -3C2288 -1 2304 0 2316 0C2334 0 2398 -3 2407 -3ZM2240 350L2240 221C2240 156 2238 146 2225 123C2197 76 2148 45 2101 45C2013 45 1950 130 1950 249C1950 358 2004 422 2094 422C2173 422 2240 366 2240 350ZM3100 469L2941 104C2938 113 2853 397 2853 405C2853 420 2866 428 2891 429L2931 431L2931 459C2832 456 2832 456 2812 456C2792 456 2792 456 2693 459L2693 431L2721 429C2749 427 2762 407 2787 329L2889 -7L2936 -7L3086 335L3222 -7L3268 -7L3405 342C3435 409 3447 426 3469 429L3495 431L3495 459C3413 456 3413 456 3397 456C3381 456 3381 456 3299 459L3299 431L3333 429C3358 428 3372 416 3372 398L3267 98L3152 388C3138 422 3131 442 3123 469ZM3624 470C3681 543 3719 610 3753 696L3740 709C3704 697 3694 694 3643 679C3637 599 3613 533 3565 456L3580 446Z" stroke="rgb(0,0,0)" stroke-opacity="1" stroke-width="8" fill="rgb(0,0,0)" fill-opacity="1"></path></g></g><g><g><g><g><g transform="matrix(1,0,0,1,109.859375,36.4)"><path transform="matrix(0.0119,0,0,-0.0119,0,0)" d="M324 82L319 -3C384 0 384 0 397 0C402 0 427 -1 471 -3L471 27L432 29C408 30 404 38 404 87L404 270C404 416 362 469 246 469C203 469 163 458 125 435L72 403L72 338L98 331L111 362C132 409 142 416 188 416C282 416 321 379 324 288L225 270C89 245 32 198 32 111C32 33 79 -12 158 -12C176 -12 193 -9 200 -4ZM324 124C295 83 232 45 193 45C153 45 118 82 118 125C118 162 138 197 168 216C193 231 248 245 324 256Z" stroke="rgb(0,0,0)" stroke-opacity="1" stroke-width="8" fill="rgb(0,0,0)" fill-opacity="1"></path></g></g></g></g></g><g><g transform="matrix(1,0,0,1,121.921875,33.390625)"><path transform="matrix(0.017,0,0,-0.017,0,0)" d="M826 347L826 406L287 406L287 347ZM826 134L826 193L287 193L287 134ZM202 458C202 491 175 518 143 518C112 518 85 492 85 458C85 418 121 401 143 401C165 401 202 419 202 458ZM202 80C202 113 175 140 143 140C112 140 85 114 85 80C85 40 121 23 143 23C165 23 202 41 202 80Z" stroke="rgb(0,0,0)" stroke-opacity="1" stroke-width="8" fill="rgb(0,0,0)" fill-opacity="1"></path></g></g><g><g transform="matrix(1,0,0,1,142.15625,33.390625)"><path transform="matrix(0.017,0,0,-0.017,0,0)" d="" stroke="rgb(0,0,0)" stroke-opacity="1" stroke-width="8" fill="rgb(0,0,0)" fill-opacity="1"></path></g></g><g><g><g><g><g transform="matrix(1,0,0,1,183.515625,19)"><path transform="matrix(0.017,0,0,-0.017,0,0)" d="M413 469L254 104C251 113 166 397 166 405C166 420 179 428 204 429L244 431L244 459C145 456 145 456 125 456C105 456 105 456 6 459L6 431L34 429C62 427 75 407 100 329L202 -7L249 -7L399 335L535 -7L581 -7L718 342C748 409 760 426 782 429L808 431L808 459C726 456 726 456 710 456C694 456 694 456 612 459L612 431L646 429C671 428 685 416 685 398L580 98L465 388C451 422 444 442 436 469ZM937 470C994 543 1032 610 1066 696L1053 709C1017 697 1007 694 956 679C950 599 926 533 878 456L893 446Z" stroke="rgb(0,0,0)" stroke-opacity="1" stroke-width="8" fill="rgb(0,0,0)" fill-opacity="1"></path></g></g><g><g><g><g><g transform="matrix(1,0,0,1,198.140625,22.009375)"><path transform="matrix(0.0119,0,0,-0.0119,0,0)" d="M150 718L141 726C97 709 64 701 -15 689L-15 661L41 661C59 661 66 650 66 620L66 153C66 91 65 64 58 -6L74 -12L114 24C177 -12 232 -28 280 -28C432 -28 508 128 508 262L508 270C495 414 404 485 315 485C248 485 182 446 150 369ZM284 404C368 404 421 336 421 229C421 117 361 39 276 39C224 39 150 71 150 93L150 308C150 343 206 404 284 404Z" stroke="rgb(0,0,0)" stroke-opacity="1" stroke-width="8" fill="rgb(0,0,0)" fill-opacity="1"></path></g></g></g></g></g></g></g><g><g><g><g transform="matrix(1,0,0,1,148.078125,55.46875)"><path transform="matrix(0.017,0,0,-0.017,0,0)" d="M23 400L60 400C100 400 104 393 104 327L104 102C104 39 101 32 67 30L21 27L21 -3C93 -1 119 0 144 0C164 0 164 0 287 -3L287 27L235 30C190 33 188 36 188 102L188 274C188 334 228 384 277 384C307 384 328 370 344 338L365 338L374 458C363 465 345 469 327 469C297 469 265 453 244 428L188 362L188 465L179 469C128 448 76 434 23 428ZM718 82L713 -3C778 0 778 0 791 0C796 0 821 -1 865 -3L865 27L826 29C802 30 798 38 798 87L798 270C798 416 756 469 640 469C597 469 557 458 519 435L466 403L466 338L492 331L505 362C526 409 536 416 582 416C676 416 715 379 718 288L619 270C483 245 426 198 426 111C426 33 473 -12 552 -12C570 -12 587 -9 594 -4ZM718 124C689 83 626 45 587 45C547 45 512 82 512 125C512 162 532 197 562 216C587 231 642 245 718 256ZM991 382L991 94C991 20 1024 -12 1101 -12C1124 -12 1148 -7 1154 0L1202 53L1189 70C1164 56 1149 51 1130 51C1091 51 1075 71 1075 120L1075 382L1203 382L1212 436L1075 430L1075 468C1075 510 1078 546 1086 610L1074 621C1050 606 1020 593 989 583C992 553 993 534 993 504L993 434L915 399L915 378ZM1406 465L1397 469C1346 448 1294 434 1241 428L1241 400L1278 400C1318 400 1322 393 1322 327L1322 102C1322 39 1319 32 1285 30L1239 27L1239 -3C1339 0 1339 0 1364 0C1389 0 1389 0 1489 -3L1489 27L1443 30C1409 32 1406 39 1406 102ZM1360 687C1330 687 1304 661 1304 631C1304 602 1330 576 1359 576C1388 576 1415 602 1415 631C1415 659 1388 687 1360 687ZM1787 469C1641 469 1540 366 1540 217C1540 76 1629 -20 1758 -20C1912 -20 2022 87 2022 237C2022 372 1924 469 1787 469ZM1769 436C1861 436 1929 336 1929 200C1929 85 1878 13 1797 13C1699 13 1633 109 1633 251C1633 371 1681 436 1769 436Z" stroke="rgb(0,0,0)" stroke-opacity="1" stroke-width="8" fill="rgb(0,0,0)" fill-opacity="1"></path></g></g><g><svg x="184.171875" overflow="visible" y="31.46875" height="37" width="8.5"><path d=" M 6.27 1.70 c 0.00 -0.06 -0.04 -0.08 -0.08 -0.08 c -0.03 0.00 -0.06 0.01 -0.08 0.02 c -2.55 1.34 -4.65 3.73 -4.65 9.40 v 0.60 h 1.53 v -0.60 c 0.00 -3.23 0.64 -7.03 3.31 -9.06 c 0.12 -0.09 0.13 -0.19 0.13 -0.28 z   M 1.44 11.64 v 13.72 h 1.53 v -13.72 z" style="fill:rgb(0,0,0);fill-opacity:1;stroke-width:1px;stroke:none;stroke-opacity:1;"></path><path d=" M 6.27 35.30 c 0.00 0.06 -0.04 0.08 -0.08 0.08 c -0.03 0.00 -0.06 -0.01 -0.08 -0.02 c -2.55 -1.34 -4.65 -3.73 -4.65 -9.40 v -0.60 h 1.53 v 0.60 c 0.00 3.23 0.64 7.03 3.31 9.06 c 0.12 0.09 0.13 0.19 0.13 0.28 z" style="fill:rgb(0,0,0);fill-opacity:1;stroke-width:1px;stroke:none;stroke-opacity:1;"></path></svg></g><g><g transform="matrix(1,0,0,1,190.984375,55.46875)"><path transform="matrix(0.017,0,0,-0.017,0,0)" d="" stroke="rgb(0,0,0)" stroke-opacity="1" stroke-width="8" fill="rgb(0,0,0)" fill-opacity="1"></path></g></g><g><g><g><g><g transform="matrix(1,0,0,1,196.484375,45.171875)"><path transform="matrix(0.01275,0,0,-0.01275,0,0)" d="M150 718L141 726C97 709 64 701 -15 689L-15 661L41 661C59 661 66 650 66 620L66 153C66 91 65 64 58 -6L74 -12L114 24C177 -12 232 -28 280 -28C432 -28 508 128 508 262L508 270C495 414 404 485 315 485C248 485 182 446 150 369ZM284 404C368 404 421 336 421 229C421 117 361 39 276 39C224 39 150 71 150 93L150 308C150 343 206 404 284 404ZM802 -20C867 -20 957 18 969 36L989 70L976 80C912 42 889 33 846 33C781 33 727 62 699 111C680 144 673 172 671 230C692 227 722 226 756 226C842 226 951 234 998 244C999 258 1000 267 1000 279C1000 394 926 469 814 469C777 469 732 464 692 440C610 392 578 323 578 219C578 25 713 -20 802 -20ZM911 267C887 264 836 261 785 261C742 261 699 264 673 270C673 317 677 339 690 365C711 409 754 436 802 436C835 436 861 423 879 396C901 363 908 334 911 267ZM1371 717C1347 731 1325 737 1304 737C1193 737 1136 555 1136 478L1136 476L1136 434L1067 403L1067 381L1136 385L1136 102C1136 39 1133 32 1099 30L1053 27L1053 -3C1153 0 1153 0 1178 0C1203 0 1203 0 1303 -3L1303 27L1257 30C1223 32 1220 39 1220 102L1220 385L1344 385L1351 438L1220 434L1220 519C1220 634 1233 662 1290 662C1317 662 1335 655 1359 634L1371 640ZM1641 469C1495 469 1394 366 1394 217C1394 76 1483 -20 1612 -20C1766 -20 1876 87 1876 237C1876 372 1778 469 1641 469ZM1623 436C1715 436 1783 336 1783 200C1783 85 1732 13 1651 13C1553 13 1487 109 1487 251C1487 371 1535 436 1623 436ZM1930 400L1967 400C2007 400 2011 393 2011 327L2011 102C2011 39 2008 32 1974 30L1928 27L1928 -3C2000 -1 2026 0 2051 0C2071 0 2071 0 2194 -3L2194 27L2142 30C2097 33 2095 36 2095 102L2095 274C2095 334 2135 384 2184 384C2214 384 2235 370 2251 338L2272 338L2281 458C2270 465 2252 469 2234 469C2204 469 2172 453 2151 428L2095 362L2095 465L2086 469C2035 448 1983 434 1930 428ZM2551 -20C2616 -20 2706 18 2718 36L2738 70L2725 80C2661 42 2638 33 2595 33C2530 33 2476 62 2448 111C2429 144 2422 172 2420 230C2441 227 2471 226 2505 226C2591 226 2700 234 2747 244C2748 258 2749 267 2749 279C2749 394 2675 469 2563 469C2526 469 2481 464 2441 440C2359 392 2327 323 2327 219C2327 25 2462 -20 2551 -20ZM2660 267C2636 264 2585 261 2534 261C2491 261 2448 264 2422 270C2422 317 2426 339 2439 365C2460 409 2503 436 2551 436C2584 436 2610 423 2628 396C2650 363 2657 334 2660 267Z" stroke="rgb(0,0,0)" stroke-opacity="1" stroke-width="8" fill="rgb(0,0,0)" fill-opacity="1"></path></g></g></g></g><g><g><g><g transform="matrix(1,0,0,1,201.265625,63.015625)"><path transform="matrix(0.01275,0,0,-0.01275,0,0)" d="M324 82L319 -3C384 0 384 0 397 0C402 0 427 -1 471 -3L471 27L432 29C408 30 404 38 404 87L404 270C404 416 362 469 246 469C203 469 163 458 125 435L72 403L72 338L98 331L111 362C132 409 142 416 188 416C282 416 321 379 324 288L225 270C89 245 32 198 32 111C32 33 79 -12 158 -12C176 -12 193 -9 200 -4ZM324 124C295 83 232 45 193 45C153 45 118 82 118 125C118 162 138 197 168 216C193 231 248 245 324 256ZM840 717C816 731 794 737 773 737C662 737 605 555 605 478L605 476L605 434L536 403L536 381L605 385L605 102C605 39 602 32 568 30L522 27L522 -3C622 0 622 0 647 0C672 0 672 0 772 -3L772 27L726 30C692 32 689 39 689 102L689 385L813 385L820 438L689 434L689 519C689 634 702 662 759 662C786 662 804 655 828 634L840 640ZM929 382L929 94C929 20 962 -12 1039 -12C1062 -12 1086 -7 1092 0L1140 53L1127 70C1102 56 1087 51 1068 51C1029 51 1013 71 1013 120L1013 382L1141 382L1150 436L1013 430L1013 468C1013 510 1016 546 1024 610L1012 621C988 606 958 593 927 583C930 553 931 534 931 504L931 434L853 399L853 378ZM1406 -20C1471 -20 1561 18 1573 36L1593 70L1580 80C1516 42 1493 33 1450 33C1385 33 1331 62 1303 111C1284 144 1277 172 1275 230C1296 227 1326 226 1360 226C1446 226 1555 234 1602 244C1603 258 1604 267 1604 279C1604 394 1530 469 1418 469C1381 469 1336 464 1296 440C1214 392 1182 323 1182 219C1182 25 1317 -20 1406 -20ZM1515 267C1491 264 1440 261 1389 261C1346 261 1303 264 1277 270C1277 317 1281 339 1294 365C1315 409 1358 436 1406 436C1439 436 1465 423 1483 396C1505 363 1512 334 1515 267ZM1657 400L1694 400C1734 400 1738 393 1738 327L1738 102C1738 39 1735 32 1701 30L1655 27L1655 -3C1727 -1 1753 0 1778 0C1798 0 1798 0 1921 -3L1921 27L1869 30C1824 33 1822 36 1822 102L1822 274C1822 334 1862 384 1911 384C1941 384 1962 370 1978 338L1999 338L2008 458C1997 465 1979 469 1961 469C1931 469 1899 453 1878 428L1822 362L1822 465L1813 469C1762 448 1710 434 1657 428Z" stroke="rgb(0,0,0)" stroke-opacity="1" stroke-width="8" fill="rgb(0,0,0)" fill-opacity="1"></path></g></g></g></g><line style="fill:none;stroke-width:1px;stroke:rgb(0, 0, 0);" x1="196.484375" y1="51.015625" x2="231.921875" y2="51.015625"></line></g><g><svg x="231.5" overflow="visible" y="31.46875" height="37" width="8.5"><path d=" M 1.75 1.70 c 0.00 -0.06 0.04 -0.08 0.08 -0.08 c 0.03 0.00 0.06 0.01 0.08 0.02 c 2.55 1.34 4.65 3.73 4.65 9.40 v 0.60 h -1.53 v -0.60 c 0.00 -3.23 -0.64 -7.03 -3.31 -9.06 c -0.12 -0.09 -0.13 -0.19 -0.13 -0.28 z  M 6.58 11.64 v 13.72 h -1.53 v -13.72 z" style="fill:rgb(0,0,0);fill-opacity:1;stroke-width:1px;stroke:none;stroke-opacity:1;"></path><path d=" M 1.75 35.30 c 0.00 0.06 0.04 0.08 0.08 0.08 c 0.03 0.00 0.06 -0.01 0.08 -0.02 c 2.55 -1.34 4.65 -3.73 4.65 -9.40 v -0.60 h -1.53 v 0.60 c 0.00 3.23 -0.64 7.03 -3.31 9.06 c -0.12 0.09 -0.13 0.19 -0.13 0.28 z" style="fill:rgb(0,0,0);fill-opacity:1;stroke-width:1px;stroke:none;stroke-opacity:1;"></path></svg></g></g></g><line style="fill:none;stroke-width:1px;stroke:rgb(0, 0, 0);" x1="148.078125" y1="29.140625" x2="241.1875" y2="29.140625"></line></g><g><g transform="matrix(1,0,0,1,246.265625,33.390625)"><path transform="matrix(0.017,0,0,-0.017,0,0)" d="M124 329C94 329 67 301 67 271C67 241 94 213 123 213C155 213 183 240 183 270C183 301 155 329 124 329Z" stroke="rgb(0,0,0)" stroke-opacity="1" stroke-width="8" fill="rgb(0,0,0)" fill-opacity="1"></path></g></g><g><g><g><g><g transform="matrix(1,0,0,1,264.515625,19)"><path transform="matrix(0.017,0,0,-0.017,0,0)" d="M283 49C203 49 183 94 183 170L183 465L174 469C123 448 71 434 18 428L18 400L55 400C95 400 99 393 99 327L99 159C99 70 104 -12 240 -12C285 -12 325 2 352 27L419 89C419 60 418 44 415 -3C482 0 483 0 498 0C512 0 512 0 581 -3L581 27L540 30C506 32 503 38 503 102L503 465L494 469C443 448 391 434 338 428L338 400L375 400C415 400 419 393 419 327L419 164C419 126 370 49 283 49ZM612 400L649 400C689 400 693 393 693 327L693 -176C693 -239 690 -246 656 -248L610 -251L610 -281C710 -278 710 -278 735 -278C760 -278 760 -278 860 -281L860 -251L814 -248C780 -246 777 -239 777 -176L777 13C825 -10 869 -21 910 -21C1061 -21 1158 121 1158 242C1158 252 1157 261 1156 271C1154 401 1057 477 956 477C889 477 821 443 777 369L777 465L768 469C717 448 665 434 612 428ZM915 404C1009 404 1069 338 1069 234C1069 122 1002 39 912 39C857 39 816 57 777 98L777 306C777 337 824 404 915 404ZM1212 400L1249 400C1289 400 1293 393 1293 327L1293 -176C1293 -239 1290 -246 1256 -248L1210 -251L1210 -281C1310 -278 1310 -278 1335 -278C1360 -278 1360 -278 1460 -281L1460 -251L1414 -248C1380 -246 1377 -239 1377 -176L1377 13C1425 -10 1469 -21 1510 -21C1661 -21 1758 121 1758 242C1758 252 1757 261 1756 271C1754 401 1657 477 1556 477C1489 477 1421 443 1377 369L1377 465L1368 469C1317 448 1265 434 1212 428ZM1515 404C1609 404 1669 338 1669 234C1669 122 1602 39 1512 39C1457 39 1416 57 1377 98L1377 306C1377 337 1424 404 1515 404ZM2052 -20C2117 -20 2207 18 2219 36L2239 70L2226 80C2162 42 2139 33 2096 33C2031 33 1977 62 1949 111C1930 144 1923 172 1921 230C1942 227 1972 226 2006 226C2092 226 2201 234 2248 244C2249 258 2250 267 2250 279C2250 394 2176 469 2064 469C2027 469 1982 464 1942 440C1860 392 1828 323 1828 219C1828 25 1963 -20 2052 -20ZM2161 267C2137 264 2086 261 2035 261C1992 261 1949 264 1923 270C1923 317 1927 339 1940 365C1961 409 2004 436 2052 436C2085 436 2111 423 2129 396C2151 363 2158 334 2161 267ZM2303 400L2340 400C2380 400 2384 393 2384 327L2384 102C2384 39 2381 32 2347 30L2301 27L2301 -3C2373 -1 2399 0 2424 0C2444 0 2444 0 2567 -3L2567 27L2515 30C2470 33 2468 36 2468 102L2468 274C2468 334 2508 384 2557 384C2587 384 2608 370 2624 338L2645 338L2654 458C2643 465 2625 469 2607 469C2577 469 2545 453 2524 428L2468 362L2468 465L2459 469C2408 448 2356 434 2303 428Z" stroke="rgb(0,0,0)" stroke-opacity="1" stroke-width="8" fill="rgb(0,0,0)" fill-opacity="1"></path></g></g><g><g><g><g><g transform="matrix(1,0,0,1,310.484375,22.009375)"><path transform="matrix(0.0119,0,0,-0.0119,0,0)" d="M324 82L319 -3C384 0 384 0 397 0C402 0 427 -1 471 -3L471 27L432 29C408 30 404 38 404 87L404 270C404 416 362 469 246 469C203 469 163 458 125 435L72 403L72 338L98 331L111 362C132 409 142 416 188 416C282 416 321 379 324 288L225 270C89 245 32 198 32 111C32 33 79 -12 158 -12C176 -12 193 -9 200 -4ZM324 124C295 83 232 45 193 45C153 45 118 82 118 125C118 162 138 197 168 216C193 231 248 245 324 256ZM840 717C816 731 794 737 773 737C662 737 605 555 605 478L605 476L605 434L536 403L536 381L605 385L605 102C605 39 602 32 568 30L522 27L522 -3C622 0 622 0 647 0C672 0 672 0 772 -3L772 27L726 30C692 32 689 39 689 102L689 385L813 385L820 438L689 434L689 519C689 634 702 662 759 662C786 662 804 655 828 634L840 640ZM929 382L929 94C929 20 962 -12 1039 -12C1062 -12 1086 -7 1092 0L1140 53L1127 70C1102 56 1087 51 1068 51C1029 51 1013 71 1013 120L1013 382L1141 382L1150 436L1013 430L1013 468C1013 510 1016 546 1024 610L1012 621C988 606 958 593 927 583C930 553 931 534 931 504L931 434L853 399L853 378ZM1406 -20C1471 -20 1561 18 1573 36L1593 70L1580 80C1516 42 1493 33 1450 33C1385 33 1331 62 1303 111C1284 144 1277 172 1275 230C1296 227 1326 226 1360 226C1446 226 1555 234 1602 244C1603 258 1604 267 1604 279C1604 394 1530 469 1418 469C1381 469 1336 464 1296 440C1214 392 1182 323 1182 219C1182 25 1317 -20 1406 -20ZM1515 267C1491 264 1440 261 1389 261C1346 261 1303 264 1277 270C1277 317 1281 339 1294 365C1315 409 1358 436 1406 436C1439 436 1465 423 1483 396C1505 363 1512 334 1515 267ZM1657 400L1694 400C1734 400 1738 393 1738 327L1738 102C1738 39 1735 32 1701 30L1655 27L1655 -3C1727 -1 1753 0 1778 0C1798 0 1798 0 1921 -3L1921 27L1869 30C1824 33 1822 36 1822 102L1822 274C1822 334 1862 384 1911 384C1941 384 1962 370 1978 338L1999 338L2008 458C1997 465 1979 469 1961 469C1931 469 1899 453 1878 428L1822 362L1822 465L1813 469C1762 448 1710 434 1657 428Z" stroke="rgb(0,0,0)" stroke-opacity="1" stroke-width="8" fill="rgb(0,0,0)" fill-opacity="1"></path></g></g></g></g></g><g><g transform="matrix(1,0,0,1,339.03125,19)"><path transform="matrix(0.017,0,0,-0.017,0,0)" d="M555 243L555 299L51 299L51 243Z" stroke="rgb(0,0,0)" stroke-opacity="1" stroke-width="8" fill="rgb(0,0,0)" fill-opacity="1"></path></g></g><g><g transform="matrix(1,0,0,1,352.71875,19)"><path transform="matrix(0.017,0,0,-0.017,0,0)" d="M23 661L79 661C97 661 104 650 104 620L104 102C104 39 101 32 67 30L21 27L21 -3C121 0 121 0 146 0C171 0 171 0 271 -3L271 27L225 30C191 32 188 39 188 102L188 718L179 726C135 709 102 701 23 689ZM569 469C423 469 322 366 322 217C322 76 411 -20 540 -20C694 -20 804 87 804 237C804 372 706 469 569 469ZM551 436C643 436 711 336 711 200C711 85 660 13 579 13C481 13 415 109 415 251C415 371 463 436 551 436ZM1248 469L1089 104C1086 113 1001 397 1001 405C1001 420 1014 428 1039 429L1079 431L1079 459C980 456 980 456 960 456C940 456 940 456 841 459L841 431L869 429C897 427 910 407 935 329L1037 -7L1084 -7L1234 335L1370 -7L1416 -7L1553 342C1583 409 1595 426 1617 429L1643 431L1643 459C1561 456 1561 456 1545 456C1529 456 1529 456 1447 459L1447 431L1481 429C1506 428 1520 416 1520 398L1415 98L1300 388C1286 422 1279 442 1271 469ZM1918 -20C1983 -20 2073 18 2085 36L2105 70L2092 80C2028 42 2005 33 1962 33C1897 33 1843 62 1815 111C1796 144 1789 172 1787 230C1808 227 1838 226 1872 226C1958 226 2067 234 2114 244C2115 258 2116 267 2116 279C2116 394 2042 469 1930 469C1893 469 1848 464 1808 440C1726 392 1694 323 1694 219C1694 25 1829 -20 1918 -20ZM2027 267C2003 264 1952 261 1901 261C1858 261 1815 264 1789 270C1789 317 1793 339 1806 365C1827 409 1870 436 1918 436C1951 436 1977 423 1995 396C2017 363 2024 334 2027 267ZM2169 400L2206 400C2246 400 2250 393 2250 327L2250 102C2250 39 2247 32 2213 30L2167 27L2167 -3C2239 -1 2265 0 2290 0C2310 0 2310 0 2433 -3L2433 27L2381 30C2336 33 2334 36 2334 102L2334 274C2334 334 2374 384 2423 384C2453 384 2474 370 2490 338L2511 338L2520 458C2509 465 2491 469 2473 469C2443 469 2411 453 2390 428L2334 362L2334 465L2325 469C2274 448 2222 434 2169 428Z" stroke="rgb(0,0,0)" stroke-opacity="1" stroke-width="8" fill="rgb(0,0,0)" fill-opacity="1"></path></g></g><g><g><g><g><g transform="matrix(1,0,0,1,396.40625,22.009375)"><path transform="matrix(0.0119,0,0,-0.0119,0,0)" d="M324 82L319 -3C384 0 384 0 397 0C402 0 427 -1 471 -3L471 27L432 29C408 30 404 38 404 87L404 270C404 416 362 469 246 469C203 469 163 458 125 435L72 403L72 338L98 331L111 362C132 409 142 416 188 416C282 416 321 379 324 288L225 270C89 245 32 198 32 111C32 33 79 -12 158 -12C176 -12 193 -9 200 -4ZM324 124C295 83 232 45 193 45C153 45 118 82 118 125C118 162 138 197 168 216C193 231 248 245 324 256ZM840 717C816 731 794 737 773 737C662 737 605 555 605 478L605 476L605 434L536 403L536 381L605 385L605 102C605 39 602 32 568 30L522 27L522 -3C622 0 622 0 647 0C672 0 672 0 772 -3L772 27L726 30C692 32 689 39 689 102L689 385L813 385L820 438L689 434L689 519C689 634 702 662 759 662C786 662 804 655 828 634L840 640ZM929 382L929 94C929 20 962 -12 1039 -12C1062 -12 1086 -7 1092 0L1140 53L1127 70C1102 56 1087 51 1068 51C1029 51 1013 71 1013 120L1013 382L1141 382L1150 436L1013 430L1013 468C1013 510 1016 546 1024 610L1012 621C988 606 958 593 927 583C930 553 931 534 931 504L931 434L853 399L853 378ZM1406 -20C1471 -20 1561 18 1573 36L1593 70L1580 80C1516 42 1493 33 1450 33C1385 33 1331 62 1303 111C1284 144 1277 172 1275 230C1296 227 1326 226 1360 226C1446 226 1555 234 1602 244C1603 258 1604 267 1604 279C1604 394 1530 469 1418 469C1381 469 1336 464 1296 440C1214 392 1182 323 1182 219C1182 25 1317 -20 1406 -20ZM1515 267C1491 264 1440 261 1389 261C1346 261 1303 264 1277 270C1277 317 1281 339 1294 365C1315 409 1358 436 1406 436C1439 436 1465 423 1483 396C1505 363 1512 334 1515 267ZM1657 400L1694 400C1734 400 1738 393 1738 327L1738 102C1738 39 1735 32 1701 30L1655 27L1655 -3C1727 -1 1753 0 1778 0C1798 0 1798 0 1921 -3L1921 27L1869 30C1824 33 1822 36 1822 102L1822 274C1822 334 1862 384 1911 384C1941 384 1962 370 1978 338L1999 338L2008 458C1997 465 1979 469 1961 469C1931 469 1899 453 1878 428L1822 362L1822 465L1813 469C1762 448 1710 434 1657 428Z" stroke="rgb(0,0,0)" stroke-opacity="1" stroke-width="8" fill="rgb(0,0,0)" fill-opacity="1"></path></g></g></g></g></g></g></g><g><g><g><g transform="matrix(1,0,0,1,255.578125,46.78125)"><path transform="matrix(0.017,0,0,-0.017,0,0)" d="M283 49C203 49 183 94 183 170L183 465L174 469C123 448 71 434 18 428L18 400L55 400C95 400 99 393 99 327L99 159C99 70 104 -12 240 -12C285 -12 325 2 352 27L419 89C419 60 418 44 415 -3C482 0 483 0 498 0C512 0 512 0 581 -3L581 27L540 30C506 32 503 38 503 102L503 465L494 469C443 448 391 434 338 428L338 400L375 400C415 400 419 393 419 327L419 164C419 126 370 49 283 49ZM612 400L649 400C689 400 693 393 693 327L693 -176C693 -239 690 -246 656 -248L610 -251L610 -281C710 -278 710 -278 735 -278C760 -278 760 -278 860 -281L860 -251L814 -248C780 -246 777 -239 777 -176L777 13C825 -10 869 -21 910 -21C1061 -21 1158 121 1158 242C1158 252 1157 261 1156 271C1154 401 1057 477 956 477C889 477 821 443 777 369L777 465L768 469C717 448 665 434 612 428ZM915 404C1009 404 1069 338 1069 234C1069 122 1002 39 912 39C857 39 816 57 777 98L777 306C777 337 824 404 915 404ZM1212 400L1249 400C1289 400 1293 393 1293 327L1293 -176C1293 -239 1290 -246 1256 -248L1210 -251L1210 -281C1310 -278 1310 -278 1335 -278C1360 -278 1360 -278 1460 -281L1460 -251L1414 -248C1380 -246 1377 -239 1377 -176L1377 13C1425 -10 1469 -21 1510 -21C1661 -21 1758 121 1758 242C1758 252 1757 261 1756 271C1754 401 1657 477 1556 477C1489 477 1421 443 1377 369L1377 465L1368 469C1317 448 1265 434 1212 428ZM1515 404C1609 404 1669 338 1669 234C1669 122 1602 39 1512 39C1457 39 1416 57 1377 98L1377 306C1377 337 1424 404 1515 404ZM2052 -20C2117 -20 2207 18 2219 36L2239 70L2226 80C2162 42 2139 33 2096 33C2031 33 1977 62 1949 111C1930 144 1923 172 1921 230C1942 227 1972 226 2006 226C2092 226 2201 234 2248 244C2249 258 2250 267 2250 279C2250 394 2176 469 2064 469C2027 469 1982 464 1942 440C1860 392 1828 323 1828 219C1828 25 1963 -20 2052 -20ZM2161 267C2137 264 2086 261 2035 261C1992 261 1949 264 1923 270C1923 317 1927 339 1940 365C1961 409 2004 436 2052 436C2085 436 2111 423 2129 396C2151 363 2158 334 2161 267ZM2303 400L2340 400C2380 400 2384 393 2384 327L2384 102C2384 39 2381 32 2347 30L2301 27L2301 -3C2373 -1 2399 0 2424 0C2444 0 2444 0 2567 -3L2567 27L2515 30C2470 33 2468 36 2468 102L2468 274C2468 334 2508 384 2557 384C2587 384 2608 370 2624 338L2645 338L2654 458C2643 465 2625 469 2607 469C2577 469 2545 453 2524 428L2468 362L2468 465L2459 469C2408 448 2356 434 2303 428Z" stroke="rgb(0,0,0)" stroke-opacity="1" stroke-width="8" fill="rgb(0,0,0)" fill-opacity="1"></path></g></g><g><g><g><g><g transform="matrix(1,0,0,1,301.546875,49.790625)"><path transform="matrix(0.0119,0,0,-0.0119,0,0)" d="M150 718L141 726C97 709 64 701 -15 689L-15 661L41 661C59 661 66 650 66 620L66 153C66 91 65 64 58 -6L74 -12L114 24C177 -12 232 -28 280 -28C432 -28 508 128 508 262L508 270C495 414 404 485 315 485C248 485 182 446 150 369ZM284 404C368 404 421 336 421 229C421 117 361 39 276 39C224 39 150 71 150 93L150 308C150 343 206 404 284 404ZM802 -20C867 -20 957 18 969 36L989 70L976 80C912 42 889 33 846 33C781 33 727 62 699 111C680 144 673 172 671 230C692 227 722 226 756 226C842 226 951 234 998 244C999 258 1000 267 1000 279C1000 394 926 469 814 469C777 469 732 464 692 440C610 392 578 323 578 219C578 25 713 -20 802 -20ZM911 267C887 264 836 261 785 261C742 261 699 264 673 270C673 317 677 339 690 365C711 409 754 436 802 436C835 436 861 423 879 396C901 363 908 334 911 267ZM1371 717C1347 731 1325 737 1304 737C1193 737 1136 555 1136 478L1136 476L1136 434L1067 403L1067 381L1136 385L1136 102C1136 39 1133 32 1099 30L1053 27L1053 -3C1153 0 1153 0 1178 0C1203 0 1203 0 1303 -3L1303 27L1257 30C1223 32 1220 39 1220 102L1220 385L1344 385L1351 438L1220 434L1220 519C1220 634 1233 662 1290 662C1317 662 1335 655 1359 634L1371 640ZM1641 469C1495 469 1394 366 1394 217C1394 76 1483 -20 1612 -20C1766 -20 1876 87 1876 237C1876 372 1778 469 1641 469ZM1623 436C1715 436 1783 336 1783 200C1783 85 1732 13 1651 13C1553 13 1487 109 1487 251C1487 371 1535 436 1623 436ZM1930 400L1967 400C2007 400 2011 393 2011 327L2011 102C2011 39 2008 32 1974 30L1928 27L1928 -3C2000 -1 2026 0 2051 0C2071 0 2071 0 2194 -3L2194 27L2142 30C2097 33 2095 36 2095 102L2095 274C2095 334 2135 384 2184 384C2214 384 2235 370 2251 338L2272 338L2281 458C2270 465 2252 469 2234 469C2204 469 2172 453 2151 428L2095 362L2095 465L2086 469C2035 448 1983 434 1930 428ZM2551 -20C2616 -20 2706 18 2718 36L2738 70L2725 80C2661 42 2638 33 2595 33C2530 33 2476 62 2448 111C2429 144 2422 172 2420 230C2441 227 2471 226 2505 226C2591 226 2700 234 2747 244C2748 258 2749 267 2749 279C2749 394 2675 469 2563 469C2526 469 2481 464 2441 440C2359 392 2327 323 2327 219C2327 25 2462 -20 2551 -20ZM2660 267C2636 264 2585 261 2534 261C2491 261 2448 264 2422 270C2422 317 2426 339 2439 365C2460 409 2503 436 2551 436C2584 436 2610 423 2628 396C2650 363 2657 334 2660 267Z" stroke="rgb(0,0,0)" stroke-opacity="1" stroke-width="8" fill="rgb(0,0,0)" fill-opacity="1"></path></g></g></g></g></g><g><g transform="matrix(1,0,0,1,339.03125,46.78125)"><path transform="matrix(0.017,0,0,-0.017,0,0)" d="M555 243L555 299L51 299L51 243Z" stroke="rgb(0,0,0)" stroke-opacity="1" stroke-width="8" fill="rgb(0,0,0)" fill-opacity="1"></path></g></g><g><g transform="matrix(1,0,0,1,352.71875,46.78125)"><path transform="matrix(0.017,0,0,-0.017,0,0)" d="M23 661L79 661C97 661 104 650 104 620L104 102C104 39 101 32 67 30L21 27L21 -3C121 0 121 0 146 0C171 0 171 0 271 -3L271 27L225 30C191 32 188 39 188 102L188 718L179 726C135 709 102 701 23 689ZM569 469C423 469 322 366 322 217C322 76 411 -20 540 -20C694 -20 804 87 804 237C804 372 706 469 569 469ZM551 436C643 436 711 336 711 200C711 85 660 13 579 13C481 13 415 109 415 251C415 371 463 436 551 436ZM1248 469L1089 104C1086 113 1001 397 1001 405C1001 420 1014 428 1039 429L1079 431L1079 459C980 456 980 456 960 456C940 456 940 456 841 459L841 431L869 429C897 427 910 407 935 329L1037 -7L1084 -7L1234 335L1370 -7L1416 -7L1553 342C1583 409 1595 426 1617 429L1643 431L1643 459C1561 456 1561 456 1545 456C1529 456 1529 456 1447 459L1447 431L1481 429C1506 428 1520 416 1520 398L1415 98L1300 388C1286 422 1279 442 1271 469ZM1918 -20C1983 -20 2073 18 2085 36L2105 70L2092 80C2028 42 2005 33 1962 33C1897 33 1843 62 1815 111C1796 144 1789 172 1787 230C1808 227 1838 226 1872 226C1958 226 2067 234 2114 244C2115 258 2116 267 2116 279C2116 394 2042 469 1930 469C1893 469 1848 464 1808 440C1726 392 1694 323 1694 219C1694 25 1829 -20 1918 -20ZM2027 267C2003 264 1952 261 1901 261C1858 261 1815 264 1789 270C1789 317 1793 339 1806 365C1827 409 1870 436 1918 436C1951 436 1977 423 1995 396C2017 363 2024 334 2027 267ZM2169 400L2206 400C2246 400 2250 393 2250 327L2250 102C2250 39 2247 32 2213 30L2167 27L2167 -3C2239 -1 2265 0 2290 0C2310 0 2310 0 2433 -3L2433 27L2381 30C2336 33 2334 36 2334 102L2334 274C2334 334 2374 384 2423 384C2453 384 2474 370 2490 338L2511 338L2520 458C2509 465 2491 469 2473 469C2443 469 2411 453 2390 428L2334 362L2334 465L2325 469C2274 448 2222 434 2169 428Z" stroke="rgb(0,0,0)" stroke-opacity="1" stroke-width="8" fill="rgb(0,0,0)" fill-opacity="1"></path></g></g><g><g><g><g><g transform="matrix(1,0,0,1,396.40625,49.790625)"><path transform="matrix(0.0119,0,0,-0.0119,0,0)" d="M150 718L141 726C97 709 64 701 -15 689L-15 661L41 661C59 661 66 650 66 620L66 153C66 91 65 64 58 -6L74 -12L114 24C177 -12 232 -28 280 -28C432 -28 508 128 508 262L508 270C495 414 404 485 315 485C248 485 182 446 150 369ZM284 404C368 404 421 336 421 229C421 117 361 39 276 39C224 39 150 71 150 93L150 308C150 343 206 404 284 404ZM802 -20C867 -20 957 18 969 36L989 70L976 80C912 42 889 33 846 33C781 33 727 62 699 111C680 144 673 172 671 230C692 227 722 226 756 226C842 226 951 234 998 244C999 258 1000 267 1000 279C1000 394 926 469 814 469C777 469 732 464 692 440C610 392 578 323 578 219C578 25 713 -20 802 -20ZM911 267C887 264 836 261 785 261C742 261 699 264 673 270C673 317 677 339 690 365C711 409 754 436 802 436C835 436 861 423 879 396C901 363 908 334 911 267ZM1371 717C1347 731 1325 737 1304 737C1193 737 1136 555 1136 478L1136 476L1136 434L1067 403L1067 381L1136 385L1136 102C1136 39 1133 32 1099 30L1053 27L1053 -3C1153 0 1153 0 1178 0C1203 0 1203 0 1303 -3L1303 27L1257 30C1223 32 1220 39 1220 102L1220 385L1344 385L1351 438L1220 434L1220 519C1220 634 1233 662 1290 662C1317 662 1335 655 1359 634L1371 640ZM1641 469C1495 469 1394 366 1394 217C1394 76 1483 -20 1612 -20C1766 -20 1876 87 1876 237C1876 372 1778 469 1641 469ZM1623 436C1715 436 1783 336 1783 200C1783 85 1732 13 1651 13C1553 13 1487 109 1487 251C1487 371 1535 436 1623 436ZM1930 400L1967 400C2007 400 2011 393 2011 327L2011 102C2011 39 2008 32 1974 30L1928 27L1928 -3C2000 -1 2026 0 2051 0C2071 0 2071 0 2194 -3L2194 27L2142 30C2097 33 2095 36 2095 102L2095 274C2095 334 2135 384 2184 384C2214 384 2235 370 2251 338L2272 338L2281 458C2270 465 2252 469 2234 469C2204 469 2172 453 2151 428L2095 362L2095 465L2086 469C2035 448 1983 434 1930 428ZM2551 -20C2616 -20 2706 18 2718 36L2738 70L2725 80C2661 42 2638 33 2595 33C2530 33 2476 62 2448 111C2429 144 2422 172 2420 230C2441 227 2471 226 2505 226C2591 226 2700 234 2747 244C2748 258 2749 267 2749 279C2749 394 2675 469 2563 469C2526 469 2481 464 2441 440C2359 392 2327 323 2327 219C2327 25 2462 -20 2551 -20ZM2660 267C2636 264 2585 261 2534 261C2491 261 2448 264 2422 270C2422 317 2426 339 2439 365C2460 409 2503 436 2551 436C2584 436 2610 423 2628 396C2650 363 2657 334 2660 267Z" stroke="rgb(0,0,0)" stroke-opacity="1" stroke-width="8" fill="rgb(0,0,0)" fill-opacity="1"></path></g></g></g></g></g></g></g><line style="fill:none;stroke-width:1px;stroke:rgb(0, 0, 0);" x1="255.578125" y1="29.140625" x2="430.5" y2="29.140625"></line></g></g></g></svg>