<svg xmlns="http://www.w3.org/2000/svg" xmlns:xlink="http://www.w3.org/1999/xlink" width="434.0625" height="54.171875" style="width:434.0625px;height:54.171875px;font-family:Asana-Math, Asana;background:#FFF;"><g><g><g><g transform="matrix(1,0,0,1,2,33.390625)"><path transform="matrix(0.017,0,0,-0.017,0,0)" d="M22 342C22 126 180 -20 415 -20C498 -20 573 -2 642 34L670 84L661 94C599 54 530 34 454 34C259 34 129 164 129 361C129 545 243 667 415 667C513 667 614 627 614 588L614 516L645 516C646 566 650 602 664 668C579 696 506 709 433 709C218 709 22 582 22 342Z" stroke="rgb(0,0,0)" stroke-opacity="1" stroke-width="8" fill="rgb(0,0,0)" fill-opacity="1"></path></g></g><g><g transform="matrix(1,0,0,1,14.046875,33.390625)"><path transform="matrix(0.017,0,0,-0.017,0,0)" d="M146 266C146 526 243 632 301 700L282 726C225 675 60 542 60 266C60 159 85 58 133 -32C168 -99 200 -138 282 -215L301 -194C255 -137 146 -15 146 266Z" stroke="rgb(0,0,0)" stroke-opacity="1" stroke-width="8" fill="rgb(0,0,0)" fill-opacity="1"></path></g></g><g><g transform="matrix(1,0,0,1,19.703125,33.390625)"><path transform="matrix(0.017,0,0,-0.017,0,0)" d="M288 254L430 420C436 427 447 431 464 431L478 431L478 459L396 459L272 284L196 400C181 422 170 435 136 469L20 449L25 423L46 421C64 420 86 406 96 392L216 218L67 42C60 33 47 27 37 27L20 27L20 0L106 0L240 192L373 -3C425 0 425 0 434 0C444 0 444 0 496 -3L496 27L471 30C459 31 447 39 436 54Z" stroke="rgb(0,0,0)" stroke-opacity="1" stroke-width="8" fill="rgb(0,0,0)" fill-opacity="1"></path></g></g><g><g><g><g><g transform="matrix(1,0,0,1,28.96875,36.4)"><path transform="matrix(0.0119,0,0,-0.0119,0,0)" d="M150 718L141 726C97 709 64 701 -15 689L-15 661L41 661C59 661 66 650 66 620L66 153C66 91 65 64 58 -6L74 -12L114 24C177 -12 232 -28 280 -28C432 -28 508 128 508 262L508 270C495 414 404 485 315 485C248 485 182 446 150 369ZM284 404C368 404 421 336 421 229C421 117 361 39 276 39C224 39 150 71 150 93L150 308C150 343 206 404 284 404Z" stroke="rgb(0,0,0)" stroke-opacity="1" stroke-width="8" fill="rgb(0,0,0)" fill-opacity="1"></path></g></g></g></g></g><g><g transform="matrix(1,0,0,1,36.5625,33.390625)"><path transform="matrix(0.017,0,0,-0.017,0,0)" d="M204 123C177 114 159 108 106 93C99 17 74 -48 16 -144L30 -155L71 -136C152 -31 190 32 218 109Z" stroke="rgb(0,0,0)" stroke-opacity="1" stroke-width="8" fill="rgb(0,0,0)" fill-opacity="1"></path></g></g><g><g transform="matrix(1,0,0,1,44.1875,33.390625)"><path transform="matrix(0.017,0,0,-0.017,0,0)" d="M288 254L430 420C436 427 447 431 464 431L478 431L478 459L396 459L272 284L196 400C181 422 170 435 136 469L20 449L25 423L46 421C64 420 86 406 96 392L216 218L67 42C60 33 47 27 37 27L20 27L20 0L106 0L240 192L373 -3C425 0 425 0 434 0C444 0 444 0 496 -3L496 27L471 30C459 31 447 39 436 54Z" stroke="rgb(0,0,0)" stroke-opacity="1" stroke-width="8" fill="rgb(0,0,0)" fill-opacity="1"></path></g></g><g><g><g><g><g transform="matrix(1,0,0,1,53.453125,36.4)"><path transform="matrix(0.0119,0,0,-0.0119,0,0)" d="M324 82L319 -3C384 0 384 0 397 0C402 0 427 -1 471 -3L471 27L432 29C408 30 404 38 404 87L404 270C404 416 362 469 246 469C203 469 163 458 125 435L72 403L72 338L98 331L111 362C132 409 142 416 188 416C282 416 321 379 324 288L225 270C89 245 32 198 32 111C32 33 79 -12 158 -12C176 -12 193 -9 200 -4ZM324 124C295 83 232 45 193 45C153 45 118 82 118 125C118 162 138 197 168 216C193 231 248 245 324 256Z" stroke="rgb(0,0,0)" stroke-opacity="1" stroke-width="8" fill="rgb(0,0,0)" fill-opacity="1"></path></g></g></g></g></g><g><g transform="matrix(1,0,0,1,60.421875,33.390625)"><path transform="matrix(0.017,0,0,-0.017,0,0)" d="M51 726L32 700C87 636 187 526 187 266C187 -10 83 -131 32 -194L51 -215C104 -165 273 -23 273 265C273 542 108 675 51 726Z" stroke="rgb(0,0,0)" stroke-opacity="1" stroke-width="8" fill="rgb(0,0,0)" fill-opacity="1"></path></g></g><g><g transform="matrix(1,0,0,1,66.078125,33.390625)"><path transform="matrix(0.017,0,0,-0.017,0,0)" d="" stroke="rgb(0,0,0)" stroke-opacity="1" stroke-width="8" fill="rgb(0,0,0)" fill-opacity="1"></path></g></g><g><g transform="matrix(1,0,0,1,75.40625,33.390625)"><path transform="matrix(0.017,0,0,-0.017,0,0)" d="M604 347L604 406L65 406L65 347ZM604 134L604 193L65 193L65 134Z" stroke="rgb(0,0,0)" stroke-opacity="1" stroke-width="8" fill="rgb(0,0,0)" fill-opacity="1"></path></g></g><g><g transform="matrix(1,0,0,1,91.859375,33.390625)"><path transform="matrix(0.017,0,0,-0.017,0,0)" d="M662 469L503 104C500 113 415 397 415 405C415 420 428 428 453 429L493 431L493 459C394 456 394 456 374 456C354 456 354 456 255 459L255 431L283 429C311 427 324 407 349 329L451 -7L498 -7L648 335L784 -7L830 -7L967 342C997 409 1009 426 1031 429L1057 431L1057 459C975 456 975 456 959 456C943 456 943 456 861 459L861 431L895 429C920 428 934 416 934 398L829 98L714 388C700 422 693 442 685 469Z" stroke="rgb(0,0,0)" stroke-opacity="1" stroke-width="8" fill="rgb(0,0,0)" fill-opacity="1"></path></g></g><g><g><g><g><g transform="matrix(1,0,0,1,110.765625,36.4)"><path transform="matrix(0.0119,0,0,-0.0119,0,0)" d="M150 718L141 726C97 709 64 701 -15 689L-15 661L41 661C59 661 66 650 66 620L66 153C66 91 65 64 58 -6L74 -12L114 24C177 -12 232 -28 280 -28C432 -28 508 128 508 262L508 270C495 414 404 485 315 485C248 485 182 446 150 369ZM284 404C368 404 421 336 421 229C421 117 361 39 276 39C224 39 150 71 150 93L150 308C150 343 206 404 284 404Z" stroke="rgb(0,0,0)" stroke-opacity="1" stroke-width="8" fill="rgb(0,0,0)" fill-opacity="1"></path></g></g></g></g></g><g><g transform="matrix(1,0,0,1,121.75,33.390625)"><path transform="matrix(0.017,0,0,-0.017,0,0)" d="M124 329C94 329 67 301 67 271C67 241 94 213 123 213C155 213 183 240 183 270C183 301 155 329 124 329Z" stroke="rgb(0,0,0)" stroke-opacity="1" stroke-width="8" fill="rgb(0,0,0)" fill-opacity="1"></path></g></g><g><g><g><g><g transform="matrix(1,0,0,1,149.40625,19)"><path transform="matrix(0.017,0,0,-0.017,0,0)" d="M288 254L430 420C436 427 447 431 464 431L478 431L478 459L396 459L272 284L196 400C181 422 170 435 136 469L20 449L25 423L46 421C64 420 86 406 96 392L216 218L67 42C60 33 47 27 37 27L20 27L20 0L106 0L240 192L373 -3C425 0 425 0 434 0C444 0 444 0 496 -3L496 27L471 30C459 31 447 39 436 54Z" stroke="rgb(0,0,0)" stroke-opacity="1" stroke-width="8" fill="rgb(0,0,0)" fill-opacity="1"></path></g></g><g><g><g><g><g transform="matrix(1,0,0,1,158.671875,22.009375)"><path transform="matrix(0.0119,0,0,-0.0119,0,0)" d="M150 718L141 726C97 709 64 701 -15 689L-15 661L41 661C59 661 66 650 66 620L66 153C66 91 65 64 58 -6L74 -12L114 24C177 -12 232 -28 280 -28C432 -28 508 128 508 262L508 270C495 414 404 485 315 485C248 485 182 446 150 369ZM284 404C368 404 421 336 421 229C421 117 361 39 276 39C224 39 150 71 150 93L150 308C150 343 206 404 284 404Z" stroke="rgb(0,0,0)" stroke-opacity="1" stroke-width="8" fill="rgb(0,0,0)" fill-opacity="1"></path></g></g></g></g></g><g><g transform="matrix(1,0,0,1,169.65625,19)"><path transform="matrix(0.017,0,0,-0.017,0,0)" d="M555 243L555 299L51 299L51 243Z" stroke="rgb(0,0,0)" stroke-opacity="1" stroke-width="8" fill="rgb(0,0,0)" fill-opacity="1"></path></g></g><g><g transform="matrix(1,0,0,1,183.34375,19)"><path transform="matrix(0.017,0,0,-0.017,0,0)" d="M23 661L79 661C97 661 104 650 104 620L104 102C104 39 101 32 67 30L21 27L21 -3C121 0 121 0 146 0C171 0 171 0 271 -3L271 27L225 30C191 32 188 39 188 102L188 718L179 726C135 709 102 701 23 689ZM569 469C423 469 322 366 322 217C322 76 411 -20 540 -20C694 -20 804 87 804 237C804 372 706 469 569 469ZM551 436C643 436 711 336 711 200C711 85 660 13 579 13C481 13 415 109 415 251C415 371 463 436 551 436ZM1248 469L1089 104C1086 113 1001 397 1001 405C1001 420 1014 428 1039 429L1079 431L1079 459C980 456 980 456 960 456C940 456 940 456 841 459L841 431L869 429C897 427 910 407 935 329L1037 -7L1084 -7L1234 335L1370 -7L1416 -7L1553 342C1583 409 1595 426 1617 429L1643 431L1643 459C1561 456 1561 456 1545 456C1529 456 1529 456 1447 459L1447 431L1481 429C1506 428 1520 416 1520 398L1415 98L1300 388C1286 422 1279 442 1271 469ZM1918 -20C1983 -20 2073 18 2085 36L2105 70L2092 80C2028 42 2005 33 1962 33C1897 33 1843 62 1815 111C1796 144 1789 172 1787 230C1808 227 1838 226 1872 226C1958 226 2067 234 2114 244C2115 258 2116 267 2116 279C2116 394 2042 469 1930 469C1893 469 1848 464 1808 440C1726 392 1694 323 1694 219C1694 25 1829 -20 1918 -20ZM2027 267C2003 264 1952 261 1901 261C1858 261 1815 264 1789 270C1789 317 1793 339 1806 365C1827 409 1870 436 1918 436C1951 436 1977 423 1995 396C2017 363 2024 334 2027 267ZM2169 400L2206 400C2246 400 2250 393 2250 327L2250 102C2250 39 2247 32 2213 30L2167 27L2167 -3C2239 -1 2265 0 2290 0C2310 0 2310 0 2433 -3L2433 27L2381 30C2336 33 2334 36 2334 102L2334 274C2334 334 2374 384 2423 384C2453 384 2474 370 2490 338L2511 338L2520 458C2509 465 2491 469 2473 469C2443 469 2411 453 2390 428L2334 362L2334 465L2325 469C2274 448 2222 434 2169 428Z" stroke="rgb(0,0,0)" stroke-opacity="1" stroke-width="8" fill="rgb(0,0,0)" fill-opacity="1"></path></g></g><g><g><g><g><g transform="matrix(1,0,0,1,227.03125,22.009375)"><path transform="matrix(0.0119,0,0,-0.0119,0,0)" d="M150 718L141 726C97 709 64 701 -15 689L-15 661L41 661C59 661 66 650 66 620L66 153C66 91 65 64 58 -6L74 -12L114 24C177 -12 232 -28 280 -28C432 -28 508 128 508 262L508 270C495 414 404 485 315 485C248 485 182 446 150 369ZM284 404C368 404 421 336 421 229C421 117 361 39 276 39C224 39 150 71 150 93L150 308C150 343 206 404 284 404Z" stroke="rgb(0,0,0)" stroke-opacity="1" stroke-width="8" fill="rgb(0,0,0)" fill-opacity="1"></path></g></g></g></g></g></g></g><g><g><g><g transform="matrix(1,0,0,1,131.0625,46.78125)"><path transform="matrix(0.017,0,0,-0.017,0,0)" d="M283 49C203 49 183 94 183 170L183 465L174 469C123 448 71 434 18 428L18 400L55 400C95 400 99 393 99 327L99 159C99 70 104 -12 240 -12C285 -12 325 2 352 27L419 89C419 60 418 44 415 -3C482 0 483 0 498 0C512 0 512 0 581 -3L581 27L540 30C506 32 503 38 503 102L503 465L494 469C443 448 391 434 338 428L338 400L375 400C415 400 419 393 419 327L419 164C419 126 370 49 283 49ZM612 400L649 400C689 400 693 393 693 327L693 -176C693 -239 690 -246 656 -248L610 -251L610 -281C710 -278 710 -278 735 -278C760 -278 760 -278 860 -281L860 -251L814 -248C780 -246 777 -239 777 -176L777 13C825 -10 869 -21 910 -21C1061 -21 1158 121 1158 242C1158 252 1157 261 1156 271C1154 401 1057 477 956 477C889 477 821 443 777 369L777 465L768 469C717 448 665 434 612 428ZM915 404C1009 404 1069 338 1069 234C1069 122 1002 39 912 39C857 39 816 57 777 98L777 306C777 337 824 404 915 404ZM1212 400L1249 400C1289 400 1293 393 1293 327L1293 -176C1293 -239 1290 -246 1256 -248L1210 -251L1210 -281C1310 -278 1310 -278 1335 -278C1360 -278 1360 -278 1460 -281L1460 -251L1414 -248C1380 -246 1377 -239 1377 -176L1377 13C1425 -10 1469 -21 1510 -21C1661 -21 1758 121 1758 242C1758 252 1757 261 1756 271C1754 401 1657 477 1556 477C1489 477 1421 443 1377 369L1377 465L1368 469C1317 448 1265 434 1212 428ZM1515 404C1609 404 1669 338 1669 234C1669 122 1602 39 1512 39C1457 39 1416 57 1377 98L1377 306C1377 337 1424 404 1515 404ZM2052 -20C2117 -20 2207 18 2219 36L2239 70L2226 80C2162 42 2139 33 2096 33C2031 33 1977 62 1949 111C1930 144 1923 172 1921 230C1942 227 1972 226 2006 226C2092 226 2201 234 2248 244C2249 258 2250 267 2250 279C2250 394 2176 469 2064 469C2027 469 1982 464 1942 440C1860 392 1828 323 1828 219C1828 25 1963 -20 2052 -20ZM2161 267C2137 264 2086 261 2035 261C1992 261 1949 264 1923 270C1923 317 1927 339 1940 365C1961 409 2004 436 2052 436C2085 436 2111 423 2129 396C2151 363 2158 334 2161 267ZM2303 400L2340 400C2380 400 2384 393 2384 327L2384 102C2384 39 2381 32 2347 30L2301 27L2301 -3C2373 -1 2399 0 2424 0C2444 0 2444 0 2567 -3L2567 27L2515 30C2470 33 2468 36 2468 102L2468 274C2468 334 2508 384 2557 384C2587 384 2608 370 2624 338L2645 338L2654 458C2643 465 2625 469 2607 469C2577 469 2545 453 2524 428L2468 362L2468 465L2459 469C2408 448 2356 434 2303 428Z" stroke="rgb(0,0,0)" stroke-opacity="1" stroke-width="8" fill="rgb(0,0,0)" fill-opacity="1"></path></g></g><g><g><g><g><g transform="matrix(1,0,0,1,177.03125,49.790625)"><path transform="matrix(0.0119,0,0,-0.0119,0,0)" d="M150 718L141 726C97 709 64 701 -15 689L-15 661L41 661C59 661 66 650 66 620L66 153C66 91 65 64 58 -6L74 -12L114 24C177 -12 232 -28 280 -28C432 -28 508 128 508 262L508 270C495 414 404 485 315 485C248 485 182 446 150 369ZM284 404C368 404 421 336 421 229C421 117 361 39 276 39C224 39 150 71 150 93L150 308C150 343 206 404 284 404Z" stroke="rgb(0,0,0)" stroke-opacity="1" stroke-width="8" fill="rgb(0,0,0)" fill-opacity="1"></path></g></g></g></g></g><g><g transform="matrix(1,0,0,1,188.015625,46.78125)"><path transform="matrix(0.017,0,0,-0.017,0,0)" d="M555 243L555 299L51 299L51 243Z" stroke="rgb(0,0,0)" stroke-opacity="1" stroke-width="8" fill="rgb(0,0,0)" fill-opacity="1"></path></g></g><g><g transform="matrix(1,0,0,1,201.703125,46.78125)"><path transform="matrix(0.017,0,0,-0.017,0,0)" d="M23 661L79 661C97 661 104 650 104 620L104 102C104 39 101 32 67 30L21 27L21 -3C121 0 121 0 146 0C171 0 171 0 271 -3L271 27L225 30C191 32 188 39 188 102L188 718L179 726C135 709 102 701 23 689ZM569 469C423 469 322 366 322 217C322 76 411 -20 540 -20C694 -20 804 87 804 237C804 372 706 469 569 469ZM551 436C643 436 711 336 711 200C711 85 660 13 579 13C481 13 415 109 415 251C415 371 463 436 551 436ZM1248 469L1089 104C1086 113 1001 397 1001 405C1001 420 1014 428 1039 429L1079 431L1079 459C980 456 980 456 960 456C940 456 940 456 841 459L841 431L869 429C897 427 910 407 935 329L1037 -7L1084 -7L1234 335L1370 -7L1416 -7L1553 342C1583 409 1595 426 1617 429L1643 431L1643 459C1561 456 1561 456 1545 456C1529 456 1529 456 1447 459L1447 431L1481 429C1506 428 1520 416 1520 398L1415 98L1300 388C1286 422 1279 442 1271 469ZM1918 -20C1983 -20 2073 18 2085 36L2105 70L2092 80C2028 42 2005 33 1962 33C1897 33 1843 62 1815 111C1796 144 1789 172 1787 230C1808 227 1838 226 1872 226C1958 226 2067 234 2114 244C2115 258 2116 267 2116 279C2116 394 2042 469 1930 469C1893 469 1848 464 1808 440C1726 392 1694 323 1694 219C1694 25 1829 -20 1918 -20ZM2027 267C2003 264 1952 261 1901 261C1858 261 1815 264 1789 270C1789 317 1793 339 1806 365C1827 409 1870 436 1918 436C1951 436 1977 423 1995 396C2017 363 2024 334 2027 267ZM2169 400L2206 400C2246 400 2250 393 2250 327L2250 102C2250 39 2247 32 2213 30L2167 27L2167 -3C2239 -1 2265 0 2290 0C2310 0 2310 0 2433 -3L2433 27L2381 30C2336 33 2334 36 2334 102L2334 274C2334 334 2374 384 2423 384C2453 384 2474 370 2490 338L2511 338L2520 458C2509 465 2491 469 2473 469C2443 469 2411 453 2390 428L2334 362L2334 465L2325 469C2274 448 2222 434 2169 428Z" stroke="rgb(0,0,0)" stroke-opacity="1" stroke-width="8" fill="rgb(0,0,0)" fill-opacity="1"></path></g></g><g><g><g><g><g transform="matrix(1,0,0,1,245.390625,49.790625)"><path transform="matrix(0.0119,0,0,-0.0119,0,0)" d="M150 718L141 726C97 709 64 701 -15 689L-15 661L41 661C59 661 66 650 66 620L66 153C66 91 65 64 58 -6L74 -12L114 24C177 -12 232 -28 280 -28C432 -28 508 128 508 262L508 270C495 414 404 485 315 485C248 485 182 446 150 369ZM284 404C368 404 421 336 421 229C421 117 361 39 276 39C224 39 150 71 150 93L150 308C150 343 206 404 284 404Z" stroke="rgb(0,0,0)" stroke-opacity="1" stroke-width="8" fill="rgb(0,0,0)" fill-opacity="1"></path></g></g></g></g></g></g></g><line style="fill:none;stroke-width:1px;stroke:rgb(0, 0, 0);" x1="131.0625" y1="29.140625" x2="252.984375" y2="29.140625"></line></g><g><g transform="matrix(1,0,0,1,258.0625,33.390625)"><path transform="matrix(0.017,0,0,-0.017,0,0)" d="M604 241L604 300L364 300L364 538L305 538L305 300L65 300L65 241L305 241L305 0L364 0L364 241Z" stroke="rgb(0,0,0)" stroke-opacity="1" stroke-width="8" fill="rgb(0,0,0)" fill-opacity="1"></path></g></g><g><g transform="matrix(1,0,0,1,272.8125,33.390625)"><path transform="matrix(0.017,0,0,-0.017,0,0)" d="M662 469L503 104C500 113 415 397 415 405C415 420 428 428 453 429L493 431L493 459C394 456 394 456 374 456C354 456 354 456 255 459L255 431L283 429C311 427 324 407 349 329L451 -7L498 -7L648 335L784 -7L830 -7L967 342C997 409 1009 426 1031 429L1057 431L1057 459C975 456 975 456 959 456C943 456 943 456 861 459L861 431L895 429C920 428 934 416 934 398L829 98L714 388C700 422 693 442 685 469Z" stroke="rgb(0,0,0)" stroke-opacity="1" stroke-width="8" fill="rgb(0,0,0)" fill-opacity="1"></path></g></g><g><g><g><g><g transform="matrix(1,0,0,1,291.71875,36.4)"><path transform="matrix(0.0119,0,0,-0.0119,0,0)" d="M324 82L319 -3C384 0 384 0 397 0C402 0 427 -1 471 -3L471 27L432 29C408 30 404 38 404 87L404 270C404 416 362 469 246 469C203 469 163 458 125 435L72 403L72 338L98 331L111 362C132 409 142 416 188 416C282 416 321 379 324 288L225 270C89 245 32 198 32 111C32 33 79 -12 158 -12C176 -12 193 -9 200 -4ZM324 124C295 83 232 45 193 45C153 45 118 82 118 125C118 162 138 197 168 216C193 231 248 245 324 256Z" stroke="rgb(0,0,0)" stroke-opacity="1" stroke-width="8" fill="rgb(0,0,0)" fill-opacity="1"></path></g></g></g></g></g><g><g transform="matrix(1,0,0,1,302.078125,33.390625)"><path transform="matrix(0.017,0,0,-0.017,0,0)" d="M124 329C94 329 67 301 67 271C67 241 94 213 123 213C155 213 183 240 183 270C183 301 155 329 124 329Z" stroke="rgb(0,0,0)" stroke-opacity="1" stroke-width="8" fill="rgb(0,0,0)" fill-opacity="1"></path></g></g><g><g><g><g><g transform="matrix(1,0,0,1,329.734375,19)"><path transform="matrix(0.017,0,0,-0.017,0,0)" d="M288 254L430 420C436 427 447 431 464 431L478 431L478 459L396 459L272 284L196 400C181 422 170 435 136 469L20 449L25 423L46 421C64 420 86 406 96 392L216 218L67 42C60 33 47 27 37 27L20 27L20 0L106 0L240 192L373 -3C425 0 425 0 434 0C444 0 444 0 496 -3L496 27L471 30C459 31 447 39 436 54Z" stroke="rgb(0,0,0)" stroke-opacity="1" stroke-width="8" fill="rgb(0,0,0)" fill-opacity="1"></path></g></g><g><g><g><g><g transform="matrix(1,0,0,1,339,22.009375)"><path transform="matrix(0.0119,0,0,-0.0119,0,0)" d="M324 82L319 -3C384 0 384 0 397 0C402 0 427 -1 471 -3L471 27L432 29C408 30 404 38 404 87L404 270C404 416 362 469 246 469C203 469 163 458 125 435L72 403L72 338L98 331L111 362C132 409 142 416 188 416C282 416 321 379 324 288L225 270C89 245 32 198 32 111C32 33 79 -12 158 -12C176 -12 193 -9 200 -4ZM324 124C295 83 232 45 193 45C153 45 118 82 118 125C118 162 138 197 168 216C193 231 248 245 324 256Z" stroke="rgb(0,0,0)" stroke-opacity="1" stroke-width="8" fill="rgb(0,0,0)" fill-opacity="1"></path></g></g></g></g></g><g><g transform="matrix(1,0,0,1,349.359375,19)"><path transform="matrix(0.017,0,0,-0.017,0,0)" d="M555 243L555 299L51 299L51 243Z" stroke="rgb(0,0,0)" stroke-opacity="1" stroke-width="8" fill="rgb(0,0,0)" fill-opacity="1"></path></g></g><g><g transform="matrix(1,0,0,1,363.046875,19)"><path transform="matrix(0.017,0,0,-0.017,0,0)" d="M23 661L79 661C97 661 104 650 104 620L104 102C104 39 101 32 67 30L21 27L21 -3C121 0 121 0 146 0C171 0 171 0 271 -3L271 27L225 30C191 32 188 39 188 102L188 718L179 726C135 709 102 701 23 689ZM569 469C423 469 322 366 322 217C322 76 411 -20 540 -20C694 -20 804 87 804 237C804 372 706 469 569 469ZM551 436C643 436 711 336 711 200C711 85 660 13 579 13C481 13 415 109 415 251C415 371 463 436 551 436ZM1248 469L1089 104C1086 113 1001 397 1001 405C1001 420 1014 428 1039 429L1079 431L1079 459C980 456 980 456 960 456C940 456 940 456 841 459L841 431L869 429C897 427 910 407 935 329L1037 -7L1084 -7L1234 335L1370 -7L1416 -7L1553 342C1583 409 1595 426 1617 429L1643 431L1643 459C1561 456 1561 456 1545 456C1529 456 1529 456 1447 459L1447 431L1481 429C1506 428 1520 416 1520 398L1415 98L1300 388C1286 422 1279 442 1271 469ZM1918 -20C1983 -20 2073 18 2085 36L2105 70L2092 80C2028 42 2005 33 1962 33C1897 33 1843 62 1815 111C1796 144 1789 172 1787 230C1808 227 1838 226 1872 226C1958 226 2067 234 2114 244C2115 258 2116 267 2116 279C2116 394 2042 469 1930 469C1893 469 1848 464 1808 440C1726 392 1694 323 1694 219C1694 25 1829 -20 1918 -20ZM2027 267C2003 264 1952 261 1901 261C1858 261 1815 264 1789 270C1789 317 1793 339 1806 365C1827 409 1870 436 1918 436C1951 436 1977 423 1995 396C2017 363 2024 334 2027 267ZM2169 400L2206 400C2246 400 2250 393 2250 327L2250 102C2250 39 2247 32 2213 30L2167 27L2167 -3C2239 -1 2265 0 2290 0C2310 0 2310 0 2433 -3L2433 27L2381 30C2336 33 2334 36 2334 102L2334 274C2334 334 2374 384 2423 384C2453 384 2474 370 2490 338L2511 338L2520 458C2509 465 2491 469 2473 469C2443 469 2411 453 2390 428L2334 362L2334 465L2325 469C2274 448 2222 434 2169 428Z" stroke="rgb(0,0,0)" stroke-opacity="1" stroke-width="8" fill="rgb(0,0,0)" fill-opacity="1"></path></g></g><g><g><g><g><g transform="matrix(1,0,0,1,406.734375,22.009375)"><path transform="matrix(0.0119,0,0,-0.0119,0,0)" d="M324 82L319 -3C384 0 384 0 397 0C402 0 427 -1 471 -3L471 27L432 29C408 30 404 38 404 87L404 270C404 416 362 469 246 469C203 469 163 458 125 435L72 403L72 338L98 331L111 362C132 409 142 416 188 416C282 416 321 379 324 288L225 270C89 245 32 198 32 111C32 33 79 -12 158 -12C176 -12 193 -9 200 -4ZM324 124C295 83 232 45 193 45C153 45 118 82 118 125C118 162 138 197 168 216C193 231 248 245 324 256Z" stroke="rgb(0,0,0)" stroke-opacity="1" stroke-width="8" fill="rgb(0,0,0)" fill-opacity="1"></path></g></g></g></g></g></g></g><g><g><g><g transform="matrix(1,0,0,1,311.390625,46.78125)"><path transform="matrix(0.017,0,0,-0.017,0,0)" d="M283 49C203 49 183 94 183 170L183 465L174 469C123 448 71 434 18 428L18 400L55 400C95 400 99 393 99 327L99 159C99 70 104 -12 240 -12C285 -12 325 2 352 27L419 89C419 60 418 44 415 -3C482 0 483 0 498 0C512 0 512 0 581 -3L581 27L540 30C506 32 503 38 503 102L503 465L494 469C443 448 391 434 338 428L338 400L375 400C415 400 419 393 419 327L419 164C419 126 370 49 283 49ZM612 400L649 400C689 400 693 393 693 327L693 -176C693 -239 690 -246 656 -248L610 -251L610 -281C710 -278 710 -278 735 -278C760 -278 760 -278 860 -281L860 -251L814 -248C780 -246 777 -239 777 -176L777 13C825 -10 869 -21 910 -21C1061 -21 1158 121 1158 242C1158 252 1157 261 1156 271C1154 401 1057 477 956 477C889 477 821 443 777 369L777 465L768 469C717 448 665 434 612 428ZM915 404C1009 404 1069 338 1069 234C1069 122 1002 39 912 39C857 39 816 57 777 98L777 306C777 337 824 404 915 404ZM1212 400L1249 400C1289 400 1293 393 1293 327L1293 -176C1293 -239 1290 -246 1256 -248L1210 -251L1210 -281C1310 -278 1310 -278 1335 -278C1360 -278 1360 -278 1460 -281L1460 -251L1414 -248C1380 -246 1377 -239 1377 -176L1377 13C1425 -10 1469 -21 1510 -21C1661 -21 1758 121 1758 242C1758 252 1757 261 1756 271C1754 401 1657 477 1556 477C1489 477 1421 443 1377 369L1377 465L1368 469C1317 448 1265 434 1212 428ZM1515 404C1609 404 1669 338 1669 234C1669 122 1602 39 1512 39C1457 39 1416 57 1377 98L1377 306C1377 337 1424 404 1515 404ZM2052 -20C2117 -20 2207 18 2219 36L2239 70L2226 80C2162 42 2139 33 2096 33C2031 33 1977 62 1949 111C1930 144 1923 172 1921 230C1942 227 1972 226 2006 226C2092 226 2201 234 2248 244C2249 258 2250 267 2250 279C2250 394 2176 469 2064 469C2027 469 1982 464 1942 440C1860 392 1828 323 1828 219C1828 25 1963 -20 2052 -20ZM2161 267C2137 264 2086 261 2035 261C1992 261 1949 264 1923 270C1923 317 1927 339 1940 365C1961 409 2004 436 2052 436C2085 436 2111 423 2129 396C2151 363 2158 334 2161 267ZM2303 400L2340 400C2380 400 2384 393 2384 327L2384 102C2384 39 2381 32 2347 30L2301 27L2301 -3C2373 -1 2399 0 2424 0C2444 0 2444 0 2567 -3L2567 27L2515 30C2470 33 2468 36 2468 102L2468 274C2468 334 2508 384 2557 384C2587 384 2608 370 2624 338L2645 338L2654 458C2643 465 2625 469 2607 469C2577 469 2545 453 2524 428L2468 362L2468 465L2459 469C2408 448 2356 434 2303 428Z" stroke="rgb(0,0,0)" stroke-opacity="1" stroke-width="8" fill="rgb(0,0,0)" fill-opacity="1"></path></g></g><g><g><g><g><g transform="matrix(1,0,0,1,357.359375,49.790625)"><path transform="matrix(0.0119,0,0,-0.0119,0,0)" d="M324 82L319 -3C384 0 384 0 397 0C402 0 427 -1 471 -3L471 27L432 29C408 30 404 38 404 87L404 270C404 416 362 469 246 469C203 469 163 458 125 435L72 403L72 338L98 331L111 362C132 409 142 416 188 416C282 416 321 379 324 288L225 270C89 245 32 198 32 111C32 33 79 -12 158 -12C176 -12 193 -9 200 -4ZM324 124C295 83 232 45 193 45C153 45 118 82 118 125C118 162 138 197 168 216C193 231 248 245 324 256Z" stroke="rgb(0,0,0)" stroke-opacity="1" stroke-width="8" fill="rgb(0,0,0)" fill-opacity="1"></path></g></g></g></g></g><g><g transform="matrix(1,0,0,1,367.71875,46.78125)"><path transform="matrix(0.017,0,0,-0.017,0,0)" d="M555 243L555 299L51 299L51 243Z" stroke="rgb(0,0,0)" stroke-opacity="1" stroke-width="8" fill="rgb(0,0,0)" fill-opacity="1"></path></g></g><g><g transform="matrix(1,0,0,1,381.40625,46.78125)"><path transform="matrix(0.017,0,0,-0.017,0,0)" d="M23 661L79 661C97 661 104 650 104 620L104 102C104 39 101 32 67 30L21 27L21 -3C121 0 121 0 146 0C171 0 171 0 271 -3L271 27L225 30C191 32 188 39 188 102L188 718L179 726C135 709 102 701 23 689ZM569 469C423 469 322 366 322 217C322 76 411 -20 540 -20C694 -20 804 87 804 237C804 372 706 469 569 469ZM551 436C643 436 711 336 711 200C711 85 660 13 579 13C481 13 415 109 415 251C415 371 463 436 551 436ZM1248 469L1089 104C1086 113 1001 397 1001 405C1001 420 1014 428 1039 429L1079 431L1079 459C980 456 980 456 960 456C940 456 940 456 841 459L841 431L869 429C897 427 910 407 935 329L1037 -7L1084 -7L1234 335L1370 -7L1416 -7L1553 342C1583 409 1595 426 1617 429L1643 431L1643 459C1561 456 1561 456 1545 456C1529 456 1529 456 1447 459L1447 431L1481 429C1506 428 1520 416 1520 398L1415 98L1300 388C1286 422 1279 442 1271 469ZM1918 -20C1983 -20 2073 18 2085 36L2105 70L2092 80C2028 42 2005 33 1962 33C1897 33 1843 62 1815 111C1796 144 1789 172 1787 230C1808 227 1838 226 1872 226C1958 226 2067 234 2114 244C2115 258 2116 267 2116 279C2116 394 2042 469 1930 469C1893 469 1848 464 1808 440C1726 392 1694 323 1694 219C1694 25 1829 -20 1918 -20ZM2027 267C2003 264 1952 261 1901 261C1858 261 1815 264 1789 270C1789 317 1793 339 1806 365C1827 409 1870 436 1918 436C1951 436 1977 423 1995 396C2017 363 2024 334 2027 267ZM2169 400L2206 400C2246 400 2250 393 2250 327L2250 102C2250 39 2247 32 2213 30L2167 27L2167 -3C2239 -1 2265 0 2290 0C2310 0 2310 0 2433 -3L2433 27L2381 30C2336 33 2334 36 2334 102L2334 274C2334 334 2374 384 2423 384C2453 384 2474 370 2490 338L2511 338L2520 458C2509 465 2491 469 2473 469C2443 469 2411 453 2390 428L2334 362L2334 465L2325 469C2274 448 2222 434 2169 428Z" stroke="rgb(0,0,0)" stroke-opacity="1" stroke-width="8" fill="rgb(0,0,0)" fill-opacity="1"></path></g></g><g><g><g><g><g transform="matrix(1,0,0,1,425.09375,49.790625)"><path transform="matrix(0.0119,0,0,-0.0119,0,0)" d="M324 82L319 -3C384 0 384 0 397 0C402 0 427 -1 471 -3L471 27L432 29C408 30 404 38 404 87L404 270C404 416 362 469 246 469C203 469 163 458 125 435L72 403L72 338L98 331L111 362C132 409 142 416 188 416C282 416 321 379 324 288L225 270C89 245 32 198 32 111C32 33 79 -12 158 -12C176 -12 193 -9 200 -4ZM324 124C295 83 232 45 193 45C153 45 118 82 118 125C118 162 138 197 168 216C193 231 248 245 324 256Z" stroke="rgb(0,0,0)" stroke-opacity="1" stroke-width="8" fill="rgb(0,0,0)" fill-opacity="1"></path></g></g></g></g></g></g></g><line style="fill:none;stroke-width:1px;stroke:rgb(0, 0, 0);" x1="311.390625" y1="29.140625" x2="432.0625" y2="29.140625"></line></g></g></g></svg>