<svg xmlns="http://www.w3.org/2000/svg" xmlns:xlink="http://www.w3.org/1999/xlink" width="292.234375" height="54.171875" style="width:292.234375px;height:54.171875px;font-family:Asana-Math, Asana;background:#FFF;"><g><g><g><g transform="matrix(1,0,0,1,2,33.390625)"><path transform="matrix(0.017,0,0,-0.017,0,0)" d="M662 469L503 104C500 113 415 397 415 405C415 420 428 428 453 429L493 431L493 459C394 456 394 456 374 456C354 456 354 456 255 459L255 431L283 429C311 427 324 407 349 329L451 -7L498 -7L648 335L784 -7L830 -7L967 342C997 409 1009 426 1031 429L1057 431L1057 459C975 456 975 456 959 456C943 456 943 456 861 459L861 431L895 429C920 428 934 416 934 398L829 98L714 388C700 422 693 442 685 469Z" stroke="rgb(0,0,0)" stroke-opacity="1" stroke-width="8" fill="rgb(0,0,0)" fill-opacity="1"></path></g></g><g><g><g><g><g transform="matrix(1,0,0,1,20.90625,36.4)"><path transform="matrix(0.0119,0,0,-0.0119,0,0)" d="M150 718L141 726C97 709 64 701 -15 689L-15 661L41 661C59 661 66 650 66 620L66 153C66 91 65 64 58 -6L74 -12L114 24C177 -12 232 -28 280 -28C432 -28 508 128 508 262L508 270C495 414 404 485 315 485C248 485 182 446 150 369ZM284 404C368 404 421 336 421 229C421 117 361 39 276 39C224 39 150 71 150 93L150 308C150 343 206 404 284 404Z" stroke="rgb(0,0,0)" stroke-opacity="1" stroke-width="8" fill="rgb(0,0,0)" fill-opacity="1"></path></g></g></g></g></g><g><g transform="matrix(1,0,0,1,33.59375,33.390625)"><path transform="matrix(0.017,0,0,-0.017,0,0)" d="M826 347L826 406L287 406L287 347ZM826 134L826 193L287 193L287 134ZM202 458C202 491 175 518 143 518C112 518 85 492 85 458C85 418 121 401 143 401C165 401 202 419 202 458ZM202 80C202 113 175 140 143 140C112 140 85 114 85 80C85 40 121 23 143 23C165 23 202 41 202 80Z" stroke="rgb(0,0,0)" stroke-opacity="1" stroke-width="8" fill="rgb(0,0,0)" fill-opacity="1"></path></g></g><g><g transform="matrix(1,0,0,1,53.828125,33.390625)"><path transform="matrix(0.017,0,0,-0.017,0,0)" d="" stroke="rgb(0,0,0)" stroke-opacity="1" stroke-width="8" fill="rgb(0,0,0)" fill-opacity="1"></path></g></g><g><g><g><g><g transform="matrix(1,0,0,1,79.078125,19)"><path transform="matrix(0.017,0,0,-0.017,0,0)" d="M413 469L254 104C251 113 166 397 166 405C166 420 179 428 204 429L244 431L244 459C145 456 145 456 125 456C105 456 105 456 6 459L6 431L34 429C62 427 75 407 100 329L202 -7L249 -7L399 335L535 -7L581 -7L718 342C748 409 760 426 782 429L808 431L808 459C726 456 726 456 710 456C694 456 694 456 612 459L612 431L646 429C671 428 685 416 685 398L580 98L465 388C451 422 444 442 436 469ZM937 470C994 543 1032 610 1066 696L1053 709C1017 697 1007 694 956 679C950 599 926 533 878 456L893 446Z" stroke="rgb(0,0,0)" stroke-opacity="1" stroke-width="8" fill="rgb(0,0,0)" fill-opacity="1"></path></g></g><g><g><g><g><g transform="matrix(1,0,0,1,93.703125,22.009375)"><path transform="matrix(0.0119,0,0,-0.0119,0,0)" d="M150 718L141 726C97 709 64 701 -15 689L-15 661L41 661C59 661 66 650 66 620L66 153C66 91 65 64 58 -6L74 -12L114 24C177 -12 232 -28 280 -28C432 -28 508 128 508 262L508 270C495 414 404 485 315 485C248 485 182 446 150 369ZM284 404C368 404 421 336 421 229C421 117 361 39 276 39C224 39 150 71 150 93L150 308C150 343 206 404 284 404Z" stroke="rgb(0,0,0)" stroke-opacity="1" stroke-width="8" fill="rgb(0,0,0)" fill-opacity="1"></path></g></g></g></g></g></g></g><g><g><g><g transform="matrix(1,0,0,1,59.75,46.78125)"><path transform="matrix(0.017,0,0,-0.017,0,0)" d="M413 469L254 104C251 113 166 397 166 405C166 420 179 428 204 429L244 431L244 459C145 456 145 456 125 456C105 456 105 456 6 459L6 431L34 429C62 427 75 407 100 329L202 -7L249 -7L399 335L535 -7L581 -7L718 342C748 409 760 426 782 429L808 431L808 459C726 456 726 456 710 456C694 456 694 456 612 459L612 431L646 429C671 428 685 416 685 398L580 98L465 388C451 422 444 442 436 469ZM937 470C994 543 1032 610 1066 696L1053 709C1017 697 1007 694 956 679C950 599 926 533 878 456L893 446Z" stroke="rgb(0,0,0)" stroke-opacity="1" stroke-width="8" fill="rgb(0,0,0)" fill-opacity="1"></path></g></g><g><g><g><g><g transform="matrix(1,0,0,1,74.375,49.790625)"><path transform="matrix(0.0119,0,0,-0.0119,0,0)" d="M150 718L141 726C97 709 64 701 -15 689L-15 661L41 661C59 661 66 650 66 620L66 153C66 91 65 64 58 -6L74 -12L114 24C177 -12 232 -28 280 -28C432 -28 508 128 508 262L508 270C495 414 404 485 315 485C248 485 182 446 150 369ZM284 404C368 404 421 336 421 229C421 117 361 39 276 39C224 39 150 71 150 93L150 308C150 343 206 404 284 404Z" stroke="rgb(0,0,0)" stroke-opacity="1" stroke-width="8" fill="rgb(0,0,0)" fill-opacity="1"></path></g></g></g></g></g><g><g transform="matrix(1,0,0,1,85.359375,46.78125)"><path transform="matrix(0.017,0,0,-0.017,0,0)" d="M555 243L555 299L51 299L51 243Z" stroke="rgb(0,0,0)" stroke-opacity="1" stroke-width="8" fill="rgb(0,0,0)" fill-opacity="1"></path></g></g><g><g transform="matrix(1,0,0,1,99.046875,46.78125)"><path transform="matrix(0.017,0,0,-0.017,0,0)" d="M413 469L254 104C251 113 166 397 166 405C166 420 179 428 204 429L244 431L244 459C145 456 145 456 125 456C105 456 105 456 6 459L6 431L34 429C62 427 75 407 100 329L202 -7L249 -7L399 335L535 -7L581 -7L718 342C748 409 760 426 782 429L808 431L808 459C726 456 726 456 710 456C694 456 694 456 612 459L612 431L646 429C671 428 685 416 685 398L580 98L465 388C451 422 444 442 436 469ZM937 470C994 543 1032 610 1066 696L1053 709C1017 697 1007 694 956 679C950 599 926 533 878 456L893 446Z" stroke="rgb(0,0,0)" stroke-opacity="1" stroke-width="8" fill="rgb(0,0,0)" fill-opacity="1"></path></g></g><g><g><g><g><g transform="matrix(1,0,0,1,113.671875,49.790625)"><path transform="matrix(0.0119,0,0,-0.0119,0,0)" d="M324 82L319 -3C384 0 384 0 397 0C402 0 427 -1 471 -3L471 27L432 29C408 30 404 38 404 87L404 270C404 416 362 469 246 469C203 469 163 458 125 435L72 403L72 338L98 331L111 362C132 409 142 416 188 416C282 416 321 379 324 288L225 270C89 245 32 198 32 111C32 33 79 -12 158 -12C176 -12 193 -9 200 -4ZM324 124C295 83 232 45 193 45C153 45 118 82 118 125C118 162 138 197 168 216C193 231 248 245 324 256Z" stroke="rgb(0,0,0)" stroke-opacity="1" stroke-width="8" fill="rgb(0,0,0)" fill-opacity="1"></path></g></g></g></g></g></g></g><line style="fill:none;stroke-width:1px;stroke:rgb(0, 0, 0);" x1="59.75" y1="29.140625" x2="120.640625" y2="29.140625"></line></g><g><g transform="matrix(1,0,0,1,122.328125,33.390625)"><path transform="matrix(0.017,0,0,-0.017,0,0)" d="M1071 82L1066 -3C1131 0 1131 0 1144 0C1149 0 1174 -1 1218 -3L1218 27L1179 29C1155 30 1151 38 1151 87L1151 270C1151 416 1109 469 993 469C950 469 910 458 872 435L819 403L819 338L845 331L858 362C879 409 889 416 935 416C1029 416 1068 379 1071 288L972 270C836 245 779 198 779 111C779 33 826 -12 905 -12C923 -12 940 -9 947 -4ZM1071 124C1042 83 979 45 940 45C900 45 865 82 865 125C865 162 885 197 915 216C940 231 995 245 1071 256ZM1656 -3C1717 0 1718 0 1735 0C1749 0 1749 0 1818 -3L1818 27L1777 30C1743 32 1740 38 1740 102L1740 295C1740 412 1685 469 1573 469C1536 469 1515 462 1494 444L1418 378L1418 465L1409 469C1358 448 1306 434 1253 428L1253 400L1290 400C1330 400 1334 393 1334 327L1334 102C1334 39 1331 32 1297 30L1252 27L1252 -3C1320 -1 1347 0 1376 0C1405 0 1432 -1 1500 -3L1500 27L1455 30C1421 32 1418 39 1418 102L1418 314C1418 359 1484 408 1545 408C1612 408 1656 358 1656 281ZM2406 -3L2406 27L2360 30C2326 32 2323 39 2323 102L2323 718L2314 726C2270 709 2237 701 2158 689L2158 661L2214 661C2232 661 2239 650 2239 620L2239 437C2211 472 2173 486 2133 486C2010 486 1861 351 1861 229C1861 149 1889 70 1938 30C1972 1 2019 -12 2084 -12C2104 -12 2127 -8 2132 -4L2243 89L2238 -3C2287 -1 2303 0 2315 0C2333 0 2397 -3 2406 -3ZM2239 350L2239 221C2239 156 2237 146 2224 123C2196 76 2147 45 2100 45C2012 45 1949 130 1949 249C1949 358 2003 422 2093 422C2172 422 2239 366 2239 350ZM3597 469L3438 104C3435 113 3350 397 3350 405C3350 420 3363 428 3388 429L3428 431L3428 459C3329 456 3329 456 3309 456C3289 456 3289 456 3190 459L3190 431L3218 429C3246 427 3259 407 3284 329L3386 -7L3433 -7L3583 335L3719 -7L3765 -7L3902 342C3932 409 3944 426 3966 429L3992 431L3992 459C3910 456 3910 456 3894 456C3878 456 3878 456 3796 459L3796 431L3830 429C3855 428 3869 416 3869 398L3764 98L3649 388C3635 422 3628 442 3620 469Z" stroke="rgb(0,0,0)" stroke-opacity="1" stroke-width="8" fill="rgb(0,0,0)" fill-opacity="1"></path></g></g><g><g><g><g><g transform="matrix(1,0,0,1,191.125,36.4)"><path transform="matrix(0.0119,0,0,-0.0119,0,0)" d="M324 82L319 -3C384 0 384 0 397 0C402 0 427 -1 471 -3L471 27L432 29C408 30 404 38 404 87L404 270C404 416 362 469 246 469C203 469 163 458 125 435L72 403L72 338L98 331L111 362C132 409 142 416 188 416C282 416 321 379 324 288L225 270C89 245 32 198 32 111C32 33 79 -12 158 -12C176 -12 193 -9 200 -4ZM324 124C295 83 232 45 193 45C153 45 118 82 118 125C118 162 138 197 168 216C193 231 248 245 324 256Z" stroke="rgb(0,0,0)" stroke-opacity="1" stroke-width="8" fill="rgb(0,0,0)" fill-opacity="1"></path></g></g></g></g></g><g><g transform="matrix(1,0,0,1,203.1875,33.390625)"><path transform="matrix(0.017,0,0,-0.017,0,0)" d="M826 347L826 406L287 406L287 347ZM826 134L826 193L287 193L287 134ZM202 458C202 491 175 518 143 518C112 518 85 492 85 458C85 418 121 401 143 401C165 401 202 419 202 458ZM202 80C202 113 175 140 143 140C112 140 85 114 85 80C85 40 121 23 143 23C165 23 202 41 202 80Z" stroke="rgb(0,0,0)" stroke-opacity="1" stroke-width="8" fill="rgb(0,0,0)" fill-opacity="1"></path></g></g><g><g transform="matrix(1,0,0,1,223.421875,33.390625)"><path transform="matrix(0.017,0,0,-0.017,0,0)" d="" stroke="rgb(0,0,0)" stroke-opacity="1" stroke-width="8" fill="rgb(0,0,0)" fill-opacity="1"></path></g></g><g><g><g><g><g transform="matrix(1,0,0,1,248.984375,19)"><path transform="matrix(0.017,0,0,-0.017,0,0)" d="M413 469L254 104C251 113 166 397 166 405C166 420 179 428 204 429L244 431L244 459C145 456 145 456 125 456C105 456 105 456 6 459L6 431L34 429C62 427 75 407 100 329L202 -7L249 -7L399 335L535 -7L581 -7L718 342C748 409 760 426 782 429L808 431L808 459C726 456 726 456 710 456C694 456 694 456 612 459L612 431L646 429C671 428 685 416 685 398L580 98L465 388C451 422 444 442 436 469ZM937 470C994 543 1032 610 1066 696L1053 709C1017 697 1007 694 956 679C950 599 926 533 878 456L893 446Z" stroke="rgb(0,0,0)" stroke-opacity="1" stroke-width="8" fill="rgb(0,0,0)" fill-opacity="1"></path></g></g><g><g><g><g><g transform="matrix(1,0,0,1,263.609375,22.009375)"><path transform="matrix(0.0119,0,0,-0.0119,0,0)" d="M324 82L319 -3C384 0 384 0 397 0C402 0 427 -1 471 -3L471 27L432 29C408 30 404 38 404 87L404 270C404 416 362 469 246 469C203 469 163 458 125 435L72 403L72 338L98 331L111 362C132 409 142 416 188 416C282 416 321 379 324 288L225 270C89 245 32 198 32 111C32 33 79 -12 158 -12C176 -12 193 -9 200 -4ZM324 124C295 83 232 45 193 45C153 45 118 82 118 125C118 162 138 197 168 216C193 231 248 245 324 256Z" stroke="rgb(0,0,0)" stroke-opacity="1" stroke-width="8" fill="rgb(0,0,0)" fill-opacity="1"></path></g></g></g></g></g></g></g><g><g><g><g transform="matrix(1,0,0,1,229.34375,46.78125)"><path transform="matrix(0.017,0,0,-0.017,0,0)" d="M413 469L254 104C251 113 166 397 166 405C166 420 179 428 204 429L244 431L244 459C145 456 145 456 125 456C105 456 105 456 6 459L6 431L34 429C62 427 75 407 100 329L202 -7L249 -7L399 335L535 -7L581 -7L718 342C748 409 760 426 782 429L808 431L808 459C726 456 726 456 710 456C694 456 694 456 612 459L612 431L646 429C671 428 685 416 685 398L580 98L465 388C451 422 444 442 436 469ZM937 470C994 543 1032 610 1066 696L1053 709C1017 697 1007 694 956 679C950 599 926 533 878 456L893 446Z" stroke="rgb(0,0,0)" stroke-opacity="1" stroke-width="8" fill="rgb(0,0,0)" fill-opacity="1"></path></g></g><g><g><g><g><g transform="matrix(1,0,0,1,243.96875,49.790625)"><path transform="matrix(0.0119,0,0,-0.0119,0,0)" d="M324 82L319 -3C384 0 384 0 397 0C402 0 427 -1 471 -3L471 27L432 29C408 30 404 38 404 87L404 270C404 416 362 469 246 469C203 469 163 458 125 435L72 403L72 338L98 331L111 362C132 409 142 416 188 416C282 416 321 379 324 288L225 270C89 245 32 198 32 111C32 33 79 -12 158 -12C176 -12 193 -9 200 -4ZM324 124C295 83 232 45 193 45C153 45 118 82 118 125C118 162 138 197 168 216C193 231 248 245 324 256Z" stroke="rgb(0,0,0)" stroke-opacity="1" stroke-width="8" fill="rgb(0,0,0)" fill-opacity="1"></path></g></g></g></g></g><g><g transform="matrix(1,0,0,1,254.328125,46.78125)"><path transform="matrix(0.017,0,0,-0.017,0,0)" d="M555 243L555 299L51 299L51 243Z" stroke="rgb(0,0,0)" stroke-opacity="1" stroke-width="8" fill="rgb(0,0,0)" fill-opacity="1"></path></g></g><g><g transform="matrix(1,0,0,1,268.015625,46.78125)"><path transform="matrix(0.017,0,0,-0.017,0,0)" d="M413 469L254 104C251 113 166 397 166 405C166 420 179 428 204 429L244 431L244 459C145 456 145 456 125 456C105 456 105 456 6 459L6 431L34 429C62 427 75 407 100 329L202 -7L249 -7L399 335L535 -7L581 -7L718 342C748 409 760 426 782 429L808 431L808 459C726 456 726 456 710 456C694 456 694 456 612 459L612 431L646 429C671 428 685 416 685 398L580 98L465 388C451 422 444 442 436 469ZM937 470C994 543 1032 610 1066 696L1053 709C1017 697 1007 694 956 679C950 599 926 533 878 456L893 446Z" stroke="rgb(0,0,0)" stroke-opacity="1" stroke-width="8" fill="rgb(0,0,0)" fill-opacity="1"></path></g></g><g><g><g><g><g transform="matrix(1,0,0,1,282.640625,49.790625)"><path transform="matrix(0.0119,0,0,-0.0119,0,0)" d="M150 718L141 726C97 709 64 701 -15 689L-15 661L41 661C59 661 66 650 66 620L66 153C66 91 65 64 58 -6L74 -12L114 24C177 -12 232 -28 280 -28C432 -28 508 128 508 262L508 270C495 414 404 485 315 485C248 485 182 446 150 369ZM284 404C368 404 421 336 421 229C421 117 361 39 276 39C224 39 150 71 150 93L150 308C150 343 206 404 284 404Z" stroke="rgb(0,0,0)" stroke-opacity="1" stroke-width="8" fill="rgb(0,0,0)" fill-opacity="1"></path></g></g></g></g></g></g></g><line style="fill:none;stroke-width:1px;stroke:rgb(0, 0, 0);" x1="229.34375" y1="29.140625" x2="290.234375" y2="29.140625"></line></g></g></g></svg>