<svg id="import_contacts" xmlns="http://www.w3.org/2000/svg" width="47.75" height="47.75" viewBox="0 0 47.75 47.75">
  <g id="Group_481" data-name="Group 481">
    <rect id="Rectangle_87" data-name="Rectangle 87" width="47.75" height="47.75" fill="none"/>
  </g>
  <g id="Group_484" data-name="Group 484" transform="translate(1.99 8.953)">
    <g id="Group_483" data-name="Group 483">
      <g id="Group_482" data-name="Group 482">
        <path id="Path_171" data-name="Path 171" d="M33.828,4.5c-3.88,0-8.058.8-10.943,2.984C20,5.3,15.822,4.5,11.943,4.5S3.885,5.3,1,7.484V36.632c0,1.293,1.452.9,1.492.9a24.284,24.284,0,0,1,9.451-2.189c3.88,0,8.058.8,10.943,2.984a23.965,23.965,0,0,1,10.943-2.984,20.251,20.251,0,0,1,9.451,2.089,1.051,1.051,0,0,0,1.492-.9V7.484C41.806,5.256,37.549,4.5,33.828,4.5Zm6.964,27.854a23.12,23.12,0,0,0-6.964-.995,23.965,23.965,0,0,0-10.943,2.984V11.464A23.965,23.965,0,0,1,33.828,8.479a23.12,23.12,0,0,1,6.964.995Z" transform="translate(-1 -4.5)" fill="#fff"/>
      </g>
    </g>
  </g>
</svg>
