<svg id="import_contacts" xmlns="http://www.w3.org/2000/svg" width="62.54" height="62.54" viewBox="0 0 62.54 62.54">
  <g id="Group_481" data-name="Group 481">
    <rect id="Rectangle_87" data-name="Rectangle 87" width="62.54" height="62.54" fill="none"/>
  </g>
  <g id="Group_484" data-name="Group 484" transform="translate(2.606 11.726)">
    <g id="Group_483" data-name="Group 483">
      <g id="Group_482" data-name="Group 482">
        <path id="Path_171" data-name="Path 171" d="M44,4.5c-5.081,0-10.554,1.042-14.332,3.909C25.886,5.542,20.414,4.5,15.332,4.5S4.778,5.542,1,8.409V46.584c0,1.694,1.9,1.173,1.954,1.173a31.806,31.806,0,0,1,12.378-2.866c5.081,0,10.554,1.042,14.332,3.909A31.388,31.388,0,0,1,44,44.891a26.523,26.523,0,0,1,12.378,2.736,1.377,1.377,0,0,0,1.954-1.173V8.409C54.446,5.49,48.869,4.5,44,4.5Zm9.12,36.482a30.281,30.281,0,0,0-9.12-1.3,31.388,31.388,0,0,0-14.332,3.909V13.62A31.388,31.388,0,0,1,44,9.712a30.281,30.281,0,0,1,9.12,1.3Z" transform="translate(-1 -4.5)" fill="#87deff"/>
      </g>
    </g>
  </g>
</svg>
