<svg id="settings" xmlns="http://www.w3.org/2000/svg" width="18.811" height="18.811" viewBox="0 0 18.811 18.811">
  <path id="Path_161" data-name="Path 161" d="M0,0H18.811V18.811H0Z" fill="none"/>
  <path id="Path_162" data-name="Path 162" d="M15.577,10.661a5.545,5.545,0,0,0,.047-.737,4.528,4.528,0,0,0-.055-.737l1.591-1.238a.385.385,0,0,0,.094-.478l-1.5-2.6a.383.383,0,0,0-.462-.172l-1.873.752a5.537,5.537,0,0,0-1.27-.737l-.282-1.991a.379.379,0,0,0-.376-.321H8.476a.371.371,0,0,0-.368.321L7.826,4.712a5.659,5.659,0,0,0-1.27.737L4.683,4.7a.374.374,0,0,0-.462.172l-1.5,2.6a.356.356,0,0,0,.094.478L4.408,9.188a4.361,4.361,0,0,0-.016,1.474L2.8,11.9a.385.385,0,0,0-.094.478l1.5,2.6a.383.383,0,0,0,.462.172L6.548,14.4a5.537,5.537,0,0,0,1.27.737L8.1,17.128a.385.385,0,0,0,.376.321h3.01a.366.366,0,0,0,.368-.321l.282-1.991a5.376,5.376,0,0,0,1.27-.737l1.873.752a.374.374,0,0,0,.462-.172l1.5-2.6a.363.363,0,0,0-.094-.478Zm-5.6,2.085A2.822,2.822,0,1,1,12.8,9.924,2.83,2.83,0,0,1,9.981,12.746Z" transform="translate(-0.576 -0.519)" fill="#0b2338"/>
</svg>
