<svg xmlns="http://www.w3.org/2000/svg" width="63" height="63" viewBox="0 0 63 63">
  <g id="help_center" transform="translate(0.337 0.025)">
    <rect id="Rectangle_143" data-name="Rectangle 143" width="63" height="63" transform="translate(-0.337 -0.025)" fill="none"/>
    <path id="Path_191" data-name="Path 191" d="M44.689,3H8.211A5.226,5.226,0,0,0,3,8.211V44.689A5.226,5.226,0,0,0,8.211,49.9H44.689A5.226,5.226,0,0,0,49.9,44.689V8.211A5.226,5.226,0,0,0,44.689,3ZM26.476,42.083A3.269,3.269,0,0,1,23.193,38.8a3.231,3.231,0,0,1,3.283-3.257A3.194,3.194,0,0,1,29.733,38.8,3.264,3.264,0,0,1,26.476,42.083ZM34.319,22.8c-1.98,2.892-3.856,3.8-4.872,5.654-.417.756-.573,1.251-.573,3.674H24.131c0-1.277-.208-3.361.808-5.159,1.277-2.267,3.7-3.622,5.107-5.628,1.485-2.11.651-6.071-3.57-6.071-2.762,0-4.117,2.084-4.69,3.856l-4.3-1.824a9.281,9.281,0,0,1,8.937-6.488c3.856,0,6.488,1.746,7.843,3.96C35.413,16.653,36.09,20.171,34.319,22.8Z" transform="translate(4.286 4.286)" fill="#87deff"/>
  </g>
</svg>
