<svg xmlns="http://www.w3.org/2000/svg" width="301.382" height="332.179" viewBox="0 0 301.382 332.179">
  <g id="Group_1961" data-name="Group 1961" transform="translate(-1393.202 -7007.002)">
    <path id="Subtraction_11" data-name="Subtraction 11" d="M91.958,201.535H0V0H91.958V201.534Zm-46.642-36.7v19.943H50.2V159.836H45.724l-6.993,4.995,2.256,3.219,4.327-3.218Z" transform="translate(1497.913 7007.004)" fill="#fff"/>
    <g id="Group_1918" data-name="Group 1918" transform="translate(1393.202 7227.732)">
      <path id="Path_773" data-name="Path 773" d="M28.985-81.805H.7v7.022h9.342v37.56h9.084v-37.56h8.891Zm16.364-1.031c-10.5,0-16.622,7.731-16.622,23.322,0,15.913,6.12,23.322,16.622,23.322s16.622-7.667,16.622-23.322C61.971-75.427,55.786-82.836,45.349-82.836Zm0,6.829c4.767,0,7.151,4.188,7.151,16.493,0,12.5-2.319,16.493-7.151,16.493-4.7,0-7.151-3.994-7.151-16.493C38.2-71.819,40.581-76.007,45.349-76.007Zm32.857-5.8H67.447v44.582H76.6v-15.4h2.448c9.922,0,15.978-4.767,15.978-14.882C95.021-76.909,89.158-81.805,78.206-81.805ZM78.4-59.256H76.6V-75.234h1.933c5.09,0,7.151,2.448,7.151,7.8C85.679-61.382,83.489-59.256,78.4-59.256Z" transform="translate(-0.702 82.836)" fill="#87deff"/>
      <path id="Path_772" data-name="Path 772" d="M131.615-37.223h9.213L129.875-81.805H118.923L107.906-37.223h9.02l2-10.179h10.759Zm-11.4-16.815,4.059-21,4.123,21Zm44.776-27.767H137.671v7.022h9.342v37.56H156.1v-37.56h8.891Zm29.571,0H166.276v7.022h9.342v37.56H184.7v-37.56h8.891Zm14.3-1.031c-7.8,0-11.532,4.9-11.532,10.566,0,4.188,1.353,6.894,5.347,11.081-5.025,3.8-7.409,7.216-7.409,12.627,0,7.28,5.283,12.37,12.95,12.37A15.42,15.42,0,0,0,220.071-41.6l4.445,5.412,7.151-3.866-6.507-6.829a52.091,52.091,0,0,0,4.832-12.305l-6.958-1.739a59.754,59.754,0,0,1-2.448,9.535l-7.409-9.084c4.381-3.286,7.216-6.7,7.216-11.983C220.393-78.519,216.141-82.836,208.861-82.836Zm.064,5.8c2,0,3.221,1.289,3.221,4.767,0,3.286-1.16,5.025-3.543,7.538-2.19-2.9-2.964-4.574-2.964-7.6C205.64-75.556,206.864-77.038,208.925-77.038Zm-1.546,20.681,8.5,10.5c-1.739,2.126-3.672,3.286-6.12,3.286-3.221,0-5.412-2.126-5.412-6.378A9.407,9.407,0,0,1,207.379-56.357Zm43.874-26.479c-9.535,0-16.686,7.473-16.686,23.258,0,15.978,6.894,23.386,16.686,23.386a16.062,16.062,0,0,0,11.854-5.476l-4.252-4.961c-2.062,1.739-3.994,3.286-6.958,3.286-4.7,0-7.86-4.188-7.86-16.235,0-12.434,3.221-16.364,7.8-16.364,2.513,0,4.51,1.1,6.571,2.964l4.317-5.09A15.838,15.838,0,0,0,251.253-82.836Zm24.739,1.031h-9.148v44.582h9.148Zm21.132,0H288.04L276.25-61,288.1-37.223h9.986L285.463-61.7ZM28.985-24.538H.7v7.022h9.342v37.56h9.084v-37.56h8.891Zm26.221,0H32.335V20.044H55.077v-6.7H41.483V.652H52.629V-5.919H41.483V-17.9H54.24Zm19.521-1.031c-9.535,0-16.686,7.473-16.686,23.258,0,15.978,6.894,23.386,16.686,23.386A16.062,16.062,0,0,0,86.581,15.6l-4.252-4.961c-2.062,1.739-3.994,3.286-6.958,3.286-4.7,0-7.86-4.188-7.86-16.235,0-12.434,3.221-16.364,7.8-16.364,2.513,0,4.51,1.1,6.571,2.964l4.317-5.09A15.838,15.838,0,0,0,74.727-25.569ZM109.9,20.044h9.148V-24.538H109.9V-6.757H99.466V-24.538H90.318V20.044h9.148V.395H109.9Zm44.518-44.582h-7.989v20.1a97.239,97.239,0,0,0,1.288,15.913l-10.5-36.014H125.881V20.044h7.989V2.2a149.648,149.648,0,0,0-1.224-18.1l10.437,35.949h11.339Zm15.978,0H161.25V20.044H170.4Zm29.7,41.812c4.832-3.028,9.02-8.053,9.02-19.521,0-15.655-6.185-23.322-16.622-23.322-10.5,0-16.622,7.924-16.622,23.322,0,15.462,6.249,23.064,16.042,23.064,6.829,0,10.759,3.221,14.045,7.8l5.605-6.894A15.731,15.731,0,0,0,200.1,17.274ZM185.345-2.247c0-12.434,2.384-16.493,7.151-16.493s7.151,4.059,7.151,16.493-2.319,16.493-7.151,16.493C187.794,14.246,185.345,10.187,185.345-2.247Zm57.6-22.291h-9.084v31.5c0,4.7-1.546,7.151-5.347,7.151-3.866,0-5.412-2.384-5.412-7.151v-31.5H213.95V7.353c0,7.86,4.767,13.658,14.56,13.658,9.664,0,14.431-6.056,14.431-13.658Zm29.12,0H249.191V20.044h22.742v-6.7H258.34V.652h11.146V-5.919H258.34V-17.9H271.1Zm16.3-1.031c-7.8,0-13.529,5.154-13.529,12.563,0,6.314,3.157,10.05,11.21,13.4,5.09,2.062,6.571,3.994,6.571,7.473,0,3.737-2,6.314-5.863,6.314-3.479,0-6.249-1.675-9.02-4.188l-4.445,4.9a18.052,18.052,0,0,0,14.045,6.185c9.148,0,14.753-6.056,14.753-13.851,0-7.86-3.994-11.081-10.823-13.98-5.669-2.319-7.087-3.994-7.087-6.894a4.719,4.719,0,0,1,5.025-5.09c2.77,0,5.218,1.16,7.731,3.543l4.123-4.767A16.1,16.1,0,0,0,288.362-25.569Z" transform="translate(-0.702 82.836)" fill="#fff"/>
    </g>
    <path id="Subtraction_10" data-name="Subtraction 10" d="M91.957,136.013H0V0H91.957v136.01ZM44.431,97.754a2.339,2.339,0,0,1,1.892.805,3.689,3.689,0,0,1,.7,2.414c0,3.45-1.425,5.908-8.473,14.615v3.663h13.5l.555-3.922H43.914a59.861,59.861,0,0,0,6.567-8.672,11.32,11.32,0,0,0,1.684-5.98,6.836,6.836,0,0,0-1.841-4.837,7.247,7.247,0,0,0-5.337-2.007,8.263,8.263,0,0,0-7.141,4.144l2.922,2.22C42.085,98.541,42.969,97.754,44.431,97.754Z" transform="translate(1393.642 7072.526)" fill="#fff"/>
    <path id="Subtraction_12" data-name="Subtraction 12" d="M91.958,71.586H0V0H91.958V71.585Zm-51.3-21.593L37.8,52.5a8.916,8.916,0,0,0,7.372,3.762,8.059,8.059,0,0,0,6.033-2.385,7.952,7.952,0,0,0,2.1-5.519,6.21,6.21,0,0,0-1.52-4.446,6.63,6.63,0,0,0-4.028-1.824c3.273-.892,4.865-2.856,4.865-6a6.326,6.326,0,0,0-1.9-4.593,7.338,7.338,0,0,0-5.239-1.943,9.22,9.22,0,0,0-3.885.84,11.31,11.31,0,0,0-3.373,2.465l2.585,2.622a5.386,5.386,0,0,1,3.952-2.09c1.883,0,2.964,1.205,2.964,3.307,0,2.379-1.278,3.8-3.42,3.8H43.276l-.608,3.572h1.6a3.807,3.807,0,0,1,2.8.907,4.247,4.247,0,0,1,1,3.158,4.782,4.782,0,0,1-.921,3.1A2.95,2.95,0,0,1,44.8,52.274c-1.5,0-2.582-.6-4.142-2.281h0Z" transform="translate(1602.187 7136.953)" fill="#fff"/>
  </g>
</svg>
