<svg xmlns="http://www.w3.org/2000/svg" width="713" height="146.44" viewBox="0 0 713 146.44">
  <g id="Group_1963" data-name="Group 1963" transform="translate(-1689.002 -7190.003)">
    <path id="Subtraction_11" data-name="Subtraction 11" d="M71.07,134.694H0V0H71.07V134.693ZM33.816,109.242V121.1h2.9V106.272H34.058l-4.158,2.97,1.342,1.914,2.572-1.913Z" transform="translate(1769.589 7190.003)" fill="#fff"/>
    <g id="Group_1918" data-name="Group 1918" transform="translate(1949.034 7190.003)">
      <path id="Path_773" data-name="Path 773" d="M43.21-81.287H.7v10.554h14.04v56.452H28.4V-70.732H41.758ZM67.8-82.836c-15.783,0-24.982,11.62-24.982,35.052,0,23.917,9.2,35.052,24.982,35.052S92.787-24.254,92.787-47.784C92.787-71.7,83.491-82.836,67.8-82.836Zm0,10.264c7.165,0,10.748,6.294,10.748,24.788C78.553-29,75.067-23,67.8-23c-7.069,0-10.748-6-10.748-24.788C57.057-66.278,60.639-72.572,67.8-72.572Zm49.383-8.715H101.017v67.006h13.75V-37.423h3.68c14.912,0,24.014-7.165,24.014-22.368C142.46-73.928,133.649-81.287,117.188-81.287Zm.29,33.89h-2.711V-71.41h2.9c7.65,0,10.748,3.68,10.748,11.716C128.42-50.592,125.128-47.4,117.478-47.4Z" transform="translate(-0.702 82.836)" fill="#87deff"/>
      <path id="Path_772" data-name="Path 772" d="M197.459-22.9h13.847l-16.461-58.58H178.384L161.826-22.9h13.556l3-13.375h16.171ZM180.321-45l6.1-27.6,6.2,27.6Zm67.3-36.485H206.561v9.227H220.6V-22.9h13.653V-72.254h13.362Zm44.445,0H249.554v9.227h14.04V-22.9h13.653V-72.254h13.362Zm21.5-1.354c-11.716,0-17.332,6.434-17.332,13.883,0,5.5,2.033,9.058,8.037,14.56C296.71-49.4,293.127-44.912,293.127-37.8c0,9.566,7.94,16.253,19.463,16.253a24.724,24.724,0,0,0,17.817-7.111l6.681,7.111,10.748-5.079-9.78-8.973a63.688,63.688,0,0,0,7.262-16.169L334.86-54.054a70.678,70.678,0,0,1-3.68,12.529L320.046-53.462c6.584-4.317,10.845-8.8,10.845-15.745C330.89-77.164,324.5-82.836,313.558-82.836Zm.1,7.619c3,0,4.841,1.693,4.841,6.264,0,4.317-1.743,6.6-5.326,9.9-3.292-3.809-4.454-6.01-4.454-9.989C308.716-73.27,310.556-75.217,313.655-75.217Zm-2.324,27.174,12.781,13.8a12.1,12.1,0,0,1-9.2,4.317c-4.841,0-8.134-2.794-8.134-8.381A11.642,11.642,0,0,1,311.331-48.044Zm65.941-34.792c-14.331,0-25.079,9.82-25.079,30.56,0,20.994,10.361,30.729,25.079,30.729a25.653,25.653,0,0,0,17.817-7.2L388.7-35.261c-3.1,2.286-6,4.317-10.458,4.317-7.069,0-11.813-5.5-11.813-21.332,0-16.338,4.841-21.5,11.716-21.5,3.776,0,6.778,1.439,9.877,3.894l6.488-6.688A25.609,25.609,0,0,0,377.272-82.836Zm37.183,1.354H400.7V-22.9h13.75Zm31.76,0H432.561l-17.72,27.343L432.658-22.9h15.009L428.688-55.07ZM43.21-6.235H.7V2.992h14.04V52.345H28.4V2.992H41.758Zm39.41,0H48.245v58.58H82.426v-8.8H62V26.865H78.747V18.23H62V2.485H81.167Zm29.339-1.354c-14.331,0-25.079,9.82-25.079,30.56,0,20.994,10.361,30.729,25.079,30.729a25.653,25.653,0,0,0,17.817-7.2l-6.391-6.518c-3.1,2.286-6,4.317-10.458,4.317-7.069,0-11.813-5.5-11.813-21.332,0-16.338,4.841-21.5,11.716-21.5,3.776,0,6.778,1.439,9.877,3.894l6.488-6.688A25.609,25.609,0,0,0,111.959-7.589Zm52.869,59.934h13.75V-6.235h-13.75V17.129H149.142V-6.235h-13.75v58.58h13.75V26.526h15.686Zm66.909-58.58H219.73V20.177a112.133,112.133,0,0,0,1.937,20.909L205.884-6.235H188.842v58.58h12.007V28.9a172.352,172.352,0,0,0-1.84-23.787L214.7,52.345h17.042Zm24.014,0H242v58.58h13.75ZM300.389,48.7c7.262-3.979,13.556-10.582,13.556-25.65,0-20.571-9.3-30.644-24.982-30.644-15.783,0-24.982,10.412-24.982,30.644,0,20.317,9.393,30.306,24.111,30.306,10.264,0,16.171,4.233,21.109,10.243l8.424-9.058C312.977,50.821,308.135,48.79,300.389,48.7Zm-22.174-25.65c0-16.338,3.583-21.671,10.748-21.671s10.748,5.333,10.748,21.671-3.486,21.671-10.748,21.671C281.895,44.726,278.215,39.393,278.215,23.055Zm86.566-29.29H351.128v41.4c0,6.18-2.324,9.4-8.037,9.4-5.81,0-8.134-3.132-8.134-9.4v-41.4h-13.75v41.9c0,10.328,7.165,17.946,21.883,17.946,14.524,0,21.69-7.957,21.69-17.946Zm43.767,0H374.173v58.58h34.181v-8.8H387.923V26.865h16.751V18.23H387.923V2.485H407.1Zm24.5-1.354c-11.716,0-20.334,6.772-20.334,16.507,0,8.3,4.745,13.206,16.848,17.608,7.65,2.709,9.877,5.248,9.877,9.82,0,4.91-3,8.3-8.811,8.3-5.229,0-9.392-2.2-13.556-5.5l-6.681,6.434c4.938,4.656,11.329,8.127,21.109,8.127,13.75,0,22.174-7.957,22.174-18.2,0-10.328-6-14.56-16.267-18.37-8.521-3.047-10.651-5.248-10.651-9.058,0-3.979,2.808-6.688,7.553-6.688,4.164,0,7.843,1.524,11.62,4.656l6.2-6.264C447.183-4.965,441.276-7.589,433.046-7.589Z" transform="translate(-0.702 82.836)" fill="#fff"/>
    </g>
    <path id="Subtraction_10" data-name="Subtraction 10" d="M71.069,105.117H0V0H71.069V105.115ZM33.714,73.587c1.129,0,1.751.773,1.751,2.175,0,2.331-.963,3.992-5.726,9.875v2.475h9.125l.375-2.65H33.364c4.429-5.185,5.575-7.22,5.575-9.9A4.62,4.62,0,0,0,37.7,72.293a4.9,4.9,0,0,0-3.606-1.356,5.581,5.581,0,0,0-4.825,2.8l1.975,1.5C32.128,74.119,32.725,73.587,33.714,73.587Z" transform="translate(1689.002 7219.581)" fill="#fff"/>
    <path id="Subtraction_12" data-name="Subtraction 12" d="M71.07,55.325H0V0H71.07V55.324ZM31.184,35.316l-1.95,1.716a6.1,6.1,0,0,0,5.044,2.574,5.513,5.513,0,0,0,4.128-1.631A5.442,5.442,0,0,0,39.842,34.2c0-2.5-1.277-3.947-3.8-4.29,2.24-.61,3.328-1.953,3.328-4.108a4.329,4.329,0,0,0-1.3-3.143,5.021,5.021,0,0,0-3.585-1.329A6.675,6.675,0,0,0,29.52,23.59l1.768,1.794a3.682,3.682,0,0,1,2.7-1.429c1.289,0,2.028.824,2.028,2.262,0,1.628-.875,2.6-2.34,2.6h-.7l-.416,2.444h1.093c1.773,0,2.6.884,2.6,2.782a3.272,3.272,0,0,1-.63,2.119,2.018,2.018,0,0,1-1.605.715C32.994,36.876,32.252,36.468,31.184,35.316Z" transform="translate(1850.177 7269.374)" fill="#fff"/>
  </g>
</svg>
