<svg xmlns="http://www.w3.org/2000/svg" width="713" height="55.321" viewBox="0 0 713 55.321">
  <g id="Group_1962" data-name="Group 1962" transform="translate(-1402.999 -7007.316)">
    <path id="Path_774" data-name="Path 774" d="M23.842-5.112h9.406L22.066-50.632H10.883L-.365-5.112H8.844l2.039-10.393H21.868ZM12.2-22.281l4.144-21.444,4.21,21.444ZM58.9-50.632H30.025v7.17h9.538V-5.112h9.275V-43.462h9.078Zm29.206,0H59.231v7.17h9.538V-5.112h9.275V-43.462h9.078Zm14.6-1.052c-7.959,0-11.774,5-11.774,10.788,0,4.276,1.381,7.038,5.46,11.314-5.131,3.881-7.565,7.367-7.565,12.893,0,7.433,5.394,12.63,13.222,12.63a15.744,15.744,0,0,0,12.1-5.525L118.7-4.06,126-8.007l-6.644-6.973a53.184,53.184,0,0,0,4.933-12.564l-7.1-1.776a61.008,61.008,0,0,1-2.5,9.735l-7.565-9.275c4.473-3.355,7.367-6.841,7.367-12.235C114.486-47.277,110.144-51.684,102.711-51.684Zm.066,5.92c2.039,0,3.289,1.316,3.289,4.868,0,3.355-1.184,5.131-3.618,7.7-2.237-2.96-3.026-4.67-3.026-7.762C99.422-44.251,100.672-45.764,102.777-45.764ZM101.2-24.649l8.683,10.722c-1.776,2.171-3.749,3.355-6.249,3.355-3.289,0-5.525-2.171-5.525-6.512A9.6,9.6,0,0,1,101.2-24.649Zm44.8-27.035c-9.735,0-17.037,7.63-17.037,23.746,0,16.313,7.038,23.878,17.037,23.878a16.4,16.4,0,0,0,12.1-5.591l-4.341-5.065c-2.1,1.776-4.078,3.355-7.1,3.355-4.8,0-8.025-4.276-8.025-16.576,0-12.7,3.289-16.708,7.959-16.708,2.565,0,4.6,1.118,6.709,3.026l4.407-5.2A16.171,16.171,0,0,0,145.994-51.684Zm25.259,1.052h-9.341V-5.112h9.341Zm21.576,0h-9.275L171.516-29.385l12.1,24.273h10.2l-12.893-25Zm42.3,0H206.248v7.17h9.538V-5.112h9.275V-43.462h9.078Zm26.772,0H238.545V-5.112h23.22v-6.841H247.886V-24.912h11.38v-6.709h-11.38V-43.856H260.91Zm19.931-1.052c-9.735,0-17.037,7.63-17.037,23.746,0,16.313,7.038,23.878,17.037,23.878a16.4,16.4,0,0,0,12.1-5.591l-4.341-5.065c-2.1,1.776-4.078,3.355-7.1,3.355-4.8,0-8.025-4.276-8.025-16.576,0-12.7,3.289-16.708,7.959-16.708,2.565,0,4.6,1.118,6.71,3.026l4.407-5.2A16.171,16.171,0,0,0,281.828-51.684ZM317.743-5.112h9.341V-50.632h-9.341v18.155H307.087V-50.632h-9.341V-5.112h9.341V-25.175h10.656ZM363.2-50.632H355.04v20.523a99.28,99.28,0,0,0,1.316,16.247L345.634-50.632H334.057V-5.112h8.157V-23.333a152.794,152.794,0,0,0-1.25-18.484l10.656,36.7H363.2Zm16.313,0H370.17V-5.112h9.341ZM409.834-7.941c4.933-3.092,9.209-8.222,9.209-19.931,0-15.984-6.315-23.812-16.971-23.812-10.722,0-16.971,8.091-16.971,23.812,0,15.787,6.381,23.549,16.379,23.549,6.973,0,10.985,3.289,14.34,7.959L421.543-3.4A16.061,16.061,0,0,0,409.834-7.941ZM394.771-27.872c0-12.7,2.434-16.839,7.3-16.839s7.3,4.144,7.3,16.839-2.368,16.839-7.3,16.839C397.271-11.032,394.771-15.177,394.771-27.872Zm58.807-22.76H444.3v32.166c0,4.8-1.579,7.3-5.46,7.3-3.947,0-5.525-2.434-5.525-7.3V-50.632h-9.341v32.561c0,8.025,4.868,13.945,14.866,13.945,9.867,0,14.735-6.183,14.735-13.945Zm29.732,0H459.958V-5.112h23.22v-6.841H469.3V-24.912h11.38v-6.709H469.3V-43.856h13.024Zm16.642-1.052c-7.959,0-13.814,5.262-13.814,12.827,0,6.446,3.223,10.262,11.446,13.682,5.2,2.1,6.71,4.078,6.71,7.63,0,3.815-2.039,6.446-5.986,6.446-3.552,0-6.381-1.71-9.209-4.276l-4.539,5A18.431,18.431,0,0,0,498.9-4.06c9.341,0,15.063-6.183,15.063-14.143,0-8.025-4.078-11.314-11.051-14.274-5.789-2.368-7.236-4.078-7.236-7.038a4.818,4.818,0,0,1,5.131-5.2c2.829,0,5.328,1.184,7.894,3.618l4.21-4.868A16.443,16.443,0,0,0,499.952-51.684Z" transform="translate(1602.036 7059)" fill="#fff"/>
    <g id="Group_1919" data-name="Group 1919" transform="translate(1402.999 7008.244)">
      <path id="Subtraction_13" data-name="Subtraction 13" d="M0,0H21.507V47.135H0Z" transform="translate(24.469 0)" fill="#fff"/>
      <path id="Subtraction_14" data-name="Subtraction 14" d="M0,0H21.507V31.81H0Z" transform="translate(0 15.325)" fill="#fff"/>
      <path id="Subtraction_15" data-name="Subtraction 15" d="M0,0H21.509V16.742H0Z" transform="translate(48.938 30.392)" fill="#fff"/>
    </g>
    <path id="Path_775" data-name="Path 775" d="M29.315-50.632H.438v7.17H9.976V-5.112h9.275V-43.462h9.078Zm16.708-1.052c-10.722,0-16.971,7.894-16.971,23.812C29.052-11.624,35.3-4.06,46.023-4.06s16.971-7.828,16.971-23.812C62.994-44.119,56.679-51.684,46.023-51.684Zm0,6.973c4.868,0,7.3,4.276,7.3,16.839,0,12.761-2.368,16.839-7.3,16.839-4.8,0-7.3-4.078-7.3-16.839C38.722-40.436,41.155-44.711,46.023-44.711Zm33.547-5.92H68.585V-5.112h9.341V-20.834h2.5c10.13,0,16.313-4.868,16.313-15.2C96.739-45.632,90.753-50.632,79.57-50.632Zm.2,23.023H77.926V-43.922H79.9c5.2,0,7.3,2.5,7.3,7.959C87.2-29.78,84.964-27.609,79.768-27.609Z" transform="translate(1492.025 7059)" fill="#87deff"/>
  </g>
</svg>
