<svg xmlns="http://www.w3.org/2000/svg" width="791.268" height="61.393" viewBox="0 0 791.268 61.393">
  <g id="Group_1877" data-name="Group 1877" transform="translate(-1402.999 -7007.316)">
    <path id="Path_774" data-name="Path 774" d="M26.5,0H36.938L24.528-50.516H12.118L-.365,0H9.855l2.263-11.534H24.309ZM13.578-19.053l4.6-23.8,4.672,23.8Zm50.83-31.463H33.361v7.957H43.946V0H54.239V-42.559H64.313Zm33.412,0H65.773v7.957H76.358V0H86.651V-42.559H96.725Zm16.206-1.168c-8.833,0-13.067,5.548-13.067,11.972,0,4.745,1.533,7.811,6.059,12.556-5.694,4.307-8.4,8.176-8.4,14.308,0,8.249,5.986,14.016,14.673,14.016,5.256,0,9.563-1.971,13.432-6.132l5.037,6.132,8.1-4.38-7.373-7.738a59.022,59.022,0,0,0,5.475-13.943l-7.884-1.971a67.705,67.705,0,0,1-2.774,10.8l-8.395-10.293c4.964-3.723,8.176-7.592,8.176-13.578C127.093-46.793,122.275-51.684,114.026-51.684Zm.073,6.57c2.263,0,3.65,1.46,3.65,5.4,0,3.723-1.314,5.694-4.015,8.541-2.482-3.285-3.358-5.183-3.358-8.614C110.376-43.435,111.763-45.114,114.1-45.114Zm-1.752,23.433,9.636,11.9c-1.971,2.409-4.161,3.723-6.935,3.723-3.65,0-6.132-2.409-6.132-7.227A10.659,10.659,0,0,1,112.347-21.681Zm49.713-30c-10.8,0-18.907,8.468-18.907,26.353,0,18.1,7.811,26.5,18.907,26.5a18.2,18.2,0,0,0,13.432-6.2l-4.818-5.621c-2.336,1.971-4.526,3.723-7.884,3.723-5.329,0-8.906-4.745-8.906-18.4,0-14.089,3.65-18.542,8.833-18.542,2.847,0,5.11,1.241,7.446,3.358l4.891-5.767A17.946,17.946,0,0,0,162.06-51.684Zm28.032,1.168H179.726V0h10.366Zm23.944,0H203.743L190.384-26.937,203.816,0h11.315L200.823-27.74Zm46.939,0H228.928v7.957h10.585V0h10.293V-42.559H259.88Zm29.711,0H264.771V0H290.54V-7.592h-15.4V-21.973h12.629v-7.446H275.137V-43h14.454Zm22.119-1.168c-10.8,0-18.907,8.468-18.907,26.353,0,18.1,7.811,26.5,18.907,26.5a18.2,18.2,0,0,0,13.432-6.2l-4.818-5.621c-2.336,1.971-4.526,3.723-7.884,3.723-5.329,0-8.906-4.745-8.906-18.4,0-14.089,3.65-18.542,8.833-18.542,2.847,0,5.11,1.241,7.446,3.358l4.891-5.767A17.946,17.946,0,0,0,312.805-51.684ZM352.663,0h10.366V-50.516H352.663v20.148H340.837V-50.516H330.471V0h10.366V-22.265h11.826Zm50.443-50.516h-9.052V-27.74a110.177,110.177,0,0,0,1.46,18.031l-11.9-40.807H370.767V0h9.052V-20.221a169.561,169.561,0,0,0-1.387-20.513L390.258,0h12.848Zm18.1,0H410.844V0H421.21ZM454.863-3.139c5.475-3.431,10.22-9.125,10.22-22.119,0-17.739-7.008-26.426-18.834-26.426-11.9,0-18.834,8.979-18.834,26.426,0,17.52,7.081,26.134,18.177,26.134,7.738,0,12.191,3.65,15.914,8.833L467.857,1.9A17.824,17.824,0,0,0,454.863-3.139ZM438.146-25.258c0-14.089,2.7-18.688,8.1-18.688s8.1,4.6,8.1,18.688-2.628,18.688-8.1,18.688C440.92-6.57,438.146-11.169,438.146-25.258Zm65.262-25.258H493.115v35.7c0,5.329-1.752,8.1-6.059,8.1-4.38,0-6.132-2.7-6.132-8.1v-35.7H470.558v36.135c0,8.906,5.4,15.476,16.5,15.476,10.95,0,16.352-6.862,16.352-15.476Zm33,0H510.489V0h25.769V-7.592h-15.4V-21.973h12.629v-7.446H520.855V-43h14.454Zm18.469-1.168c-8.833,0-15.33,5.84-15.33,14.235,0,7.154,3.577,11.388,12.7,15.184,5.767,2.336,7.446,4.526,7.446,8.468,0,4.234-2.263,7.154-6.643,7.154-3.942,0-7.081-1.9-10.22-4.745L537.791-5.84a20.455,20.455,0,0,0,15.914,7.008c10.366,0,16.717-6.862,16.717-15.7,0-8.906-4.526-12.556-12.264-15.841-6.424-2.628-8.03-4.526-8.03-7.811,0-3.431,2.117-5.767,5.694-5.767,3.139,0,5.913,1.314,8.76,4.015l4.672-5.4A18.248,18.248,0,0,0,554.873-51.684Z" transform="translate(1623.845 7059)" fill="#fff"/>
    <g id="Group_1919" data-name="Group 1919" transform="translate(335.84 4518.241)">
      <path id="Subtraction_13" data-name="Subtraction 13" d="M0,0H23.868V52.309H0Z" transform="translate(1094.314 2490.104)" fill="#fff"/>
      <path id="Subtraction_14" data-name="Subtraction 14" d="M0,0H23.868V35.3H0Z" transform="translate(1067.159 2507.112)" fill="#fff"/>
      <path id="Subtraction_15" data-name="Subtraction 15" d="M0,0H23.87v18.58H0Z" transform="translate(1121.47 2523.833)" fill="#fff"/>
    </g>
    <path id="Path_775" data-name="Path 775" d="M32.485-50.516H.438v7.957H11.023V0H21.316V-42.559H31.39Zm18.542-1.168c-11.9,0-18.834,8.76-18.834,26.426,0,18.031,6.935,26.426,18.834,26.426S69.861-7.519,69.861-25.258C69.861-43.289,62.853-51.684,51.027-51.684Zm0,7.738c5.4,0,8.1,4.745,8.1,18.688C59.13-11.1,56.5-6.57,51.027-6.57c-5.329,0-8.1-4.526-8.1-18.688C42.924-39.2,45.625-43.946,51.027-43.946Zm37.23-6.57H76.066V0H86.432V-17.447h2.774c11.242,0,18.1-5.4,18.1-16.863C107.31-44.968,100.667-50.516,88.257-50.516Zm.219,25.55H86.432v-18.1h2.19c5.767,0,8.1,2.774,8.1,8.833C96.725-27.375,94.243-24.966,88.476-24.966Z" transform="translate(1501.846 7059)" fill="#bca9dd"/>
  </g>
</svg>
