<svg xmlns="http://www.w3.org/2000/svg" width="861.525" height="202.397" viewBox="0 0 861.525 202.397">
  <g id="Group_1924" data-name="Group 1924" transform="translate(-1689.002 -7190.003)">
    <path id="Subtraction_11" data-name="Subtraction 11" d="M85.874,188.2H0V0H85.874V188.2ZM42.4,154v18.865H47.02v-23.59H42.785L36.17,154l2.135,3.046L42.4,154Z" transform="translate(1786.376 7190.004)" fill="#fff"/>
    <g id="Group_1918" data-name="Group 1918" transform="translate(609.999 -208.854)">
      <path id="Path_773" data-name="Path 773" d="M52.065-80.964H.7v12.753H17.667V0h16.5V-68.211H50.31Zm29.718-1.872C62.712-82.836,51.6-68.8,51.6-40.482c0,28.9,11.115,42.354,30.186,42.354s30.186-13.923,30.186-42.354C111.969-69.381,100.737-82.836,81.783-82.836Zm0,12.4c8.658,0,12.987,7.6,12.987,29.952,0,22.7-4.212,29.952-12.987,29.952-8.541,0-12.987-7.254-12.987-29.952C68.8-62.829,73.125-70.434,81.783-70.434Zm59.67-10.53H121.914V0h16.614V-27.963h4.446c18.018,0,29.016-8.658,29.016-27.027C171.99-72.072,161.343-80.964,141.453-80.964Zm.351,40.95h-3.276V-69.03h3.51c9.243,0,12.987,4.446,12.987,14.157C155.025-43.875,151.047-40.014,141.8-40.014Z" transform="translate(1392.5 7481.693)" fill="#bca9dd"/>
      <path id="Path_772" data-name="Path 772" d="M238.446,0h16.731l-19.89-80.964H215.4L195.39,0h16.38L215.4-18.486h19.539ZM217.737-30.537l7.371-38.142L232.6-30.537Zm81.315-50.427H249.444v12.753h16.965V0h16.5V-68.211h16.146Zm53.7,0H301.392v12.753h16.965V0h16.5V-68.211H351Zm25.974-1.872c-14.157,0-20.943,8.892-20.943,19.188,0,7.605,2.457,12.519,9.711,20.124-9.126,6.9-13.455,13.1-13.455,22.932,0,13.221,9.594,22.464,23.517,22.464,8.424,0,15.327-3.159,21.528-9.828l8.073,9.828,12.987-7.02L408.33-17.55A94.6,94.6,0,0,0,417.105-39.9l-12.636-3.159a108.515,108.515,0,0,1-4.446,17.316l-13.455-16.5c7.956-5.967,13.1-12.168,13.1-21.762C399.672-75,391.95-82.836,378.729-82.836Zm.117,10.53c3.627,0,5.85,2.34,5.85,8.658,0,5.967-2.106,9.126-6.435,13.689-3.978-5.265-5.382-8.307-5.382-13.806C372.879-69.615,375.1-72.306,378.846-72.306Zm-2.808,37.557,15.444,19.071c-3.159,3.861-6.669,5.967-11.115,5.967-5.85,0-9.828-3.861-9.828-11.583C370.539-27.027,372.177-31,376.038-34.749Zm79.677-48.087c-17.316,0-30.3,13.572-30.3,42.237,0,29.016,12.519,42.471,30.3,42.471,9.594,0,16.731-4.8,21.528-9.945l-7.722-9.009c-3.744,3.159-7.254,5.967-12.636,5.967-8.541,0-14.274-7.6-14.274-29.484,0-22.581,5.85-29.718,14.157-29.718,4.563,0,8.19,1.989,11.934,5.382l7.839-9.243C470.808-79.56,464.49-82.836,455.715-82.836Zm44.928,1.872H484.029V0h16.614Zm38.376,0h-16.5L501.111-43.173,522.639,0h18.135L517.842-44.46Zm-486.954,104H.7V35.789H17.667V104h16.5V35.789H50.31Zm47.619,0H58.149V104h41.3V91.832H74.763V68.783H95V56.849H74.763V35.087H97.929Zm35.451-1.872c-17.316,0-30.3,13.572-30.3,42.237,0,29.016,12.519,42.471,30.3,42.471,9.594,0,16.731-4.8,21.528-9.945l-7.722-9.009c-3.744,3.159-7.254,5.967-12.636,5.967-8.541,0-14.274-7.605-14.274-29.484,0-22.581,5.85-29.718,14.157-29.718,4.563,0,8.19,1.989,11.934,5.382l7.839-9.243C150.228,24.44,143.91,21.164,135.135,21.164ZM199.017,104h16.614V23.036H199.017V55.328H180.063V23.036H163.449V104h16.614V68.315h18.954Zm80.847-80.964H265.356v36.5a176.59,176.59,0,0,0,2.34,28.9l-19.071-65.4H228.033V104h14.508V71.591a271.767,271.767,0,0,0-2.223-32.877L259.272,104h20.592Zm29.016,0H292.266V104H308.88Zm53.937,75.933c8.775-5.5,16.38-14.625,16.38-35.451,0-28.431-11.232-42.354-30.186-42.354-19.071,0-30.186,14.391-30.186,42.354,0,28.08,11.349,41.886,29.133,41.886,12.4,0,19.539,5.85,25.506,14.157l10.179-12.519C378.027,101.894,372.177,99.086,362.817,98.969ZM336.024,63.518c0-22.581,4.329-29.952,12.987-29.952S362,40.937,362,63.518,357.786,93.47,349.011,93.47C340.47,93.47,336.024,86.1,336.024,63.518Zm104.6-40.482h-16.5V80.249c0,8.541-2.808,12.987-9.711,12.987-7.02,0-9.828-4.329-9.828-12.987V23.036H387.972V80.951c0,14.274,8.658,24.8,26.442,24.8,17.55,0,26.208-11,26.208-24.8Zm52.884,0H451.971V104h41.3V91.832H468.585V68.783h20.241V56.849H468.585V35.087h23.166Zm29.6-1.872c-14.157,0-24.57,9.36-24.57,22.815,0,11.466,5.733,18.252,20.358,24.336,9.243,3.744,11.934,7.254,11.934,13.572,0,6.786-3.627,11.466-10.647,11.466-6.318,0-11.349-3.042-16.38-7.6l-8.073,8.892c5.967,6.435,13.689,11.232,25.506,11.232,16.614,0,26.793-11,26.793-25.155,0-14.274-7.254-20.124-19.656-25.389-10.3-4.212-12.87-7.254-12.87-12.519,0-5.5,3.393-9.243,9.126-9.243,5.031,0,9.477,2.106,14.04,6.435l7.488-8.658A29.246,29.246,0,0,0,523.107,21.164Z" transform="translate(1392.5 7481.693)" fill="#fff"/>
    </g>
    <path id="Subtraction_10" data-name="Subtraction 10" d="M85.874,127.013H0V0H85.874V127.012ZM41.4,90.922a2.149,2.149,0,0,1,1.738.739,3.389,3.389,0,0,1,.642,2.218c0,3.171-1.31,5.43-7.786,13.431v3.366H48.4l.51-3.6h-7.99A54.955,54.955,0,0,0,46.956,99.1a10.4,10.4,0,0,0,1.547-5.5,6.283,6.283,0,0,0-1.692-4.445,6.659,6.659,0,0,0-4.9-1.845,7.6,7.6,0,0,0-6.562,3.808l2.686,2.04C39.24,91.645,40.053,90.922,41.4,90.922Z" transform="translate(1689.002 7251.195)" fill="#fff"/>
    <path id="Subtraction_12" data-name="Subtraction 12" d="M85.874,66.849H0V0H85.874V66.848ZM37.931,46.139l-2.625,2.309a8.21,8.21,0,0,0,6.79,3.465,7.424,7.424,0,0,0,5.557-2.2,7.323,7.323,0,0,0,1.934-5.083,5.72,5.72,0,0,0-1.4-4.1,6.106,6.106,0,0,0-3.71-1.68c3.015-.822,4.48-2.63,4.48-5.531A5.826,5.826,0,0,0,47.2,29.1a6.759,6.759,0,0,0-4.826-1.789,8.986,8.986,0,0,0-6.685,3.045l2.38,2.415a4.962,4.962,0,0,1,3.64-1.925c1.735,0,2.73,1.11,2.73,3.046,0,2.192-1.178,3.5-3.15,3.5h-.945l-.56,3.29h1.47a3.506,3.506,0,0,1,2.577.836,3.912,3.912,0,0,1,.923,2.909,4.4,4.4,0,0,1-.849,2.853,2.717,2.717,0,0,1-2.161.963c-1.38,0-2.379-.549-3.815-2.1h0Z" transform="translate(1883.751 7311.359)" fill="#fff"/>
  </g>
</svg>
