<svg xmlns="http://www.w3.org/2000/svg" width="547.326" height="603.25" viewBox="0 0 547.326 603.25">
  <g id="Group_1878" data-name="Group 1878" transform="translate(-1393.201 -7007.004)">
    <path id="Subtraction_11" data-name="Subtraction 11" d="M19629.5,26713.7h-167v-366h167v366h0v0h0Zm-84.191-66.734v37.732h9.238v-47.178h-8.467l-13.234,9.445,4.271,6.094,8.189-6.092Z" transform="translate(-17879.137 -19340.693)" fill="#fff"/>
    <g id="Group_1918" data-name="Group 1918" transform="translate(-0.001 9)">
      <path id="Path_773" data-name="Path 773" d="M52.065-80.964H.7v12.753H17.667V0h16.5V-68.211H50.31Zm29.718-1.872C62.712-82.836,51.6-68.8,51.6-40.482c0,28.9,11.115,42.354,30.186,42.354s30.186-13.923,30.186-42.354C111.969-69.381,100.737-82.836,81.783-82.836Zm0,12.4c8.658,0,12.987,7.6,12.987,29.952,0,22.7-4.212,29.952-12.987,29.952-8.541,0-12.987-7.254-12.987-29.952C68.8-62.829,73.125-70.434,81.783-70.434Zm59.67-10.53H121.914V0h16.614V-27.963h4.446c18.018,0,29.016-8.658,29.016-27.027C171.99-72.072,161.343-80.964,141.453-80.964Zm.351,40.95h-3.276V-69.03h3.51c9.243,0,12.987,4.446,12.987,14.157C155.025-43.875,151.047-40.014,141.8-40.014Z" transform="translate(1392.5 7481.693)" fill="#bca9dd"/>
      <path id="Path_772" data-name="Path 772" d="M238.446,0h16.731l-19.89-80.964H215.4L195.39,0h16.38L215.4-18.486h19.539ZM217.737-30.537l7.371-38.142L232.6-30.537Zm81.315-50.427H249.444v12.753h16.965V0h16.5V-68.211h16.146Zm53.7,0H301.392v12.753h16.965V0h16.5V-68.211H351Zm25.974-1.872c-14.157,0-20.943,8.892-20.943,19.188,0,7.605,2.457,12.519,9.711,20.124-9.126,6.9-13.455,13.1-13.455,22.932,0,13.221,9.594,22.464,23.517,22.464,8.424,0,15.327-3.159,21.528-9.828l8.073,9.828,12.987-7.02L408.33-17.55A94.6,94.6,0,0,0,417.105-39.9l-12.636-3.159a108.515,108.515,0,0,1-4.446,17.316l-13.455-16.5c7.956-5.967,13.1-12.168,13.1-21.762C399.672-75,391.95-82.836,378.729-82.836Zm.117,10.53c3.627,0,5.85,2.34,5.85,8.658,0,5.967-2.106,9.126-6.435,13.689-3.978-5.265-5.382-8.307-5.382-13.806C372.879-69.615,375.1-72.306,378.846-72.306Zm-2.808,37.557,15.444,19.071c-3.159,3.861-6.669,5.967-11.115,5.967-5.85,0-9.828-3.861-9.828-11.583C370.539-27.027,372.177-31,376.038-34.749Zm79.677-48.087c-17.316,0-30.3,13.572-30.3,42.237,0,29.016,12.519,42.471,30.3,42.471,9.594,0,16.731-4.8,21.528-9.945l-7.722-9.009c-3.744,3.159-7.254,5.967-12.636,5.967-8.541,0-14.274-7.6-14.274-29.484,0-22.581,5.85-29.718,14.157-29.718,4.563,0,8.19,1.989,11.934,5.382l7.839-9.243C470.808-79.56,464.49-82.836,455.715-82.836Zm44.928,1.872H484.029V0h16.614Zm38.376,0h-16.5L501.111-43.173,522.639,0h18.135L517.842-44.46Zm-486.954,104H.7V35.789H17.667V104h16.5V35.789H50.31Zm47.619,0H58.149V104h41.3V91.832H74.763V68.783H95V56.849H74.763V35.087H97.929Zm35.451-1.872c-17.316,0-30.3,13.572-30.3,42.237,0,29.016,12.519,42.471,30.3,42.471,9.594,0,16.731-4.8,21.528-9.945l-7.722-9.009c-3.744,3.159-7.254,5.967-12.636,5.967-8.541,0-14.274-7.605-14.274-29.484,0-22.581,5.85-29.718,14.157-29.718,4.563,0,8.19,1.989,11.934,5.382l7.839-9.243C150.228,24.44,143.91,21.164,135.135,21.164ZM199.017,104h16.614V23.036H199.017V55.328H180.063V23.036H163.449V104h16.614V68.315h18.954Zm80.847-80.964H265.356v36.5a176.59,176.59,0,0,0,2.34,28.9l-19.071-65.4H228.033V104h14.508V71.591a271.767,271.767,0,0,0-2.223-32.877L259.272,104h20.592Zm29.016,0H292.266V104H308.88Zm53.937,75.933c8.775-5.5,16.38-14.625,16.38-35.451,0-28.431-11.232-42.354-30.186-42.354-19.071,0-30.186,14.391-30.186,42.354,0,28.08,11.349,41.886,29.133,41.886,12.4,0,19.539,5.85,25.506,14.157l10.179-12.519C378.027,101.894,372.177,99.086,362.817,98.969ZM336.024,63.518c0-22.581,4.329-29.952,12.987-29.952S362,40.937,362,63.518,357.786,93.47,349.011,93.47C340.47,93.47,336.024,86.1,336.024,63.518Zm104.6-40.482h-16.5V80.249c0,8.541-2.808,12.987-9.711,12.987-7.02,0-9.828-4.329-9.828-12.987V23.036H387.972V80.951c0,14.274,8.658,24.8,26.442,24.8,17.55,0,26.208-11,26.208-24.8Zm52.884,0H451.971V104h41.3V91.832H468.585V68.783h20.241V56.849H468.585V35.087h23.166Zm29.6-1.872c-14.157,0-24.57,9.36-24.57,22.815,0,11.466,5.733,18.252,20.358,24.336,9.243,3.744,11.934,7.254,11.934,13.572,0,6.786-3.627,11.466-10.647,11.466-6.318,0-11.349-3.042-16.38-7.6l-8.073,8.892c5.967,6.435,13.689,11.232,25.506,11.232,16.614,0,26.793-11,26.793-25.155,0-14.274-7.254-20.124-19.656-25.389-10.3-4.212-12.87-7.254-12.87-12.519,0-5.5,3.393-9.243,9.126-9.243,5.031,0,9.477,2.106,14.04,6.435l7.488-8.658A29.246,29.246,0,0,0,523.107,21.164Z" transform="translate(1392.5 7481.693)" fill="#fff"/>
    </g>
    <path id="Subtraction_10" data-name="Subtraction 10" d="M19629.5,26594.7h-167v-247.006h167v247h0v0h0Zm-85.824-69.674a4.434,4.434,0,0,1,3.582,1.523,6.964,6.964,0,0,1,1.324,4.57c0,6.527-2.7,11.178-16.031,27.646v6.934h25.549l1.049-7.422H19542.7c6.607-7.74,10.207-12.494,12.424-16.406a21.413,21.413,0,0,0,3.188-11.312,14.261,14.261,0,0,0-.881-5.037,11.832,11.832,0,0,0-2.6-4.119,13.714,13.714,0,0,0-10.1-3.8c-5.547,0-10.09,2.639-13.508,7.844l5.525,4.2C19539.238,26526.512,19540.912,26525.021,19543.676,26525.021Z" transform="translate(-18068.5 -19221.693)" fill="#fff"/>
    <path id="Subtraction_12" data-name="Subtraction 12" d="M19629.5,26477.7h-167v-130h167v130h0v0h0Zm-93.1-39.736-5.248,4.617a19.664,19.664,0,0,0,5.951,5.145,15.872,15.872,0,0,0,7.631,1.785,14.848,14.848,0,0,0,11.113-4.391,14.654,14.654,0,0,0,3.863-10.168c0-3.486-.941-6.242-2.8-8.193a12.209,12.209,0,0,0-7.42-3.355c6.027-1.646,8.957-5.264,8.957-11.064a11.646,11.646,0,0,0-3.506-8.457,13.519,13.519,0,0,0-9.65-3.576,17.01,17.01,0,0,0-7.16,1.547,20.846,20.846,0,0,0-6.211,4.539l4.758,4.83c2.365-2.588,4.748-3.846,7.283-3.846,3.467,0,5.455,2.219,5.455,6.086a7.425,7.425,0,0,1-1.758,5.23,6.05,6.05,0,0,1-4.541,1.768h-1.887l-1.123,6.584h2.943c2.33,0,4.016.547,5.152,1.67,1.242,1.221,1.846,3.125,1.846,5.82a8.787,8.787,0,0,1-1.7,5.7,5.426,5.426,0,0,1-4.322,1.926C19540.91,26442.156,19538.869,26440.617,19536.4,26437.959Z" transform="translate(-17689.771 -19104.693)" fill="#fff"/>
  </g>
</svg>
